G04 #@! TF.GenerationSoftware,KiCad,Pcbnew,5.1.6*
G04 #@! TF.CreationDate,2020-06-22T00:18:59+03:00*
G04 #@! TF.ProjectId,nanopicore_debug,6e616e6f-7069-4636-9f72-655f64656275,rev?*
G04 #@! TF.SameCoordinates,Original*
G04 #@! TF.FileFunction,Soldermask,Bot*
G04 #@! TF.FilePolarity,Negative*
%FSLAX46Y46*%
G04 Gerber Fmt 4.6, Leading zero omitted, Abs format (unit mm)*
G04 Created by KiCad (PCBNEW 5.1.6) date 2020-06-22 00:18:59*
%MOMM*%
%LPD*%
G01*
G04 APERTURE LIST*
%ADD10C,0.100000*%
G04 APERTURE END LIST*
D10*
G36*
X80123512Y-80383927D02*
G01*
X80272812Y-80413624D01*
X80436784Y-80481544D01*
X80584354Y-80580147D01*
X80709853Y-80705646D01*
X80808456Y-80853216D01*
X80876376Y-81017188D01*
X80911000Y-81191259D01*
X80911000Y-81368741D01*
X80876376Y-81542812D01*
X80808456Y-81706784D01*
X80709853Y-81854354D01*
X80584354Y-81979853D01*
X80436784Y-82078456D01*
X80272812Y-82146376D01*
X80123512Y-82176073D01*
X80098742Y-82181000D01*
X79921258Y-82181000D01*
X79896488Y-82176073D01*
X79747188Y-82146376D01*
X79583216Y-82078456D01*
X79435646Y-81979853D01*
X79310147Y-81854354D01*
X79211544Y-81706784D01*
X79143624Y-81542812D01*
X79109000Y-81368741D01*
X79109000Y-81191259D01*
X79143624Y-81017188D01*
X79211544Y-80853216D01*
X79310147Y-80705646D01*
X79435646Y-80580147D01*
X79583216Y-80481544D01*
X79747188Y-80413624D01*
X79896488Y-80383927D01*
X79921258Y-80379000D01*
X80098742Y-80379000D01*
X80123512Y-80383927D01*
G37*
G36*
X97903512Y-80383927D02*
G01*
X98052812Y-80413624D01*
X98216784Y-80481544D01*
X98364354Y-80580147D01*
X98489853Y-80705646D01*
X98588456Y-80853216D01*
X98656376Y-81017188D01*
X98691000Y-81191259D01*
X98691000Y-81368741D01*
X98656376Y-81542812D01*
X98588456Y-81706784D01*
X98489853Y-81854354D01*
X98364354Y-81979853D01*
X98216784Y-82078456D01*
X98052812Y-82146376D01*
X97903512Y-82176073D01*
X97878742Y-82181000D01*
X97701258Y-82181000D01*
X97676488Y-82176073D01*
X97527188Y-82146376D01*
X97363216Y-82078456D01*
X97215646Y-81979853D01*
X97090147Y-81854354D01*
X96991544Y-81706784D01*
X96923624Y-81542812D01*
X96889000Y-81368741D01*
X96889000Y-81191259D01*
X96923624Y-81017188D01*
X96991544Y-80853216D01*
X97090147Y-80705646D01*
X97215646Y-80580147D01*
X97363216Y-80481544D01*
X97527188Y-80413624D01*
X97676488Y-80383927D01*
X97701258Y-80379000D01*
X97878742Y-80379000D01*
X97903512Y-80383927D01*
G37*
G36*
X95363512Y-80383927D02*
G01*
X95512812Y-80413624D01*
X95676784Y-80481544D01*
X95824354Y-80580147D01*
X95949853Y-80705646D01*
X96048456Y-80853216D01*
X96116376Y-81017188D01*
X96151000Y-81191259D01*
X96151000Y-81368741D01*
X96116376Y-81542812D01*
X96048456Y-81706784D01*
X95949853Y-81854354D01*
X95824354Y-81979853D01*
X95676784Y-82078456D01*
X95512812Y-82146376D01*
X95363512Y-82176073D01*
X95338742Y-82181000D01*
X95161258Y-82181000D01*
X95136488Y-82176073D01*
X94987188Y-82146376D01*
X94823216Y-82078456D01*
X94675646Y-81979853D01*
X94550147Y-81854354D01*
X94451544Y-81706784D01*
X94383624Y-81542812D01*
X94349000Y-81368741D01*
X94349000Y-81191259D01*
X94383624Y-81017188D01*
X94451544Y-80853216D01*
X94550147Y-80705646D01*
X94675646Y-80580147D01*
X94823216Y-80481544D01*
X94987188Y-80413624D01*
X95136488Y-80383927D01*
X95161258Y-80379000D01*
X95338742Y-80379000D01*
X95363512Y-80383927D01*
G37*
G36*
X92823512Y-80383927D02*
G01*
X92972812Y-80413624D01*
X93136784Y-80481544D01*
X93284354Y-80580147D01*
X93409853Y-80705646D01*
X93508456Y-80853216D01*
X93576376Y-81017188D01*
X93611000Y-81191259D01*
X93611000Y-81368741D01*
X93576376Y-81542812D01*
X93508456Y-81706784D01*
X93409853Y-81854354D01*
X93284354Y-81979853D01*
X93136784Y-82078456D01*
X92972812Y-82146376D01*
X92823512Y-82176073D01*
X92798742Y-82181000D01*
X92621258Y-82181000D01*
X92596488Y-82176073D01*
X92447188Y-82146376D01*
X92283216Y-82078456D01*
X92135646Y-81979853D01*
X92010147Y-81854354D01*
X91911544Y-81706784D01*
X91843624Y-81542812D01*
X91809000Y-81368741D01*
X91809000Y-81191259D01*
X91843624Y-81017188D01*
X91911544Y-80853216D01*
X92010147Y-80705646D01*
X92135646Y-80580147D01*
X92283216Y-80481544D01*
X92447188Y-80413624D01*
X92596488Y-80383927D01*
X92621258Y-80379000D01*
X92798742Y-80379000D01*
X92823512Y-80383927D01*
G37*
G36*
X100443512Y-80383927D02*
G01*
X100592812Y-80413624D01*
X100756784Y-80481544D01*
X100904354Y-80580147D01*
X101029853Y-80705646D01*
X101128456Y-80853216D01*
X101196376Y-81017188D01*
X101231000Y-81191259D01*
X101231000Y-81368741D01*
X101196376Y-81542812D01*
X101128456Y-81706784D01*
X101029853Y-81854354D01*
X100904354Y-81979853D01*
X100756784Y-82078456D01*
X100592812Y-82146376D01*
X100443512Y-82176073D01*
X100418742Y-82181000D01*
X100241258Y-82181000D01*
X100216488Y-82176073D01*
X100067188Y-82146376D01*
X99903216Y-82078456D01*
X99755646Y-81979853D01*
X99630147Y-81854354D01*
X99531544Y-81706784D01*
X99463624Y-81542812D01*
X99429000Y-81368741D01*
X99429000Y-81191259D01*
X99463624Y-81017188D01*
X99531544Y-80853216D01*
X99630147Y-80705646D01*
X99755646Y-80580147D01*
X99903216Y-80481544D01*
X100067188Y-80413624D01*
X100216488Y-80383927D01*
X100241258Y-80379000D01*
X100418742Y-80379000D01*
X100443512Y-80383927D01*
G37*
G36*
X90283512Y-80383927D02*
G01*
X90432812Y-80413624D01*
X90596784Y-80481544D01*
X90744354Y-80580147D01*
X90869853Y-80705646D01*
X90968456Y-80853216D01*
X91036376Y-81017188D01*
X91071000Y-81191259D01*
X91071000Y-81368741D01*
X91036376Y-81542812D01*
X90968456Y-81706784D01*
X90869853Y-81854354D01*
X90744354Y-81979853D01*
X90596784Y-82078456D01*
X90432812Y-82146376D01*
X90283512Y-82176073D01*
X90258742Y-82181000D01*
X90081258Y-82181000D01*
X90056488Y-82176073D01*
X89907188Y-82146376D01*
X89743216Y-82078456D01*
X89595646Y-81979853D01*
X89470147Y-81854354D01*
X89371544Y-81706784D01*
X89303624Y-81542812D01*
X89269000Y-81368741D01*
X89269000Y-81191259D01*
X89303624Y-81017188D01*
X89371544Y-80853216D01*
X89470147Y-80705646D01*
X89595646Y-80580147D01*
X89743216Y-80481544D01*
X89907188Y-80413624D01*
X90056488Y-80383927D01*
X90081258Y-80379000D01*
X90258742Y-80379000D01*
X90283512Y-80383927D01*
G37*
G36*
X87743512Y-80383927D02*
G01*
X87892812Y-80413624D01*
X88056784Y-80481544D01*
X88204354Y-80580147D01*
X88329853Y-80705646D01*
X88428456Y-80853216D01*
X88496376Y-81017188D01*
X88531000Y-81191259D01*
X88531000Y-81368741D01*
X88496376Y-81542812D01*
X88428456Y-81706784D01*
X88329853Y-81854354D01*
X88204354Y-81979853D01*
X88056784Y-82078456D01*
X87892812Y-82146376D01*
X87743512Y-82176073D01*
X87718742Y-82181000D01*
X87541258Y-82181000D01*
X87516488Y-82176073D01*
X87367188Y-82146376D01*
X87203216Y-82078456D01*
X87055646Y-81979853D01*
X86930147Y-81854354D01*
X86831544Y-81706784D01*
X86763624Y-81542812D01*
X86729000Y-81368741D01*
X86729000Y-81191259D01*
X86763624Y-81017188D01*
X86831544Y-80853216D01*
X86930147Y-80705646D01*
X87055646Y-80580147D01*
X87203216Y-80481544D01*
X87367188Y-80413624D01*
X87516488Y-80383927D01*
X87541258Y-80379000D01*
X87718742Y-80379000D01*
X87743512Y-80383927D01*
G37*
G36*
X85203512Y-80383927D02*
G01*
X85352812Y-80413624D01*
X85516784Y-80481544D01*
X85664354Y-80580147D01*
X85789853Y-80705646D01*
X85888456Y-80853216D01*
X85956376Y-81017188D01*
X85991000Y-81191259D01*
X85991000Y-81368741D01*
X85956376Y-81542812D01*
X85888456Y-81706784D01*
X85789853Y-81854354D01*
X85664354Y-81979853D01*
X85516784Y-82078456D01*
X85352812Y-82146376D01*
X85203512Y-82176073D01*
X85178742Y-82181000D01*
X85001258Y-82181000D01*
X84976488Y-82176073D01*
X84827188Y-82146376D01*
X84663216Y-82078456D01*
X84515646Y-81979853D01*
X84390147Y-81854354D01*
X84291544Y-81706784D01*
X84223624Y-81542812D01*
X84189000Y-81368741D01*
X84189000Y-81191259D01*
X84223624Y-81017188D01*
X84291544Y-80853216D01*
X84390147Y-80705646D01*
X84515646Y-80580147D01*
X84663216Y-80481544D01*
X84827188Y-80413624D01*
X84976488Y-80383927D01*
X85001258Y-80379000D01*
X85178742Y-80379000D01*
X85203512Y-80383927D01*
G37*
G36*
X82663512Y-80383927D02*
G01*
X82812812Y-80413624D01*
X82976784Y-80481544D01*
X83124354Y-80580147D01*
X83249853Y-80705646D01*
X83348456Y-80853216D01*
X83416376Y-81017188D01*
X83451000Y-81191259D01*
X83451000Y-81368741D01*
X83416376Y-81542812D01*
X83348456Y-81706784D01*
X83249853Y-81854354D01*
X83124354Y-81979853D01*
X82976784Y-82078456D01*
X82812812Y-82146376D01*
X82663512Y-82176073D01*
X82638742Y-82181000D01*
X82461258Y-82181000D01*
X82436488Y-82176073D01*
X82287188Y-82146376D01*
X82123216Y-82078456D01*
X81975646Y-81979853D01*
X81850147Y-81854354D01*
X81751544Y-81706784D01*
X81683624Y-81542812D01*
X81649000Y-81368741D01*
X81649000Y-81191259D01*
X81683624Y-81017188D01*
X81751544Y-80853216D01*
X81850147Y-80705646D01*
X81975646Y-80580147D01*
X82123216Y-80481544D01*
X82287188Y-80413624D01*
X82436488Y-80383927D01*
X82461258Y-80379000D01*
X82638742Y-80379000D01*
X82663512Y-80383927D01*
G37*
G36*
X77583512Y-80383927D02*
G01*
X77732812Y-80413624D01*
X77896784Y-80481544D01*
X78044354Y-80580147D01*
X78169853Y-80705646D01*
X78268456Y-80853216D01*
X78336376Y-81017188D01*
X78371000Y-81191259D01*
X78371000Y-81368741D01*
X78336376Y-81542812D01*
X78268456Y-81706784D01*
X78169853Y-81854354D01*
X78044354Y-81979853D01*
X77896784Y-82078456D01*
X77732812Y-82146376D01*
X77583512Y-82176073D01*
X77558742Y-82181000D01*
X77381258Y-82181000D01*
X77356488Y-82176073D01*
X77207188Y-82146376D01*
X77043216Y-82078456D01*
X76895646Y-81979853D01*
X76770147Y-81854354D01*
X76671544Y-81706784D01*
X76603624Y-81542812D01*
X76569000Y-81368741D01*
X76569000Y-81191259D01*
X76603624Y-81017188D01*
X76671544Y-80853216D01*
X76770147Y-80705646D01*
X76895646Y-80580147D01*
X77043216Y-80481544D01*
X77207188Y-80413624D01*
X77356488Y-80383927D01*
X77381258Y-80379000D01*
X77558742Y-80379000D01*
X77583512Y-80383927D01*
G37*
G36*
X106957185Y-78793602D02*
G01*
X107107010Y-78823404D01*
X107389274Y-78940321D01*
X107643305Y-79110059D01*
X107859341Y-79326095D01*
X108029079Y-79580126D01*
X108145996Y-79862390D01*
X108145996Y-79862391D01*
X108205600Y-80162039D01*
X108205600Y-80467561D01*
X108183205Y-80580147D01*
X108145996Y-80767210D01*
X108029079Y-81049474D01*
X107859341Y-81303505D01*
X107643305Y-81519541D01*
X107389274Y-81689279D01*
X107107010Y-81806196D01*
X106957185Y-81835998D01*
X106807361Y-81865800D01*
X106501839Y-81865800D01*
X106352015Y-81835998D01*
X106202190Y-81806196D01*
X105919926Y-81689279D01*
X105665895Y-81519541D01*
X105449859Y-81303505D01*
X105280121Y-81049474D01*
X105163204Y-80767210D01*
X105125995Y-80580147D01*
X105103600Y-80467561D01*
X105103600Y-80162039D01*
X105163204Y-79862391D01*
X105163204Y-79862390D01*
X105280121Y-79580126D01*
X105449859Y-79326095D01*
X105665895Y-79110059D01*
X105919926Y-78940321D01*
X106202190Y-78823404D01*
X106352015Y-78793602D01*
X106501839Y-78763800D01*
X106807361Y-78763800D01*
X106957185Y-78793602D01*
G37*
G36*
X71549585Y-78793602D02*
G01*
X71699410Y-78823404D01*
X71981674Y-78940321D01*
X72235705Y-79110059D01*
X72451741Y-79326095D01*
X72621479Y-79580126D01*
X72738396Y-79862390D01*
X72738396Y-79862391D01*
X72798000Y-80162039D01*
X72798000Y-80467561D01*
X72775605Y-80580147D01*
X72738396Y-80767210D01*
X72621479Y-81049474D01*
X72451741Y-81303505D01*
X72235705Y-81519541D01*
X71981674Y-81689279D01*
X71699410Y-81806196D01*
X71549585Y-81835998D01*
X71399761Y-81865800D01*
X71094239Y-81865800D01*
X70944415Y-81835998D01*
X70794590Y-81806196D01*
X70512326Y-81689279D01*
X70258295Y-81519541D01*
X70042259Y-81303505D01*
X69872521Y-81049474D01*
X69755604Y-80767210D01*
X69718395Y-80580147D01*
X69696000Y-80467561D01*
X69696000Y-80162039D01*
X69755604Y-79862391D01*
X69755604Y-79862390D01*
X69872521Y-79580126D01*
X70042259Y-79326095D01*
X70258295Y-79110059D01*
X70512326Y-78940321D01*
X70794590Y-78823404D01*
X70944415Y-78793602D01*
X71094239Y-78763800D01*
X71399761Y-78763800D01*
X71549585Y-78793602D01*
G37*
G36*
X80123512Y-77843927D02*
G01*
X80272812Y-77873624D01*
X80436784Y-77941544D01*
X80584354Y-78040147D01*
X80709853Y-78165646D01*
X80808456Y-78313216D01*
X80876376Y-78477188D01*
X80911000Y-78651259D01*
X80911000Y-78828741D01*
X80876376Y-79002812D01*
X80808456Y-79166784D01*
X80709853Y-79314354D01*
X80584354Y-79439853D01*
X80436784Y-79538456D01*
X80272812Y-79606376D01*
X80123512Y-79636073D01*
X80098742Y-79641000D01*
X79921258Y-79641000D01*
X79896488Y-79636073D01*
X79747188Y-79606376D01*
X79583216Y-79538456D01*
X79435646Y-79439853D01*
X79310147Y-79314354D01*
X79211544Y-79166784D01*
X79143624Y-79002812D01*
X79109000Y-78828741D01*
X79109000Y-78651259D01*
X79143624Y-78477188D01*
X79211544Y-78313216D01*
X79310147Y-78165646D01*
X79435646Y-78040147D01*
X79583216Y-77941544D01*
X79747188Y-77873624D01*
X79896488Y-77843927D01*
X79921258Y-77839000D01*
X80098742Y-77839000D01*
X80123512Y-77843927D01*
G37*
G36*
X87743512Y-77843927D02*
G01*
X87892812Y-77873624D01*
X88056784Y-77941544D01*
X88204354Y-78040147D01*
X88329853Y-78165646D01*
X88428456Y-78313216D01*
X88496376Y-78477188D01*
X88531000Y-78651259D01*
X88531000Y-78828741D01*
X88496376Y-79002812D01*
X88428456Y-79166784D01*
X88329853Y-79314354D01*
X88204354Y-79439853D01*
X88056784Y-79538456D01*
X87892812Y-79606376D01*
X87743512Y-79636073D01*
X87718742Y-79641000D01*
X87541258Y-79641000D01*
X87516488Y-79636073D01*
X87367188Y-79606376D01*
X87203216Y-79538456D01*
X87055646Y-79439853D01*
X86930147Y-79314354D01*
X86831544Y-79166784D01*
X86763624Y-79002812D01*
X86729000Y-78828741D01*
X86729000Y-78651259D01*
X86763624Y-78477188D01*
X86831544Y-78313216D01*
X86930147Y-78165646D01*
X87055646Y-78040147D01*
X87203216Y-77941544D01*
X87367188Y-77873624D01*
X87516488Y-77843927D01*
X87541258Y-77839000D01*
X87718742Y-77839000D01*
X87743512Y-77843927D01*
G37*
G36*
X90283512Y-77843927D02*
G01*
X90432812Y-77873624D01*
X90596784Y-77941544D01*
X90744354Y-78040147D01*
X90869853Y-78165646D01*
X90968456Y-78313216D01*
X91036376Y-78477188D01*
X91071000Y-78651259D01*
X91071000Y-78828741D01*
X91036376Y-79002812D01*
X90968456Y-79166784D01*
X90869853Y-79314354D01*
X90744354Y-79439853D01*
X90596784Y-79538456D01*
X90432812Y-79606376D01*
X90283512Y-79636073D01*
X90258742Y-79641000D01*
X90081258Y-79641000D01*
X90056488Y-79636073D01*
X89907188Y-79606376D01*
X89743216Y-79538456D01*
X89595646Y-79439853D01*
X89470147Y-79314354D01*
X89371544Y-79166784D01*
X89303624Y-79002812D01*
X89269000Y-78828741D01*
X89269000Y-78651259D01*
X89303624Y-78477188D01*
X89371544Y-78313216D01*
X89470147Y-78165646D01*
X89595646Y-78040147D01*
X89743216Y-77941544D01*
X89907188Y-77873624D01*
X90056488Y-77843927D01*
X90081258Y-77839000D01*
X90258742Y-77839000D01*
X90283512Y-77843927D01*
G37*
G36*
X92823512Y-77843927D02*
G01*
X92972812Y-77873624D01*
X93136784Y-77941544D01*
X93284354Y-78040147D01*
X93409853Y-78165646D01*
X93508456Y-78313216D01*
X93576376Y-78477188D01*
X93611000Y-78651259D01*
X93611000Y-78828741D01*
X93576376Y-79002812D01*
X93508456Y-79166784D01*
X93409853Y-79314354D01*
X93284354Y-79439853D01*
X93136784Y-79538456D01*
X92972812Y-79606376D01*
X92823512Y-79636073D01*
X92798742Y-79641000D01*
X92621258Y-79641000D01*
X92596488Y-79636073D01*
X92447188Y-79606376D01*
X92283216Y-79538456D01*
X92135646Y-79439853D01*
X92010147Y-79314354D01*
X91911544Y-79166784D01*
X91843624Y-79002812D01*
X91809000Y-78828741D01*
X91809000Y-78651259D01*
X91843624Y-78477188D01*
X91911544Y-78313216D01*
X92010147Y-78165646D01*
X92135646Y-78040147D01*
X92283216Y-77941544D01*
X92447188Y-77873624D01*
X92596488Y-77843927D01*
X92621258Y-77839000D01*
X92798742Y-77839000D01*
X92823512Y-77843927D01*
G37*
G36*
X95363512Y-77843927D02*
G01*
X95512812Y-77873624D01*
X95676784Y-77941544D01*
X95824354Y-78040147D01*
X95949853Y-78165646D01*
X96048456Y-78313216D01*
X96116376Y-78477188D01*
X96151000Y-78651259D01*
X96151000Y-78828741D01*
X96116376Y-79002812D01*
X96048456Y-79166784D01*
X95949853Y-79314354D01*
X95824354Y-79439853D01*
X95676784Y-79538456D01*
X95512812Y-79606376D01*
X95363512Y-79636073D01*
X95338742Y-79641000D01*
X95161258Y-79641000D01*
X95136488Y-79636073D01*
X94987188Y-79606376D01*
X94823216Y-79538456D01*
X94675646Y-79439853D01*
X94550147Y-79314354D01*
X94451544Y-79166784D01*
X94383624Y-79002812D01*
X94349000Y-78828741D01*
X94349000Y-78651259D01*
X94383624Y-78477188D01*
X94451544Y-78313216D01*
X94550147Y-78165646D01*
X94675646Y-78040147D01*
X94823216Y-77941544D01*
X94987188Y-77873624D01*
X95136488Y-77843927D01*
X95161258Y-77839000D01*
X95338742Y-77839000D01*
X95363512Y-77843927D01*
G37*
G36*
X97903512Y-77843927D02*
G01*
X98052812Y-77873624D01*
X98216784Y-77941544D01*
X98364354Y-78040147D01*
X98489853Y-78165646D01*
X98588456Y-78313216D01*
X98656376Y-78477188D01*
X98691000Y-78651259D01*
X98691000Y-78828741D01*
X98656376Y-79002812D01*
X98588456Y-79166784D01*
X98489853Y-79314354D01*
X98364354Y-79439853D01*
X98216784Y-79538456D01*
X98052812Y-79606376D01*
X97903512Y-79636073D01*
X97878742Y-79641000D01*
X97701258Y-79641000D01*
X97676488Y-79636073D01*
X97527188Y-79606376D01*
X97363216Y-79538456D01*
X97215646Y-79439853D01*
X97090147Y-79314354D01*
X96991544Y-79166784D01*
X96923624Y-79002812D01*
X96889000Y-78828741D01*
X96889000Y-78651259D01*
X96923624Y-78477188D01*
X96991544Y-78313216D01*
X97090147Y-78165646D01*
X97215646Y-78040147D01*
X97363216Y-77941544D01*
X97527188Y-77873624D01*
X97676488Y-77843927D01*
X97701258Y-77839000D01*
X97878742Y-77839000D01*
X97903512Y-77843927D01*
G37*
G36*
X77583512Y-77843927D02*
G01*
X77732812Y-77873624D01*
X77896784Y-77941544D01*
X78044354Y-78040147D01*
X78169853Y-78165646D01*
X78268456Y-78313216D01*
X78336376Y-78477188D01*
X78371000Y-78651259D01*
X78371000Y-78828741D01*
X78336376Y-79002812D01*
X78268456Y-79166784D01*
X78169853Y-79314354D01*
X78044354Y-79439853D01*
X77896784Y-79538456D01*
X77732812Y-79606376D01*
X77583512Y-79636073D01*
X77558742Y-79641000D01*
X77381258Y-79641000D01*
X77356488Y-79636073D01*
X77207188Y-79606376D01*
X77043216Y-79538456D01*
X76895646Y-79439853D01*
X76770147Y-79314354D01*
X76671544Y-79166784D01*
X76603624Y-79002812D01*
X76569000Y-78828741D01*
X76569000Y-78651259D01*
X76603624Y-78477188D01*
X76671544Y-78313216D01*
X76770147Y-78165646D01*
X76895646Y-78040147D01*
X77043216Y-77941544D01*
X77207188Y-77873624D01*
X77356488Y-77843927D01*
X77381258Y-77839000D01*
X77558742Y-77839000D01*
X77583512Y-77843927D01*
G37*
G36*
X85203512Y-77843927D02*
G01*
X85352812Y-77873624D01*
X85516784Y-77941544D01*
X85664354Y-78040147D01*
X85789853Y-78165646D01*
X85888456Y-78313216D01*
X85956376Y-78477188D01*
X85991000Y-78651259D01*
X85991000Y-78828741D01*
X85956376Y-79002812D01*
X85888456Y-79166784D01*
X85789853Y-79314354D01*
X85664354Y-79439853D01*
X85516784Y-79538456D01*
X85352812Y-79606376D01*
X85203512Y-79636073D01*
X85178742Y-79641000D01*
X85001258Y-79641000D01*
X84976488Y-79636073D01*
X84827188Y-79606376D01*
X84663216Y-79538456D01*
X84515646Y-79439853D01*
X84390147Y-79314354D01*
X84291544Y-79166784D01*
X84223624Y-79002812D01*
X84189000Y-78828741D01*
X84189000Y-78651259D01*
X84223624Y-78477188D01*
X84291544Y-78313216D01*
X84390147Y-78165646D01*
X84515646Y-78040147D01*
X84663216Y-77941544D01*
X84827188Y-77873624D01*
X84976488Y-77843927D01*
X85001258Y-77839000D01*
X85178742Y-77839000D01*
X85203512Y-77843927D01*
G37*
G36*
X82663512Y-77843927D02*
G01*
X82812812Y-77873624D01*
X82976784Y-77941544D01*
X83124354Y-78040147D01*
X83249853Y-78165646D01*
X83348456Y-78313216D01*
X83416376Y-78477188D01*
X83451000Y-78651259D01*
X83451000Y-78828741D01*
X83416376Y-79002812D01*
X83348456Y-79166784D01*
X83249853Y-79314354D01*
X83124354Y-79439853D01*
X82976784Y-79538456D01*
X82812812Y-79606376D01*
X82663512Y-79636073D01*
X82638742Y-79641000D01*
X82461258Y-79641000D01*
X82436488Y-79636073D01*
X82287188Y-79606376D01*
X82123216Y-79538456D01*
X81975646Y-79439853D01*
X81850147Y-79314354D01*
X81751544Y-79166784D01*
X81683624Y-79002812D01*
X81649000Y-78828741D01*
X81649000Y-78651259D01*
X81683624Y-78477188D01*
X81751544Y-78313216D01*
X81850147Y-78165646D01*
X81975646Y-78040147D01*
X82123216Y-77941544D01*
X82287188Y-77873624D01*
X82436488Y-77843927D01*
X82461258Y-77839000D01*
X82638742Y-77839000D01*
X82663512Y-77843927D01*
G37*
G36*
X101231000Y-79641000D02*
G01*
X99429000Y-79641000D01*
X99429000Y-77839000D01*
X101231000Y-77839000D01*
X101231000Y-79641000D01*
G37*
G36*
X107784112Y-75684927D02*
G01*
X107933412Y-75714624D01*
X108097384Y-75782544D01*
X108244954Y-75881147D01*
X108370453Y-76006646D01*
X108469056Y-76154216D01*
X108536976Y-76318188D01*
X108571600Y-76492259D01*
X108571600Y-76669741D01*
X108536976Y-76843812D01*
X108469056Y-77007784D01*
X108370453Y-77155354D01*
X108244954Y-77280853D01*
X108097384Y-77379456D01*
X107933412Y-77447376D01*
X107784112Y-77477073D01*
X107759342Y-77482000D01*
X107581858Y-77482000D01*
X107557088Y-77477073D01*
X107407788Y-77447376D01*
X107243816Y-77379456D01*
X107096246Y-77280853D01*
X106970747Y-77155354D01*
X106872144Y-77007784D01*
X106804224Y-76843812D01*
X106769600Y-76669741D01*
X106769600Y-76492259D01*
X106804224Y-76318188D01*
X106872144Y-76154216D01*
X106970747Y-76006646D01*
X107096246Y-75881147D01*
X107243816Y-75782544D01*
X107407788Y-75714624D01*
X107557088Y-75684927D01*
X107581858Y-75680000D01*
X107759342Y-75680000D01*
X107784112Y-75684927D01*
G37*
G36*
X72782912Y-75684927D02*
G01*
X72932212Y-75714624D01*
X73096184Y-75782544D01*
X73243754Y-75881147D01*
X73369253Y-76006646D01*
X73467856Y-76154216D01*
X73535776Y-76318188D01*
X73570400Y-76492259D01*
X73570400Y-76669741D01*
X73535776Y-76843812D01*
X73467856Y-77007784D01*
X73369253Y-77155354D01*
X73243754Y-77280853D01*
X73096184Y-77379456D01*
X72932212Y-77447376D01*
X72782912Y-77477073D01*
X72758142Y-77482000D01*
X72580658Y-77482000D01*
X72555888Y-77477073D01*
X72406588Y-77447376D01*
X72242616Y-77379456D01*
X72095046Y-77280853D01*
X71969547Y-77155354D01*
X71870944Y-77007784D01*
X71803024Y-76843812D01*
X71768400Y-76669741D01*
X71768400Y-76492259D01*
X71803024Y-76318188D01*
X71870944Y-76154216D01*
X71969547Y-76006646D01*
X72095046Y-75881147D01*
X72242616Y-75782544D01*
X72406588Y-75714624D01*
X72555888Y-75684927D01*
X72580658Y-75680000D01*
X72758142Y-75680000D01*
X72782912Y-75684927D01*
G37*
G36*
X70242912Y-75684927D02*
G01*
X70392212Y-75714624D01*
X70556184Y-75782544D01*
X70703754Y-75881147D01*
X70829253Y-76006646D01*
X70927856Y-76154216D01*
X70995776Y-76318188D01*
X71030400Y-76492259D01*
X71030400Y-76669741D01*
X70995776Y-76843812D01*
X70927856Y-77007784D01*
X70829253Y-77155354D01*
X70703754Y-77280853D01*
X70556184Y-77379456D01*
X70392212Y-77447376D01*
X70242912Y-77477073D01*
X70218142Y-77482000D01*
X70040658Y-77482000D01*
X70015888Y-77477073D01*
X69866588Y-77447376D01*
X69702616Y-77379456D01*
X69555046Y-77280853D01*
X69429547Y-77155354D01*
X69330944Y-77007784D01*
X69263024Y-76843812D01*
X69228400Y-76669741D01*
X69228400Y-76492259D01*
X69263024Y-76318188D01*
X69330944Y-76154216D01*
X69429547Y-76006646D01*
X69555046Y-75881147D01*
X69702616Y-75782544D01*
X69866588Y-75714624D01*
X70015888Y-75684927D01*
X70040658Y-75680000D01*
X70218142Y-75680000D01*
X70242912Y-75684927D01*
G37*
G36*
X105244112Y-75684927D02*
G01*
X105393412Y-75714624D01*
X105557384Y-75782544D01*
X105704954Y-75881147D01*
X105830453Y-76006646D01*
X105929056Y-76154216D01*
X105996976Y-76318188D01*
X106031600Y-76492259D01*
X106031600Y-76669741D01*
X105996976Y-76843812D01*
X105929056Y-77007784D01*
X105830453Y-77155354D01*
X105704954Y-77280853D01*
X105557384Y-77379456D01*
X105393412Y-77447376D01*
X105244112Y-77477073D01*
X105219342Y-77482000D01*
X105041858Y-77482000D01*
X105017088Y-77477073D01*
X104867788Y-77447376D01*
X104703816Y-77379456D01*
X104556246Y-77280853D01*
X104430747Y-77155354D01*
X104332144Y-77007784D01*
X104264224Y-76843812D01*
X104229600Y-76669741D01*
X104229600Y-76492259D01*
X104264224Y-76318188D01*
X104332144Y-76154216D01*
X104430747Y-76006646D01*
X104556246Y-75881147D01*
X104703816Y-75782544D01*
X104867788Y-75714624D01*
X105017088Y-75684927D01*
X105041858Y-75680000D01*
X105219342Y-75680000D01*
X105244112Y-75684927D01*
G37*
G36*
X70242912Y-73144927D02*
G01*
X70392212Y-73174624D01*
X70556184Y-73242544D01*
X70703754Y-73341147D01*
X70829253Y-73466646D01*
X70927856Y-73614216D01*
X70995776Y-73778188D01*
X71030400Y-73952259D01*
X71030400Y-74129741D01*
X70995776Y-74303812D01*
X70927856Y-74467784D01*
X70829253Y-74615354D01*
X70703754Y-74740853D01*
X70556184Y-74839456D01*
X70392212Y-74907376D01*
X70242912Y-74937073D01*
X70218142Y-74942000D01*
X70040658Y-74942000D01*
X70015888Y-74937073D01*
X69866588Y-74907376D01*
X69702616Y-74839456D01*
X69555046Y-74740853D01*
X69429547Y-74615354D01*
X69330944Y-74467784D01*
X69263024Y-74303812D01*
X69228400Y-74129741D01*
X69228400Y-73952259D01*
X69263024Y-73778188D01*
X69330944Y-73614216D01*
X69429547Y-73466646D01*
X69555046Y-73341147D01*
X69702616Y-73242544D01*
X69866588Y-73174624D01*
X70015888Y-73144927D01*
X70040658Y-73140000D01*
X70218142Y-73140000D01*
X70242912Y-73144927D01*
G37*
G36*
X72782912Y-73144927D02*
G01*
X72932212Y-73174624D01*
X73096184Y-73242544D01*
X73243754Y-73341147D01*
X73369253Y-73466646D01*
X73467856Y-73614216D01*
X73535776Y-73778188D01*
X73570400Y-73952259D01*
X73570400Y-74129741D01*
X73535776Y-74303812D01*
X73467856Y-74467784D01*
X73369253Y-74615354D01*
X73243754Y-74740853D01*
X73096184Y-74839456D01*
X72932212Y-74907376D01*
X72782912Y-74937073D01*
X72758142Y-74942000D01*
X72580658Y-74942000D01*
X72555888Y-74937073D01*
X72406588Y-74907376D01*
X72242616Y-74839456D01*
X72095046Y-74740853D01*
X71969547Y-74615354D01*
X71870944Y-74467784D01*
X71803024Y-74303812D01*
X71768400Y-74129741D01*
X71768400Y-73952259D01*
X71803024Y-73778188D01*
X71870944Y-73614216D01*
X71969547Y-73466646D01*
X72095046Y-73341147D01*
X72242616Y-73242544D01*
X72406588Y-73174624D01*
X72555888Y-73144927D01*
X72580658Y-73140000D01*
X72758142Y-73140000D01*
X72782912Y-73144927D01*
G37*
G36*
X107784112Y-73144927D02*
G01*
X107933412Y-73174624D01*
X108097384Y-73242544D01*
X108244954Y-73341147D01*
X108370453Y-73466646D01*
X108469056Y-73614216D01*
X108536976Y-73778188D01*
X108571600Y-73952259D01*
X108571600Y-74129741D01*
X108536976Y-74303812D01*
X108469056Y-74467784D01*
X108370453Y-74615354D01*
X108244954Y-74740853D01*
X108097384Y-74839456D01*
X107933412Y-74907376D01*
X107784112Y-74937073D01*
X107759342Y-74942000D01*
X107581858Y-74942000D01*
X107557088Y-74937073D01*
X107407788Y-74907376D01*
X107243816Y-74839456D01*
X107096246Y-74740853D01*
X106970747Y-74615354D01*
X106872144Y-74467784D01*
X106804224Y-74303812D01*
X106769600Y-74129741D01*
X106769600Y-73952259D01*
X106804224Y-73778188D01*
X106872144Y-73614216D01*
X106970747Y-73466646D01*
X107096246Y-73341147D01*
X107243816Y-73242544D01*
X107407788Y-73174624D01*
X107557088Y-73144927D01*
X107581858Y-73140000D01*
X107759342Y-73140000D01*
X107784112Y-73144927D01*
G37*
G36*
X105244112Y-73144927D02*
G01*
X105393412Y-73174624D01*
X105557384Y-73242544D01*
X105704954Y-73341147D01*
X105830453Y-73466646D01*
X105929056Y-73614216D01*
X105996976Y-73778188D01*
X106031600Y-73952259D01*
X106031600Y-74129741D01*
X105996976Y-74303812D01*
X105929056Y-74467784D01*
X105830453Y-74615354D01*
X105704954Y-74740853D01*
X105557384Y-74839456D01*
X105393412Y-74907376D01*
X105244112Y-74937073D01*
X105219342Y-74942000D01*
X105041858Y-74942000D01*
X105017088Y-74937073D01*
X104867788Y-74907376D01*
X104703816Y-74839456D01*
X104556246Y-74740853D01*
X104430747Y-74615354D01*
X104332144Y-74467784D01*
X104264224Y-74303812D01*
X104229600Y-74129741D01*
X104229600Y-73952259D01*
X104264224Y-73778188D01*
X104332144Y-73614216D01*
X104430747Y-73466646D01*
X104556246Y-73341147D01*
X104703816Y-73242544D01*
X104867788Y-73174624D01*
X105017088Y-73144927D01*
X105041858Y-73140000D01*
X105219342Y-73140000D01*
X105244112Y-73144927D01*
G37*
G36*
X70242912Y-70604927D02*
G01*
X70392212Y-70634624D01*
X70556184Y-70702544D01*
X70703754Y-70801147D01*
X70829253Y-70926646D01*
X70927856Y-71074216D01*
X70995776Y-71238188D01*
X71030400Y-71412259D01*
X71030400Y-71589741D01*
X70995776Y-71763812D01*
X70927856Y-71927784D01*
X70829253Y-72075354D01*
X70703754Y-72200853D01*
X70556184Y-72299456D01*
X70392212Y-72367376D01*
X70242912Y-72397073D01*
X70218142Y-72402000D01*
X70040658Y-72402000D01*
X70015888Y-72397073D01*
X69866588Y-72367376D01*
X69702616Y-72299456D01*
X69555046Y-72200853D01*
X69429547Y-72075354D01*
X69330944Y-71927784D01*
X69263024Y-71763812D01*
X69228400Y-71589741D01*
X69228400Y-71412259D01*
X69263024Y-71238188D01*
X69330944Y-71074216D01*
X69429547Y-70926646D01*
X69555046Y-70801147D01*
X69702616Y-70702544D01*
X69866588Y-70634624D01*
X70015888Y-70604927D01*
X70040658Y-70600000D01*
X70218142Y-70600000D01*
X70242912Y-70604927D01*
G37*
G36*
X107784112Y-70604927D02*
G01*
X107933412Y-70634624D01*
X108097384Y-70702544D01*
X108244954Y-70801147D01*
X108370453Y-70926646D01*
X108469056Y-71074216D01*
X108536976Y-71238188D01*
X108571600Y-71412259D01*
X108571600Y-71589741D01*
X108536976Y-71763812D01*
X108469056Y-71927784D01*
X108370453Y-72075354D01*
X108244954Y-72200853D01*
X108097384Y-72299456D01*
X107933412Y-72367376D01*
X107784112Y-72397073D01*
X107759342Y-72402000D01*
X107581858Y-72402000D01*
X107557088Y-72397073D01*
X107407788Y-72367376D01*
X107243816Y-72299456D01*
X107096246Y-72200853D01*
X106970747Y-72075354D01*
X106872144Y-71927784D01*
X106804224Y-71763812D01*
X106769600Y-71589741D01*
X106769600Y-71412259D01*
X106804224Y-71238188D01*
X106872144Y-71074216D01*
X106970747Y-70926646D01*
X107096246Y-70801147D01*
X107243816Y-70702544D01*
X107407788Y-70634624D01*
X107557088Y-70604927D01*
X107581858Y-70600000D01*
X107759342Y-70600000D01*
X107784112Y-70604927D01*
G37*
G36*
X105244112Y-70604927D02*
G01*
X105393412Y-70634624D01*
X105557384Y-70702544D01*
X105704954Y-70801147D01*
X105830453Y-70926646D01*
X105929056Y-71074216D01*
X105996976Y-71238188D01*
X106031600Y-71412259D01*
X106031600Y-71589741D01*
X105996976Y-71763812D01*
X105929056Y-71927784D01*
X105830453Y-72075354D01*
X105704954Y-72200853D01*
X105557384Y-72299456D01*
X105393412Y-72367376D01*
X105244112Y-72397073D01*
X105219342Y-72402000D01*
X105041858Y-72402000D01*
X105017088Y-72397073D01*
X104867788Y-72367376D01*
X104703816Y-72299456D01*
X104556246Y-72200853D01*
X104430747Y-72075354D01*
X104332144Y-71927784D01*
X104264224Y-71763812D01*
X104229600Y-71589741D01*
X104229600Y-71412259D01*
X104264224Y-71238188D01*
X104332144Y-71074216D01*
X104430747Y-70926646D01*
X104556246Y-70801147D01*
X104703816Y-70702544D01*
X104867788Y-70634624D01*
X105017088Y-70604927D01*
X105041858Y-70600000D01*
X105219342Y-70600000D01*
X105244112Y-70604927D01*
G37*
G36*
X72782912Y-70604927D02*
G01*
X72932212Y-70634624D01*
X73096184Y-70702544D01*
X73243754Y-70801147D01*
X73369253Y-70926646D01*
X73467856Y-71074216D01*
X73535776Y-71238188D01*
X73570400Y-71412259D01*
X73570400Y-71589741D01*
X73535776Y-71763812D01*
X73467856Y-71927784D01*
X73369253Y-72075354D01*
X73243754Y-72200853D01*
X73096184Y-72299456D01*
X72932212Y-72367376D01*
X72782912Y-72397073D01*
X72758142Y-72402000D01*
X72580658Y-72402000D01*
X72555888Y-72397073D01*
X72406588Y-72367376D01*
X72242616Y-72299456D01*
X72095046Y-72200853D01*
X71969547Y-72075354D01*
X71870944Y-71927784D01*
X71803024Y-71763812D01*
X71768400Y-71589741D01*
X71768400Y-71412259D01*
X71803024Y-71238188D01*
X71870944Y-71074216D01*
X71969547Y-70926646D01*
X72095046Y-70801147D01*
X72242616Y-70702544D01*
X72406588Y-70634624D01*
X72555888Y-70604927D01*
X72580658Y-70600000D01*
X72758142Y-70600000D01*
X72782912Y-70604927D01*
G37*
G36*
X70242912Y-68064927D02*
G01*
X70392212Y-68094624D01*
X70556184Y-68162544D01*
X70703754Y-68261147D01*
X70829253Y-68386646D01*
X70927856Y-68534216D01*
X70995776Y-68698188D01*
X71030400Y-68872259D01*
X71030400Y-69049741D01*
X70995776Y-69223812D01*
X70927856Y-69387784D01*
X70829253Y-69535354D01*
X70703754Y-69660853D01*
X70556184Y-69759456D01*
X70392212Y-69827376D01*
X70242912Y-69857073D01*
X70218142Y-69862000D01*
X70040658Y-69862000D01*
X70015888Y-69857073D01*
X69866588Y-69827376D01*
X69702616Y-69759456D01*
X69555046Y-69660853D01*
X69429547Y-69535354D01*
X69330944Y-69387784D01*
X69263024Y-69223812D01*
X69228400Y-69049741D01*
X69228400Y-68872259D01*
X69263024Y-68698188D01*
X69330944Y-68534216D01*
X69429547Y-68386646D01*
X69555046Y-68261147D01*
X69702616Y-68162544D01*
X69866588Y-68094624D01*
X70015888Y-68064927D01*
X70040658Y-68060000D01*
X70218142Y-68060000D01*
X70242912Y-68064927D01*
G37*
G36*
X107784112Y-68064927D02*
G01*
X107933412Y-68094624D01*
X108097384Y-68162544D01*
X108244954Y-68261147D01*
X108370453Y-68386646D01*
X108469056Y-68534216D01*
X108536976Y-68698188D01*
X108571600Y-68872259D01*
X108571600Y-69049741D01*
X108536976Y-69223812D01*
X108469056Y-69387784D01*
X108370453Y-69535354D01*
X108244954Y-69660853D01*
X108097384Y-69759456D01*
X107933412Y-69827376D01*
X107784112Y-69857073D01*
X107759342Y-69862000D01*
X107581858Y-69862000D01*
X107557088Y-69857073D01*
X107407788Y-69827376D01*
X107243816Y-69759456D01*
X107096246Y-69660853D01*
X106970747Y-69535354D01*
X106872144Y-69387784D01*
X106804224Y-69223812D01*
X106769600Y-69049741D01*
X106769600Y-68872259D01*
X106804224Y-68698188D01*
X106872144Y-68534216D01*
X106970747Y-68386646D01*
X107096246Y-68261147D01*
X107243816Y-68162544D01*
X107407788Y-68094624D01*
X107557088Y-68064927D01*
X107581858Y-68060000D01*
X107759342Y-68060000D01*
X107784112Y-68064927D01*
G37*
G36*
X105244112Y-68064927D02*
G01*
X105393412Y-68094624D01*
X105557384Y-68162544D01*
X105704954Y-68261147D01*
X105830453Y-68386646D01*
X105929056Y-68534216D01*
X105996976Y-68698188D01*
X106031600Y-68872259D01*
X106031600Y-69049741D01*
X105996976Y-69223812D01*
X105929056Y-69387784D01*
X105830453Y-69535354D01*
X105704954Y-69660853D01*
X105557384Y-69759456D01*
X105393412Y-69827376D01*
X105244112Y-69857073D01*
X105219342Y-69862000D01*
X105041858Y-69862000D01*
X105017088Y-69857073D01*
X104867788Y-69827376D01*
X104703816Y-69759456D01*
X104556246Y-69660853D01*
X104430747Y-69535354D01*
X104332144Y-69387784D01*
X104264224Y-69223812D01*
X104229600Y-69049741D01*
X104229600Y-68872259D01*
X104264224Y-68698188D01*
X104332144Y-68534216D01*
X104430747Y-68386646D01*
X104556246Y-68261147D01*
X104703816Y-68162544D01*
X104867788Y-68094624D01*
X105017088Y-68064927D01*
X105041858Y-68060000D01*
X105219342Y-68060000D01*
X105244112Y-68064927D01*
G37*
G36*
X72782912Y-68064927D02*
G01*
X72932212Y-68094624D01*
X73096184Y-68162544D01*
X73243754Y-68261147D01*
X73369253Y-68386646D01*
X73467856Y-68534216D01*
X73535776Y-68698188D01*
X73570400Y-68872259D01*
X73570400Y-69049741D01*
X73535776Y-69223812D01*
X73467856Y-69387784D01*
X73369253Y-69535354D01*
X73243754Y-69660853D01*
X73096184Y-69759456D01*
X72932212Y-69827376D01*
X72782912Y-69857073D01*
X72758142Y-69862000D01*
X72580658Y-69862000D01*
X72555888Y-69857073D01*
X72406588Y-69827376D01*
X72242616Y-69759456D01*
X72095046Y-69660853D01*
X71969547Y-69535354D01*
X71870944Y-69387784D01*
X71803024Y-69223812D01*
X71768400Y-69049741D01*
X71768400Y-68872259D01*
X71803024Y-68698188D01*
X71870944Y-68534216D01*
X71969547Y-68386646D01*
X72095046Y-68261147D01*
X72242616Y-68162544D01*
X72406588Y-68094624D01*
X72555888Y-68064927D01*
X72580658Y-68060000D01*
X72758142Y-68060000D01*
X72782912Y-68064927D01*
G37*
G36*
X72782912Y-65524927D02*
G01*
X72932212Y-65554624D01*
X73096184Y-65622544D01*
X73243754Y-65721147D01*
X73369253Y-65846646D01*
X73467856Y-65994216D01*
X73535776Y-66158188D01*
X73570400Y-66332259D01*
X73570400Y-66509741D01*
X73535776Y-66683812D01*
X73467856Y-66847784D01*
X73369253Y-66995354D01*
X73243754Y-67120853D01*
X73096184Y-67219456D01*
X72932212Y-67287376D01*
X72782912Y-67317073D01*
X72758142Y-67322000D01*
X72580658Y-67322000D01*
X72555888Y-67317073D01*
X72406588Y-67287376D01*
X72242616Y-67219456D01*
X72095046Y-67120853D01*
X71969547Y-66995354D01*
X71870944Y-66847784D01*
X71803024Y-66683812D01*
X71768400Y-66509741D01*
X71768400Y-66332259D01*
X71803024Y-66158188D01*
X71870944Y-65994216D01*
X71969547Y-65846646D01*
X72095046Y-65721147D01*
X72242616Y-65622544D01*
X72406588Y-65554624D01*
X72555888Y-65524927D01*
X72580658Y-65520000D01*
X72758142Y-65520000D01*
X72782912Y-65524927D01*
G37*
G36*
X107784112Y-65524927D02*
G01*
X107933412Y-65554624D01*
X108097384Y-65622544D01*
X108244954Y-65721147D01*
X108370453Y-65846646D01*
X108469056Y-65994216D01*
X108536976Y-66158188D01*
X108571600Y-66332259D01*
X108571600Y-66509741D01*
X108536976Y-66683812D01*
X108469056Y-66847784D01*
X108370453Y-66995354D01*
X108244954Y-67120853D01*
X108097384Y-67219456D01*
X107933412Y-67287376D01*
X107784112Y-67317073D01*
X107759342Y-67322000D01*
X107581858Y-67322000D01*
X107557088Y-67317073D01*
X107407788Y-67287376D01*
X107243816Y-67219456D01*
X107096246Y-67120853D01*
X106970747Y-66995354D01*
X106872144Y-66847784D01*
X106804224Y-66683812D01*
X106769600Y-66509741D01*
X106769600Y-66332259D01*
X106804224Y-66158188D01*
X106872144Y-65994216D01*
X106970747Y-65846646D01*
X107096246Y-65721147D01*
X107243816Y-65622544D01*
X107407788Y-65554624D01*
X107557088Y-65524927D01*
X107581858Y-65520000D01*
X107759342Y-65520000D01*
X107784112Y-65524927D01*
G37*
G36*
X105244112Y-65524927D02*
G01*
X105393412Y-65554624D01*
X105557384Y-65622544D01*
X105704954Y-65721147D01*
X105830453Y-65846646D01*
X105929056Y-65994216D01*
X105996976Y-66158188D01*
X106031600Y-66332259D01*
X106031600Y-66509741D01*
X105996976Y-66683812D01*
X105929056Y-66847784D01*
X105830453Y-66995354D01*
X105704954Y-67120853D01*
X105557384Y-67219456D01*
X105393412Y-67287376D01*
X105244112Y-67317073D01*
X105219342Y-67322000D01*
X105041858Y-67322000D01*
X105017088Y-67317073D01*
X104867788Y-67287376D01*
X104703816Y-67219456D01*
X104556246Y-67120853D01*
X104430747Y-66995354D01*
X104332144Y-66847784D01*
X104264224Y-66683812D01*
X104229600Y-66509741D01*
X104229600Y-66332259D01*
X104264224Y-66158188D01*
X104332144Y-65994216D01*
X104430747Y-65846646D01*
X104556246Y-65721147D01*
X104703816Y-65622544D01*
X104867788Y-65554624D01*
X105017088Y-65524927D01*
X105041858Y-65520000D01*
X105219342Y-65520000D01*
X105244112Y-65524927D01*
G37*
G36*
X70242912Y-65524927D02*
G01*
X70392212Y-65554624D01*
X70556184Y-65622544D01*
X70703754Y-65721147D01*
X70829253Y-65846646D01*
X70927856Y-65994216D01*
X70995776Y-66158188D01*
X71030400Y-66332259D01*
X71030400Y-66509741D01*
X70995776Y-66683812D01*
X70927856Y-66847784D01*
X70829253Y-66995354D01*
X70703754Y-67120853D01*
X70556184Y-67219456D01*
X70392212Y-67287376D01*
X70242912Y-67317073D01*
X70218142Y-67322000D01*
X70040658Y-67322000D01*
X70015888Y-67317073D01*
X69866588Y-67287376D01*
X69702616Y-67219456D01*
X69555046Y-67120853D01*
X69429547Y-66995354D01*
X69330944Y-66847784D01*
X69263024Y-66683812D01*
X69228400Y-66509741D01*
X69228400Y-66332259D01*
X69263024Y-66158188D01*
X69330944Y-65994216D01*
X69429547Y-65846646D01*
X69555046Y-65721147D01*
X69702616Y-65622544D01*
X69866588Y-65554624D01*
X70015888Y-65524927D01*
X70040658Y-65520000D01*
X70218142Y-65520000D01*
X70242912Y-65524927D01*
G37*
G36*
X107784112Y-62984927D02*
G01*
X107933412Y-63014624D01*
X108097384Y-63082544D01*
X108244954Y-63181147D01*
X108370453Y-63306646D01*
X108469056Y-63454216D01*
X108536976Y-63618188D01*
X108571600Y-63792259D01*
X108571600Y-63969741D01*
X108536976Y-64143812D01*
X108469056Y-64307784D01*
X108370453Y-64455354D01*
X108244954Y-64580853D01*
X108097384Y-64679456D01*
X107933412Y-64747376D01*
X107784112Y-64777073D01*
X107759342Y-64782000D01*
X107581858Y-64782000D01*
X107557088Y-64777073D01*
X107407788Y-64747376D01*
X107243816Y-64679456D01*
X107096246Y-64580853D01*
X106970747Y-64455354D01*
X106872144Y-64307784D01*
X106804224Y-64143812D01*
X106769600Y-63969741D01*
X106769600Y-63792259D01*
X106804224Y-63618188D01*
X106872144Y-63454216D01*
X106970747Y-63306646D01*
X107096246Y-63181147D01*
X107243816Y-63082544D01*
X107407788Y-63014624D01*
X107557088Y-62984927D01*
X107581858Y-62980000D01*
X107759342Y-62980000D01*
X107784112Y-62984927D01*
G37*
G36*
X72782912Y-62984927D02*
G01*
X72932212Y-63014624D01*
X73096184Y-63082544D01*
X73243754Y-63181147D01*
X73369253Y-63306646D01*
X73467856Y-63454216D01*
X73535776Y-63618188D01*
X73570400Y-63792259D01*
X73570400Y-63969741D01*
X73535776Y-64143812D01*
X73467856Y-64307784D01*
X73369253Y-64455354D01*
X73243754Y-64580853D01*
X73096184Y-64679456D01*
X72932212Y-64747376D01*
X72782912Y-64777073D01*
X72758142Y-64782000D01*
X72580658Y-64782000D01*
X72555888Y-64777073D01*
X72406588Y-64747376D01*
X72242616Y-64679456D01*
X72095046Y-64580853D01*
X71969547Y-64455354D01*
X71870944Y-64307784D01*
X71803024Y-64143812D01*
X71768400Y-63969741D01*
X71768400Y-63792259D01*
X71803024Y-63618188D01*
X71870944Y-63454216D01*
X71969547Y-63306646D01*
X72095046Y-63181147D01*
X72242616Y-63082544D01*
X72406588Y-63014624D01*
X72555888Y-62984927D01*
X72580658Y-62980000D01*
X72758142Y-62980000D01*
X72782912Y-62984927D01*
G37*
G36*
X105244112Y-62984927D02*
G01*
X105393412Y-63014624D01*
X105557384Y-63082544D01*
X105704954Y-63181147D01*
X105830453Y-63306646D01*
X105929056Y-63454216D01*
X105996976Y-63618188D01*
X106031600Y-63792259D01*
X106031600Y-63969741D01*
X105996976Y-64143812D01*
X105929056Y-64307784D01*
X105830453Y-64455354D01*
X105704954Y-64580853D01*
X105557384Y-64679456D01*
X105393412Y-64747376D01*
X105244112Y-64777073D01*
X105219342Y-64782000D01*
X105041858Y-64782000D01*
X105017088Y-64777073D01*
X104867788Y-64747376D01*
X104703816Y-64679456D01*
X104556246Y-64580853D01*
X104430747Y-64455354D01*
X104332144Y-64307784D01*
X104264224Y-64143812D01*
X104229600Y-63969741D01*
X104229600Y-63792259D01*
X104264224Y-63618188D01*
X104332144Y-63454216D01*
X104430747Y-63306646D01*
X104556246Y-63181147D01*
X104703816Y-63082544D01*
X104867788Y-63014624D01*
X105017088Y-62984927D01*
X105041858Y-62980000D01*
X105219342Y-62980000D01*
X105244112Y-62984927D01*
G37*
G36*
X70242912Y-62984927D02*
G01*
X70392212Y-63014624D01*
X70556184Y-63082544D01*
X70703754Y-63181147D01*
X70829253Y-63306646D01*
X70927856Y-63454216D01*
X70995776Y-63618188D01*
X71030400Y-63792259D01*
X71030400Y-63969741D01*
X70995776Y-64143812D01*
X70927856Y-64307784D01*
X70829253Y-64455354D01*
X70703754Y-64580853D01*
X70556184Y-64679456D01*
X70392212Y-64747376D01*
X70242912Y-64777073D01*
X70218142Y-64782000D01*
X70040658Y-64782000D01*
X70015888Y-64777073D01*
X69866588Y-64747376D01*
X69702616Y-64679456D01*
X69555046Y-64580853D01*
X69429547Y-64455354D01*
X69330944Y-64307784D01*
X69263024Y-64143812D01*
X69228400Y-63969741D01*
X69228400Y-63792259D01*
X69263024Y-63618188D01*
X69330944Y-63454216D01*
X69429547Y-63306646D01*
X69555046Y-63181147D01*
X69702616Y-63082544D01*
X69866588Y-63014624D01*
X70015888Y-62984927D01*
X70040658Y-62980000D01*
X70218142Y-62980000D01*
X70242912Y-62984927D01*
G37*
G36*
X70242912Y-60444927D02*
G01*
X70392212Y-60474624D01*
X70556184Y-60542544D01*
X70703754Y-60641147D01*
X70829253Y-60766646D01*
X70927856Y-60914216D01*
X70995776Y-61078188D01*
X71030400Y-61252259D01*
X71030400Y-61429741D01*
X70995776Y-61603812D01*
X70927856Y-61767784D01*
X70829253Y-61915354D01*
X70703754Y-62040853D01*
X70556184Y-62139456D01*
X70392212Y-62207376D01*
X70242912Y-62237073D01*
X70218142Y-62242000D01*
X70040658Y-62242000D01*
X70015888Y-62237073D01*
X69866588Y-62207376D01*
X69702616Y-62139456D01*
X69555046Y-62040853D01*
X69429547Y-61915354D01*
X69330944Y-61767784D01*
X69263024Y-61603812D01*
X69228400Y-61429741D01*
X69228400Y-61252259D01*
X69263024Y-61078188D01*
X69330944Y-60914216D01*
X69429547Y-60766646D01*
X69555046Y-60641147D01*
X69702616Y-60542544D01*
X69866588Y-60474624D01*
X70015888Y-60444927D01*
X70040658Y-60440000D01*
X70218142Y-60440000D01*
X70242912Y-60444927D01*
G37*
G36*
X72782912Y-60444927D02*
G01*
X72932212Y-60474624D01*
X73096184Y-60542544D01*
X73243754Y-60641147D01*
X73369253Y-60766646D01*
X73467856Y-60914216D01*
X73535776Y-61078188D01*
X73570400Y-61252259D01*
X73570400Y-61429741D01*
X73535776Y-61603812D01*
X73467856Y-61767784D01*
X73369253Y-61915354D01*
X73243754Y-62040853D01*
X73096184Y-62139456D01*
X72932212Y-62207376D01*
X72782912Y-62237073D01*
X72758142Y-62242000D01*
X72580658Y-62242000D01*
X72555888Y-62237073D01*
X72406588Y-62207376D01*
X72242616Y-62139456D01*
X72095046Y-62040853D01*
X71969547Y-61915354D01*
X71870944Y-61767784D01*
X71803024Y-61603812D01*
X71768400Y-61429741D01*
X71768400Y-61252259D01*
X71803024Y-61078188D01*
X71870944Y-60914216D01*
X71969547Y-60766646D01*
X72095046Y-60641147D01*
X72242616Y-60542544D01*
X72406588Y-60474624D01*
X72555888Y-60444927D01*
X72580658Y-60440000D01*
X72758142Y-60440000D01*
X72782912Y-60444927D01*
G37*
G36*
X107784112Y-60444927D02*
G01*
X107933412Y-60474624D01*
X108097384Y-60542544D01*
X108244954Y-60641147D01*
X108370453Y-60766646D01*
X108469056Y-60914216D01*
X108536976Y-61078188D01*
X108571600Y-61252259D01*
X108571600Y-61429741D01*
X108536976Y-61603812D01*
X108469056Y-61767784D01*
X108370453Y-61915354D01*
X108244954Y-62040853D01*
X108097384Y-62139456D01*
X107933412Y-62207376D01*
X107784112Y-62237073D01*
X107759342Y-62242000D01*
X107581858Y-62242000D01*
X107557088Y-62237073D01*
X107407788Y-62207376D01*
X107243816Y-62139456D01*
X107096246Y-62040853D01*
X106970747Y-61915354D01*
X106872144Y-61767784D01*
X106804224Y-61603812D01*
X106769600Y-61429741D01*
X106769600Y-61252259D01*
X106804224Y-61078188D01*
X106872144Y-60914216D01*
X106970747Y-60766646D01*
X107096246Y-60641147D01*
X107243816Y-60542544D01*
X107407788Y-60474624D01*
X107557088Y-60444927D01*
X107581858Y-60440000D01*
X107759342Y-60440000D01*
X107784112Y-60444927D01*
G37*
G36*
X105244112Y-60444927D02*
G01*
X105393412Y-60474624D01*
X105557384Y-60542544D01*
X105704954Y-60641147D01*
X105830453Y-60766646D01*
X105929056Y-60914216D01*
X105996976Y-61078188D01*
X106031600Y-61252259D01*
X106031600Y-61429741D01*
X105996976Y-61603812D01*
X105929056Y-61767784D01*
X105830453Y-61915354D01*
X105704954Y-62040853D01*
X105557384Y-62139456D01*
X105393412Y-62207376D01*
X105244112Y-62237073D01*
X105219342Y-62242000D01*
X105041858Y-62242000D01*
X105017088Y-62237073D01*
X104867788Y-62207376D01*
X104703816Y-62139456D01*
X104556246Y-62040853D01*
X104430747Y-61915354D01*
X104332144Y-61767784D01*
X104264224Y-61603812D01*
X104229600Y-61429741D01*
X104229600Y-61252259D01*
X104264224Y-61078188D01*
X104332144Y-60914216D01*
X104430747Y-60766646D01*
X104556246Y-60641147D01*
X104703816Y-60542544D01*
X104867788Y-60474624D01*
X105017088Y-60444927D01*
X105041858Y-60440000D01*
X105219342Y-60440000D01*
X105244112Y-60444927D01*
G37*
G36*
X107784112Y-57904927D02*
G01*
X107933412Y-57934624D01*
X108097384Y-58002544D01*
X108244954Y-58101147D01*
X108370453Y-58226646D01*
X108469056Y-58374216D01*
X108536976Y-58538188D01*
X108571600Y-58712259D01*
X108571600Y-58889741D01*
X108536976Y-59063812D01*
X108469056Y-59227784D01*
X108370453Y-59375354D01*
X108244954Y-59500853D01*
X108097384Y-59599456D01*
X107933412Y-59667376D01*
X107784112Y-59697073D01*
X107759342Y-59702000D01*
X107581858Y-59702000D01*
X107557088Y-59697073D01*
X107407788Y-59667376D01*
X107243816Y-59599456D01*
X107096246Y-59500853D01*
X106970747Y-59375354D01*
X106872144Y-59227784D01*
X106804224Y-59063812D01*
X106769600Y-58889741D01*
X106769600Y-58712259D01*
X106804224Y-58538188D01*
X106872144Y-58374216D01*
X106970747Y-58226646D01*
X107096246Y-58101147D01*
X107243816Y-58002544D01*
X107407788Y-57934624D01*
X107557088Y-57904927D01*
X107581858Y-57900000D01*
X107759342Y-57900000D01*
X107784112Y-57904927D01*
G37*
G36*
X105244112Y-57904927D02*
G01*
X105393412Y-57934624D01*
X105557384Y-58002544D01*
X105704954Y-58101147D01*
X105830453Y-58226646D01*
X105929056Y-58374216D01*
X105996976Y-58538188D01*
X106031600Y-58712259D01*
X106031600Y-58889741D01*
X105996976Y-59063812D01*
X105929056Y-59227784D01*
X105830453Y-59375354D01*
X105704954Y-59500853D01*
X105557384Y-59599456D01*
X105393412Y-59667376D01*
X105244112Y-59697073D01*
X105219342Y-59702000D01*
X105041858Y-59702000D01*
X105017088Y-59697073D01*
X104867788Y-59667376D01*
X104703816Y-59599456D01*
X104556246Y-59500853D01*
X104430747Y-59375354D01*
X104332144Y-59227784D01*
X104264224Y-59063812D01*
X104229600Y-58889741D01*
X104229600Y-58712259D01*
X104264224Y-58538188D01*
X104332144Y-58374216D01*
X104430747Y-58226646D01*
X104556246Y-58101147D01*
X104703816Y-58002544D01*
X104867788Y-57934624D01*
X105017088Y-57904927D01*
X105041858Y-57900000D01*
X105219342Y-57900000D01*
X105244112Y-57904927D01*
G37*
G36*
X72782912Y-57904927D02*
G01*
X72932212Y-57934624D01*
X73096184Y-58002544D01*
X73243754Y-58101147D01*
X73369253Y-58226646D01*
X73467856Y-58374216D01*
X73535776Y-58538188D01*
X73570400Y-58712259D01*
X73570400Y-58889741D01*
X73535776Y-59063812D01*
X73467856Y-59227784D01*
X73369253Y-59375354D01*
X73243754Y-59500853D01*
X73096184Y-59599456D01*
X72932212Y-59667376D01*
X72782912Y-59697073D01*
X72758142Y-59702000D01*
X72580658Y-59702000D01*
X72555888Y-59697073D01*
X72406588Y-59667376D01*
X72242616Y-59599456D01*
X72095046Y-59500853D01*
X71969547Y-59375354D01*
X71870944Y-59227784D01*
X71803024Y-59063812D01*
X71768400Y-58889741D01*
X71768400Y-58712259D01*
X71803024Y-58538188D01*
X71870944Y-58374216D01*
X71969547Y-58226646D01*
X72095046Y-58101147D01*
X72242616Y-58002544D01*
X72406588Y-57934624D01*
X72555888Y-57904927D01*
X72580658Y-57900000D01*
X72758142Y-57900000D01*
X72782912Y-57904927D01*
G37*
G36*
X70242912Y-57904927D02*
G01*
X70392212Y-57934624D01*
X70556184Y-58002544D01*
X70703754Y-58101147D01*
X70829253Y-58226646D01*
X70927856Y-58374216D01*
X70995776Y-58538188D01*
X71030400Y-58712259D01*
X71030400Y-58889741D01*
X70995776Y-59063812D01*
X70927856Y-59227784D01*
X70829253Y-59375354D01*
X70703754Y-59500853D01*
X70556184Y-59599456D01*
X70392212Y-59667376D01*
X70242912Y-59697073D01*
X70218142Y-59702000D01*
X70040658Y-59702000D01*
X70015888Y-59697073D01*
X69866588Y-59667376D01*
X69702616Y-59599456D01*
X69555046Y-59500853D01*
X69429547Y-59375354D01*
X69330944Y-59227784D01*
X69263024Y-59063812D01*
X69228400Y-58889741D01*
X69228400Y-58712259D01*
X69263024Y-58538188D01*
X69330944Y-58374216D01*
X69429547Y-58226646D01*
X69555046Y-58101147D01*
X69702616Y-58002544D01*
X69866588Y-57934624D01*
X70015888Y-57904927D01*
X70040658Y-57900000D01*
X70218142Y-57900000D01*
X70242912Y-57904927D01*
G37*
G36*
X70242912Y-55364927D02*
G01*
X70392212Y-55394624D01*
X70556184Y-55462544D01*
X70703754Y-55561147D01*
X70829253Y-55686646D01*
X70927856Y-55834216D01*
X70995776Y-55998188D01*
X71030400Y-56172259D01*
X71030400Y-56349741D01*
X70995776Y-56523812D01*
X70927856Y-56687784D01*
X70829253Y-56835354D01*
X70703754Y-56960853D01*
X70556184Y-57059456D01*
X70392212Y-57127376D01*
X70242912Y-57157073D01*
X70218142Y-57162000D01*
X70040658Y-57162000D01*
X70015888Y-57157073D01*
X69866588Y-57127376D01*
X69702616Y-57059456D01*
X69555046Y-56960853D01*
X69429547Y-56835354D01*
X69330944Y-56687784D01*
X69263024Y-56523812D01*
X69228400Y-56349741D01*
X69228400Y-56172259D01*
X69263024Y-55998188D01*
X69330944Y-55834216D01*
X69429547Y-55686646D01*
X69555046Y-55561147D01*
X69702616Y-55462544D01*
X69866588Y-55394624D01*
X70015888Y-55364927D01*
X70040658Y-55360000D01*
X70218142Y-55360000D01*
X70242912Y-55364927D01*
G37*
G36*
X105244112Y-55364927D02*
G01*
X105393412Y-55394624D01*
X105557384Y-55462544D01*
X105704954Y-55561147D01*
X105830453Y-55686646D01*
X105929056Y-55834216D01*
X105996976Y-55998188D01*
X106031600Y-56172259D01*
X106031600Y-56349741D01*
X105996976Y-56523812D01*
X105929056Y-56687784D01*
X105830453Y-56835354D01*
X105704954Y-56960853D01*
X105557384Y-57059456D01*
X105393412Y-57127376D01*
X105244112Y-57157073D01*
X105219342Y-57162000D01*
X105041858Y-57162000D01*
X105017088Y-57157073D01*
X104867788Y-57127376D01*
X104703816Y-57059456D01*
X104556246Y-56960853D01*
X104430747Y-56835354D01*
X104332144Y-56687784D01*
X104264224Y-56523812D01*
X104229600Y-56349741D01*
X104229600Y-56172259D01*
X104264224Y-55998188D01*
X104332144Y-55834216D01*
X104430747Y-55686646D01*
X104556246Y-55561147D01*
X104703816Y-55462544D01*
X104867788Y-55394624D01*
X105017088Y-55364927D01*
X105041858Y-55360000D01*
X105219342Y-55360000D01*
X105244112Y-55364927D01*
G37*
G36*
X107784112Y-55364927D02*
G01*
X107933412Y-55394624D01*
X108097384Y-55462544D01*
X108244954Y-55561147D01*
X108370453Y-55686646D01*
X108469056Y-55834216D01*
X108536976Y-55998188D01*
X108571600Y-56172259D01*
X108571600Y-56349741D01*
X108536976Y-56523812D01*
X108469056Y-56687784D01*
X108370453Y-56835354D01*
X108244954Y-56960853D01*
X108097384Y-57059456D01*
X107933412Y-57127376D01*
X107784112Y-57157073D01*
X107759342Y-57162000D01*
X107581858Y-57162000D01*
X107557088Y-57157073D01*
X107407788Y-57127376D01*
X107243816Y-57059456D01*
X107096246Y-56960853D01*
X106970747Y-56835354D01*
X106872144Y-56687784D01*
X106804224Y-56523812D01*
X106769600Y-56349741D01*
X106769600Y-56172259D01*
X106804224Y-55998188D01*
X106872144Y-55834216D01*
X106970747Y-55686646D01*
X107096246Y-55561147D01*
X107243816Y-55462544D01*
X107407788Y-55394624D01*
X107557088Y-55364927D01*
X107581858Y-55360000D01*
X107759342Y-55360000D01*
X107784112Y-55364927D01*
G37*
G36*
X72782912Y-55364927D02*
G01*
X72932212Y-55394624D01*
X73096184Y-55462544D01*
X73243754Y-55561147D01*
X73369253Y-55686646D01*
X73467856Y-55834216D01*
X73535776Y-55998188D01*
X73570400Y-56172259D01*
X73570400Y-56349741D01*
X73535776Y-56523812D01*
X73467856Y-56687784D01*
X73369253Y-56835354D01*
X73243754Y-56960853D01*
X73096184Y-57059456D01*
X72932212Y-57127376D01*
X72782912Y-57157073D01*
X72758142Y-57162000D01*
X72580658Y-57162000D01*
X72555888Y-57157073D01*
X72406588Y-57127376D01*
X72242616Y-57059456D01*
X72095046Y-56960853D01*
X71969547Y-56835354D01*
X71870944Y-56687784D01*
X71803024Y-56523812D01*
X71768400Y-56349741D01*
X71768400Y-56172259D01*
X71803024Y-55998188D01*
X71870944Y-55834216D01*
X71969547Y-55686646D01*
X72095046Y-55561147D01*
X72242616Y-55462544D01*
X72406588Y-55394624D01*
X72555888Y-55364927D01*
X72580658Y-55360000D01*
X72758142Y-55360000D01*
X72782912Y-55364927D01*
G37*
G36*
X82504228Y-53613903D02*
G01*
X82659100Y-53678053D01*
X82798481Y-53771185D01*
X82917015Y-53889719D01*
X83010147Y-54029100D01*
X83074297Y-54183972D01*
X83107000Y-54348384D01*
X83107000Y-54516016D01*
X83074297Y-54680428D01*
X83010147Y-54835300D01*
X82917015Y-54974681D01*
X82798481Y-55093215D01*
X82659100Y-55186347D01*
X82504228Y-55250497D01*
X82339816Y-55283200D01*
X82172184Y-55283200D01*
X82007772Y-55250497D01*
X81852900Y-55186347D01*
X81713519Y-55093215D01*
X81594985Y-54974681D01*
X81501853Y-54835300D01*
X81437703Y-54680428D01*
X81405000Y-54516016D01*
X81405000Y-54348384D01*
X81437703Y-54183972D01*
X81501853Y-54029100D01*
X81594985Y-53889719D01*
X81713519Y-53771185D01*
X81852900Y-53678053D01*
X82007772Y-53613903D01*
X82172184Y-53581200D01*
X82339816Y-53581200D01*
X82504228Y-53613903D01*
G37*
G36*
X87004228Y-53613903D02*
G01*
X87159100Y-53678053D01*
X87298481Y-53771185D01*
X87417015Y-53889719D01*
X87510147Y-54029100D01*
X87574297Y-54183972D01*
X87607000Y-54348384D01*
X87607000Y-54516016D01*
X87574297Y-54680428D01*
X87510147Y-54835300D01*
X87417015Y-54974681D01*
X87298481Y-55093215D01*
X87159100Y-55186347D01*
X87004228Y-55250497D01*
X86839816Y-55283200D01*
X86672184Y-55283200D01*
X86507772Y-55250497D01*
X86352900Y-55186347D01*
X86213519Y-55093215D01*
X86094985Y-54974681D01*
X86001853Y-54835300D01*
X85937703Y-54680428D01*
X85905000Y-54516016D01*
X85905000Y-54348384D01*
X85937703Y-54183972D01*
X86001853Y-54029100D01*
X86094985Y-53889719D01*
X86213519Y-53771185D01*
X86352900Y-53678053D01*
X86507772Y-53613903D01*
X86672184Y-53581200D01*
X86839816Y-53581200D01*
X87004228Y-53613903D01*
G37*
G36*
X80607000Y-55283200D02*
G01*
X78905000Y-55283200D01*
X78905000Y-53581200D01*
X80607000Y-53581200D01*
X80607000Y-55283200D01*
G37*
G36*
X84504228Y-53613903D02*
G01*
X84659100Y-53678053D01*
X84798481Y-53771185D01*
X84917015Y-53889719D01*
X85010147Y-54029100D01*
X85074297Y-54183972D01*
X85107000Y-54348384D01*
X85107000Y-54516016D01*
X85074297Y-54680428D01*
X85010147Y-54835300D01*
X84917015Y-54974681D01*
X84798481Y-55093215D01*
X84659100Y-55186347D01*
X84504228Y-55250497D01*
X84339816Y-55283200D01*
X84172184Y-55283200D01*
X84007772Y-55250497D01*
X83852900Y-55186347D01*
X83713519Y-55093215D01*
X83594985Y-54974681D01*
X83501853Y-54835300D01*
X83437703Y-54680428D01*
X83405000Y-54516016D01*
X83405000Y-54348384D01*
X83437703Y-54183972D01*
X83501853Y-54029100D01*
X83594985Y-53889719D01*
X83713519Y-53771185D01*
X83852900Y-53678053D01*
X84007772Y-53613903D01*
X84172184Y-53581200D01*
X84339816Y-53581200D01*
X84504228Y-53613903D01*
G37*
G36*
X107784112Y-52824927D02*
G01*
X107933412Y-52854624D01*
X108097384Y-52922544D01*
X108244954Y-53021147D01*
X108370453Y-53146646D01*
X108469056Y-53294216D01*
X108536976Y-53458188D01*
X108571600Y-53632259D01*
X108571600Y-53809741D01*
X108536976Y-53983812D01*
X108469056Y-54147784D01*
X108370453Y-54295354D01*
X108244954Y-54420853D01*
X108097384Y-54519456D01*
X107933412Y-54587376D01*
X107784112Y-54617073D01*
X107759342Y-54622000D01*
X107581858Y-54622000D01*
X107557088Y-54617073D01*
X107407788Y-54587376D01*
X107243816Y-54519456D01*
X107096246Y-54420853D01*
X106970747Y-54295354D01*
X106872144Y-54147784D01*
X106804224Y-53983812D01*
X106769600Y-53809741D01*
X106769600Y-53632259D01*
X106804224Y-53458188D01*
X106872144Y-53294216D01*
X106970747Y-53146646D01*
X107096246Y-53021147D01*
X107243816Y-52922544D01*
X107407788Y-52854624D01*
X107557088Y-52824927D01*
X107581858Y-52820000D01*
X107759342Y-52820000D01*
X107784112Y-52824927D01*
G37*
G36*
X105244112Y-52824927D02*
G01*
X105393412Y-52854624D01*
X105557384Y-52922544D01*
X105704954Y-53021147D01*
X105830453Y-53146646D01*
X105929056Y-53294216D01*
X105996976Y-53458188D01*
X106031600Y-53632259D01*
X106031600Y-53809741D01*
X105996976Y-53983812D01*
X105929056Y-54147784D01*
X105830453Y-54295354D01*
X105704954Y-54420853D01*
X105557384Y-54519456D01*
X105393412Y-54587376D01*
X105244112Y-54617073D01*
X105219342Y-54622000D01*
X105041858Y-54622000D01*
X105017088Y-54617073D01*
X104867788Y-54587376D01*
X104703816Y-54519456D01*
X104556246Y-54420853D01*
X104430747Y-54295354D01*
X104332144Y-54147784D01*
X104264224Y-53983812D01*
X104229600Y-53809741D01*
X104229600Y-53632259D01*
X104264224Y-53458188D01*
X104332144Y-53294216D01*
X104430747Y-53146646D01*
X104556246Y-53021147D01*
X104703816Y-52922544D01*
X104867788Y-52854624D01*
X105017088Y-52824927D01*
X105041858Y-52820000D01*
X105219342Y-52820000D01*
X105244112Y-52824927D01*
G37*
G36*
X70242912Y-52824927D02*
G01*
X70392212Y-52854624D01*
X70556184Y-52922544D01*
X70703754Y-53021147D01*
X70829253Y-53146646D01*
X70927856Y-53294216D01*
X70995776Y-53458188D01*
X71030400Y-53632259D01*
X71030400Y-53809741D01*
X70995776Y-53983812D01*
X70927856Y-54147784D01*
X70829253Y-54295354D01*
X70703754Y-54420853D01*
X70556184Y-54519456D01*
X70392212Y-54587376D01*
X70242912Y-54617073D01*
X70218142Y-54622000D01*
X70040658Y-54622000D01*
X70015888Y-54617073D01*
X69866588Y-54587376D01*
X69702616Y-54519456D01*
X69555046Y-54420853D01*
X69429547Y-54295354D01*
X69330944Y-54147784D01*
X69263024Y-53983812D01*
X69228400Y-53809741D01*
X69228400Y-53632259D01*
X69263024Y-53458188D01*
X69330944Y-53294216D01*
X69429547Y-53146646D01*
X69555046Y-53021147D01*
X69702616Y-52922544D01*
X69866588Y-52854624D01*
X70015888Y-52824927D01*
X70040658Y-52820000D01*
X70218142Y-52820000D01*
X70242912Y-52824927D01*
G37*
G36*
X72782912Y-52824927D02*
G01*
X72932212Y-52854624D01*
X73096184Y-52922544D01*
X73243754Y-53021147D01*
X73369253Y-53146646D01*
X73467856Y-53294216D01*
X73535776Y-53458188D01*
X73570400Y-53632259D01*
X73570400Y-53809741D01*
X73535776Y-53983812D01*
X73467856Y-54147784D01*
X73369253Y-54295354D01*
X73243754Y-54420853D01*
X73096184Y-54519456D01*
X72932212Y-54587376D01*
X72782912Y-54617073D01*
X72758142Y-54622000D01*
X72580658Y-54622000D01*
X72555888Y-54617073D01*
X72406588Y-54587376D01*
X72242616Y-54519456D01*
X72095046Y-54420853D01*
X71969547Y-54295354D01*
X71870944Y-54147784D01*
X71803024Y-53983812D01*
X71768400Y-53809741D01*
X71768400Y-53632259D01*
X71803024Y-53458188D01*
X71870944Y-53294216D01*
X71969547Y-53146646D01*
X72095046Y-53021147D01*
X72242616Y-52922544D01*
X72406588Y-52854624D01*
X72555888Y-52824927D01*
X72580658Y-52820000D01*
X72758142Y-52820000D01*
X72782912Y-52824927D01*
G37*
G36*
X90128585Y-50201002D02*
G01*
X90278410Y-50230804D01*
X90560674Y-50347721D01*
X90814705Y-50517459D01*
X91030741Y-50733495D01*
X91200479Y-50987526D01*
X91317376Y-51269742D01*
X91317396Y-51269791D01*
X91377000Y-51569439D01*
X91377000Y-51874961D01*
X91347198Y-52024785D01*
X91317396Y-52174610D01*
X91200479Y-52456874D01*
X91030741Y-52710905D01*
X90814705Y-52926941D01*
X90560674Y-53096679D01*
X90278410Y-53213596D01*
X90128585Y-53243398D01*
X89978761Y-53273200D01*
X89673239Y-53273200D01*
X89523415Y-53243398D01*
X89373590Y-53213596D01*
X89091326Y-53096679D01*
X88837295Y-52926941D01*
X88621259Y-52710905D01*
X88451521Y-52456874D01*
X88334604Y-52174610D01*
X88304802Y-52024785D01*
X88275000Y-51874961D01*
X88275000Y-51569439D01*
X88334604Y-51269791D01*
X88334624Y-51269742D01*
X88451521Y-50987526D01*
X88621259Y-50733495D01*
X88837295Y-50517459D01*
X89091326Y-50347721D01*
X89373590Y-50230804D01*
X89523415Y-50201002D01*
X89673239Y-50171200D01*
X89978761Y-50171200D01*
X90128585Y-50201002D01*
G37*
G36*
X76988585Y-50201002D02*
G01*
X77138410Y-50230804D01*
X77420674Y-50347721D01*
X77674705Y-50517459D01*
X77890741Y-50733495D01*
X78060479Y-50987526D01*
X78177376Y-51269742D01*
X78177396Y-51269791D01*
X78237000Y-51569439D01*
X78237000Y-51874961D01*
X78207198Y-52024785D01*
X78177396Y-52174610D01*
X78060479Y-52456874D01*
X77890741Y-52710905D01*
X77674705Y-52926941D01*
X77420674Y-53096679D01*
X77138410Y-53213596D01*
X76988585Y-53243398D01*
X76838761Y-53273200D01*
X76533239Y-53273200D01*
X76383415Y-53243398D01*
X76233590Y-53213596D01*
X75951326Y-53096679D01*
X75697295Y-52926941D01*
X75481259Y-52710905D01*
X75311521Y-52456874D01*
X75194604Y-52174610D01*
X75164802Y-52024785D01*
X75135000Y-51874961D01*
X75135000Y-51569439D01*
X75194604Y-51269791D01*
X75194624Y-51269742D01*
X75311521Y-50987526D01*
X75481259Y-50733495D01*
X75697295Y-50517459D01*
X75951326Y-50347721D01*
X76233590Y-50230804D01*
X76383415Y-50201002D01*
X76533239Y-50171200D01*
X76838761Y-50171200D01*
X76988585Y-50201002D01*
G37*
G36*
X105244112Y-50284927D02*
G01*
X105393412Y-50314624D01*
X105557384Y-50382544D01*
X105704954Y-50481147D01*
X105830453Y-50606646D01*
X105929056Y-50754216D01*
X105996976Y-50918188D01*
X106031600Y-51092259D01*
X106031600Y-51269741D01*
X105996976Y-51443812D01*
X105929056Y-51607784D01*
X105830453Y-51755354D01*
X105704954Y-51880853D01*
X105557384Y-51979456D01*
X105393412Y-52047376D01*
X105244112Y-52077073D01*
X105219342Y-52082000D01*
X105041858Y-52082000D01*
X105017088Y-52077073D01*
X104867788Y-52047376D01*
X104703816Y-51979456D01*
X104556246Y-51880853D01*
X104430747Y-51755354D01*
X104332144Y-51607784D01*
X104264224Y-51443812D01*
X104229600Y-51269741D01*
X104229600Y-51092259D01*
X104264224Y-50918188D01*
X104332144Y-50754216D01*
X104430747Y-50606646D01*
X104556246Y-50481147D01*
X104703816Y-50382544D01*
X104867788Y-50314624D01*
X105017088Y-50284927D01*
X105041858Y-50280000D01*
X105219342Y-50280000D01*
X105244112Y-50284927D01*
G37*
G36*
X107784112Y-50284927D02*
G01*
X107933412Y-50314624D01*
X108097384Y-50382544D01*
X108244954Y-50481147D01*
X108370453Y-50606646D01*
X108469056Y-50754216D01*
X108536976Y-50918188D01*
X108571600Y-51092259D01*
X108571600Y-51269741D01*
X108536976Y-51443812D01*
X108469056Y-51607784D01*
X108370453Y-51755354D01*
X108244954Y-51880853D01*
X108097384Y-51979456D01*
X107933412Y-52047376D01*
X107784112Y-52077073D01*
X107759342Y-52082000D01*
X107581858Y-52082000D01*
X107557088Y-52077073D01*
X107407788Y-52047376D01*
X107243816Y-51979456D01*
X107096246Y-51880853D01*
X106970747Y-51755354D01*
X106872144Y-51607784D01*
X106804224Y-51443812D01*
X106769600Y-51269741D01*
X106769600Y-51092259D01*
X106804224Y-50918188D01*
X106872144Y-50754216D01*
X106970747Y-50606646D01*
X107096246Y-50481147D01*
X107243816Y-50382544D01*
X107407788Y-50314624D01*
X107557088Y-50284927D01*
X107581858Y-50280000D01*
X107759342Y-50280000D01*
X107784112Y-50284927D01*
G37*
G36*
X72782912Y-50284927D02*
G01*
X72932212Y-50314624D01*
X73096184Y-50382544D01*
X73243754Y-50481147D01*
X73369253Y-50606646D01*
X73467856Y-50754216D01*
X73535776Y-50918188D01*
X73570400Y-51092259D01*
X73570400Y-51269741D01*
X73535776Y-51443812D01*
X73467856Y-51607784D01*
X73369253Y-51755354D01*
X73243754Y-51880853D01*
X73096184Y-51979456D01*
X72932212Y-52047376D01*
X72782912Y-52077073D01*
X72758142Y-52082000D01*
X72580658Y-52082000D01*
X72555888Y-52077073D01*
X72406588Y-52047376D01*
X72242616Y-51979456D01*
X72095046Y-51880853D01*
X71969547Y-51755354D01*
X71870944Y-51607784D01*
X71803024Y-51443812D01*
X71768400Y-51269741D01*
X71768400Y-51092259D01*
X71803024Y-50918188D01*
X71870944Y-50754216D01*
X71969547Y-50606646D01*
X72095046Y-50481147D01*
X72242616Y-50382544D01*
X72406588Y-50314624D01*
X72555888Y-50284927D01*
X72580658Y-50280000D01*
X72758142Y-50280000D01*
X72782912Y-50284927D01*
G37*
G36*
X70242912Y-50284927D02*
G01*
X70392212Y-50314624D01*
X70556184Y-50382544D01*
X70703754Y-50481147D01*
X70829253Y-50606646D01*
X70927856Y-50754216D01*
X70995776Y-50918188D01*
X71030400Y-51092259D01*
X71030400Y-51269741D01*
X70995776Y-51443812D01*
X70927856Y-51607784D01*
X70829253Y-51755354D01*
X70703754Y-51880853D01*
X70556184Y-51979456D01*
X70392212Y-52047376D01*
X70242912Y-52077073D01*
X70218142Y-52082000D01*
X70040658Y-52082000D01*
X70015888Y-52077073D01*
X69866588Y-52047376D01*
X69702616Y-51979456D01*
X69555046Y-51880853D01*
X69429547Y-51755354D01*
X69330944Y-51607784D01*
X69263024Y-51443812D01*
X69228400Y-51269741D01*
X69228400Y-51092259D01*
X69263024Y-50918188D01*
X69330944Y-50754216D01*
X69429547Y-50606646D01*
X69555046Y-50481147D01*
X69702616Y-50382544D01*
X69866588Y-50314624D01*
X70015888Y-50284927D01*
X70040658Y-50280000D01*
X70218142Y-50280000D01*
X70242912Y-50284927D01*
G37*
G36*
X72782912Y-47744927D02*
G01*
X72932212Y-47774624D01*
X73096184Y-47842544D01*
X73243754Y-47941147D01*
X73369253Y-48066646D01*
X73467856Y-48214216D01*
X73535776Y-48378188D01*
X73570400Y-48552259D01*
X73570400Y-48729741D01*
X73535776Y-48903812D01*
X73467856Y-49067784D01*
X73369253Y-49215354D01*
X73243754Y-49340853D01*
X73096184Y-49439456D01*
X72932212Y-49507376D01*
X72782912Y-49537073D01*
X72758142Y-49542000D01*
X72580658Y-49542000D01*
X72555888Y-49537073D01*
X72406588Y-49507376D01*
X72242616Y-49439456D01*
X72095046Y-49340853D01*
X71969547Y-49215354D01*
X71870944Y-49067784D01*
X71803024Y-48903812D01*
X71768400Y-48729741D01*
X71768400Y-48552259D01*
X71803024Y-48378188D01*
X71870944Y-48214216D01*
X71969547Y-48066646D01*
X72095046Y-47941147D01*
X72242616Y-47842544D01*
X72406588Y-47774624D01*
X72555888Y-47744927D01*
X72580658Y-47740000D01*
X72758142Y-47740000D01*
X72782912Y-47744927D01*
G37*
G36*
X71030400Y-49542000D02*
G01*
X69228400Y-49542000D01*
X69228400Y-47740000D01*
X71030400Y-47740000D01*
X71030400Y-49542000D01*
G37*
G36*
X107784112Y-47744927D02*
G01*
X107933412Y-47774624D01*
X108097384Y-47842544D01*
X108244954Y-47941147D01*
X108370453Y-48066646D01*
X108469056Y-48214216D01*
X108536976Y-48378188D01*
X108571600Y-48552259D01*
X108571600Y-48729741D01*
X108536976Y-48903812D01*
X108469056Y-49067784D01*
X108370453Y-49215354D01*
X108244954Y-49340853D01*
X108097384Y-49439456D01*
X107933412Y-49507376D01*
X107784112Y-49537073D01*
X107759342Y-49542000D01*
X107581858Y-49542000D01*
X107557088Y-49537073D01*
X107407788Y-49507376D01*
X107243816Y-49439456D01*
X107096246Y-49340853D01*
X106970747Y-49215354D01*
X106872144Y-49067784D01*
X106804224Y-48903812D01*
X106769600Y-48729741D01*
X106769600Y-48552259D01*
X106804224Y-48378188D01*
X106872144Y-48214216D01*
X106970747Y-48066646D01*
X107096246Y-47941147D01*
X107243816Y-47842544D01*
X107407788Y-47774624D01*
X107557088Y-47744927D01*
X107581858Y-47740000D01*
X107759342Y-47740000D01*
X107784112Y-47744927D01*
G37*
G36*
X106031600Y-49542000D02*
G01*
X104229600Y-49542000D01*
X104229600Y-47740000D01*
X106031600Y-47740000D01*
X106031600Y-49542000D01*
G37*
G36*
X97594600Y-46774401D02*
G01*
X97597002Y-46798787D01*
X97604115Y-46822236D01*
X97615666Y-46843847D01*
X97631211Y-46862789D01*
X97650153Y-46878334D01*
X97671764Y-46889885D01*
X97695213Y-46896998D01*
X97719599Y-46899400D01*
X100857601Y-46899400D01*
X100881987Y-46896998D01*
X100905436Y-46889885D01*
X100927047Y-46878334D01*
X100945989Y-46862789D01*
X100961534Y-46843847D01*
X100973085Y-46822236D01*
X100980198Y-46798787D01*
X100982600Y-46774401D01*
X100982600Y-46454400D01*
X102234600Y-46454400D01*
X102234600Y-48006400D01*
X100964599Y-48006400D01*
X100940213Y-48008802D01*
X100916764Y-48015915D01*
X100895153Y-48027466D01*
X100876211Y-48043011D01*
X100860666Y-48061953D01*
X100849115Y-48083564D01*
X100842002Y-48107013D01*
X100839600Y-48131399D01*
X100839600Y-48401400D01*
X97737600Y-48401400D01*
X97737600Y-48131399D01*
X97735198Y-48107013D01*
X97728085Y-48083564D01*
X97716534Y-48061953D01*
X97700989Y-48043011D01*
X97682047Y-48027466D01*
X97660436Y-48015915D01*
X97636987Y-48008802D01*
X97612601Y-48006400D01*
X96342600Y-48006400D01*
X96342600Y-46454400D01*
X97594600Y-46454400D01*
X97594600Y-46774401D01*
G37*
G36*
X71549585Y-43386002D02*
G01*
X71699410Y-43415804D01*
X71981674Y-43532721D01*
X72235705Y-43702459D01*
X72451741Y-43918495D01*
X72621479Y-44172526D01*
X72738396Y-44454790D01*
X72798000Y-44754440D01*
X72798000Y-45059960D01*
X72738396Y-45359610D01*
X72621479Y-45641874D01*
X72451741Y-45895905D01*
X72235705Y-46111941D01*
X71981674Y-46281679D01*
X71699410Y-46398596D01*
X71549585Y-46428398D01*
X71399761Y-46458200D01*
X71094239Y-46458200D01*
X70944415Y-46428398D01*
X70794590Y-46398596D01*
X70512326Y-46281679D01*
X70258295Y-46111941D01*
X70042259Y-45895905D01*
X69872521Y-45641874D01*
X69755604Y-45359610D01*
X69696000Y-45059960D01*
X69696000Y-44754440D01*
X69755604Y-44454790D01*
X69872521Y-44172526D01*
X70042259Y-43918495D01*
X70258295Y-43702459D01*
X70512326Y-43532721D01*
X70794590Y-43415804D01*
X70944415Y-43386002D01*
X71094239Y-43356200D01*
X71399761Y-43356200D01*
X71549585Y-43386002D01*
G37*
G36*
X106957185Y-43386002D02*
G01*
X107107010Y-43415804D01*
X107389274Y-43532721D01*
X107643305Y-43702459D01*
X107859341Y-43918495D01*
X108029079Y-44172526D01*
X108145996Y-44454790D01*
X108205600Y-44754440D01*
X108205600Y-45059960D01*
X108145996Y-45359610D01*
X108029079Y-45641874D01*
X107859341Y-45895905D01*
X107643305Y-46111941D01*
X107389274Y-46281679D01*
X107107010Y-46398596D01*
X106957185Y-46428398D01*
X106807361Y-46458200D01*
X106501839Y-46458200D01*
X106352015Y-46428398D01*
X106202190Y-46398596D01*
X105919926Y-46281679D01*
X105665895Y-46111941D01*
X105449859Y-45895905D01*
X105280121Y-45641874D01*
X105163204Y-45359610D01*
X105103600Y-45059960D01*
X105103600Y-44754440D01*
X105163204Y-44454790D01*
X105280121Y-44172526D01*
X105449859Y-43918495D01*
X105665895Y-43702459D01*
X105919926Y-43532721D01*
X106202190Y-43415804D01*
X106352015Y-43386002D01*
X106501839Y-43356200D01*
X106807361Y-43356200D01*
X106957185Y-43386002D01*
G37*
G36*
X102976515Y-44007734D02*
G01*
X103085091Y-44040671D01*
X103085094Y-44040672D01*
X103121200Y-44059971D01*
X103185156Y-44094156D01*
X103272864Y-44166136D01*
X103344844Y-44253843D01*
X103379029Y-44317799D01*
X103398328Y-44353905D01*
X103398328Y-44353906D01*
X103398329Y-44353908D01*
X103431266Y-44462484D01*
X103439600Y-44547102D01*
X103439600Y-45453698D01*
X103431266Y-45538316D01*
X103399852Y-45641872D01*
X103398328Y-45646895D01*
X103379029Y-45683001D01*
X103344844Y-45746957D01*
X103272864Y-45834664D01*
X103185157Y-45906644D01*
X103121201Y-45940829D01*
X103085095Y-45960128D01*
X103085092Y-45960129D01*
X102976516Y-45993066D01*
X102863600Y-46004187D01*
X102750685Y-45993066D01*
X102642109Y-45960129D01*
X102642106Y-45960128D01*
X102606000Y-45940829D01*
X102542044Y-45906644D01*
X102454337Y-45834664D01*
X102382357Y-45746957D01*
X102348172Y-45683001D01*
X102328873Y-45646895D01*
X102327349Y-45641872D01*
X102295935Y-45538316D01*
X102287600Y-45453698D01*
X102287600Y-44547103D01*
X102295934Y-44462485D01*
X102328871Y-44353909D01*
X102328872Y-44353906D01*
X102348171Y-44317800D01*
X102382356Y-44253844D01*
X102454336Y-44166136D01*
X102542043Y-44094156D01*
X102605999Y-44059971D01*
X102642105Y-44040672D01*
X102642108Y-44040671D01*
X102750684Y-44007734D01*
X102863600Y-43996613D01*
X102976515Y-44007734D01*
G37*
G36*
X95826516Y-44007734D02*
G01*
X95935092Y-44040671D01*
X95935095Y-44040672D01*
X95971201Y-44059971D01*
X96035157Y-44094156D01*
X96122864Y-44166136D01*
X96194844Y-44253843D01*
X96229029Y-44317799D01*
X96248328Y-44353905D01*
X96248328Y-44353906D01*
X96248329Y-44353908D01*
X96281266Y-44462484D01*
X96289600Y-44547102D01*
X96289600Y-45453698D01*
X96281266Y-45538316D01*
X96249852Y-45641872D01*
X96248328Y-45646895D01*
X96229029Y-45683001D01*
X96194844Y-45746957D01*
X96122864Y-45834664D01*
X96035156Y-45906644D01*
X95971200Y-45940829D01*
X95935094Y-45960128D01*
X95935091Y-45960129D01*
X95826515Y-45993066D01*
X95713600Y-46004187D01*
X95600684Y-45993066D01*
X95492108Y-45960129D01*
X95492105Y-45960128D01*
X95455999Y-45940829D01*
X95392043Y-45906644D01*
X95304336Y-45834664D01*
X95232356Y-45746956D01*
X95178873Y-45646895D01*
X95178872Y-45646894D01*
X95177349Y-45641874D01*
X95145934Y-45538315D01*
X95137600Y-45453697D01*
X95137600Y-44547102D01*
X95145935Y-44462484D01*
X95178872Y-44353908D01*
X95178873Y-44353906D01*
X95178873Y-44353905D01*
X95198172Y-44317799D01*
X95232357Y-44253843D01*
X95304337Y-44166136D01*
X95392044Y-44094156D01*
X95456000Y-44059971D01*
X95492106Y-44040672D01*
X95492109Y-44040671D01*
X95600685Y-44007734D01*
X95713600Y-43996613D01*
X95826516Y-44007734D01*
G37*
G36*
X99089600Y-46001400D02*
G01*
X97237600Y-46001400D01*
X97237600Y-43999400D01*
X99089600Y-43999400D01*
X99089600Y-46001400D01*
G37*
G36*
X101339600Y-46001400D02*
G01*
X99487600Y-46001400D01*
X99487600Y-43999400D01*
X101339600Y-43999400D01*
X101339600Y-46001400D01*
G37*
M02*
