G04 #@! TF.GenerationSoftware,KiCad,Pcbnew,5.1.6*
G04 #@! TF.CreationDate,2020-06-22T00:18:59+03:00*
G04 #@! TF.ProjectId,nanopicore_debug,6e616e6f-7069-4636-9f72-655f64656275,rev?*
G04 #@! TF.SameCoordinates,Original*
G04 #@! TF.FileFunction,Copper,L4,Bot*
G04 #@! TF.FilePolarity,Positive*
%FSLAX46Y46*%
G04 Gerber Fmt 4.6, Leading zero omitted, Abs format (unit mm)*
G04 Created by KiCad (PCBNEW 5.1.6) date 2020-06-22 00:18:59*
%MOMM*%
%LPD*%
G01*
G04 APERTURE LIST*
G04 #@! TA.AperFunction,ComponentPad*
%ADD10C,1.600000*%
G04 #@! TD*
G04 #@! TA.AperFunction,ComponentPad*
%ADD11R,1.600000X1.600000*%
G04 #@! TD*
G04 #@! TA.AperFunction,ComponentPad*
%ADD12C,3.000000*%
G04 #@! TD*
G04 #@! TA.AperFunction,ComponentPad*
%ADD13O,1.700000X1.700000*%
G04 #@! TD*
G04 #@! TA.AperFunction,ComponentPad*
%ADD14R,1.700000X1.700000*%
G04 #@! TD*
G04 #@! TA.AperFunction,SMDPad,CuDef*
%ADD15R,1.150000X1.450000*%
G04 #@! TD*
G04 #@! TA.AperFunction,ComponentPad*
%ADD16O,1.050000X1.900000*%
G04 #@! TD*
G04 #@! TA.AperFunction,SMDPad,CuDef*
%ADD17R,1.750000X1.900000*%
G04 #@! TD*
G04 #@! TA.AperFunction,SMDPad,CuDef*
%ADD18R,0.400000X1.400000*%
G04 #@! TD*
G04 #@! TA.AperFunction,ViaPad*
%ADD19C,0.800000*%
G04 #@! TD*
G04 #@! TA.AperFunction,Conductor*
%ADD20C,0.500000*%
G04 #@! TD*
G04 #@! TA.AperFunction,Conductor*
%ADD21C,0.300000*%
G04 #@! TD*
G04 #@! TA.AperFunction,Conductor*
%ADD22C,0.100000*%
G04 #@! TD*
G04 #@! TA.AperFunction,Conductor*
%ADD23C,0.200000*%
G04 #@! TD*
G04 #@! TA.AperFunction,Conductor*
%ADD24C,0.254000*%
G04 #@! TD*
G04 APERTURE END LIST*
D10*
X86756000Y-54432200D03*
X84256000Y-54432200D03*
X82256000Y-54432200D03*
D11*
X79756000Y-54432200D03*
D12*
X76686000Y-51722200D03*
X89826000Y-51722200D03*
D13*
X72669400Y-76581000D03*
X70129400Y-76581000D03*
X72669400Y-74041000D03*
X70129400Y-74041000D03*
X72669400Y-71501000D03*
X70129400Y-71501000D03*
X72669400Y-68961000D03*
X70129400Y-68961000D03*
X72669400Y-66421000D03*
X70129400Y-66421000D03*
X72669400Y-63881000D03*
X70129400Y-63881000D03*
X72669400Y-61341000D03*
X70129400Y-61341000D03*
X72669400Y-58801000D03*
X70129400Y-58801000D03*
X72669400Y-56261000D03*
X70129400Y-56261000D03*
X72669400Y-53721000D03*
X70129400Y-53721000D03*
X72669400Y-51181000D03*
X70129400Y-51181000D03*
X72669400Y-48641000D03*
D14*
X70129400Y-48641000D03*
D13*
X77470000Y-81280000D03*
X77470000Y-78740000D03*
X80010000Y-81280000D03*
X80010000Y-78740000D03*
X82550000Y-81280000D03*
X82550000Y-78740000D03*
X85090000Y-81280000D03*
X85090000Y-78740000D03*
X87630000Y-81280000D03*
X87630000Y-78740000D03*
X90170000Y-81280000D03*
X90170000Y-78740000D03*
X92710000Y-81280000D03*
X92710000Y-78740000D03*
X95250000Y-81280000D03*
X95250000Y-78740000D03*
X97790000Y-81280000D03*
X97790000Y-78740000D03*
X100330000Y-81280000D03*
D14*
X100330000Y-78740000D03*
D13*
X107670600Y-76581000D03*
X105130600Y-76581000D03*
X107670600Y-74041000D03*
X105130600Y-74041000D03*
X107670600Y-71501000D03*
X105130600Y-71501000D03*
X107670600Y-68961000D03*
X105130600Y-68961000D03*
X107670600Y-66421000D03*
X105130600Y-66421000D03*
X107670600Y-63881000D03*
X105130600Y-63881000D03*
X107670600Y-61341000D03*
X105130600Y-61341000D03*
X107670600Y-58801000D03*
X105130600Y-58801000D03*
X107670600Y-56261000D03*
X105130600Y-56261000D03*
X107670600Y-53721000D03*
X105130600Y-53721000D03*
X107670600Y-51181000D03*
X105130600Y-51181000D03*
X107670600Y-48641000D03*
D14*
X105130600Y-48641000D03*
D15*
X96968600Y-47230400D03*
X101608600Y-47230400D03*
D16*
X102863600Y-45000400D03*
X95713600Y-45000400D03*
D17*
X98163600Y-45000400D03*
D18*
X99288600Y-47650400D03*
X99938600Y-47650400D03*
X100588600Y-47650400D03*
X97988600Y-47650400D03*
X98638600Y-47650400D03*
D17*
X100413600Y-45000400D03*
D19*
X100965000Y-49530000D03*
X93980000Y-44577000D03*
X99950000Y-74850000D03*
X96300000Y-68500000D03*
X86700000Y-77100000D03*
X79200000Y-74500000D03*
X76900000Y-74500000D03*
X86000000Y-70200000D03*
X80100000Y-75100000D03*
X79629000Y-50165000D03*
X88773000Y-45720000D03*
X98200000Y-76200000D03*
X99600000Y-76050000D03*
X88900000Y-77100000D03*
X91400000Y-77150000D03*
X100965000Y-56540400D03*
X102819200Y-54737000D03*
X101015800Y-57912000D03*
X102590600Y-52044600D03*
X94716600Y-65709800D03*
X92964000Y-62636400D03*
X92913200Y-55422800D03*
X96723200Y-58191400D03*
X86360000Y-60045600D03*
X85013800Y-58801000D03*
X99822000Y-64008000D03*
X101981000Y-65532000D03*
X75438000Y-65024000D03*
X77216000Y-65024000D03*
X76962000Y-69342000D03*
X75438000Y-70866000D03*
X82804000Y-46736000D03*
X83820000Y-46736000D03*
X95758000Y-67564000D03*
X96520000Y-66802000D03*
X80800000Y-57200000D03*
X88300000Y-61100000D03*
X75800000Y-44950000D03*
X90800000Y-65800000D03*
X96710600Y-49428400D03*
X91101400Y-68300000D03*
X94625000Y-59050000D03*
X90051400Y-68300000D03*
X93200000Y-57100000D03*
D20*
X98163600Y-45000400D02*
X100413600Y-45000400D01*
X100588600Y-45175400D02*
X100588600Y-47650400D01*
X100413600Y-45000400D02*
X100588600Y-45175400D01*
X101188600Y-47650400D02*
X101608600Y-47230400D01*
X100588600Y-47650400D02*
X101188600Y-47650400D01*
X100588600Y-47650400D02*
X100588600Y-49153600D01*
X100588600Y-49153600D02*
X100965000Y-49530000D01*
X96968600Y-46195400D02*
X96968600Y-47230400D01*
X98163600Y-45000400D02*
X96968600Y-46195400D01*
X98163600Y-45000400D02*
X95713600Y-45000400D01*
X100413600Y-45000400D02*
X102863600Y-45000400D01*
X95713600Y-45000400D02*
X94403400Y-45000400D01*
X94403400Y-45000400D02*
X93980000Y-44577000D01*
D21*
X73930400Y-67700000D02*
X72669400Y-68961000D01*
X90800000Y-65800000D02*
X88900000Y-67700000D01*
X88900000Y-67700000D02*
X73930400Y-67700000D01*
D20*
X97988600Y-48150400D02*
X96710600Y-49428400D01*
X97988600Y-47650400D02*
X97988600Y-48150400D01*
D22*
X71299400Y-52551000D02*
X73590422Y-52551000D01*
X70129400Y-53721000D02*
X71299400Y-52551000D01*
X73590422Y-52551000D02*
X74600000Y-51541422D01*
X74600000Y-51541422D02*
X74600000Y-50641422D01*
X74600000Y-50641422D02*
X75641422Y-49600000D01*
X75641422Y-49600000D02*
X77958578Y-49600000D01*
X77958578Y-49600000D02*
X78600000Y-50241422D01*
X78600000Y-50241422D02*
X78600000Y-50841422D01*
X78600000Y-50841422D02*
X80158578Y-52400000D01*
X82256000Y-52715043D02*
X82256000Y-54432200D01*
X80158578Y-52400000D02*
X81940957Y-52400000D01*
X81940957Y-52400000D02*
X82256000Y-52715043D01*
X70129400Y-51181000D02*
X71299400Y-52351000D01*
X71299400Y-52351000D02*
X73507578Y-52351000D01*
X73507578Y-52351000D02*
X74400000Y-51458578D01*
X74400000Y-51458578D02*
X74400000Y-50558578D01*
X74400000Y-50558578D02*
X75558578Y-49400000D01*
X75558578Y-49400000D02*
X78041422Y-49400000D01*
X78041422Y-49400000D02*
X78800000Y-50158578D01*
X78800000Y-50158578D02*
X78800000Y-50758578D01*
X78800000Y-50758578D02*
X80241422Y-52200000D01*
X82023800Y-52200000D02*
X82397421Y-52573621D01*
X80241422Y-52200000D02*
X82023800Y-52200000D01*
X82397421Y-52573621D02*
X84256000Y-54432200D01*
D23*
X99288600Y-48700401D02*
X99288600Y-47650400D01*
X94325000Y-53993200D02*
X99188600Y-49129600D01*
X91101400Y-67886397D02*
X94325000Y-64662797D01*
X99188600Y-48800401D02*
X99288600Y-48700401D01*
X91101400Y-68300000D02*
X91101400Y-67886397D01*
X99188600Y-49129600D02*
X99188600Y-48800401D01*
X94450000Y-59025000D02*
X94325000Y-58900000D01*
X94325000Y-58900000D02*
X94325000Y-53993200D01*
X94450000Y-59050000D02*
X94325000Y-59175000D01*
X94325000Y-64662797D02*
X94325000Y-59175000D01*
X94450000Y-59025000D02*
X94450000Y-59050000D01*
X94325000Y-59175000D02*
X94325000Y-58900000D01*
X98638600Y-48700401D02*
X98638600Y-47650400D01*
X98738600Y-48800401D02*
X98638600Y-48700401D01*
X93875000Y-53806800D02*
X98738600Y-48943200D01*
X98738600Y-48943200D02*
X98738600Y-48800401D01*
X90051400Y-68300000D02*
X93875000Y-64476400D01*
D21*
X93200000Y-57100000D02*
X93500000Y-57100000D01*
D23*
X93865685Y-57000000D02*
X93875000Y-57000000D01*
X93765685Y-57100000D02*
X93865685Y-57000000D01*
X93200000Y-57100000D02*
X93765685Y-57100000D01*
X93875000Y-57000000D02*
X93875000Y-53806800D01*
X93765685Y-57100000D02*
X93775000Y-57100000D01*
X93875000Y-64476400D02*
X93875000Y-57200000D01*
X93775000Y-57100000D02*
X93875000Y-57200000D01*
X93875000Y-57200000D02*
X93875000Y-57000000D01*
D24*
G36*
X77597000Y-77255000D02*
G01*
X77323740Y-77255000D01*
X77036842Y-77312068D01*
X76766589Y-77424010D01*
X76523368Y-77586525D01*
X76316525Y-77793368D01*
X76154010Y-78036589D01*
X76042068Y-78306842D01*
X75985000Y-78593740D01*
X75985000Y-78886260D01*
X76042068Y-79173158D01*
X76154010Y-79443411D01*
X76316525Y-79686632D01*
X76523368Y-79893475D01*
X76697760Y-80010000D01*
X76523368Y-80126525D01*
X76316525Y-80333368D01*
X76154010Y-80576589D01*
X76042068Y-80846842D01*
X75985000Y-81133740D01*
X75985000Y-81426260D01*
X76042068Y-81713158D01*
X76146881Y-81966200D01*
X72614946Y-81966200D01*
X72905363Y-81675783D01*
X73139012Y-81326102D01*
X73299953Y-80937556D01*
X73382000Y-80525079D01*
X73382000Y-80104521D01*
X73299953Y-79692044D01*
X73139012Y-79303498D01*
X72905363Y-78953817D01*
X72607983Y-78656437D01*
X72258302Y-78422788D01*
X71869756Y-78261847D01*
X71457279Y-78179800D01*
X71036721Y-78179800D01*
X70624244Y-78261847D01*
X70235698Y-78422788D01*
X69886017Y-78656437D01*
X69621000Y-78921454D01*
X69621000Y-77968736D01*
X69772509Y-78022481D01*
X70002400Y-77901814D01*
X70002400Y-76708000D01*
X70256400Y-76708000D01*
X70256400Y-77901814D01*
X70486291Y-78022481D01*
X70760652Y-77925157D01*
X71010755Y-77776178D01*
X71226988Y-77581269D01*
X71399400Y-77350120D01*
X71571812Y-77581269D01*
X71788045Y-77776178D01*
X72038148Y-77925157D01*
X72312509Y-78022481D01*
X72542400Y-77901814D01*
X72542400Y-76708000D01*
X72796400Y-76708000D01*
X72796400Y-77901814D01*
X73026291Y-78022481D01*
X73300652Y-77925157D01*
X73550755Y-77776178D01*
X73766988Y-77581269D01*
X73941041Y-77347920D01*
X74066225Y-77085099D01*
X74110876Y-76937890D01*
X73989555Y-76708000D01*
X72796400Y-76708000D01*
X72542400Y-76708000D01*
X70256400Y-76708000D01*
X70002400Y-76708000D01*
X69982400Y-76708000D01*
X69982400Y-76454000D01*
X70002400Y-76454000D01*
X70002400Y-76434000D01*
X70256400Y-76434000D01*
X70256400Y-76454000D01*
X72542400Y-76454000D01*
X72542400Y-76434000D01*
X72796400Y-76434000D01*
X72796400Y-76454000D01*
X73989555Y-76454000D01*
X74110876Y-76224110D01*
X74066225Y-76076901D01*
X73941041Y-75814080D01*
X73766988Y-75580731D01*
X73550755Y-75385822D01*
X73433866Y-75316195D01*
X73616032Y-75194475D01*
X73822875Y-74987632D01*
X73985390Y-74744411D01*
X74097332Y-74474158D01*
X74154400Y-74187260D01*
X74154400Y-73894740D01*
X74097332Y-73607842D01*
X73985390Y-73337589D01*
X73822875Y-73094368D01*
X73616032Y-72887525D01*
X73441640Y-72771000D01*
X73616032Y-72654475D01*
X73822875Y-72447632D01*
X73985390Y-72204411D01*
X74097332Y-71934158D01*
X74154400Y-71647260D01*
X74154400Y-71354740D01*
X74097332Y-71067842D01*
X73985390Y-70797589D01*
X73822875Y-70554368D01*
X73616032Y-70347525D01*
X73441640Y-70231000D01*
X73616032Y-70114475D01*
X73822875Y-69907632D01*
X73985390Y-69664411D01*
X74097332Y-69394158D01*
X74154400Y-69107260D01*
X74154400Y-68814740D01*
X74116476Y-68624082D01*
X74255558Y-68485000D01*
X77597000Y-68485000D01*
X77597000Y-77255000D01*
G37*
X77597000Y-77255000D02*
X77323740Y-77255000D01*
X77036842Y-77312068D01*
X76766589Y-77424010D01*
X76523368Y-77586525D01*
X76316525Y-77793368D01*
X76154010Y-78036589D01*
X76042068Y-78306842D01*
X75985000Y-78593740D01*
X75985000Y-78886260D01*
X76042068Y-79173158D01*
X76154010Y-79443411D01*
X76316525Y-79686632D01*
X76523368Y-79893475D01*
X76697760Y-80010000D01*
X76523368Y-80126525D01*
X76316525Y-80333368D01*
X76154010Y-80576589D01*
X76042068Y-80846842D01*
X75985000Y-81133740D01*
X75985000Y-81426260D01*
X76042068Y-81713158D01*
X76146881Y-81966200D01*
X72614946Y-81966200D01*
X72905363Y-81675783D01*
X73139012Y-81326102D01*
X73299953Y-80937556D01*
X73382000Y-80525079D01*
X73382000Y-80104521D01*
X73299953Y-79692044D01*
X73139012Y-79303498D01*
X72905363Y-78953817D01*
X72607983Y-78656437D01*
X72258302Y-78422788D01*
X71869756Y-78261847D01*
X71457279Y-78179800D01*
X71036721Y-78179800D01*
X70624244Y-78261847D01*
X70235698Y-78422788D01*
X69886017Y-78656437D01*
X69621000Y-78921454D01*
X69621000Y-77968736D01*
X69772509Y-78022481D01*
X70002400Y-77901814D01*
X70002400Y-76708000D01*
X70256400Y-76708000D01*
X70256400Y-77901814D01*
X70486291Y-78022481D01*
X70760652Y-77925157D01*
X71010755Y-77776178D01*
X71226988Y-77581269D01*
X71399400Y-77350120D01*
X71571812Y-77581269D01*
X71788045Y-77776178D01*
X72038148Y-77925157D01*
X72312509Y-78022481D01*
X72542400Y-77901814D01*
X72542400Y-76708000D01*
X72796400Y-76708000D01*
X72796400Y-77901814D01*
X73026291Y-78022481D01*
X73300652Y-77925157D01*
X73550755Y-77776178D01*
X73766988Y-77581269D01*
X73941041Y-77347920D01*
X74066225Y-77085099D01*
X74110876Y-76937890D01*
X73989555Y-76708000D01*
X72796400Y-76708000D01*
X72542400Y-76708000D01*
X70256400Y-76708000D01*
X70002400Y-76708000D01*
X69982400Y-76708000D01*
X69982400Y-76454000D01*
X70002400Y-76454000D01*
X70002400Y-76434000D01*
X70256400Y-76434000D01*
X70256400Y-76454000D01*
X72542400Y-76454000D01*
X72542400Y-76434000D01*
X72796400Y-76434000D01*
X72796400Y-76454000D01*
X73989555Y-76454000D01*
X74110876Y-76224110D01*
X74066225Y-76076901D01*
X73941041Y-75814080D01*
X73766988Y-75580731D01*
X73550755Y-75385822D01*
X73433866Y-75316195D01*
X73616032Y-75194475D01*
X73822875Y-74987632D01*
X73985390Y-74744411D01*
X74097332Y-74474158D01*
X74154400Y-74187260D01*
X74154400Y-73894740D01*
X74097332Y-73607842D01*
X73985390Y-73337589D01*
X73822875Y-73094368D01*
X73616032Y-72887525D01*
X73441640Y-72771000D01*
X73616032Y-72654475D01*
X73822875Y-72447632D01*
X73985390Y-72204411D01*
X74097332Y-71934158D01*
X74154400Y-71647260D01*
X74154400Y-71354740D01*
X74097332Y-71067842D01*
X73985390Y-70797589D01*
X73822875Y-70554368D01*
X73616032Y-70347525D01*
X73441640Y-70231000D01*
X73616032Y-70114475D01*
X73822875Y-69907632D01*
X73985390Y-69664411D01*
X74097332Y-69394158D01*
X74154400Y-69107260D01*
X74154400Y-68814740D01*
X74116476Y-68624082D01*
X74255558Y-68485000D01*
X77597000Y-68485000D01*
X77597000Y-77255000D01*
G36*
X105260666Y-43281788D02*
G01*
X104996237Y-43546217D01*
X104762588Y-43895898D01*
X104601647Y-44284444D01*
X104519600Y-44696921D01*
X104519600Y-45117479D01*
X104601647Y-45529956D01*
X104762588Y-45918502D01*
X104996237Y-46268183D01*
X105293617Y-46565563D01*
X105643298Y-46799212D01*
X106031844Y-46960153D01*
X106444321Y-47042200D01*
X106864879Y-47042200D01*
X107277356Y-46960153D01*
X107665902Y-46799212D01*
X108015583Y-46565563D01*
X108281582Y-46299564D01*
X108282291Y-47287019D01*
X108103758Y-47213068D01*
X107816860Y-47156000D01*
X107524340Y-47156000D01*
X107237442Y-47213068D01*
X106967189Y-47325010D01*
X106723968Y-47487525D01*
X106592113Y-47619380D01*
X106570102Y-47546820D01*
X106511137Y-47436506D01*
X106431785Y-47339815D01*
X106335094Y-47260463D01*
X106224780Y-47201498D01*
X106105082Y-47165188D01*
X105980600Y-47152928D01*
X104280600Y-47152928D01*
X104156118Y-47165188D01*
X104036420Y-47201498D01*
X103926106Y-47260463D01*
X103829415Y-47339815D01*
X103750063Y-47436506D01*
X103691098Y-47546820D01*
X103654788Y-47666518D01*
X103642528Y-47791000D01*
X103642528Y-49491000D01*
X103654788Y-49615482D01*
X103691098Y-49735180D01*
X103750063Y-49845494D01*
X103829415Y-49942185D01*
X103926106Y-50021537D01*
X104036420Y-50080502D01*
X104108980Y-50102513D01*
X103977125Y-50234368D01*
X103814610Y-50477589D01*
X103702668Y-50747842D01*
X103645600Y-51034740D01*
X103645600Y-51327260D01*
X103702668Y-51614158D01*
X103814610Y-51884411D01*
X103977125Y-52127632D01*
X104183968Y-52334475D01*
X104358360Y-52451000D01*
X104183968Y-52567525D01*
X103977125Y-52774368D01*
X103814610Y-53017589D01*
X103702668Y-53287842D01*
X103645600Y-53574740D01*
X103645600Y-53867260D01*
X103702668Y-54154158D01*
X103814610Y-54424411D01*
X103977125Y-54667632D01*
X104183968Y-54874475D01*
X104358360Y-54991000D01*
X104183968Y-55107525D01*
X103977125Y-55314368D01*
X103814610Y-55557589D01*
X103702668Y-55827842D01*
X103645600Y-56114740D01*
X103645600Y-56407260D01*
X103702668Y-56694158D01*
X103814610Y-56964411D01*
X103977125Y-57207632D01*
X104183968Y-57414475D01*
X104366134Y-57536195D01*
X104249245Y-57605822D01*
X104033012Y-57800731D01*
X103858959Y-58034080D01*
X103733775Y-58296901D01*
X103689124Y-58444110D01*
X103810445Y-58674000D01*
X105003600Y-58674000D01*
X105003600Y-58654000D01*
X105257600Y-58654000D01*
X105257600Y-58674000D01*
X105277600Y-58674000D01*
X105277600Y-58928000D01*
X105257600Y-58928000D01*
X105257600Y-58948000D01*
X105003600Y-58948000D01*
X105003600Y-58928000D01*
X103810445Y-58928000D01*
X103689124Y-59157890D01*
X103733775Y-59305099D01*
X103858959Y-59567920D01*
X104033012Y-59801269D01*
X104249245Y-59996178D01*
X104366134Y-60065805D01*
X104183968Y-60187525D01*
X103977125Y-60394368D01*
X103814610Y-60637589D01*
X103702668Y-60907842D01*
X103645600Y-61194740D01*
X103645600Y-61487260D01*
X103702668Y-61774158D01*
X103814610Y-62044411D01*
X103977125Y-62287632D01*
X104183968Y-62494475D01*
X104358360Y-62611000D01*
X104183968Y-62727525D01*
X103977125Y-62934368D01*
X103814610Y-63177589D01*
X103702668Y-63447842D01*
X103645600Y-63734740D01*
X103645600Y-64027260D01*
X103702668Y-64314158D01*
X103814610Y-64584411D01*
X103977125Y-64827632D01*
X104183968Y-65034475D01*
X104358360Y-65151000D01*
X104183968Y-65267525D01*
X103977125Y-65474368D01*
X103814610Y-65717589D01*
X103702668Y-65987842D01*
X103645600Y-66274740D01*
X103645600Y-66567260D01*
X103702668Y-66854158D01*
X103814610Y-67124411D01*
X103977125Y-67367632D01*
X104183968Y-67574475D01*
X104358360Y-67691000D01*
X104183968Y-67807525D01*
X103977125Y-68014368D01*
X103814610Y-68257589D01*
X103702668Y-68527842D01*
X103645600Y-68814740D01*
X103645600Y-69107260D01*
X103702668Y-69394158D01*
X103814610Y-69664411D01*
X103977125Y-69907632D01*
X104183968Y-70114475D01*
X104358360Y-70231000D01*
X104183968Y-70347525D01*
X103977125Y-70554368D01*
X103814610Y-70797589D01*
X103702668Y-71067842D01*
X103645600Y-71354740D01*
X103645600Y-71647260D01*
X103702668Y-71934158D01*
X103814610Y-72204411D01*
X103977125Y-72447632D01*
X104183968Y-72654475D01*
X104358360Y-72771000D01*
X104183968Y-72887525D01*
X103977125Y-73094368D01*
X103814610Y-73337589D01*
X103702668Y-73607842D01*
X103645600Y-73894740D01*
X103645600Y-74187260D01*
X103702668Y-74474158D01*
X103814610Y-74744411D01*
X103977125Y-74987632D01*
X104183968Y-75194475D01*
X104358360Y-75311000D01*
X104183968Y-75427525D01*
X103977125Y-75634368D01*
X103814610Y-75877589D01*
X103702668Y-76147842D01*
X103645600Y-76434740D01*
X103645600Y-76727260D01*
X103702668Y-77014158D01*
X103814610Y-77284411D01*
X103977125Y-77527632D01*
X104183968Y-77734475D01*
X104427189Y-77896990D01*
X104697442Y-78008932D01*
X104984340Y-78066000D01*
X105276860Y-78066000D01*
X105563758Y-78008932D01*
X105834011Y-77896990D01*
X106077232Y-77734475D01*
X106284075Y-77527632D01*
X106400600Y-77353240D01*
X106517125Y-77527632D01*
X106723968Y-77734475D01*
X106967189Y-77896990D01*
X107237442Y-78008932D01*
X107524340Y-78066000D01*
X107816860Y-78066000D01*
X108103758Y-78008932D01*
X108304302Y-77925864D01*
X108305035Y-78945889D01*
X108015583Y-78656437D01*
X107665902Y-78422788D01*
X107277356Y-78261847D01*
X106864879Y-78179800D01*
X106444321Y-78179800D01*
X106031844Y-78261847D01*
X105643298Y-78422788D01*
X105293617Y-78656437D01*
X104996237Y-78953817D01*
X104762588Y-79303498D01*
X104601647Y-79692044D01*
X104519600Y-80104521D01*
X104519600Y-80525079D01*
X104601647Y-80937556D01*
X104762588Y-81326102D01*
X104996237Y-81675783D01*
X105286654Y-81966200D01*
X101653119Y-81966200D01*
X101757932Y-81713158D01*
X101815000Y-81426260D01*
X101815000Y-81133740D01*
X101757932Y-80846842D01*
X101645990Y-80576589D01*
X101483475Y-80333368D01*
X101351620Y-80201513D01*
X101424180Y-80179502D01*
X101534494Y-80120537D01*
X101631185Y-80041185D01*
X101710537Y-79944494D01*
X101769502Y-79834180D01*
X101805812Y-79714482D01*
X101818072Y-79590000D01*
X101818072Y-77890000D01*
X101805812Y-77765518D01*
X101769502Y-77645820D01*
X101710537Y-77535506D01*
X101631185Y-77438815D01*
X101534494Y-77359463D01*
X101424180Y-77300498D01*
X101304482Y-77264188D01*
X101180000Y-77251928D01*
X99480000Y-77251928D01*
X99355518Y-77264188D01*
X99235820Y-77300498D01*
X99125506Y-77359463D01*
X99028815Y-77438815D01*
X98949463Y-77535506D01*
X98890498Y-77645820D01*
X98868487Y-77718380D01*
X98736632Y-77586525D01*
X98493411Y-77424010D01*
X98223158Y-77312068D01*
X97936260Y-77255000D01*
X97643740Y-77255000D01*
X97356842Y-77312068D01*
X97086589Y-77424010D01*
X96843368Y-77586525D01*
X96636525Y-77793368D01*
X96520000Y-77967760D01*
X96403475Y-77793368D01*
X96196632Y-77586525D01*
X95953411Y-77424010D01*
X95683158Y-77312068D01*
X95396260Y-77255000D01*
X95103740Y-77255000D01*
X94816842Y-77312068D01*
X94546589Y-77424010D01*
X94303368Y-77586525D01*
X94096525Y-77793368D01*
X93980000Y-77967760D01*
X93863475Y-77793368D01*
X93656632Y-77586525D01*
X93413411Y-77424010D01*
X93143158Y-77312068D01*
X92856260Y-77255000D01*
X92563740Y-77255000D01*
X92276842Y-77312068D01*
X92006589Y-77424010D01*
X91763368Y-77586525D01*
X91556525Y-77793368D01*
X91440000Y-77967760D01*
X91323475Y-77793368D01*
X91116632Y-77586525D01*
X90873411Y-77424010D01*
X90603158Y-77312068D01*
X90316260Y-77255000D01*
X90023740Y-77255000D01*
X89736842Y-77312068D01*
X89466589Y-77424010D01*
X89223368Y-77586525D01*
X89016525Y-77793368D01*
X88894805Y-77975534D01*
X88825178Y-77858645D01*
X88630269Y-77642412D01*
X88396920Y-77468359D01*
X88134099Y-77343175D01*
X87986890Y-77298524D01*
X87757000Y-77419845D01*
X87757000Y-78613000D01*
X87777000Y-78613000D01*
X87777000Y-78867000D01*
X87757000Y-78867000D01*
X87757000Y-81153000D01*
X87777000Y-81153000D01*
X87777000Y-81407000D01*
X87757000Y-81407000D01*
X87757000Y-81427000D01*
X87503000Y-81427000D01*
X87503000Y-81407000D01*
X87483000Y-81407000D01*
X87483000Y-81153000D01*
X87503000Y-81153000D01*
X87503000Y-78867000D01*
X87483000Y-78867000D01*
X87483000Y-78613000D01*
X87503000Y-78613000D01*
X87503000Y-77419845D01*
X87273110Y-77298524D01*
X87125901Y-77343175D01*
X86863080Y-77468359D01*
X86629731Y-77642412D01*
X86434822Y-77858645D01*
X86365195Y-77975534D01*
X86243475Y-77793368D01*
X86036632Y-77586525D01*
X85947547Y-77527000D01*
X86000000Y-77527000D01*
X86024776Y-77524560D01*
X86048601Y-77517333D01*
X86070557Y-77505597D01*
X86089803Y-77489803D01*
X86105597Y-77470557D01*
X86117333Y-77448601D01*
X86124560Y-77424776D01*
X86127000Y-77400000D01*
X86127000Y-73027000D01*
X89662000Y-73027000D01*
X89686776Y-73024560D01*
X89710601Y-73017333D01*
X89732557Y-73005597D01*
X89751803Y-72989803D01*
X89767597Y-72970557D01*
X89779333Y-72948601D01*
X89786560Y-72924776D01*
X89789000Y-72900000D01*
X89789000Y-69303083D01*
X89949461Y-69335000D01*
X90153339Y-69335000D01*
X90353298Y-69295226D01*
X90541656Y-69217205D01*
X90576400Y-69193990D01*
X90611144Y-69217205D01*
X90799502Y-69295226D01*
X90999461Y-69335000D01*
X91203339Y-69335000D01*
X91403298Y-69295226D01*
X91591656Y-69217205D01*
X91761174Y-69103937D01*
X91905337Y-68959774D01*
X92018605Y-68790256D01*
X92096626Y-68601898D01*
X92136400Y-68401939D01*
X92136400Y-68198061D01*
X92096626Y-67998102D01*
X92076860Y-67950383D01*
X94819197Y-65208047D01*
X94847237Y-65185035D01*
X94870250Y-65156994D01*
X94870253Y-65156991D01*
X94895117Y-65126694D01*
X94939087Y-65073117D01*
X95007337Y-64945430D01*
X95049365Y-64806882D01*
X95060000Y-64698902D01*
X95060000Y-64698901D01*
X95063556Y-64662797D01*
X95060000Y-64626692D01*
X95060000Y-59990093D01*
X95115256Y-59967205D01*
X95284774Y-59853937D01*
X95428937Y-59709774D01*
X95542205Y-59540256D01*
X95620226Y-59351898D01*
X95660000Y-59151939D01*
X95660000Y-58948061D01*
X95620226Y-58748102D01*
X95542205Y-58559744D01*
X95428937Y-58390226D01*
X95284774Y-58246063D01*
X95115256Y-58132795D01*
X95060000Y-58109907D01*
X95060000Y-54297646D01*
X99682797Y-49674849D01*
X99710837Y-49651838D01*
X99733850Y-49623797D01*
X99733853Y-49623794D01*
X99781009Y-49566334D01*
X99802687Y-49539920D01*
X99870937Y-49412233D01*
X99912965Y-49273685D01*
X99917993Y-49222638D01*
X99927156Y-49129601D01*
X99923600Y-49093496D01*
X99923600Y-49071595D01*
X99968030Y-48988472D01*
X100138600Y-48988472D01*
X100263082Y-48976212D01*
X100265664Y-48975429D01*
X100356850Y-48985400D01*
X100424818Y-48917432D01*
X100493094Y-48880937D01*
X100589785Y-48801585D01*
X100661600Y-48714078D01*
X100661600Y-48826650D01*
X100820350Y-48985400D01*
X100922829Y-48974194D01*
X101041946Y-48936021D01*
X101151327Y-48875343D01*
X101246769Y-48794492D01*
X101324603Y-48696574D01*
X101381839Y-48585354D01*
X101403487Y-48509763D01*
X101481600Y-48431650D01*
X101481600Y-47357400D01*
X101735600Y-47357400D01*
X101735600Y-48431650D01*
X101894350Y-48590400D01*
X102183600Y-48593472D01*
X102308082Y-48581212D01*
X102427780Y-48544902D01*
X102538094Y-48485937D01*
X102634785Y-48406585D01*
X102714137Y-48309894D01*
X102773102Y-48199580D01*
X102809412Y-48079882D01*
X102821672Y-47955400D01*
X102818600Y-47516150D01*
X102659850Y-47357400D01*
X101735600Y-47357400D01*
X101481600Y-47357400D01*
X101461600Y-47357400D01*
X101461600Y-47103400D01*
X101481600Y-47103400D01*
X101481600Y-47083400D01*
X101735600Y-47083400D01*
X101735600Y-47103400D01*
X102659850Y-47103400D01*
X102818600Y-46944650D01*
X102821672Y-46505400D01*
X102809412Y-46380918D01*
X102773102Y-46261220D01*
X102736600Y-46192931D01*
X102736600Y-45127400D01*
X102990600Y-45127400D01*
X102990600Y-46418563D01*
X103169410Y-46544364D01*
X103402464Y-46460463D01*
X103594041Y-46335447D01*
X103757547Y-46175459D01*
X103886699Y-45986646D01*
X103976534Y-45776265D01*
X104023600Y-45552400D01*
X104023600Y-45127400D01*
X102990600Y-45127400D01*
X102736600Y-45127400D01*
X100540600Y-45127400D01*
X100540600Y-45147400D01*
X100286600Y-45147400D01*
X100286600Y-45127400D01*
X98290600Y-45127400D01*
X98290600Y-45147400D01*
X98036600Y-45147400D01*
X98036600Y-45127400D01*
X95840600Y-45127400D01*
X95840600Y-46192931D01*
X95804098Y-46261220D01*
X95767788Y-46380918D01*
X95755528Y-46505400D01*
X95758600Y-46944650D01*
X95917350Y-47103400D01*
X96841600Y-47103400D01*
X96841600Y-47083400D01*
X97095600Y-47083400D01*
X97095600Y-47103400D01*
X97115600Y-47103400D01*
X97115600Y-47357400D01*
X97095600Y-47357400D01*
X97095600Y-47377400D01*
X96841600Y-47377400D01*
X96841600Y-47357400D01*
X95917350Y-47357400D01*
X95758600Y-47516150D01*
X95755528Y-47955400D01*
X95767788Y-48079882D01*
X95804098Y-48199580D01*
X95863063Y-48309894D01*
X95942415Y-48406585D01*
X96039106Y-48485937D01*
X96149420Y-48544902D01*
X96163504Y-48549174D01*
X96050826Y-48624463D01*
X95906663Y-48768626D01*
X95793395Y-48938144D01*
X95715374Y-49126502D01*
X95675600Y-49326461D01*
X95675600Y-49530339D01*
X95715374Y-49730298D01*
X95793395Y-49918656D01*
X95906663Y-50088174D01*
X96050826Y-50232337D01*
X96220344Y-50345605D01*
X96274370Y-50367983D01*
X93380808Y-53261546D01*
X93352763Y-53284562D01*
X93260914Y-53396480D01*
X93228248Y-53457594D01*
X93192664Y-53524167D01*
X93150635Y-53662715D01*
X93136444Y-53806800D01*
X93140001Y-53842915D01*
X93140000Y-56065000D01*
X93098061Y-56065000D01*
X92898102Y-56104774D01*
X92709744Y-56182795D01*
X92540226Y-56296063D01*
X92396063Y-56440226D01*
X92282795Y-56609744D01*
X92204774Y-56798102D01*
X92165000Y-56998061D01*
X92165000Y-57201939D01*
X92204774Y-57401898D01*
X92282795Y-57590256D01*
X92396063Y-57759774D01*
X92540226Y-57903937D01*
X92709744Y-58017205D01*
X92898102Y-58095226D01*
X93098061Y-58135000D01*
X93140001Y-58135000D01*
X93140000Y-64171953D01*
X91798316Y-65513637D01*
X91795226Y-65498102D01*
X91717205Y-65309744D01*
X91603937Y-65140226D01*
X91459774Y-64996063D01*
X91290256Y-64882795D01*
X91101898Y-64804774D01*
X90901939Y-64765000D01*
X90698061Y-64765000D01*
X90498102Y-64804774D01*
X90309744Y-64882795D01*
X90140226Y-64996063D01*
X89996063Y-65140226D01*
X89882795Y-65309744D01*
X89804774Y-65498102D01*
X89765000Y-65698061D01*
X89765000Y-65724843D01*
X88574843Y-66915000D01*
X74072131Y-66915000D01*
X74097332Y-66854158D01*
X74154400Y-66567260D01*
X74154400Y-66274740D01*
X74097332Y-65987842D01*
X73985390Y-65717589D01*
X73822875Y-65474368D01*
X73616032Y-65267525D01*
X73441640Y-65151000D01*
X73616032Y-65034475D01*
X73822875Y-64827632D01*
X73985390Y-64584411D01*
X74097332Y-64314158D01*
X74154400Y-64027260D01*
X74154400Y-63734740D01*
X74097332Y-63447842D01*
X73985390Y-63177589D01*
X73822875Y-62934368D01*
X73616032Y-62727525D01*
X73441640Y-62611000D01*
X73616032Y-62494475D01*
X73822875Y-62287632D01*
X73985390Y-62044411D01*
X74097332Y-61774158D01*
X74154400Y-61487260D01*
X74154400Y-61194740D01*
X74115278Y-60998061D01*
X87265000Y-60998061D01*
X87265000Y-61201939D01*
X87304774Y-61401898D01*
X87382795Y-61590256D01*
X87496063Y-61759774D01*
X87640226Y-61903937D01*
X87809744Y-62017205D01*
X87998102Y-62095226D01*
X88198061Y-62135000D01*
X88401939Y-62135000D01*
X88601898Y-62095226D01*
X88790256Y-62017205D01*
X88959774Y-61903937D01*
X89103937Y-61759774D01*
X89217205Y-61590256D01*
X89295226Y-61401898D01*
X89335000Y-61201939D01*
X89335000Y-60998061D01*
X89295226Y-60798102D01*
X89217205Y-60609744D01*
X89103937Y-60440226D01*
X88959774Y-60296063D01*
X88790256Y-60182795D01*
X88601898Y-60104774D01*
X88401939Y-60065000D01*
X88198061Y-60065000D01*
X87998102Y-60104774D01*
X87809744Y-60182795D01*
X87640226Y-60296063D01*
X87496063Y-60440226D01*
X87382795Y-60609744D01*
X87304774Y-60798102D01*
X87265000Y-60998061D01*
X74115278Y-60998061D01*
X74097332Y-60907842D01*
X73985390Y-60637589D01*
X73822875Y-60394368D01*
X73616032Y-60187525D01*
X73441640Y-60071000D01*
X73616032Y-59954475D01*
X73822875Y-59747632D01*
X73985390Y-59504411D01*
X74097332Y-59234158D01*
X74154400Y-58947260D01*
X74154400Y-58654740D01*
X74097332Y-58367842D01*
X73985390Y-58097589D01*
X73822875Y-57854368D01*
X73616032Y-57647525D01*
X73441640Y-57531000D01*
X73616032Y-57414475D01*
X73822875Y-57207632D01*
X73896087Y-57098061D01*
X79765000Y-57098061D01*
X79765000Y-57301939D01*
X79804774Y-57501898D01*
X79882795Y-57690256D01*
X79996063Y-57859774D01*
X80140226Y-58003937D01*
X80309744Y-58117205D01*
X80498102Y-58195226D01*
X80698061Y-58235000D01*
X80901939Y-58235000D01*
X81101898Y-58195226D01*
X81290256Y-58117205D01*
X81459774Y-58003937D01*
X81603937Y-57859774D01*
X81717205Y-57690256D01*
X81795226Y-57501898D01*
X81835000Y-57301939D01*
X81835000Y-57098061D01*
X81795226Y-56898102D01*
X81717205Y-56709744D01*
X81603937Y-56540226D01*
X81459774Y-56396063D01*
X81290256Y-56282795D01*
X81101898Y-56204774D01*
X80901939Y-56165000D01*
X80698061Y-56165000D01*
X80498102Y-56204774D01*
X80309744Y-56282795D01*
X80140226Y-56396063D01*
X79996063Y-56540226D01*
X79882795Y-56709744D01*
X79804774Y-56898102D01*
X79765000Y-57098061D01*
X73896087Y-57098061D01*
X73985390Y-56964411D01*
X74097332Y-56694158D01*
X74154400Y-56407260D01*
X74154400Y-56114740D01*
X74097332Y-55827842D01*
X73985390Y-55557589D01*
X73822875Y-55314368D01*
X73616032Y-55107525D01*
X73441640Y-54991000D01*
X73616032Y-54874475D01*
X73822875Y-54667632D01*
X73985390Y-54424411D01*
X74097332Y-54154158D01*
X74154400Y-53867260D01*
X74154400Y-53574740D01*
X74097332Y-53287842D01*
X74066685Y-53213853D01*
X75373952Y-53213853D01*
X75529962Y-53529414D01*
X75904745Y-53720220D01*
X76309551Y-53834244D01*
X76728824Y-53867102D01*
X77146451Y-53817534D01*
X77546383Y-53687443D01*
X77842038Y-53529414D01*
X77998048Y-53213853D01*
X76686000Y-51901805D01*
X75373952Y-53213853D01*
X74066685Y-53213853D01*
X74014885Y-53088797D01*
X74077133Y-53037711D01*
X74098581Y-53011577D01*
X74673342Y-52436817D01*
X74720757Y-52582583D01*
X74878786Y-52878238D01*
X75194347Y-53034248D01*
X76506395Y-51722200D01*
X76492253Y-51708058D01*
X76671858Y-51528453D01*
X76686000Y-51542595D01*
X76700143Y-51528453D01*
X76879748Y-51708058D01*
X76865605Y-51722200D01*
X78177653Y-53034248D01*
X78493214Y-52878238D01*
X78684020Y-52503455D01*
X78798044Y-52098649D01*
X78804617Y-52014776D01*
X79650424Y-52860583D01*
X79671867Y-52886711D01*
X79697995Y-52908154D01*
X79698001Y-52908160D01*
X79739815Y-52942475D01*
X79776171Y-52972312D01*
X79816986Y-52994128D01*
X78956000Y-52994128D01*
X78831518Y-53006388D01*
X78711820Y-53042698D01*
X78601506Y-53101663D01*
X78504815Y-53181015D01*
X78425463Y-53277706D01*
X78366498Y-53388020D01*
X78330188Y-53507718D01*
X78317928Y-53632200D01*
X78317928Y-55232200D01*
X78330188Y-55356682D01*
X78366498Y-55476380D01*
X78425463Y-55586694D01*
X78504815Y-55683385D01*
X78601506Y-55762737D01*
X78711820Y-55821702D01*
X78831518Y-55858012D01*
X78956000Y-55870272D01*
X80556000Y-55870272D01*
X80680482Y-55858012D01*
X80800180Y-55821702D01*
X80910494Y-55762737D01*
X81007185Y-55683385D01*
X81086537Y-55586694D01*
X81145502Y-55476380D01*
X81174661Y-55380257D01*
X81341241Y-55546837D01*
X81576273Y-55703880D01*
X81837426Y-55812053D01*
X82114665Y-55867200D01*
X82397335Y-55867200D01*
X82674574Y-55812053D01*
X82935727Y-55703880D01*
X83170759Y-55546837D01*
X83256000Y-55461596D01*
X83341241Y-55546837D01*
X83576273Y-55703880D01*
X83837426Y-55812053D01*
X84114665Y-55867200D01*
X84397335Y-55867200D01*
X84674574Y-55812053D01*
X84935727Y-55703880D01*
X85170759Y-55546837D01*
X85292694Y-55424902D01*
X85942903Y-55424902D01*
X86014486Y-55668871D01*
X86269996Y-55789771D01*
X86544184Y-55858500D01*
X86826512Y-55872417D01*
X87106130Y-55830987D01*
X87372292Y-55735803D01*
X87497514Y-55668871D01*
X87569097Y-55424902D01*
X86756000Y-54611805D01*
X85942903Y-55424902D01*
X85292694Y-55424902D01*
X85370637Y-55346959D01*
X85504692Y-55146331D01*
X85519329Y-55173714D01*
X85763298Y-55245297D01*
X86576395Y-54432200D01*
X86935605Y-54432200D01*
X87748702Y-55245297D01*
X87992671Y-55173714D01*
X88113571Y-54918204D01*
X88182300Y-54644016D01*
X88196217Y-54361688D01*
X88154787Y-54082070D01*
X88059603Y-53815908D01*
X87992671Y-53690686D01*
X87748702Y-53619103D01*
X86935605Y-54432200D01*
X86576395Y-54432200D01*
X85763298Y-53619103D01*
X85519329Y-53690686D01*
X85505676Y-53719541D01*
X85370637Y-53517441D01*
X85292694Y-53439498D01*
X85942903Y-53439498D01*
X86756000Y-54252595D01*
X87569097Y-53439498D01*
X87502891Y-53213853D01*
X88513952Y-53213853D01*
X88669962Y-53529414D01*
X89044745Y-53720220D01*
X89449551Y-53834244D01*
X89868824Y-53867102D01*
X90286451Y-53817534D01*
X90686383Y-53687443D01*
X90982038Y-53529414D01*
X91138048Y-53213853D01*
X89826000Y-51901805D01*
X88513952Y-53213853D01*
X87502891Y-53213853D01*
X87497514Y-53195529D01*
X87242004Y-53074629D01*
X86967816Y-53005900D01*
X86685488Y-52991983D01*
X86405870Y-53033413D01*
X86139708Y-53128597D01*
X86014486Y-53195529D01*
X85942903Y-53439498D01*
X85292694Y-53439498D01*
X85170759Y-53317563D01*
X84935727Y-53160520D01*
X84674574Y-53052347D01*
X84397335Y-52997200D01*
X84114665Y-52997200D01*
X83843646Y-53051110D01*
X82557560Y-51765024D01*
X87681098Y-51765024D01*
X87730666Y-52182651D01*
X87860757Y-52582583D01*
X88018786Y-52878238D01*
X88334347Y-53034248D01*
X89646395Y-51722200D01*
X90005605Y-51722200D01*
X91317653Y-53034248D01*
X91633214Y-52878238D01*
X91824020Y-52503455D01*
X91938044Y-52098649D01*
X91970902Y-51679376D01*
X91921334Y-51261749D01*
X91791243Y-50861817D01*
X91633214Y-50566162D01*
X91317653Y-50410152D01*
X90005605Y-51722200D01*
X89646395Y-51722200D01*
X88334347Y-50410152D01*
X88018786Y-50566162D01*
X87827980Y-50940945D01*
X87713956Y-51345751D01*
X87681098Y-51765024D01*
X82557560Y-51765024D01*
X82531958Y-51739422D01*
X82510511Y-51713289D01*
X82406207Y-51627688D01*
X82287206Y-51564081D01*
X82158083Y-51524912D01*
X82057447Y-51515000D01*
X82057439Y-51515000D01*
X82023800Y-51511687D01*
X81990161Y-51515000D01*
X80525158Y-51515000D01*
X79485000Y-50474842D01*
X79485000Y-50230547D01*
X88513952Y-50230547D01*
X89826000Y-51542595D01*
X91138048Y-50230547D01*
X90982038Y-49914986D01*
X90607255Y-49724180D01*
X90202449Y-49610156D01*
X89783176Y-49577298D01*
X89365549Y-49626866D01*
X88965617Y-49756957D01*
X88669962Y-49914986D01*
X88513952Y-50230547D01*
X79485000Y-50230547D01*
X79485000Y-50192216D01*
X79488313Y-50158577D01*
X79485000Y-50124938D01*
X79485000Y-50124931D01*
X79475088Y-50024295D01*
X79474252Y-50021537D01*
X79454671Y-49956990D01*
X79435919Y-49895172D01*
X79372312Y-49776171D01*
X79354700Y-49754711D01*
X79308159Y-49698001D01*
X79308154Y-49697996D01*
X79286710Y-49671867D01*
X79260582Y-49650424D01*
X78549580Y-48939422D01*
X78528133Y-48913289D01*
X78499526Y-48889811D01*
X78481896Y-48875343D01*
X78423829Y-48827688D01*
X78304828Y-48764081D01*
X78175705Y-48724912D01*
X78075069Y-48715000D01*
X78075061Y-48715000D01*
X78041422Y-48711687D01*
X78007783Y-48715000D01*
X75592217Y-48715000D01*
X75558578Y-48711687D01*
X75524939Y-48715000D01*
X75524931Y-48715000D01*
X75424295Y-48724912D01*
X75295171Y-48764081D01*
X75266854Y-48779217D01*
X75176171Y-48827688D01*
X75152680Y-48846967D01*
X75100475Y-48889811D01*
X75071867Y-48913289D01*
X75050420Y-48939422D01*
X73939418Y-50050424D01*
X73913290Y-50071867D01*
X73891847Y-50097995D01*
X73891840Y-50098002D01*
X73852175Y-50146335D01*
X73827689Y-50176171D01*
X73805741Y-50217234D01*
X73616032Y-50027525D01*
X73441640Y-49911000D01*
X73616032Y-49794475D01*
X73822875Y-49587632D01*
X73985390Y-49344411D01*
X74097332Y-49074158D01*
X74154400Y-48787260D01*
X74154400Y-48494740D01*
X74097332Y-48207842D01*
X73985390Y-47937589D01*
X73822875Y-47694368D01*
X73616032Y-47487525D01*
X73372811Y-47325010D01*
X73102558Y-47213068D01*
X72815660Y-47156000D01*
X72523140Y-47156000D01*
X72236242Y-47213068D01*
X71965989Y-47325010D01*
X71722768Y-47487525D01*
X71590913Y-47619380D01*
X71568902Y-47546820D01*
X71509937Y-47436506D01*
X71430585Y-47339815D01*
X71333894Y-47260463D01*
X71223580Y-47201498D01*
X71103882Y-47165188D01*
X70979400Y-47152928D01*
X69621000Y-47152928D01*
X69621000Y-46300546D01*
X69886017Y-46565563D01*
X70235698Y-46799212D01*
X70624244Y-46960153D01*
X71036721Y-47042200D01*
X71457279Y-47042200D01*
X71869756Y-46960153D01*
X72258302Y-46799212D01*
X72607983Y-46565563D01*
X72905363Y-46268183D01*
X73139012Y-45918502D01*
X73299953Y-45529956D01*
X73382000Y-45117479D01*
X73382000Y-44848061D01*
X74765000Y-44848061D01*
X74765000Y-45051939D01*
X74804774Y-45251898D01*
X74882795Y-45440256D01*
X74996063Y-45609774D01*
X75140226Y-45753937D01*
X75309744Y-45867205D01*
X75498102Y-45945226D01*
X75698061Y-45985000D01*
X75901939Y-45985000D01*
X76101898Y-45945226D01*
X76290256Y-45867205D01*
X76459774Y-45753937D01*
X76603937Y-45609774D01*
X76717205Y-45440256D01*
X76795226Y-45251898D01*
X76819989Y-45127400D01*
X94553600Y-45127400D01*
X94553600Y-45552400D01*
X94600666Y-45776265D01*
X94690501Y-45986646D01*
X94819653Y-46175459D01*
X94983159Y-46335447D01*
X95174736Y-46460463D01*
X95407790Y-46544364D01*
X95586600Y-46418563D01*
X95586600Y-45127400D01*
X94553600Y-45127400D01*
X76819989Y-45127400D01*
X76835000Y-45051939D01*
X76835000Y-44848061D01*
X76795226Y-44648102D01*
X76717205Y-44459744D01*
X76709626Y-44448400D01*
X94553600Y-44448400D01*
X94553600Y-44873400D01*
X95586600Y-44873400D01*
X95586600Y-43582237D01*
X95840600Y-43582237D01*
X95840600Y-44873400D01*
X98036600Y-44873400D01*
X98036600Y-43574150D01*
X98290600Y-43574150D01*
X98290600Y-44873400D01*
X100286600Y-44873400D01*
X100286600Y-43574150D01*
X100540600Y-43574150D01*
X100540600Y-44873400D01*
X102736600Y-44873400D01*
X102736600Y-43582237D01*
X102990600Y-43582237D01*
X102990600Y-44873400D01*
X104023600Y-44873400D01*
X104023600Y-44448400D01*
X103976534Y-44224535D01*
X103886699Y-44014154D01*
X103757547Y-43825341D01*
X103594041Y-43665353D01*
X103402464Y-43540337D01*
X103169410Y-43456436D01*
X102990600Y-43582237D01*
X102736600Y-43582237D01*
X102557790Y-43456436D01*
X102324736Y-43540337D01*
X102133159Y-43665353D01*
X101969653Y-43825341D01*
X101910247Y-43912189D01*
X101878102Y-43806220D01*
X101819137Y-43695906D01*
X101739785Y-43599215D01*
X101643094Y-43519863D01*
X101532780Y-43460898D01*
X101413082Y-43424588D01*
X101288600Y-43412328D01*
X100699350Y-43415400D01*
X100540600Y-43574150D01*
X100286600Y-43574150D01*
X100127850Y-43415400D01*
X99538600Y-43412328D01*
X99414118Y-43424588D01*
X99294420Y-43460898D01*
X99288600Y-43464009D01*
X99282780Y-43460898D01*
X99163082Y-43424588D01*
X99038600Y-43412328D01*
X98449350Y-43415400D01*
X98290600Y-43574150D01*
X98036600Y-43574150D01*
X97877850Y-43415400D01*
X97288600Y-43412328D01*
X97164118Y-43424588D01*
X97044420Y-43460898D01*
X96934106Y-43519863D01*
X96837415Y-43599215D01*
X96758063Y-43695906D01*
X96699098Y-43806220D01*
X96666953Y-43912189D01*
X96607547Y-43825341D01*
X96444041Y-43665353D01*
X96252464Y-43540337D01*
X96019410Y-43456436D01*
X95840600Y-43582237D01*
X95586600Y-43582237D01*
X95407790Y-43456436D01*
X95174736Y-43540337D01*
X94983159Y-43665353D01*
X94819653Y-43825341D01*
X94690501Y-44014154D01*
X94600666Y-44224535D01*
X94553600Y-44448400D01*
X76709626Y-44448400D01*
X76603937Y-44290226D01*
X76459774Y-44146063D01*
X76290256Y-44032795D01*
X76101898Y-43954774D01*
X75901939Y-43915000D01*
X75698061Y-43915000D01*
X75498102Y-43954774D01*
X75309744Y-44032795D01*
X75140226Y-44146063D01*
X74996063Y-44290226D01*
X74882795Y-44459744D01*
X74804774Y-44648102D01*
X74765000Y-44848061D01*
X73382000Y-44848061D01*
X73382000Y-44696921D01*
X73299953Y-44284444D01*
X73139012Y-43895898D01*
X72905363Y-43546217D01*
X72640374Y-43281228D01*
X105260666Y-43281788D01*
G37*
X105260666Y-43281788D02*
X104996237Y-43546217D01*
X104762588Y-43895898D01*
X104601647Y-44284444D01*
X104519600Y-44696921D01*
X104519600Y-45117479D01*
X104601647Y-45529956D01*
X104762588Y-45918502D01*
X104996237Y-46268183D01*
X105293617Y-46565563D01*
X105643298Y-46799212D01*
X106031844Y-46960153D01*
X106444321Y-47042200D01*
X106864879Y-47042200D01*
X107277356Y-46960153D01*
X107665902Y-46799212D01*
X108015583Y-46565563D01*
X108281582Y-46299564D01*
X108282291Y-47287019D01*
X108103758Y-47213068D01*
X107816860Y-47156000D01*
X107524340Y-47156000D01*
X107237442Y-47213068D01*
X106967189Y-47325010D01*
X106723968Y-47487525D01*
X106592113Y-47619380D01*
X106570102Y-47546820D01*
X106511137Y-47436506D01*
X106431785Y-47339815D01*
X106335094Y-47260463D01*
X106224780Y-47201498D01*
X106105082Y-47165188D01*
X105980600Y-47152928D01*
X104280600Y-47152928D01*
X104156118Y-47165188D01*
X104036420Y-47201498D01*
X103926106Y-47260463D01*
X103829415Y-47339815D01*
X103750063Y-47436506D01*
X103691098Y-47546820D01*
X103654788Y-47666518D01*
X103642528Y-47791000D01*
X103642528Y-49491000D01*
X103654788Y-49615482D01*
X103691098Y-49735180D01*
X103750063Y-49845494D01*
X103829415Y-49942185D01*
X103926106Y-50021537D01*
X104036420Y-50080502D01*
X104108980Y-50102513D01*
X103977125Y-50234368D01*
X103814610Y-50477589D01*
X103702668Y-50747842D01*
X103645600Y-51034740D01*
X103645600Y-51327260D01*
X103702668Y-51614158D01*
X103814610Y-51884411D01*
X103977125Y-52127632D01*
X104183968Y-52334475D01*
X104358360Y-52451000D01*
X104183968Y-52567525D01*
X103977125Y-52774368D01*
X103814610Y-53017589D01*
X103702668Y-53287842D01*
X103645600Y-53574740D01*
X103645600Y-53867260D01*
X103702668Y-54154158D01*
X103814610Y-54424411D01*
X103977125Y-54667632D01*
X104183968Y-54874475D01*
X104358360Y-54991000D01*
X104183968Y-55107525D01*
X103977125Y-55314368D01*
X103814610Y-55557589D01*
X103702668Y-55827842D01*
X103645600Y-56114740D01*
X103645600Y-56407260D01*
X103702668Y-56694158D01*
X103814610Y-56964411D01*
X103977125Y-57207632D01*
X104183968Y-57414475D01*
X104366134Y-57536195D01*
X104249245Y-57605822D01*
X104033012Y-57800731D01*
X103858959Y-58034080D01*
X103733775Y-58296901D01*
X103689124Y-58444110D01*
X103810445Y-58674000D01*
X105003600Y-58674000D01*
X105003600Y-58654000D01*
X105257600Y-58654000D01*
X105257600Y-58674000D01*
X105277600Y-58674000D01*
X105277600Y-58928000D01*
X105257600Y-58928000D01*
X105257600Y-58948000D01*
X105003600Y-58948000D01*
X105003600Y-58928000D01*
X103810445Y-58928000D01*
X103689124Y-59157890D01*
X103733775Y-59305099D01*
X103858959Y-59567920D01*
X104033012Y-59801269D01*
X104249245Y-59996178D01*
X104366134Y-60065805D01*
X104183968Y-60187525D01*
X103977125Y-60394368D01*
X103814610Y-60637589D01*
X103702668Y-60907842D01*
X103645600Y-61194740D01*
X103645600Y-61487260D01*
X103702668Y-61774158D01*
X103814610Y-62044411D01*
X103977125Y-62287632D01*
X104183968Y-62494475D01*
X104358360Y-62611000D01*
X104183968Y-62727525D01*
X103977125Y-62934368D01*
X103814610Y-63177589D01*
X103702668Y-63447842D01*
X103645600Y-63734740D01*
X103645600Y-64027260D01*
X103702668Y-64314158D01*
X103814610Y-64584411D01*
X103977125Y-64827632D01*
X104183968Y-65034475D01*
X104358360Y-65151000D01*
X104183968Y-65267525D01*
X103977125Y-65474368D01*
X103814610Y-65717589D01*
X103702668Y-65987842D01*
X103645600Y-66274740D01*
X103645600Y-66567260D01*
X103702668Y-66854158D01*
X103814610Y-67124411D01*
X103977125Y-67367632D01*
X104183968Y-67574475D01*
X104358360Y-67691000D01*
X104183968Y-67807525D01*
X103977125Y-68014368D01*
X103814610Y-68257589D01*
X103702668Y-68527842D01*
X103645600Y-68814740D01*
X103645600Y-69107260D01*
X103702668Y-69394158D01*
X103814610Y-69664411D01*
X103977125Y-69907632D01*
X104183968Y-70114475D01*
X104358360Y-70231000D01*
X104183968Y-70347525D01*
X103977125Y-70554368D01*
X103814610Y-70797589D01*
X103702668Y-71067842D01*
X103645600Y-71354740D01*
X103645600Y-71647260D01*
X103702668Y-71934158D01*
X103814610Y-72204411D01*
X103977125Y-72447632D01*
X104183968Y-72654475D01*
X104358360Y-72771000D01*
X104183968Y-72887525D01*
X103977125Y-73094368D01*
X103814610Y-73337589D01*
X103702668Y-73607842D01*
X103645600Y-73894740D01*
X103645600Y-74187260D01*
X103702668Y-74474158D01*
X103814610Y-74744411D01*
X103977125Y-74987632D01*
X104183968Y-75194475D01*
X104358360Y-75311000D01*
X104183968Y-75427525D01*
X103977125Y-75634368D01*
X103814610Y-75877589D01*
X103702668Y-76147842D01*
X103645600Y-76434740D01*
X103645600Y-76727260D01*
X103702668Y-77014158D01*
X103814610Y-77284411D01*
X103977125Y-77527632D01*
X104183968Y-77734475D01*
X104427189Y-77896990D01*
X104697442Y-78008932D01*
X104984340Y-78066000D01*
X105276860Y-78066000D01*
X105563758Y-78008932D01*
X105834011Y-77896990D01*
X106077232Y-77734475D01*
X106284075Y-77527632D01*
X106400600Y-77353240D01*
X106517125Y-77527632D01*
X106723968Y-77734475D01*
X106967189Y-77896990D01*
X107237442Y-78008932D01*
X107524340Y-78066000D01*
X107816860Y-78066000D01*
X108103758Y-78008932D01*
X108304302Y-77925864D01*
X108305035Y-78945889D01*
X108015583Y-78656437D01*
X107665902Y-78422788D01*
X107277356Y-78261847D01*
X106864879Y-78179800D01*
X106444321Y-78179800D01*
X106031844Y-78261847D01*
X105643298Y-78422788D01*
X105293617Y-78656437D01*
X104996237Y-78953817D01*
X104762588Y-79303498D01*
X104601647Y-79692044D01*
X104519600Y-80104521D01*
X104519600Y-80525079D01*
X104601647Y-80937556D01*
X104762588Y-81326102D01*
X104996237Y-81675783D01*
X105286654Y-81966200D01*
X101653119Y-81966200D01*
X101757932Y-81713158D01*
X101815000Y-81426260D01*
X101815000Y-81133740D01*
X101757932Y-80846842D01*
X101645990Y-80576589D01*
X101483475Y-80333368D01*
X101351620Y-80201513D01*
X101424180Y-80179502D01*
X101534494Y-80120537D01*
X101631185Y-80041185D01*
X101710537Y-79944494D01*
X101769502Y-79834180D01*
X101805812Y-79714482D01*
X101818072Y-79590000D01*
X101818072Y-77890000D01*
X101805812Y-77765518D01*
X101769502Y-77645820D01*
X101710537Y-77535506D01*
X101631185Y-77438815D01*
X101534494Y-77359463D01*
X101424180Y-77300498D01*
X101304482Y-77264188D01*
X101180000Y-77251928D01*
X99480000Y-77251928D01*
X99355518Y-77264188D01*
X99235820Y-77300498D01*
X99125506Y-77359463D01*
X99028815Y-77438815D01*
X98949463Y-77535506D01*
X98890498Y-77645820D01*
X98868487Y-77718380D01*
X98736632Y-77586525D01*
X98493411Y-77424010D01*
X98223158Y-77312068D01*
X97936260Y-77255000D01*
X97643740Y-77255000D01*
X97356842Y-77312068D01*
X97086589Y-77424010D01*
X96843368Y-77586525D01*
X96636525Y-77793368D01*
X96520000Y-77967760D01*
X96403475Y-77793368D01*
X96196632Y-77586525D01*
X95953411Y-77424010D01*
X95683158Y-77312068D01*
X95396260Y-77255000D01*
X95103740Y-77255000D01*
X94816842Y-77312068D01*
X94546589Y-77424010D01*
X94303368Y-77586525D01*
X94096525Y-77793368D01*
X93980000Y-77967760D01*
X93863475Y-77793368D01*
X93656632Y-77586525D01*
X93413411Y-77424010D01*
X93143158Y-77312068D01*
X92856260Y-77255000D01*
X92563740Y-77255000D01*
X92276842Y-77312068D01*
X92006589Y-77424010D01*
X91763368Y-77586525D01*
X91556525Y-77793368D01*
X91440000Y-77967760D01*
X91323475Y-77793368D01*
X91116632Y-77586525D01*
X90873411Y-77424010D01*
X90603158Y-77312068D01*
X90316260Y-77255000D01*
X90023740Y-77255000D01*
X89736842Y-77312068D01*
X89466589Y-77424010D01*
X89223368Y-77586525D01*
X89016525Y-77793368D01*
X88894805Y-77975534D01*
X88825178Y-77858645D01*
X88630269Y-77642412D01*
X88396920Y-77468359D01*
X88134099Y-77343175D01*
X87986890Y-77298524D01*
X87757000Y-77419845D01*
X87757000Y-78613000D01*
X87777000Y-78613000D01*
X87777000Y-78867000D01*
X87757000Y-78867000D01*
X87757000Y-81153000D01*
X87777000Y-81153000D01*
X87777000Y-81407000D01*
X87757000Y-81407000D01*
X87757000Y-81427000D01*
X87503000Y-81427000D01*
X87503000Y-81407000D01*
X87483000Y-81407000D01*
X87483000Y-81153000D01*
X87503000Y-81153000D01*
X87503000Y-78867000D01*
X87483000Y-78867000D01*
X87483000Y-78613000D01*
X87503000Y-78613000D01*
X87503000Y-77419845D01*
X87273110Y-77298524D01*
X87125901Y-77343175D01*
X86863080Y-77468359D01*
X86629731Y-77642412D01*
X86434822Y-77858645D01*
X86365195Y-77975534D01*
X86243475Y-77793368D01*
X86036632Y-77586525D01*
X85947547Y-77527000D01*
X86000000Y-77527000D01*
X86024776Y-77524560D01*
X86048601Y-77517333D01*
X86070557Y-77505597D01*
X86089803Y-77489803D01*
X86105597Y-77470557D01*
X86117333Y-77448601D01*
X86124560Y-77424776D01*
X86127000Y-77400000D01*
X86127000Y-73027000D01*
X89662000Y-73027000D01*
X89686776Y-73024560D01*
X89710601Y-73017333D01*
X89732557Y-73005597D01*
X89751803Y-72989803D01*
X89767597Y-72970557D01*
X89779333Y-72948601D01*
X89786560Y-72924776D01*
X89789000Y-72900000D01*
X89789000Y-69303083D01*
X89949461Y-69335000D01*
X90153339Y-69335000D01*
X90353298Y-69295226D01*
X90541656Y-69217205D01*
X90576400Y-69193990D01*
X90611144Y-69217205D01*
X90799502Y-69295226D01*
X90999461Y-69335000D01*
X91203339Y-69335000D01*
X91403298Y-69295226D01*
X91591656Y-69217205D01*
X91761174Y-69103937D01*
X91905337Y-68959774D01*
X92018605Y-68790256D01*
X92096626Y-68601898D01*
X92136400Y-68401939D01*
X92136400Y-68198061D01*
X92096626Y-67998102D01*
X92076860Y-67950383D01*
X94819197Y-65208047D01*
X94847237Y-65185035D01*
X94870250Y-65156994D01*
X94870253Y-65156991D01*
X94895117Y-65126694D01*
X94939087Y-65073117D01*
X95007337Y-64945430D01*
X95049365Y-64806882D01*
X95060000Y-64698902D01*
X95060000Y-64698901D01*
X95063556Y-64662797D01*
X95060000Y-64626692D01*
X95060000Y-59990093D01*
X95115256Y-59967205D01*
X95284774Y-59853937D01*
X95428937Y-59709774D01*
X95542205Y-59540256D01*
X95620226Y-59351898D01*
X95660000Y-59151939D01*
X95660000Y-58948061D01*
X95620226Y-58748102D01*
X95542205Y-58559744D01*
X95428937Y-58390226D01*
X95284774Y-58246063D01*
X95115256Y-58132795D01*
X95060000Y-58109907D01*
X95060000Y-54297646D01*
X99682797Y-49674849D01*
X99710837Y-49651838D01*
X99733850Y-49623797D01*
X99733853Y-49623794D01*
X99781009Y-49566334D01*
X99802687Y-49539920D01*
X99870937Y-49412233D01*
X99912965Y-49273685D01*
X99917993Y-49222638D01*
X99927156Y-49129601D01*
X99923600Y-49093496D01*
X99923600Y-49071595D01*
X99968030Y-48988472D01*
X100138600Y-48988472D01*
X100263082Y-48976212D01*
X100265664Y-48975429D01*
X100356850Y-48985400D01*
X100424818Y-48917432D01*
X100493094Y-48880937D01*
X100589785Y-48801585D01*
X100661600Y-48714078D01*
X100661600Y-48826650D01*
X100820350Y-48985400D01*
X100922829Y-48974194D01*
X101041946Y-48936021D01*
X101151327Y-48875343D01*
X101246769Y-48794492D01*
X101324603Y-48696574D01*
X101381839Y-48585354D01*
X101403487Y-48509763D01*
X101481600Y-48431650D01*
X101481600Y-47357400D01*
X101735600Y-47357400D01*
X101735600Y-48431650D01*
X101894350Y-48590400D01*
X102183600Y-48593472D01*
X102308082Y-48581212D01*
X102427780Y-48544902D01*
X102538094Y-48485937D01*
X102634785Y-48406585D01*
X102714137Y-48309894D01*
X102773102Y-48199580D01*
X102809412Y-48079882D01*
X102821672Y-47955400D01*
X102818600Y-47516150D01*
X102659850Y-47357400D01*
X101735600Y-47357400D01*
X101481600Y-47357400D01*
X101461600Y-47357400D01*
X101461600Y-47103400D01*
X101481600Y-47103400D01*
X101481600Y-47083400D01*
X101735600Y-47083400D01*
X101735600Y-47103400D01*
X102659850Y-47103400D01*
X102818600Y-46944650D01*
X102821672Y-46505400D01*
X102809412Y-46380918D01*
X102773102Y-46261220D01*
X102736600Y-46192931D01*
X102736600Y-45127400D01*
X102990600Y-45127400D01*
X102990600Y-46418563D01*
X103169410Y-46544364D01*
X103402464Y-46460463D01*
X103594041Y-46335447D01*
X103757547Y-46175459D01*
X103886699Y-45986646D01*
X103976534Y-45776265D01*
X104023600Y-45552400D01*
X104023600Y-45127400D01*
X102990600Y-45127400D01*
X102736600Y-45127400D01*
X100540600Y-45127400D01*
X100540600Y-45147400D01*
X100286600Y-45147400D01*
X100286600Y-45127400D01*
X98290600Y-45127400D01*
X98290600Y-45147400D01*
X98036600Y-45147400D01*
X98036600Y-45127400D01*
X95840600Y-45127400D01*
X95840600Y-46192931D01*
X95804098Y-46261220D01*
X95767788Y-46380918D01*
X95755528Y-46505400D01*
X95758600Y-46944650D01*
X95917350Y-47103400D01*
X96841600Y-47103400D01*
X96841600Y-47083400D01*
X97095600Y-47083400D01*
X97095600Y-47103400D01*
X97115600Y-47103400D01*
X97115600Y-47357400D01*
X97095600Y-47357400D01*
X97095600Y-47377400D01*
X96841600Y-47377400D01*
X96841600Y-47357400D01*
X95917350Y-47357400D01*
X95758600Y-47516150D01*
X95755528Y-47955400D01*
X95767788Y-48079882D01*
X95804098Y-48199580D01*
X95863063Y-48309894D01*
X95942415Y-48406585D01*
X96039106Y-48485937D01*
X96149420Y-48544902D01*
X96163504Y-48549174D01*
X96050826Y-48624463D01*
X95906663Y-48768626D01*
X95793395Y-48938144D01*
X95715374Y-49126502D01*
X95675600Y-49326461D01*
X95675600Y-49530339D01*
X95715374Y-49730298D01*
X95793395Y-49918656D01*
X95906663Y-50088174D01*
X96050826Y-50232337D01*
X96220344Y-50345605D01*
X96274370Y-50367983D01*
X93380808Y-53261546D01*
X93352763Y-53284562D01*
X93260914Y-53396480D01*
X93228248Y-53457594D01*
X93192664Y-53524167D01*
X93150635Y-53662715D01*
X93136444Y-53806800D01*
X93140001Y-53842915D01*
X93140000Y-56065000D01*
X93098061Y-56065000D01*
X92898102Y-56104774D01*
X92709744Y-56182795D01*
X92540226Y-56296063D01*
X92396063Y-56440226D01*
X92282795Y-56609744D01*
X92204774Y-56798102D01*
X92165000Y-56998061D01*
X92165000Y-57201939D01*
X92204774Y-57401898D01*
X92282795Y-57590256D01*
X92396063Y-57759774D01*
X92540226Y-57903937D01*
X92709744Y-58017205D01*
X92898102Y-58095226D01*
X93098061Y-58135000D01*
X93140001Y-58135000D01*
X93140000Y-64171953D01*
X91798316Y-65513637D01*
X91795226Y-65498102D01*
X91717205Y-65309744D01*
X91603937Y-65140226D01*
X91459774Y-64996063D01*
X91290256Y-64882795D01*
X91101898Y-64804774D01*
X90901939Y-64765000D01*
X90698061Y-64765000D01*
X90498102Y-64804774D01*
X90309744Y-64882795D01*
X90140226Y-64996063D01*
X89996063Y-65140226D01*
X89882795Y-65309744D01*
X89804774Y-65498102D01*
X89765000Y-65698061D01*
X89765000Y-65724843D01*
X88574843Y-66915000D01*
X74072131Y-66915000D01*
X74097332Y-66854158D01*
X74154400Y-66567260D01*
X74154400Y-66274740D01*
X74097332Y-65987842D01*
X73985390Y-65717589D01*
X73822875Y-65474368D01*
X73616032Y-65267525D01*
X73441640Y-65151000D01*
X73616032Y-65034475D01*
X73822875Y-64827632D01*
X73985390Y-64584411D01*
X74097332Y-64314158D01*
X74154400Y-64027260D01*
X74154400Y-63734740D01*
X74097332Y-63447842D01*
X73985390Y-63177589D01*
X73822875Y-62934368D01*
X73616032Y-62727525D01*
X73441640Y-62611000D01*
X73616032Y-62494475D01*
X73822875Y-62287632D01*
X73985390Y-62044411D01*
X74097332Y-61774158D01*
X74154400Y-61487260D01*
X74154400Y-61194740D01*
X74115278Y-60998061D01*
X87265000Y-60998061D01*
X87265000Y-61201939D01*
X87304774Y-61401898D01*
X87382795Y-61590256D01*
X87496063Y-61759774D01*
X87640226Y-61903937D01*
X87809744Y-62017205D01*
X87998102Y-62095226D01*
X88198061Y-62135000D01*
X88401939Y-62135000D01*
X88601898Y-62095226D01*
X88790256Y-62017205D01*
X88959774Y-61903937D01*
X89103937Y-61759774D01*
X89217205Y-61590256D01*
X89295226Y-61401898D01*
X89335000Y-61201939D01*
X89335000Y-60998061D01*
X89295226Y-60798102D01*
X89217205Y-60609744D01*
X89103937Y-60440226D01*
X88959774Y-60296063D01*
X88790256Y-60182795D01*
X88601898Y-60104774D01*
X88401939Y-60065000D01*
X88198061Y-60065000D01*
X87998102Y-60104774D01*
X87809744Y-60182795D01*
X87640226Y-60296063D01*
X87496063Y-60440226D01*
X87382795Y-60609744D01*
X87304774Y-60798102D01*
X87265000Y-60998061D01*
X74115278Y-60998061D01*
X74097332Y-60907842D01*
X73985390Y-60637589D01*
X73822875Y-60394368D01*
X73616032Y-60187525D01*
X73441640Y-60071000D01*
X73616032Y-59954475D01*
X73822875Y-59747632D01*
X73985390Y-59504411D01*
X74097332Y-59234158D01*
X74154400Y-58947260D01*
X74154400Y-58654740D01*
X74097332Y-58367842D01*
X73985390Y-58097589D01*
X73822875Y-57854368D01*
X73616032Y-57647525D01*
X73441640Y-57531000D01*
X73616032Y-57414475D01*
X73822875Y-57207632D01*
X73896087Y-57098061D01*
X79765000Y-57098061D01*
X79765000Y-57301939D01*
X79804774Y-57501898D01*
X79882795Y-57690256D01*
X79996063Y-57859774D01*
X80140226Y-58003937D01*
X80309744Y-58117205D01*
X80498102Y-58195226D01*
X80698061Y-58235000D01*
X80901939Y-58235000D01*
X81101898Y-58195226D01*
X81290256Y-58117205D01*
X81459774Y-58003937D01*
X81603937Y-57859774D01*
X81717205Y-57690256D01*
X81795226Y-57501898D01*
X81835000Y-57301939D01*
X81835000Y-57098061D01*
X81795226Y-56898102D01*
X81717205Y-56709744D01*
X81603937Y-56540226D01*
X81459774Y-56396063D01*
X81290256Y-56282795D01*
X81101898Y-56204774D01*
X80901939Y-56165000D01*
X80698061Y-56165000D01*
X80498102Y-56204774D01*
X80309744Y-56282795D01*
X80140226Y-56396063D01*
X79996063Y-56540226D01*
X79882795Y-56709744D01*
X79804774Y-56898102D01*
X79765000Y-57098061D01*
X73896087Y-57098061D01*
X73985390Y-56964411D01*
X74097332Y-56694158D01*
X74154400Y-56407260D01*
X74154400Y-56114740D01*
X74097332Y-55827842D01*
X73985390Y-55557589D01*
X73822875Y-55314368D01*
X73616032Y-55107525D01*
X73441640Y-54991000D01*
X73616032Y-54874475D01*
X73822875Y-54667632D01*
X73985390Y-54424411D01*
X74097332Y-54154158D01*
X74154400Y-53867260D01*
X74154400Y-53574740D01*
X74097332Y-53287842D01*
X74066685Y-53213853D01*
X75373952Y-53213853D01*
X75529962Y-53529414D01*
X75904745Y-53720220D01*
X76309551Y-53834244D01*
X76728824Y-53867102D01*
X77146451Y-53817534D01*
X77546383Y-53687443D01*
X77842038Y-53529414D01*
X77998048Y-53213853D01*
X76686000Y-51901805D01*
X75373952Y-53213853D01*
X74066685Y-53213853D01*
X74014885Y-53088797D01*
X74077133Y-53037711D01*
X74098581Y-53011577D01*
X74673342Y-52436817D01*
X74720757Y-52582583D01*
X74878786Y-52878238D01*
X75194347Y-53034248D01*
X76506395Y-51722200D01*
X76492253Y-51708058D01*
X76671858Y-51528453D01*
X76686000Y-51542595D01*
X76700143Y-51528453D01*
X76879748Y-51708058D01*
X76865605Y-51722200D01*
X78177653Y-53034248D01*
X78493214Y-52878238D01*
X78684020Y-52503455D01*
X78798044Y-52098649D01*
X78804617Y-52014776D01*
X79650424Y-52860583D01*
X79671867Y-52886711D01*
X79697995Y-52908154D01*
X79698001Y-52908160D01*
X79739815Y-52942475D01*
X79776171Y-52972312D01*
X79816986Y-52994128D01*
X78956000Y-52994128D01*
X78831518Y-53006388D01*
X78711820Y-53042698D01*
X78601506Y-53101663D01*
X78504815Y-53181015D01*
X78425463Y-53277706D01*
X78366498Y-53388020D01*
X78330188Y-53507718D01*
X78317928Y-53632200D01*
X78317928Y-55232200D01*
X78330188Y-55356682D01*
X78366498Y-55476380D01*
X78425463Y-55586694D01*
X78504815Y-55683385D01*
X78601506Y-55762737D01*
X78711820Y-55821702D01*
X78831518Y-55858012D01*
X78956000Y-55870272D01*
X80556000Y-55870272D01*
X80680482Y-55858012D01*
X80800180Y-55821702D01*
X80910494Y-55762737D01*
X81007185Y-55683385D01*
X81086537Y-55586694D01*
X81145502Y-55476380D01*
X81174661Y-55380257D01*
X81341241Y-55546837D01*
X81576273Y-55703880D01*
X81837426Y-55812053D01*
X82114665Y-55867200D01*
X82397335Y-55867200D01*
X82674574Y-55812053D01*
X82935727Y-55703880D01*
X83170759Y-55546837D01*
X83256000Y-55461596D01*
X83341241Y-55546837D01*
X83576273Y-55703880D01*
X83837426Y-55812053D01*
X84114665Y-55867200D01*
X84397335Y-55867200D01*
X84674574Y-55812053D01*
X84935727Y-55703880D01*
X85170759Y-55546837D01*
X85292694Y-55424902D01*
X85942903Y-55424902D01*
X86014486Y-55668871D01*
X86269996Y-55789771D01*
X86544184Y-55858500D01*
X86826512Y-55872417D01*
X87106130Y-55830987D01*
X87372292Y-55735803D01*
X87497514Y-55668871D01*
X87569097Y-55424902D01*
X86756000Y-54611805D01*
X85942903Y-55424902D01*
X85292694Y-55424902D01*
X85370637Y-55346959D01*
X85504692Y-55146331D01*
X85519329Y-55173714D01*
X85763298Y-55245297D01*
X86576395Y-54432200D01*
X86935605Y-54432200D01*
X87748702Y-55245297D01*
X87992671Y-55173714D01*
X88113571Y-54918204D01*
X88182300Y-54644016D01*
X88196217Y-54361688D01*
X88154787Y-54082070D01*
X88059603Y-53815908D01*
X87992671Y-53690686D01*
X87748702Y-53619103D01*
X86935605Y-54432200D01*
X86576395Y-54432200D01*
X85763298Y-53619103D01*
X85519329Y-53690686D01*
X85505676Y-53719541D01*
X85370637Y-53517441D01*
X85292694Y-53439498D01*
X85942903Y-53439498D01*
X86756000Y-54252595D01*
X87569097Y-53439498D01*
X87502891Y-53213853D01*
X88513952Y-53213853D01*
X88669962Y-53529414D01*
X89044745Y-53720220D01*
X89449551Y-53834244D01*
X89868824Y-53867102D01*
X90286451Y-53817534D01*
X90686383Y-53687443D01*
X90982038Y-53529414D01*
X91138048Y-53213853D01*
X89826000Y-51901805D01*
X88513952Y-53213853D01*
X87502891Y-53213853D01*
X87497514Y-53195529D01*
X87242004Y-53074629D01*
X86967816Y-53005900D01*
X86685488Y-52991983D01*
X86405870Y-53033413D01*
X86139708Y-53128597D01*
X86014486Y-53195529D01*
X85942903Y-53439498D01*
X85292694Y-53439498D01*
X85170759Y-53317563D01*
X84935727Y-53160520D01*
X84674574Y-53052347D01*
X84397335Y-52997200D01*
X84114665Y-52997200D01*
X83843646Y-53051110D01*
X82557560Y-51765024D01*
X87681098Y-51765024D01*
X87730666Y-52182651D01*
X87860757Y-52582583D01*
X88018786Y-52878238D01*
X88334347Y-53034248D01*
X89646395Y-51722200D01*
X90005605Y-51722200D01*
X91317653Y-53034248D01*
X91633214Y-52878238D01*
X91824020Y-52503455D01*
X91938044Y-52098649D01*
X91970902Y-51679376D01*
X91921334Y-51261749D01*
X91791243Y-50861817D01*
X91633214Y-50566162D01*
X91317653Y-50410152D01*
X90005605Y-51722200D01*
X89646395Y-51722200D01*
X88334347Y-50410152D01*
X88018786Y-50566162D01*
X87827980Y-50940945D01*
X87713956Y-51345751D01*
X87681098Y-51765024D01*
X82557560Y-51765024D01*
X82531958Y-51739422D01*
X82510511Y-51713289D01*
X82406207Y-51627688D01*
X82287206Y-51564081D01*
X82158083Y-51524912D01*
X82057447Y-51515000D01*
X82057439Y-51515000D01*
X82023800Y-51511687D01*
X81990161Y-51515000D01*
X80525158Y-51515000D01*
X79485000Y-50474842D01*
X79485000Y-50230547D01*
X88513952Y-50230547D01*
X89826000Y-51542595D01*
X91138048Y-50230547D01*
X90982038Y-49914986D01*
X90607255Y-49724180D01*
X90202449Y-49610156D01*
X89783176Y-49577298D01*
X89365549Y-49626866D01*
X88965617Y-49756957D01*
X88669962Y-49914986D01*
X88513952Y-50230547D01*
X79485000Y-50230547D01*
X79485000Y-50192216D01*
X79488313Y-50158577D01*
X79485000Y-50124938D01*
X79485000Y-50124931D01*
X79475088Y-50024295D01*
X79474252Y-50021537D01*
X79454671Y-49956990D01*
X79435919Y-49895172D01*
X79372312Y-49776171D01*
X79354700Y-49754711D01*
X79308159Y-49698001D01*
X79308154Y-49697996D01*
X79286710Y-49671867D01*
X79260582Y-49650424D01*
X78549580Y-48939422D01*
X78528133Y-48913289D01*
X78499526Y-48889811D01*
X78481896Y-48875343D01*
X78423829Y-48827688D01*
X78304828Y-48764081D01*
X78175705Y-48724912D01*
X78075069Y-48715000D01*
X78075061Y-48715000D01*
X78041422Y-48711687D01*
X78007783Y-48715000D01*
X75592217Y-48715000D01*
X75558578Y-48711687D01*
X75524939Y-48715000D01*
X75524931Y-48715000D01*
X75424295Y-48724912D01*
X75295171Y-48764081D01*
X75266854Y-48779217D01*
X75176171Y-48827688D01*
X75152680Y-48846967D01*
X75100475Y-48889811D01*
X75071867Y-48913289D01*
X75050420Y-48939422D01*
X73939418Y-50050424D01*
X73913290Y-50071867D01*
X73891847Y-50097995D01*
X73891840Y-50098002D01*
X73852175Y-50146335D01*
X73827689Y-50176171D01*
X73805741Y-50217234D01*
X73616032Y-50027525D01*
X73441640Y-49911000D01*
X73616032Y-49794475D01*
X73822875Y-49587632D01*
X73985390Y-49344411D01*
X74097332Y-49074158D01*
X74154400Y-48787260D01*
X74154400Y-48494740D01*
X74097332Y-48207842D01*
X73985390Y-47937589D01*
X73822875Y-47694368D01*
X73616032Y-47487525D01*
X73372811Y-47325010D01*
X73102558Y-47213068D01*
X72815660Y-47156000D01*
X72523140Y-47156000D01*
X72236242Y-47213068D01*
X71965989Y-47325010D01*
X71722768Y-47487525D01*
X71590913Y-47619380D01*
X71568902Y-47546820D01*
X71509937Y-47436506D01*
X71430585Y-47339815D01*
X71333894Y-47260463D01*
X71223580Y-47201498D01*
X71103882Y-47165188D01*
X70979400Y-47152928D01*
X69621000Y-47152928D01*
X69621000Y-46300546D01*
X69886017Y-46565563D01*
X70235698Y-46799212D01*
X70624244Y-46960153D01*
X71036721Y-47042200D01*
X71457279Y-47042200D01*
X71869756Y-46960153D01*
X72258302Y-46799212D01*
X72607983Y-46565563D01*
X72905363Y-46268183D01*
X73139012Y-45918502D01*
X73299953Y-45529956D01*
X73382000Y-45117479D01*
X73382000Y-44848061D01*
X74765000Y-44848061D01*
X74765000Y-45051939D01*
X74804774Y-45251898D01*
X74882795Y-45440256D01*
X74996063Y-45609774D01*
X75140226Y-45753937D01*
X75309744Y-45867205D01*
X75498102Y-45945226D01*
X75698061Y-45985000D01*
X75901939Y-45985000D01*
X76101898Y-45945226D01*
X76290256Y-45867205D01*
X76459774Y-45753937D01*
X76603937Y-45609774D01*
X76717205Y-45440256D01*
X76795226Y-45251898D01*
X76819989Y-45127400D01*
X94553600Y-45127400D01*
X94553600Y-45552400D01*
X94600666Y-45776265D01*
X94690501Y-45986646D01*
X94819653Y-46175459D01*
X94983159Y-46335447D01*
X95174736Y-46460463D01*
X95407790Y-46544364D01*
X95586600Y-46418563D01*
X95586600Y-45127400D01*
X94553600Y-45127400D01*
X76819989Y-45127400D01*
X76835000Y-45051939D01*
X76835000Y-44848061D01*
X76795226Y-44648102D01*
X76717205Y-44459744D01*
X76709626Y-44448400D01*
X94553600Y-44448400D01*
X94553600Y-44873400D01*
X95586600Y-44873400D01*
X95586600Y-43582237D01*
X95840600Y-43582237D01*
X95840600Y-44873400D01*
X98036600Y-44873400D01*
X98036600Y-43574150D01*
X98290600Y-43574150D01*
X98290600Y-44873400D01*
X100286600Y-44873400D01*
X100286600Y-43574150D01*
X100540600Y-43574150D01*
X100540600Y-44873400D01*
X102736600Y-44873400D01*
X102736600Y-43582237D01*
X102990600Y-43582237D01*
X102990600Y-44873400D01*
X104023600Y-44873400D01*
X104023600Y-44448400D01*
X103976534Y-44224535D01*
X103886699Y-44014154D01*
X103757547Y-43825341D01*
X103594041Y-43665353D01*
X103402464Y-43540337D01*
X103169410Y-43456436D01*
X102990600Y-43582237D01*
X102736600Y-43582237D01*
X102557790Y-43456436D01*
X102324736Y-43540337D01*
X102133159Y-43665353D01*
X101969653Y-43825341D01*
X101910247Y-43912189D01*
X101878102Y-43806220D01*
X101819137Y-43695906D01*
X101739785Y-43599215D01*
X101643094Y-43519863D01*
X101532780Y-43460898D01*
X101413082Y-43424588D01*
X101288600Y-43412328D01*
X100699350Y-43415400D01*
X100540600Y-43574150D01*
X100286600Y-43574150D01*
X100127850Y-43415400D01*
X99538600Y-43412328D01*
X99414118Y-43424588D01*
X99294420Y-43460898D01*
X99288600Y-43464009D01*
X99282780Y-43460898D01*
X99163082Y-43424588D01*
X99038600Y-43412328D01*
X98449350Y-43415400D01*
X98290600Y-43574150D01*
X98036600Y-43574150D01*
X97877850Y-43415400D01*
X97288600Y-43412328D01*
X97164118Y-43424588D01*
X97044420Y-43460898D01*
X96934106Y-43519863D01*
X96837415Y-43599215D01*
X96758063Y-43695906D01*
X96699098Y-43806220D01*
X96666953Y-43912189D01*
X96607547Y-43825341D01*
X96444041Y-43665353D01*
X96252464Y-43540337D01*
X96019410Y-43456436D01*
X95840600Y-43582237D01*
X95586600Y-43582237D01*
X95407790Y-43456436D01*
X95174736Y-43540337D01*
X94983159Y-43665353D01*
X94819653Y-43825341D01*
X94690501Y-44014154D01*
X94600666Y-44224535D01*
X94553600Y-44448400D01*
X76709626Y-44448400D01*
X76603937Y-44290226D01*
X76459774Y-44146063D01*
X76290256Y-44032795D01*
X76101898Y-43954774D01*
X75901939Y-43915000D01*
X75698061Y-43915000D01*
X75498102Y-43954774D01*
X75309744Y-44032795D01*
X75140226Y-44146063D01*
X74996063Y-44290226D01*
X74882795Y-44459744D01*
X74804774Y-44648102D01*
X74765000Y-44848061D01*
X73382000Y-44848061D01*
X73382000Y-44696921D01*
X73299953Y-44284444D01*
X73139012Y-43895898D01*
X72905363Y-43546217D01*
X72640374Y-43281228D01*
X105260666Y-43281788D01*
G36*
X107797600Y-71374000D02*
G01*
X107817600Y-71374000D01*
X107817600Y-71628000D01*
X107797600Y-71628000D01*
X107797600Y-71648000D01*
X107543600Y-71648000D01*
X107543600Y-71628000D01*
X107523600Y-71628000D01*
X107523600Y-71374000D01*
X107543600Y-71374000D01*
X107543600Y-71354000D01*
X107797600Y-71354000D01*
X107797600Y-71374000D01*
G37*
X107797600Y-71374000D02*
X107817600Y-71374000D01*
X107817600Y-71628000D01*
X107797600Y-71628000D01*
X107797600Y-71648000D01*
X107543600Y-71648000D01*
X107543600Y-71628000D01*
X107523600Y-71628000D01*
X107523600Y-71374000D01*
X107543600Y-71374000D01*
X107543600Y-71354000D01*
X107797600Y-71354000D01*
X107797600Y-71374000D01*
G36*
X107797600Y-63754000D02*
G01*
X107817600Y-63754000D01*
X107817600Y-64008000D01*
X107797600Y-64008000D01*
X107797600Y-64028000D01*
X107543600Y-64028000D01*
X107543600Y-64008000D01*
X107523600Y-64008000D01*
X107523600Y-63754000D01*
X107543600Y-63754000D01*
X107543600Y-63734000D01*
X107797600Y-63734000D01*
X107797600Y-63754000D01*
G37*
X107797600Y-63754000D02*
X107817600Y-63754000D01*
X107817600Y-64008000D01*
X107797600Y-64008000D01*
X107797600Y-64028000D01*
X107543600Y-64028000D01*
X107543600Y-64008000D01*
X107523600Y-64008000D01*
X107523600Y-63754000D01*
X107543600Y-63754000D01*
X107543600Y-63734000D01*
X107797600Y-63734000D01*
X107797600Y-63754000D01*
G36*
X107797600Y-53594000D02*
G01*
X107817600Y-53594000D01*
X107817600Y-53848000D01*
X107797600Y-53848000D01*
X107797600Y-53868000D01*
X107543600Y-53868000D01*
X107543600Y-53848000D01*
X107523600Y-53848000D01*
X107523600Y-53594000D01*
X107543600Y-53594000D01*
X107543600Y-53574000D01*
X107797600Y-53574000D01*
X107797600Y-53594000D01*
G37*
X107797600Y-53594000D02*
X107817600Y-53594000D01*
X107817600Y-53848000D01*
X107797600Y-53848000D01*
X107797600Y-53868000D01*
X107543600Y-53868000D01*
X107543600Y-53848000D01*
X107523600Y-53848000D01*
X107523600Y-53594000D01*
X107543600Y-53594000D01*
X107543600Y-53574000D01*
X107797600Y-53574000D01*
X107797600Y-53594000D01*
M02*
