G04 #@! TF.GenerationSoftware,KiCad,Pcbnew,5.1.5*
G04 #@! TF.CreationDate,2020-04-26T21:12:42+03:00*
G04 #@! TF.ProjectId,nanopicore_debug,6e616e6f-7069-4636-9f72-655f64656275,rev?*
G04 #@! TF.SameCoordinates,Original*
G04 #@! TF.FileFunction,Legend,Bot*
G04 #@! TF.FilePolarity,Positive*
%FSLAX46Y46*%
G04 Gerber Fmt 4.6, Leading zero omitted, Abs format (unit mm)*
G04 Created by KiCad (PCBNEW 5.1.5) date 2020-04-26 21:12:42*
%MOMM*%
%LPD*%
G04 APERTURE LIST*
%ADD10C,0.120000*%
%ADD11C,0.150000*%
G04 APERTURE END LIST*
D10*
X76006000Y-41442200D02*
X90506000Y-41442200D01*
X90506000Y-41442200D02*
X90506000Y-41942200D01*
X90506000Y-41942200D02*
X89506000Y-41942200D01*
X89506000Y-41942200D02*
X89506000Y-49942200D01*
X89506000Y-53442200D02*
X89506000Y-55442200D01*
X89506000Y-55442200D02*
X77006000Y-55442200D01*
X77006000Y-55442200D02*
X77006000Y-53442200D01*
X77006000Y-49942200D02*
X77006000Y-41942200D01*
X77006000Y-41942200D02*
X76006000Y-41942200D01*
X76006000Y-41942200D02*
X76006000Y-41442200D01*
X79256000Y-55692200D02*
X80256000Y-55692200D01*
X70129400Y-47311000D02*
X68799400Y-47311000D01*
X68799400Y-47311000D02*
X68799400Y-48641000D01*
X71399400Y-47311000D02*
X71399400Y-49911000D01*
X71399400Y-49911000D02*
X68799400Y-49911000D01*
X68799400Y-49911000D02*
X68799400Y-77911000D01*
X73999400Y-77911000D02*
X68799400Y-77911000D01*
X73999400Y-47311000D02*
X73999400Y-77911000D01*
X73999400Y-47311000D02*
X71399400Y-47311000D01*
X101660000Y-78740000D02*
X101660000Y-77410000D01*
X101660000Y-77410000D02*
X100330000Y-77410000D01*
X101660000Y-80010000D02*
X99060000Y-80010000D01*
X99060000Y-80010000D02*
X99060000Y-77410000D01*
X99060000Y-77410000D02*
X76140000Y-77410000D01*
X76140000Y-82610000D02*
X76140000Y-77410000D01*
X101660000Y-82610000D02*
X76140000Y-82610000D01*
X101660000Y-82610000D02*
X101660000Y-80010000D01*
X105130600Y-47311000D02*
X103800600Y-47311000D01*
X103800600Y-47311000D02*
X103800600Y-48641000D01*
X106400600Y-47311000D02*
X106400600Y-49911000D01*
X106400600Y-49911000D02*
X103800600Y-49911000D01*
X103800600Y-49911000D02*
X103800600Y-77911000D01*
X109000600Y-77911000D02*
X103800600Y-77911000D01*
X109000600Y-47311000D02*
X109000600Y-77911000D01*
X109000600Y-47311000D02*
X106400600Y-47311000D01*
X97528600Y-48610400D02*
X97528600Y-48220400D01*
X97528600Y-48610400D02*
X97978600Y-48610400D01*
X103098600Y-47910400D02*
X102448600Y-47910400D01*
X103098600Y-46180400D02*
X103098600Y-47910400D01*
X95478600Y-43610400D02*
X95478600Y-43820400D01*
X103098600Y-43610400D02*
X103098600Y-43820400D01*
X95478600Y-46180400D02*
X95478600Y-47910400D01*
X95478600Y-47910400D02*
X96138600Y-47910400D01*
D11*
X83589333Y-56144580D02*
X83589333Y-56858866D01*
X83636952Y-57001723D01*
X83732190Y-57096961D01*
X83875047Y-57144580D01*
X83970285Y-57144580D01*
X82636952Y-56144580D02*
X83113142Y-56144580D01*
X83160761Y-56620771D01*
X83113142Y-56573152D01*
X83017904Y-56525533D01*
X82779809Y-56525533D01*
X82684571Y-56573152D01*
X82636952Y-56620771D01*
X82589333Y-56716009D01*
X82589333Y-56954104D01*
X82636952Y-57049342D01*
X82684571Y-57096961D01*
X82779809Y-57144580D01*
X83017904Y-57144580D01*
X83113142Y-57096961D01*
X83160761Y-57049342D01*
X71732733Y-45323380D02*
X71732733Y-46037666D01*
X71780352Y-46180523D01*
X71875590Y-46275761D01*
X72018447Y-46323380D01*
X72113685Y-46323380D01*
X70732733Y-46323380D02*
X71304161Y-46323380D01*
X71018447Y-46323380D02*
X71018447Y-45323380D01*
X71113685Y-45466238D01*
X71208923Y-45561476D01*
X71304161Y-45609095D01*
X103647619Y-80343333D02*
X102933333Y-80343333D01*
X102790476Y-80390952D01*
X102695238Y-80486190D01*
X102647619Y-80629047D01*
X102647619Y-80724285D01*
X103647619Y-79962380D02*
X103647619Y-79343333D01*
X103266666Y-79676666D01*
X103266666Y-79533809D01*
X103219047Y-79438571D01*
X103171428Y-79390952D01*
X103076190Y-79343333D01*
X102838095Y-79343333D01*
X102742857Y-79390952D01*
X102695238Y-79438571D01*
X102647619Y-79533809D01*
X102647619Y-79819523D01*
X102695238Y-79914761D01*
X102742857Y-79962380D01*
X106733933Y-45323380D02*
X106733933Y-46037666D01*
X106781552Y-46180523D01*
X106876790Y-46275761D01*
X107019647Y-46323380D01*
X107114885Y-46323380D01*
X106305361Y-45418619D02*
X106257742Y-45371000D01*
X106162504Y-45323380D01*
X105924409Y-45323380D01*
X105829171Y-45371000D01*
X105781552Y-45418619D01*
X105733933Y-45513857D01*
X105733933Y-45609095D01*
X105781552Y-45751952D01*
X106352980Y-46323380D01*
X105733933Y-46323380D01*
X99621933Y-48952780D02*
X99621933Y-49667066D01*
X99669552Y-49809923D01*
X99764790Y-49905161D01*
X99907647Y-49952780D01*
X100002885Y-49952780D01*
X98717171Y-49286114D02*
X98717171Y-49952780D01*
X98955266Y-48905161D02*
X99193361Y-49619447D01*
X98574314Y-49619447D01*
M02*
