G04 #@! TF.GenerationSoftware,KiCad,Pcbnew,5.1.5*
G04 #@! TF.CreationDate,2020-04-26T21:12:42+03:00*
G04 #@! TF.ProjectId,nanopicore_debug,6e616e6f-7069-4636-9f72-655f64656275,rev?*
G04 #@! TF.SameCoordinates,Original*
G04 #@! TF.FileFunction,Paste,Top*
G04 #@! TF.FilePolarity,Positive*
%FSLAX46Y46*%
G04 Gerber Fmt 4.6, Leading zero omitted, Abs format (unit mm)*
G04 Created by KiCad (PCBNEW 5.1.5) date 2020-04-26 21:12:42*
%MOMM*%
%LPD*%
G04 APERTURE LIST*
%ADD10C,0.100000*%
%ADD11R,1.700000X1.000000*%
%ADD12R,1.800000X2.100000*%
%ADD13R,1.560000X0.650000*%
%ADD14R,1.500000X2.000000*%
%ADD15R,3.800000X2.000000*%
G04 APERTURE END LIST*
D10*
G36*
X96456103Y-74220922D02*
G01*
X96470664Y-74223082D01*
X96484943Y-74226659D01*
X96498803Y-74231618D01*
X96512110Y-74237912D01*
X96524736Y-74245480D01*
X96536559Y-74254248D01*
X96547466Y-74264134D01*
X96557352Y-74275041D01*
X96566120Y-74286864D01*
X96573688Y-74299490D01*
X96579982Y-74312797D01*
X96584941Y-74326657D01*
X96588518Y-74340936D01*
X96590678Y-74355497D01*
X96591400Y-74370200D01*
X96591400Y-76020200D01*
X96590678Y-76034903D01*
X96588518Y-76049464D01*
X96584941Y-76063743D01*
X96579982Y-76077603D01*
X96573688Y-76090910D01*
X96566120Y-76103536D01*
X96557352Y-76115359D01*
X96547466Y-76126266D01*
X96536559Y-76136152D01*
X96524736Y-76144920D01*
X96512110Y-76152488D01*
X96498803Y-76158782D01*
X96484943Y-76163741D01*
X96470664Y-76167318D01*
X96456103Y-76169478D01*
X96441400Y-76170200D01*
X96141400Y-76170200D01*
X96126697Y-76169478D01*
X96112136Y-76167318D01*
X96097857Y-76163741D01*
X96083997Y-76158782D01*
X96070690Y-76152488D01*
X96058064Y-76144920D01*
X96046241Y-76136152D01*
X96035334Y-76126266D01*
X96025448Y-76115359D01*
X96016680Y-76103536D01*
X96009112Y-76090910D01*
X96002818Y-76077603D01*
X95997859Y-76063743D01*
X95994282Y-76049464D01*
X95992122Y-76034903D01*
X95991400Y-76020200D01*
X95991400Y-74370200D01*
X95992122Y-74355497D01*
X95994282Y-74340936D01*
X95997859Y-74326657D01*
X96002818Y-74312797D01*
X96009112Y-74299490D01*
X96016680Y-74286864D01*
X96025448Y-74275041D01*
X96035334Y-74264134D01*
X96046241Y-74254248D01*
X96058064Y-74245480D01*
X96070690Y-74237912D01*
X96083997Y-74231618D01*
X96097857Y-74226659D01*
X96112136Y-74223082D01*
X96126697Y-74220922D01*
X96141400Y-74220200D01*
X96441400Y-74220200D01*
X96456103Y-74220922D01*
G37*
G36*
X95186103Y-74220922D02*
G01*
X95200664Y-74223082D01*
X95214943Y-74226659D01*
X95228803Y-74231618D01*
X95242110Y-74237912D01*
X95254736Y-74245480D01*
X95266559Y-74254248D01*
X95277466Y-74264134D01*
X95287352Y-74275041D01*
X95296120Y-74286864D01*
X95303688Y-74299490D01*
X95309982Y-74312797D01*
X95314941Y-74326657D01*
X95318518Y-74340936D01*
X95320678Y-74355497D01*
X95321400Y-74370200D01*
X95321400Y-76020200D01*
X95320678Y-76034903D01*
X95318518Y-76049464D01*
X95314941Y-76063743D01*
X95309982Y-76077603D01*
X95303688Y-76090910D01*
X95296120Y-76103536D01*
X95287352Y-76115359D01*
X95277466Y-76126266D01*
X95266559Y-76136152D01*
X95254736Y-76144920D01*
X95242110Y-76152488D01*
X95228803Y-76158782D01*
X95214943Y-76163741D01*
X95200664Y-76167318D01*
X95186103Y-76169478D01*
X95171400Y-76170200D01*
X94871400Y-76170200D01*
X94856697Y-76169478D01*
X94842136Y-76167318D01*
X94827857Y-76163741D01*
X94813997Y-76158782D01*
X94800690Y-76152488D01*
X94788064Y-76144920D01*
X94776241Y-76136152D01*
X94765334Y-76126266D01*
X94755448Y-76115359D01*
X94746680Y-76103536D01*
X94739112Y-76090910D01*
X94732818Y-76077603D01*
X94727859Y-76063743D01*
X94724282Y-76049464D01*
X94722122Y-76034903D01*
X94721400Y-76020200D01*
X94721400Y-74370200D01*
X94722122Y-74355497D01*
X94724282Y-74340936D01*
X94727859Y-74326657D01*
X94732818Y-74312797D01*
X94739112Y-74299490D01*
X94746680Y-74286864D01*
X94755448Y-74275041D01*
X94765334Y-74264134D01*
X94776241Y-74254248D01*
X94788064Y-74245480D01*
X94800690Y-74237912D01*
X94813997Y-74231618D01*
X94827857Y-74226659D01*
X94842136Y-74223082D01*
X94856697Y-74220922D01*
X94871400Y-74220200D01*
X95171400Y-74220200D01*
X95186103Y-74220922D01*
G37*
G36*
X93916103Y-74220922D02*
G01*
X93930664Y-74223082D01*
X93944943Y-74226659D01*
X93958803Y-74231618D01*
X93972110Y-74237912D01*
X93984736Y-74245480D01*
X93996559Y-74254248D01*
X94007466Y-74264134D01*
X94017352Y-74275041D01*
X94026120Y-74286864D01*
X94033688Y-74299490D01*
X94039982Y-74312797D01*
X94044941Y-74326657D01*
X94048518Y-74340936D01*
X94050678Y-74355497D01*
X94051400Y-74370200D01*
X94051400Y-76020200D01*
X94050678Y-76034903D01*
X94048518Y-76049464D01*
X94044941Y-76063743D01*
X94039982Y-76077603D01*
X94033688Y-76090910D01*
X94026120Y-76103536D01*
X94017352Y-76115359D01*
X94007466Y-76126266D01*
X93996559Y-76136152D01*
X93984736Y-76144920D01*
X93972110Y-76152488D01*
X93958803Y-76158782D01*
X93944943Y-76163741D01*
X93930664Y-76167318D01*
X93916103Y-76169478D01*
X93901400Y-76170200D01*
X93601400Y-76170200D01*
X93586697Y-76169478D01*
X93572136Y-76167318D01*
X93557857Y-76163741D01*
X93543997Y-76158782D01*
X93530690Y-76152488D01*
X93518064Y-76144920D01*
X93506241Y-76136152D01*
X93495334Y-76126266D01*
X93485448Y-76115359D01*
X93476680Y-76103536D01*
X93469112Y-76090910D01*
X93462818Y-76077603D01*
X93457859Y-76063743D01*
X93454282Y-76049464D01*
X93452122Y-76034903D01*
X93451400Y-76020200D01*
X93451400Y-74370200D01*
X93452122Y-74355497D01*
X93454282Y-74340936D01*
X93457859Y-74326657D01*
X93462818Y-74312797D01*
X93469112Y-74299490D01*
X93476680Y-74286864D01*
X93485448Y-74275041D01*
X93495334Y-74264134D01*
X93506241Y-74254248D01*
X93518064Y-74245480D01*
X93530690Y-74237912D01*
X93543997Y-74231618D01*
X93557857Y-74226659D01*
X93572136Y-74223082D01*
X93586697Y-74220922D01*
X93601400Y-74220200D01*
X93901400Y-74220200D01*
X93916103Y-74220922D01*
G37*
G36*
X92646103Y-74220922D02*
G01*
X92660664Y-74223082D01*
X92674943Y-74226659D01*
X92688803Y-74231618D01*
X92702110Y-74237912D01*
X92714736Y-74245480D01*
X92726559Y-74254248D01*
X92737466Y-74264134D01*
X92747352Y-74275041D01*
X92756120Y-74286864D01*
X92763688Y-74299490D01*
X92769982Y-74312797D01*
X92774941Y-74326657D01*
X92778518Y-74340936D01*
X92780678Y-74355497D01*
X92781400Y-74370200D01*
X92781400Y-76020200D01*
X92780678Y-76034903D01*
X92778518Y-76049464D01*
X92774941Y-76063743D01*
X92769982Y-76077603D01*
X92763688Y-76090910D01*
X92756120Y-76103536D01*
X92747352Y-76115359D01*
X92737466Y-76126266D01*
X92726559Y-76136152D01*
X92714736Y-76144920D01*
X92702110Y-76152488D01*
X92688803Y-76158782D01*
X92674943Y-76163741D01*
X92660664Y-76167318D01*
X92646103Y-76169478D01*
X92631400Y-76170200D01*
X92331400Y-76170200D01*
X92316697Y-76169478D01*
X92302136Y-76167318D01*
X92287857Y-76163741D01*
X92273997Y-76158782D01*
X92260690Y-76152488D01*
X92248064Y-76144920D01*
X92236241Y-76136152D01*
X92225334Y-76126266D01*
X92215448Y-76115359D01*
X92206680Y-76103536D01*
X92199112Y-76090910D01*
X92192818Y-76077603D01*
X92187859Y-76063743D01*
X92184282Y-76049464D01*
X92182122Y-76034903D01*
X92181400Y-76020200D01*
X92181400Y-74370200D01*
X92182122Y-74355497D01*
X92184282Y-74340936D01*
X92187859Y-74326657D01*
X92192818Y-74312797D01*
X92199112Y-74299490D01*
X92206680Y-74286864D01*
X92215448Y-74275041D01*
X92225334Y-74264134D01*
X92236241Y-74254248D01*
X92248064Y-74245480D01*
X92260690Y-74237912D01*
X92273997Y-74231618D01*
X92287857Y-74226659D01*
X92302136Y-74223082D01*
X92316697Y-74220922D01*
X92331400Y-74220200D01*
X92631400Y-74220200D01*
X92646103Y-74220922D01*
G37*
G36*
X91376103Y-74220922D02*
G01*
X91390664Y-74223082D01*
X91404943Y-74226659D01*
X91418803Y-74231618D01*
X91432110Y-74237912D01*
X91444736Y-74245480D01*
X91456559Y-74254248D01*
X91467466Y-74264134D01*
X91477352Y-74275041D01*
X91486120Y-74286864D01*
X91493688Y-74299490D01*
X91499982Y-74312797D01*
X91504941Y-74326657D01*
X91508518Y-74340936D01*
X91510678Y-74355497D01*
X91511400Y-74370200D01*
X91511400Y-76020200D01*
X91510678Y-76034903D01*
X91508518Y-76049464D01*
X91504941Y-76063743D01*
X91499982Y-76077603D01*
X91493688Y-76090910D01*
X91486120Y-76103536D01*
X91477352Y-76115359D01*
X91467466Y-76126266D01*
X91456559Y-76136152D01*
X91444736Y-76144920D01*
X91432110Y-76152488D01*
X91418803Y-76158782D01*
X91404943Y-76163741D01*
X91390664Y-76167318D01*
X91376103Y-76169478D01*
X91361400Y-76170200D01*
X91061400Y-76170200D01*
X91046697Y-76169478D01*
X91032136Y-76167318D01*
X91017857Y-76163741D01*
X91003997Y-76158782D01*
X90990690Y-76152488D01*
X90978064Y-76144920D01*
X90966241Y-76136152D01*
X90955334Y-76126266D01*
X90945448Y-76115359D01*
X90936680Y-76103536D01*
X90929112Y-76090910D01*
X90922818Y-76077603D01*
X90917859Y-76063743D01*
X90914282Y-76049464D01*
X90912122Y-76034903D01*
X90911400Y-76020200D01*
X90911400Y-74370200D01*
X90912122Y-74355497D01*
X90914282Y-74340936D01*
X90917859Y-74326657D01*
X90922818Y-74312797D01*
X90929112Y-74299490D01*
X90936680Y-74286864D01*
X90945448Y-74275041D01*
X90955334Y-74264134D01*
X90966241Y-74254248D01*
X90978064Y-74245480D01*
X90990690Y-74237912D01*
X91003997Y-74231618D01*
X91017857Y-74226659D01*
X91032136Y-74223082D01*
X91046697Y-74220922D01*
X91061400Y-74220200D01*
X91361400Y-74220200D01*
X91376103Y-74220922D01*
G37*
G36*
X90106103Y-74220922D02*
G01*
X90120664Y-74223082D01*
X90134943Y-74226659D01*
X90148803Y-74231618D01*
X90162110Y-74237912D01*
X90174736Y-74245480D01*
X90186559Y-74254248D01*
X90197466Y-74264134D01*
X90207352Y-74275041D01*
X90216120Y-74286864D01*
X90223688Y-74299490D01*
X90229982Y-74312797D01*
X90234941Y-74326657D01*
X90238518Y-74340936D01*
X90240678Y-74355497D01*
X90241400Y-74370200D01*
X90241400Y-76020200D01*
X90240678Y-76034903D01*
X90238518Y-76049464D01*
X90234941Y-76063743D01*
X90229982Y-76077603D01*
X90223688Y-76090910D01*
X90216120Y-76103536D01*
X90207352Y-76115359D01*
X90197466Y-76126266D01*
X90186559Y-76136152D01*
X90174736Y-76144920D01*
X90162110Y-76152488D01*
X90148803Y-76158782D01*
X90134943Y-76163741D01*
X90120664Y-76167318D01*
X90106103Y-76169478D01*
X90091400Y-76170200D01*
X89791400Y-76170200D01*
X89776697Y-76169478D01*
X89762136Y-76167318D01*
X89747857Y-76163741D01*
X89733997Y-76158782D01*
X89720690Y-76152488D01*
X89708064Y-76144920D01*
X89696241Y-76136152D01*
X89685334Y-76126266D01*
X89675448Y-76115359D01*
X89666680Y-76103536D01*
X89659112Y-76090910D01*
X89652818Y-76077603D01*
X89647859Y-76063743D01*
X89644282Y-76049464D01*
X89642122Y-76034903D01*
X89641400Y-76020200D01*
X89641400Y-74370200D01*
X89642122Y-74355497D01*
X89644282Y-74340936D01*
X89647859Y-74326657D01*
X89652818Y-74312797D01*
X89659112Y-74299490D01*
X89666680Y-74286864D01*
X89675448Y-74275041D01*
X89685334Y-74264134D01*
X89696241Y-74254248D01*
X89708064Y-74245480D01*
X89720690Y-74237912D01*
X89733997Y-74231618D01*
X89747857Y-74226659D01*
X89762136Y-74223082D01*
X89776697Y-74220922D01*
X89791400Y-74220200D01*
X90091400Y-74220200D01*
X90106103Y-74220922D01*
G37*
G36*
X88836103Y-74220922D02*
G01*
X88850664Y-74223082D01*
X88864943Y-74226659D01*
X88878803Y-74231618D01*
X88892110Y-74237912D01*
X88904736Y-74245480D01*
X88916559Y-74254248D01*
X88927466Y-74264134D01*
X88937352Y-74275041D01*
X88946120Y-74286864D01*
X88953688Y-74299490D01*
X88959982Y-74312797D01*
X88964941Y-74326657D01*
X88968518Y-74340936D01*
X88970678Y-74355497D01*
X88971400Y-74370200D01*
X88971400Y-76020200D01*
X88970678Y-76034903D01*
X88968518Y-76049464D01*
X88964941Y-76063743D01*
X88959982Y-76077603D01*
X88953688Y-76090910D01*
X88946120Y-76103536D01*
X88937352Y-76115359D01*
X88927466Y-76126266D01*
X88916559Y-76136152D01*
X88904736Y-76144920D01*
X88892110Y-76152488D01*
X88878803Y-76158782D01*
X88864943Y-76163741D01*
X88850664Y-76167318D01*
X88836103Y-76169478D01*
X88821400Y-76170200D01*
X88521400Y-76170200D01*
X88506697Y-76169478D01*
X88492136Y-76167318D01*
X88477857Y-76163741D01*
X88463997Y-76158782D01*
X88450690Y-76152488D01*
X88438064Y-76144920D01*
X88426241Y-76136152D01*
X88415334Y-76126266D01*
X88405448Y-76115359D01*
X88396680Y-76103536D01*
X88389112Y-76090910D01*
X88382818Y-76077603D01*
X88377859Y-76063743D01*
X88374282Y-76049464D01*
X88372122Y-76034903D01*
X88371400Y-76020200D01*
X88371400Y-74370200D01*
X88372122Y-74355497D01*
X88374282Y-74340936D01*
X88377859Y-74326657D01*
X88382818Y-74312797D01*
X88389112Y-74299490D01*
X88396680Y-74286864D01*
X88405448Y-74275041D01*
X88415334Y-74264134D01*
X88426241Y-74254248D01*
X88438064Y-74245480D01*
X88450690Y-74237912D01*
X88463997Y-74231618D01*
X88477857Y-74226659D01*
X88492136Y-74223082D01*
X88506697Y-74220922D01*
X88521400Y-74220200D01*
X88821400Y-74220200D01*
X88836103Y-74220922D01*
G37*
G36*
X87566103Y-74220922D02*
G01*
X87580664Y-74223082D01*
X87594943Y-74226659D01*
X87608803Y-74231618D01*
X87622110Y-74237912D01*
X87634736Y-74245480D01*
X87646559Y-74254248D01*
X87657466Y-74264134D01*
X87667352Y-74275041D01*
X87676120Y-74286864D01*
X87683688Y-74299490D01*
X87689982Y-74312797D01*
X87694941Y-74326657D01*
X87698518Y-74340936D01*
X87700678Y-74355497D01*
X87701400Y-74370200D01*
X87701400Y-76020200D01*
X87700678Y-76034903D01*
X87698518Y-76049464D01*
X87694941Y-76063743D01*
X87689982Y-76077603D01*
X87683688Y-76090910D01*
X87676120Y-76103536D01*
X87667352Y-76115359D01*
X87657466Y-76126266D01*
X87646559Y-76136152D01*
X87634736Y-76144920D01*
X87622110Y-76152488D01*
X87608803Y-76158782D01*
X87594943Y-76163741D01*
X87580664Y-76167318D01*
X87566103Y-76169478D01*
X87551400Y-76170200D01*
X87251400Y-76170200D01*
X87236697Y-76169478D01*
X87222136Y-76167318D01*
X87207857Y-76163741D01*
X87193997Y-76158782D01*
X87180690Y-76152488D01*
X87168064Y-76144920D01*
X87156241Y-76136152D01*
X87145334Y-76126266D01*
X87135448Y-76115359D01*
X87126680Y-76103536D01*
X87119112Y-76090910D01*
X87112818Y-76077603D01*
X87107859Y-76063743D01*
X87104282Y-76049464D01*
X87102122Y-76034903D01*
X87101400Y-76020200D01*
X87101400Y-74370200D01*
X87102122Y-74355497D01*
X87104282Y-74340936D01*
X87107859Y-74326657D01*
X87112818Y-74312797D01*
X87119112Y-74299490D01*
X87126680Y-74286864D01*
X87135448Y-74275041D01*
X87145334Y-74264134D01*
X87156241Y-74254248D01*
X87168064Y-74245480D01*
X87180690Y-74237912D01*
X87193997Y-74231618D01*
X87207857Y-74226659D01*
X87222136Y-74223082D01*
X87236697Y-74220922D01*
X87251400Y-74220200D01*
X87551400Y-74220200D01*
X87566103Y-74220922D01*
G37*
G36*
X87566103Y-69270922D02*
G01*
X87580664Y-69273082D01*
X87594943Y-69276659D01*
X87608803Y-69281618D01*
X87622110Y-69287912D01*
X87634736Y-69295480D01*
X87646559Y-69304248D01*
X87657466Y-69314134D01*
X87667352Y-69325041D01*
X87676120Y-69336864D01*
X87683688Y-69349490D01*
X87689982Y-69362797D01*
X87694941Y-69376657D01*
X87698518Y-69390936D01*
X87700678Y-69405497D01*
X87701400Y-69420200D01*
X87701400Y-71070200D01*
X87700678Y-71084903D01*
X87698518Y-71099464D01*
X87694941Y-71113743D01*
X87689982Y-71127603D01*
X87683688Y-71140910D01*
X87676120Y-71153536D01*
X87667352Y-71165359D01*
X87657466Y-71176266D01*
X87646559Y-71186152D01*
X87634736Y-71194920D01*
X87622110Y-71202488D01*
X87608803Y-71208782D01*
X87594943Y-71213741D01*
X87580664Y-71217318D01*
X87566103Y-71219478D01*
X87551400Y-71220200D01*
X87251400Y-71220200D01*
X87236697Y-71219478D01*
X87222136Y-71217318D01*
X87207857Y-71213741D01*
X87193997Y-71208782D01*
X87180690Y-71202488D01*
X87168064Y-71194920D01*
X87156241Y-71186152D01*
X87145334Y-71176266D01*
X87135448Y-71165359D01*
X87126680Y-71153536D01*
X87119112Y-71140910D01*
X87112818Y-71127603D01*
X87107859Y-71113743D01*
X87104282Y-71099464D01*
X87102122Y-71084903D01*
X87101400Y-71070200D01*
X87101400Y-69420200D01*
X87102122Y-69405497D01*
X87104282Y-69390936D01*
X87107859Y-69376657D01*
X87112818Y-69362797D01*
X87119112Y-69349490D01*
X87126680Y-69336864D01*
X87135448Y-69325041D01*
X87145334Y-69314134D01*
X87156241Y-69304248D01*
X87168064Y-69295480D01*
X87180690Y-69287912D01*
X87193997Y-69281618D01*
X87207857Y-69276659D01*
X87222136Y-69273082D01*
X87236697Y-69270922D01*
X87251400Y-69270200D01*
X87551400Y-69270200D01*
X87566103Y-69270922D01*
G37*
G36*
X88836103Y-69270922D02*
G01*
X88850664Y-69273082D01*
X88864943Y-69276659D01*
X88878803Y-69281618D01*
X88892110Y-69287912D01*
X88904736Y-69295480D01*
X88916559Y-69304248D01*
X88927466Y-69314134D01*
X88937352Y-69325041D01*
X88946120Y-69336864D01*
X88953688Y-69349490D01*
X88959982Y-69362797D01*
X88964941Y-69376657D01*
X88968518Y-69390936D01*
X88970678Y-69405497D01*
X88971400Y-69420200D01*
X88971400Y-71070200D01*
X88970678Y-71084903D01*
X88968518Y-71099464D01*
X88964941Y-71113743D01*
X88959982Y-71127603D01*
X88953688Y-71140910D01*
X88946120Y-71153536D01*
X88937352Y-71165359D01*
X88927466Y-71176266D01*
X88916559Y-71186152D01*
X88904736Y-71194920D01*
X88892110Y-71202488D01*
X88878803Y-71208782D01*
X88864943Y-71213741D01*
X88850664Y-71217318D01*
X88836103Y-71219478D01*
X88821400Y-71220200D01*
X88521400Y-71220200D01*
X88506697Y-71219478D01*
X88492136Y-71217318D01*
X88477857Y-71213741D01*
X88463997Y-71208782D01*
X88450690Y-71202488D01*
X88438064Y-71194920D01*
X88426241Y-71186152D01*
X88415334Y-71176266D01*
X88405448Y-71165359D01*
X88396680Y-71153536D01*
X88389112Y-71140910D01*
X88382818Y-71127603D01*
X88377859Y-71113743D01*
X88374282Y-71099464D01*
X88372122Y-71084903D01*
X88371400Y-71070200D01*
X88371400Y-69420200D01*
X88372122Y-69405497D01*
X88374282Y-69390936D01*
X88377859Y-69376657D01*
X88382818Y-69362797D01*
X88389112Y-69349490D01*
X88396680Y-69336864D01*
X88405448Y-69325041D01*
X88415334Y-69314134D01*
X88426241Y-69304248D01*
X88438064Y-69295480D01*
X88450690Y-69287912D01*
X88463997Y-69281618D01*
X88477857Y-69276659D01*
X88492136Y-69273082D01*
X88506697Y-69270922D01*
X88521400Y-69270200D01*
X88821400Y-69270200D01*
X88836103Y-69270922D01*
G37*
G36*
X90106103Y-69270922D02*
G01*
X90120664Y-69273082D01*
X90134943Y-69276659D01*
X90148803Y-69281618D01*
X90162110Y-69287912D01*
X90174736Y-69295480D01*
X90186559Y-69304248D01*
X90197466Y-69314134D01*
X90207352Y-69325041D01*
X90216120Y-69336864D01*
X90223688Y-69349490D01*
X90229982Y-69362797D01*
X90234941Y-69376657D01*
X90238518Y-69390936D01*
X90240678Y-69405497D01*
X90241400Y-69420200D01*
X90241400Y-71070200D01*
X90240678Y-71084903D01*
X90238518Y-71099464D01*
X90234941Y-71113743D01*
X90229982Y-71127603D01*
X90223688Y-71140910D01*
X90216120Y-71153536D01*
X90207352Y-71165359D01*
X90197466Y-71176266D01*
X90186559Y-71186152D01*
X90174736Y-71194920D01*
X90162110Y-71202488D01*
X90148803Y-71208782D01*
X90134943Y-71213741D01*
X90120664Y-71217318D01*
X90106103Y-71219478D01*
X90091400Y-71220200D01*
X89791400Y-71220200D01*
X89776697Y-71219478D01*
X89762136Y-71217318D01*
X89747857Y-71213741D01*
X89733997Y-71208782D01*
X89720690Y-71202488D01*
X89708064Y-71194920D01*
X89696241Y-71186152D01*
X89685334Y-71176266D01*
X89675448Y-71165359D01*
X89666680Y-71153536D01*
X89659112Y-71140910D01*
X89652818Y-71127603D01*
X89647859Y-71113743D01*
X89644282Y-71099464D01*
X89642122Y-71084903D01*
X89641400Y-71070200D01*
X89641400Y-69420200D01*
X89642122Y-69405497D01*
X89644282Y-69390936D01*
X89647859Y-69376657D01*
X89652818Y-69362797D01*
X89659112Y-69349490D01*
X89666680Y-69336864D01*
X89675448Y-69325041D01*
X89685334Y-69314134D01*
X89696241Y-69304248D01*
X89708064Y-69295480D01*
X89720690Y-69287912D01*
X89733997Y-69281618D01*
X89747857Y-69276659D01*
X89762136Y-69273082D01*
X89776697Y-69270922D01*
X89791400Y-69270200D01*
X90091400Y-69270200D01*
X90106103Y-69270922D01*
G37*
G36*
X91376103Y-69270922D02*
G01*
X91390664Y-69273082D01*
X91404943Y-69276659D01*
X91418803Y-69281618D01*
X91432110Y-69287912D01*
X91444736Y-69295480D01*
X91456559Y-69304248D01*
X91467466Y-69314134D01*
X91477352Y-69325041D01*
X91486120Y-69336864D01*
X91493688Y-69349490D01*
X91499982Y-69362797D01*
X91504941Y-69376657D01*
X91508518Y-69390936D01*
X91510678Y-69405497D01*
X91511400Y-69420200D01*
X91511400Y-71070200D01*
X91510678Y-71084903D01*
X91508518Y-71099464D01*
X91504941Y-71113743D01*
X91499982Y-71127603D01*
X91493688Y-71140910D01*
X91486120Y-71153536D01*
X91477352Y-71165359D01*
X91467466Y-71176266D01*
X91456559Y-71186152D01*
X91444736Y-71194920D01*
X91432110Y-71202488D01*
X91418803Y-71208782D01*
X91404943Y-71213741D01*
X91390664Y-71217318D01*
X91376103Y-71219478D01*
X91361400Y-71220200D01*
X91061400Y-71220200D01*
X91046697Y-71219478D01*
X91032136Y-71217318D01*
X91017857Y-71213741D01*
X91003997Y-71208782D01*
X90990690Y-71202488D01*
X90978064Y-71194920D01*
X90966241Y-71186152D01*
X90955334Y-71176266D01*
X90945448Y-71165359D01*
X90936680Y-71153536D01*
X90929112Y-71140910D01*
X90922818Y-71127603D01*
X90917859Y-71113743D01*
X90914282Y-71099464D01*
X90912122Y-71084903D01*
X90911400Y-71070200D01*
X90911400Y-69420200D01*
X90912122Y-69405497D01*
X90914282Y-69390936D01*
X90917859Y-69376657D01*
X90922818Y-69362797D01*
X90929112Y-69349490D01*
X90936680Y-69336864D01*
X90945448Y-69325041D01*
X90955334Y-69314134D01*
X90966241Y-69304248D01*
X90978064Y-69295480D01*
X90990690Y-69287912D01*
X91003997Y-69281618D01*
X91017857Y-69276659D01*
X91032136Y-69273082D01*
X91046697Y-69270922D01*
X91061400Y-69270200D01*
X91361400Y-69270200D01*
X91376103Y-69270922D01*
G37*
G36*
X92646103Y-69270922D02*
G01*
X92660664Y-69273082D01*
X92674943Y-69276659D01*
X92688803Y-69281618D01*
X92702110Y-69287912D01*
X92714736Y-69295480D01*
X92726559Y-69304248D01*
X92737466Y-69314134D01*
X92747352Y-69325041D01*
X92756120Y-69336864D01*
X92763688Y-69349490D01*
X92769982Y-69362797D01*
X92774941Y-69376657D01*
X92778518Y-69390936D01*
X92780678Y-69405497D01*
X92781400Y-69420200D01*
X92781400Y-71070200D01*
X92780678Y-71084903D01*
X92778518Y-71099464D01*
X92774941Y-71113743D01*
X92769982Y-71127603D01*
X92763688Y-71140910D01*
X92756120Y-71153536D01*
X92747352Y-71165359D01*
X92737466Y-71176266D01*
X92726559Y-71186152D01*
X92714736Y-71194920D01*
X92702110Y-71202488D01*
X92688803Y-71208782D01*
X92674943Y-71213741D01*
X92660664Y-71217318D01*
X92646103Y-71219478D01*
X92631400Y-71220200D01*
X92331400Y-71220200D01*
X92316697Y-71219478D01*
X92302136Y-71217318D01*
X92287857Y-71213741D01*
X92273997Y-71208782D01*
X92260690Y-71202488D01*
X92248064Y-71194920D01*
X92236241Y-71186152D01*
X92225334Y-71176266D01*
X92215448Y-71165359D01*
X92206680Y-71153536D01*
X92199112Y-71140910D01*
X92192818Y-71127603D01*
X92187859Y-71113743D01*
X92184282Y-71099464D01*
X92182122Y-71084903D01*
X92181400Y-71070200D01*
X92181400Y-69420200D01*
X92182122Y-69405497D01*
X92184282Y-69390936D01*
X92187859Y-69376657D01*
X92192818Y-69362797D01*
X92199112Y-69349490D01*
X92206680Y-69336864D01*
X92215448Y-69325041D01*
X92225334Y-69314134D01*
X92236241Y-69304248D01*
X92248064Y-69295480D01*
X92260690Y-69287912D01*
X92273997Y-69281618D01*
X92287857Y-69276659D01*
X92302136Y-69273082D01*
X92316697Y-69270922D01*
X92331400Y-69270200D01*
X92631400Y-69270200D01*
X92646103Y-69270922D01*
G37*
G36*
X93916103Y-69270922D02*
G01*
X93930664Y-69273082D01*
X93944943Y-69276659D01*
X93958803Y-69281618D01*
X93972110Y-69287912D01*
X93984736Y-69295480D01*
X93996559Y-69304248D01*
X94007466Y-69314134D01*
X94017352Y-69325041D01*
X94026120Y-69336864D01*
X94033688Y-69349490D01*
X94039982Y-69362797D01*
X94044941Y-69376657D01*
X94048518Y-69390936D01*
X94050678Y-69405497D01*
X94051400Y-69420200D01*
X94051400Y-71070200D01*
X94050678Y-71084903D01*
X94048518Y-71099464D01*
X94044941Y-71113743D01*
X94039982Y-71127603D01*
X94033688Y-71140910D01*
X94026120Y-71153536D01*
X94017352Y-71165359D01*
X94007466Y-71176266D01*
X93996559Y-71186152D01*
X93984736Y-71194920D01*
X93972110Y-71202488D01*
X93958803Y-71208782D01*
X93944943Y-71213741D01*
X93930664Y-71217318D01*
X93916103Y-71219478D01*
X93901400Y-71220200D01*
X93601400Y-71220200D01*
X93586697Y-71219478D01*
X93572136Y-71217318D01*
X93557857Y-71213741D01*
X93543997Y-71208782D01*
X93530690Y-71202488D01*
X93518064Y-71194920D01*
X93506241Y-71186152D01*
X93495334Y-71176266D01*
X93485448Y-71165359D01*
X93476680Y-71153536D01*
X93469112Y-71140910D01*
X93462818Y-71127603D01*
X93457859Y-71113743D01*
X93454282Y-71099464D01*
X93452122Y-71084903D01*
X93451400Y-71070200D01*
X93451400Y-69420200D01*
X93452122Y-69405497D01*
X93454282Y-69390936D01*
X93457859Y-69376657D01*
X93462818Y-69362797D01*
X93469112Y-69349490D01*
X93476680Y-69336864D01*
X93485448Y-69325041D01*
X93495334Y-69314134D01*
X93506241Y-69304248D01*
X93518064Y-69295480D01*
X93530690Y-69287912D01*
X93543997Y-69281618D01*
X93557857Y-69276659D01*
X93572136Y-69273082D01*
X93586697Y-69270922D01*
X93601400Y-69270200D01*
X93901400Y-69270200D01*
X93916103Y-69270922D01*
G37*
G36*
X95186103Y-69270922D02*
G01*
X95200664Y-69273082D01*
X95214943Y-69276659D01*
X95228803Y-69281618D01*
X95242110Y-69287912D01*
X95254736Y-69295480D01*
X95266559Y-69304248D01*
X95277466Y-69314134D01*
X95287352Y-69325041D01*
X95296120Y-69336864D01*
X95303688Y-69349490D01*
X95309982Y-69362797D01*
X95314941Y-69376657D01*
X95318518Y-69390936D01*
X95320678Y-69405497D01*
X95321400Y-69420200D01*
X95321400Y-71070200D01*
X95320678Y-71084903D01*
X95318518Y-71099464D01*
X95314941Y-71113743D01*
X95309982Y-71127603D01*
X95303688Y-71140910D01*
X95296120Y-71153536D01*
X95287352Y-71165359D01*
X95277466Y-71176266D01*
X95266559Y-71186152D01*
X95254736Y-71194920D01*
X95242110Y-71202488D01*
X95228803Y-71208782D01*
X95214943Y-71213741D01*
X95200664Y-71217318D01*
X95186103Y-71219478D01*
X95171400Y-71220200D01*
X94871400Y-71220200D01*
X94856697Y-71219478D01*
X94842136Y-71217318D01*
X94827857Y-71213741D01*
X94813997Y-71208782D01*
X94800690Y-71202488D01*
X94788064Y-71194920D01*
X94776241Y-71186152D01*
X94765334Y-71176266D01*
X94755448Y-71165359D01*
X94746680Y-71153536D01*
X94739112Y-71140910D01*
X94732818Y-71127603D01*
X94727859Y-71113743D01*
X94724282Y-71099464D01*
X94722122Y-71084903D01*
X94721400Y-71070200D01*
X94721400Y-69420200D01*
X94722122Y-69405497D01*
X94724282Y-69390936D01*
X94727859Y-69376657D01*
X94732818Y-69362797D01*
X94739112Y-69349490D01*
X94746680Y-69336864D01*
X94755448Y-69325041D01*
X94765334Y-69314134D01*
X94776241Y-69304248D01*
X94788064Y-69295480D01*
X94800690Y-69287912D01*
X94813997Y-69281618D01*
X94827857Y-69276659D01*
X94842136Y-69273082D01*
X94856697Y-69270922D01*
X94871400Y-69270200D01*
X95171400Y-69270200D01*
X95186103Y-69270922D01*
G37*
G36*
X96456103Y-69270922D02*
G01*
X96470664Y-69273082D01*
X96484943Y-69276659D01*
X96498803Y-69281618D01*
X96512110Y-69287912D01*
X96524736Y-69295480D01*
X96536559Y-69304248D01*
X96547466Y-69314134D01*
X96557352Y-69325041D01*
X96566120Y-69336864D01*
X96573688Y-69349490D01*
X96579982Y-69362797D01*
X96584941Y-69376657D01*
X96588518Y-69390936D01*
X96590678Y-69405497D01*
X96591400Y-69420200D01*
X96591400Y-71070200D01*
X96590678Y-71084903D01*
X96588518Y-71099464D01*
X96584941Y-71113743D01*
X96579982Y-71127603D01*
X96573688Y-71140910D01*
X96566120Y-71153536D01*
X96557352Y-71165359D01*
X96547466Y-71176266D01*
X96536559Y-71186152D01*
X96524736Y-71194920D01*
X96512110Y-71202488D01*
X96498803Y-71208782D01*
X96484943Y-71213741D01*
X96470664Y-71217318D01*
X96456103Y-71219478D01*
X96441400Y-71220200D01*
X96141400Y-71220200D01*
X96126697Y-71219478D01*
X96112136Y-71217318D01*
X96097857Y-71213741D01*
X96083997Y-71208782D01*
X96070690Y-71202488D01*
X96058064Y-71194920D01*
X96046241Y-71186152D01*
X96035334Y-71176266D01*
X96025448Y-71165359D01*
X96016680Y-71153536D01*
X96009112Y-71140910D01*
X96002818Y-71127603D01*
X95997859Y-71113743D01*
X95994282Y-71099464D01*
X95992122Y-71084903D01*
X95991400Y-71070200D01*
X95991400Y-69420200D01*
X95992122Y-69405497D01*
X95994282Y-69390936D01*
X95997859Y-69376657D01*
X96002818Y-69362797D01*
X96009112Y-69349490D01*
X96016680Y-69336864D01*
X96025448Y-69325041D01*
X96035334Y-69314134D01*
X96046241Y-69304248D01*
X96058064Y-69295480D01*
X96070690Y-69287912D01*
X96083997Y-69281618D01*
X96097857Y-69276659D01*
X96112136Y-69273082D01*
X96126697Y-69270922D01*
X96141400Y-69270200D01*
X96441400Y-69270200D01*
X96456103Y-69270922D01*
G37*
D11*
X86550000Y-48500000D03*
X80250000Y-48500000D03*
X86550000Y-44700000D03*
X80250000Y-44700000D03*
D10*
G36*
X77674505Y-46426204D02*
G01*
X77698773Y-46429804D01*
X77722572Y-46435765D01*
X77745671Y-46444030D01*
X77767850Y-46454520D01*
X77788893Y-46467132D01*
X77808599Y-46481747D01*
X77826777Y-46498223D01*
X77843253Y-46516401D01*
X77857868Y-46536107D01*
X77870480Y-46557150D01*
X77880970Y-46579329D01*
X77889235Y-46602428D01*
X77895196Y-46626227D01*
X77898796Y-46650495D01*
X77900000Y-46674999D01*
X77900000Y-47325001D01*
X77898796Y-47349505D01*
X77895196Y-47373773D01*
X77889235Y-47397572D01*
X77880970Y-47420671D01*
X77870480Y-47442850D01*
X77857868Y-47463893D01*
X77843253Y-47483599D01*
X77826777Y-47501777D01*
X77808599Y-47518253D01*
X77788893Y-47532868D01*
X77767850Y-47545480D01*
X77745671Y-47555970D01*
X77722572Y-47564235D01*
X77698773Y-47570196D01*
X77674505Y-47573796D01*
X77650001Y-47575000D01*
X76749999Y-47575000D01*
X76725495Y-47573796D01*
X76701227Y-47570196D01*
X76677428Y-47564235D01*
X76654329Y-47555970D01*
X76632150Y-47545480D01*
X76611107Y-47532868D01*
X76591401Y-47518253D01*
X76573223Y-47501777D01*
X76556747Y-47483599D01*
X76542132Y-47463893D01*
X76529520Y-47442850D01*
X76519030Y-47420671D01*
X76510765Y-47397572D01*
X76504804Y-47373773D01*
X76501204Y-47349505D01*
X76500000Y-47325001D01*
X76500000Y-46674999D01*
X76501204Y-46650495D01*
X76504804Y-46626227D01*
X76510765Y-46602428D01*
X76519030Y-46579329D01*
X76529520Y-46557150D01*
X76542132Y-46536107D01*
X76556747Y-46516401D01*
X76573223Y-46498223D01*
X76591401Y-46481747D01*
X76611107Y-46467132D01*
X76632150Y-46454520D01*
X76654329Y-46444030D01*
X76677428Y-46435765D01*
X76701227Y-46429804D01*
X76725495Y-46426204D01*
X76749999Y-46425000D01*
X77650001Y-46425000D01*
X77674505Y-46426204D01*
G37*
G36*
X77674505Y-44376204D02*
G01*
X77698773Y-44379804D01*
X77722572Y-44385765D01*
X77745671Y-44394030D01*
X77767850Y-44404520D01*
X77788893Y-44417132D01*
X77808599Y-44431747D01*
X77826777Y-44448223D01*
X77843253Y-44466401D01*
X77857868Y-44486107D01*
X77870480Y-44507150D01*
X77880970Y-44529329D01*
X77889235Y-44552428D01*
X77895196Y-44576227D01*
X77898796Y-44600495D01*
X77900000Y-44624999D01*
X77900000Y-45275001D01*
X77898796Y-45299505D01*
X77895196Y-45323773D01*
X77889235Y-45347572D01*
X77880970Y-45370671D01*
X77870480Y-45392850D01*
X77857868Y-45413893D01*
X77843253Y-45433599D01*
X77826777Y-45451777D01*
X77808599Y-45468253D01*
X77788893Y-45482868D01*
X77767850Y-45495480D01*
X77745671Y-45505970D01*
X77722572Y-45514235D01*
X77698773Y-45520196D01*
X77674505Y-45523796D01*
X77650001Y-45525000D01*
X76749999Y-45525000D01*
X76725495Y-45523796D01*
X76701227Y-45520196D01*
X76677428Y-45514235D01*
X76654329Y-45505970D01*
X76632150Y-45495480D01*
X76611107Y-45482868D01*
X76591401Y-45468253D01*
X76573223Y-45451777D01*
X76556747Y-45433599D01*
X76542132Y-45413893D01*
X76529520Y-45392850D01*
X76519030Y-45370671D01*
X76510765Y-45347572D01*
X76504804Y-45323773D01*
X76501204Y-45299505D01*
X76500000Y-45275001D01*
X76500000Y-44624999D01*
X76501204Y-44600495D01*
X76504804Y-44576227D01*
X76510765Y-44552428D01*
X76519030Y-44529329D01*
X76529520Y-44507150D01*
X76542132Y-44486107D01*
X76556747Y-44466401D01*
X76573223Y-44448223D01*
X76591401Y-44431747D01*
X76611107Y-44417132D01*
X76632150Y-44404520D01*
X76654329Y-44394030D01*
X76677428Y-44385765D01*
X76701227Y-44379804D01*
X76725495Y-44376204D01*
X76749999Y-44375000D01*
X77650001Y-44375000D01*
X77674505Y-44376204D01*
G37*
D12*
X84074000Y-73152000D03*
X84074000Y-70252000D03*
X81774000Y-70252000D03*
X81774000Y-73152000D03*
D13*
X91901000Y-58100000D03*
X91901000Y-57150000D03*
X91901000Y-59050000D03*
X89201000Y-59050000D03*
X89201000Y-58100000D03*
X89201000Y-57150000D03*
D14*
X100979000Y-54635000D03*
X96379000Y-54635000D03*
X98679000Y-54635000D03*
D15*
X98679000Y-60935000D03*
D10*
G36*
X89874505Y-60401204D02*
G01*
X89898773Y-60404804D01*
X89922572Y-60410765D01*
X89945671Y-60419030D01*
X89967850Y-60429520D01*
X89988893Y-60442132D01*
X90008599Y-60456747D01*
X90026777Y-60473223D01*
X90043253Y-60491401D01*
X90057868Y-60511107D01*
X90070480Y-60532150D01*
X90080970Y-60554329D01*
X90089235Y-60577428D01*
X90095196Y-60601227D01*
X90098796Y-60625495D01*
X90100000Y-60649999D01*
X90100000Y-61550001D01*
X90098796Y-61574505D01*
X90095196Y-61598773D01*
X90089235Y-61622572D01*
X90080970Y-61645671D01*
X90070480Y-61667850D01*
X90057868Y-61688893D01*
X90043253Y-61708599D01*
X90026777Y-61726777D01*
X90008599Y-61743253D01*
X89988893Y-61757868D01*
X89967850Y-61770480D01*
X89945671Y-61780970D01*
X89922572Y-61789235D01*
X89898773Y-61795196D01*
X89874505Y-61798796D01*
X89850001Y-61800000D01*
X89199999Y-61800000D01*
X89175495Y-61798796D01*
X89151227Y-61795196D01*
X89127428Y-61789235D01*
X89104329Y-61780970D01*
X89082150Y-61770480D01*
X89061107Y-61757868D01*
X89041401Y-61743253D01*
X89023223Y-61726777D01*
X89006747Y-61708599D01*
X88992132Y-61688893D01*
X88979520Y-61667850D01*
X88969030Y-61645671D01*
X88960765Y-61622572D01*
X88954804Y-61598773D01*
X88951204Y-61574505D01*
X88950000Y-61550001D01*
X88950000Y-60649999D01*
X88951204Y-60625495D01*
X88954804Y-60601227D01*
X88960765Y-60577428D01*
X88969030Y-60554329D01*
X88979520Y-60532150D01*
X88992132Y-60511107D01*
X89006747Y-60491401D01*
X89023223Y-60473223D01*
X89041401Y-60456747D01*
X89061107Y-60442132D01*
X89082150Y-60429520D01*
X89104329Y-60419030D01*
X89127428Y-60410765D01*
X89151227Y-60404804D01*
X89175495Y-60401204D01*
X89199999Y-60400000D01*
X89850001Y-60400000D01*
X89874505Y-60401204D01*
G37*
G36*
X91924505Y-60401204D02*
G01*
X91948773Y-60404804D01*
X91972572Y-60410765D01*
X91995671Y-60419030D01*
X92017850Y-60429520D01*
X92038893Y-60442132D01*
X92058599Y-60456747D01*
X92076777Y-60473223D01*
X92093253Y-60491401D01*
X92107868Y-60511107D01*
X92120480Y-60532150D01*
X92130970Y-60554329D01*
X92139235Y-60577428D01*
X92145196Y-60601227D01*
X92148796Y-60625495D01*
X92150000Y-60649999D01*
X92150000Y-61550001D01*
X92148796Y-61574505D01*
X92145196Y-61598773D01*
X92139235Y-61622572D01*
X92130970Y-61645671D01*
X92120480Y-61667850D01*
X92107868Y-61688893D01*
X92093253Y-61708599D01*
X92076777Y-61726777D01*
X92058599Y-61743253D01*
X92038893Y-61757868D01*
X92017850Y-61770480D01*
X91995671Y-61780970D01*
X91972572Y-61789235D01*
X91948773Y-61795196D01*
X91924505Y-61798796D01*
X91900001Y-61800000D01*
X91249999Y-61800000D01*
X91225495Y-61798796D01*
X91201227Y-61795196D01*
X91177428Y-61789235D01*
X91154329Y-61780970D01*
X91132150Y-61770480D01*
X91111107Y-61757868D01*
X91091401Y-61743253D01*
X91073223Y-61726777D01*
X91056747Y-61708599D01*
X91042132Y-61688893D01*
X91029520Y-61667850D01*
X91019030Y-61645671D01*
X91010765Y-61622572D01*
X91004804Y-61598773D01*
X91001204Y-61574505D01*
X91000000Y-61550001D01*
X91000000Y-60649999D01*
X91001204Y-60625495D01*
X91004804Y-60601227D01*
X91010765Y-60577428D01*
X91019030Y-60554329D01*
X91029520Y-60532150D01*
X91042132Y-60511107D01*
X91056747Y-60491401D01*
X91073223Y-60473223D01*
X91091401Y-60456747D01*
X91111107Y-60442132D01*
X91132150Y-60429520D01*
X91154329Y-60419030D01*
X91177428Y-60410765D01*
X91201227Y-60404804D01*
X91225495Y-60401204D01*
X91249999Y-60400000D01*
X91900001Y-60400000D01*
X91924505Y-60401204D01*
G37*
G36*
X93006705Y-45951604D02*
G01*
X93030973Y-45955204D01*
X93054772Y-45961165D01*
X93077871Y-45969430D01*
X93100050Y-45979920D01*
X93121093Y-45992532D01*
X93140799Y-46007147D01*
X93158977Y-46023623D01*
X93175453Y-46041801D01*
X93190068Y-46061507D01*
X93202680Y-46082550D01*
X93213170Y-46104729D01*
X93221435Y-46127828D01*
X93227396Y-46151627D01*
X93230996Y-46175895D01*
X93232200Y-46200399D01*
X93232200Y-46850401D01*
X93230996Y-46874905D01*
X93227396Y-46899173D01*
X93221435Y-46922972D01*
X93213170Y-46946071D01*
X93202680Y-46968250D01*
X93190068Y-46989293D01*
X93175453Y-47008999D01*
X93158977Y-47027177D01*
X93140799Y-47043653D01*
X93121093Y-47058268D01*
X93100050Y-47070880D01*
X93077871Y-47081370D01*
X93054772Y-47089635D01*
X93030973Y-47095596D01*
X93006705Y-47099196D01*
X92982201Y-47100400D01*
X92082199Y-47100400D01*
X92057695Y-47099196D01*
X92033427Y-47095596D01*
X92009628Y-47089635D01*
X91986529Y-47081370D01*
X91964350Y-47070880D01*
X91943307Y-47058268D01*
X91923601Y-47043653D01*
X91905423Y-47027177D01*
X91888947Y-47008999D01*
X91874332Y-46989293D01*
X91861720Y-46968250D01*
X91851230Y-46946071D01*
X91842965Y-46922972D01*
X91837004Y-46899173D01*
X91833404Y-46874905D01*
X91832200Y-46850401D01*
X91832200Y-46200399D01*
X91833404Y-46175895D01*
X91837004Y-46151627D01*
X91842965Y-46127828D01*
X91851230Y-46104729D01*
X91861720Y-46082550D01*
X91874332Y-46061507D01*
X91888947Y-46041801D01*
X91905423Y-46023623D01*
X91923601Y-46007147D01*
X91943307Y-45992532D01*
X91964350Y-45979920D01*
X91986529Y-45969430D01*
X92009628Y-45961165D01*
X92033427Y-45955204D01*
X92057695Y-45951604D01*
X92082199Y-45950400D01*
X92982201Y-45950400D01*
X93006705Y-45951604D01*
G37*
G36*
X93006705Y-43901604D02*
G01*
X93030973Y-43905204D01*
X93054772Y-43911165D01*
X93077871Y-43919430D01*
X93100050Y-43929920D01*
X93121093Y-43942532D01*
X93140799Y-43957147D01*
X93158977Y-43973623D01*
X93175453Y-43991801D01*
X93190068Y-44011507D01*
X93202680Y-44032550D01*
X93213170Y-44054729D01*
X93221435Y-44077828D01*
X93227396Y-44101627D01*
X93230996Y-44125895D01*
X93232200Y-44150399D01*
X93232200Y-44800401D01*
X93230996Y-44824905D01*
X93227396Y-44849173D01*
X93221435Y-44872972D01*
X93213170Y-44896071D01*
X93202680Y-44918250D01*
X93190068Y-44939293D01*
X93175453Y-44958999D01*
X93158977Y-44977177D01*
X93140799Y-44993653D01*
X93121093Y-45008268D01*
X93100050Y-45020880D01*
X93077871Y-45031370D01*
X93054772Y-45039635D01*
X93030973Y-45045596D01*
X93006705Y-45049196D01*
X92982201Y-45050400D01*
X92082199Y-45050400D01*
X92057695Y-45049196D01*
X92033427Y-45045596D01*
X92009628Y-45039635D01*
X91986529Y-45031370D01*
X91964350Y-45020880D01*
X91943307Y-45008268D01*
X91923601Y-44993653D01*
X91905423Y-44977177D01*
X91888947Y-44958999D01*
X91874332Y-44939293D01*
X91861720Y-44918250D01*
X91851230Y-44896071D01*
X91842965Y-44872972D01*
X91837004Y-44849173D01*
X91833404Y-44824905D01*
X91832200Y-44800401D01*
X91832200Y-44150399D01*
X91833404Y-44125895D01*
X91837004Y-44101627D01*
X91842965Y-44077828D01*
X91851230Y-44054729D01*
X91861720Y-44032550D01*
X91874332Y-44011507D01*
X91888947Y-43991801D01*
X91905423Y-43973623D01*
X91923601Y-43957147D01*
X91943307Y-43942532D01*
X91964350Y-43929920D01*
X91986529Y-43919430D01*
X92009628Y-43911165D01*
X92033427Y-43905204D01*
X92057695Y-43901604D01*
X92082199Y-43900400D01*
X92982201Y-43900400D01*
X93006705Y-43901604D01*
G37*
G36*
X83474505Y-63926204D02*
G01*
X83498773Y-63929804D01*
X83522572Y-63935765D01*
X83545671Y-63944030D01*
X83567850Y-63954520D01*
X83588893Y-63967132D01*
X83608599Y-63981747D01*
X83626777Y-63998223D01*
X83643253Y-64016401D01*
X83657868Y-64036107D01*
X83670480Y-64057150D01*
X83680970Y-64079329D01*
X83689235Y-64102428D01*
X83695196Y-64126227D01*
X83698796Y-64150495D01*
X83700000Y-64174999D01*
X83700000Y-64825001D01*
X83698796Y-64849505D01*
X83695196Y-64873773D01*
X83689235Y-64897572D01*
X83680970Y-64920671D01*
X83670480Y-64942850D01*
X83657868Y-64963893D01*
X83643253Y-64983599D01*
X83626777Y-65001777D01*
X83608599Y-65018253D01*
X83588893Y-65032868D01*
X83567850Y-65045480D01*
X83545671Y-65055970D01*
X83522572Y-65064235D01*
X83498773Y-65070196D01*
X83474505Y-65073796D01*
X83450001Y-65075000D01*
X82549999Y-65075000D01*
X82525495Y-65073796D01*
X82501227Y-65070196D01*
X82477428Y-65064235D01*
X82454329Y-65055970D01*
X82432150Y-65045480D01*
X82411107Y-65032868D01*
X82391401Y-65018253D01*
X82373223Y-65001777D01*
X82356747Y-64983599D01*
X82342132Y-64963893D01*
X82329520Y-64942850D01*
X82319030Y-64920671D01*
X82310765Y-64897572D01*
X82304804Y-64873773D01*
X82301204Y-64849505D01*
X82300000Y-64825001D01*
X82300000Y-64174999D01*
X82301204Y-64150495D01*
X82304804Y-64126227D01*
X82310765Y-64102428D01*
X82319030Y-64079329D01*
X82329520Y-64057150D01*
X82342132Y-64036107D01*
X82356747Y-64016401D01*
X82373223Y-63998223D01*
X82391401Y-63981747D01*
X82411107Y-63967132D01*
X82432150Y-63954520D01*
X82454329Y-63944030D01*
X82477428Y-63935765D01*
X82501227Y-63929804D01*
X82525495Y-63926204D01*
X82549999Y-63925000D01*
X83450001Y-63925000D01*
X83474505Y-63926204D01*
G37*
G36*
X83474505Y-65976204D02*
G01*
X83498773Y-65979804D01*
X83522572Y-65985765D01*
X83545671Y-65994030D01*
X83567850Y-66004520D01*
X83588893Y-66017132D01*
X83608599Y-66031747D01*
X83626777Y-66048223D01*
X83643253Y-66066401D01*
X83657868Y-66086107D01*
X83670480Y-66107150D01*
X83680970Y-66129329D01*
X83689235Y-66152428D01*
X83695196Y-66176227D01*
X83698796Y-66200495D01*
X83700000Y-66224999D01*
X83700000Y-66875001D01*
X83698796Y-66899505D01*
X83695196Y-66923773D01*
X83689235Y-66947572D01*
X83680970Y-66970671D01*
X83670480Y-66992850D01*
X83657868Y-67013893D01*
X83643253Y-67033599D01*
X83626777Y-67051777D01*
X83608599Y-67068253D01*
X83588893Y-67082868D01*
X83567850Y-67095480D01*
X83545671Y-67105970D01*
X83522572Y-67114235D01*
X83498773Y-67120196D01*
X83474505Y-67123796D01*
X83450001Y-67125000D01*
X82549999Y-67125000D01*
X82525495Y-67123796D01*
X82501227Y-67120196D01*
X82477428Y-67114235D01*
X82454329Y-67105970D01*
X82432150Y-67095480D01*
X82411107Y-67082868D01*
X82391401Y-67068253D01*
X82373223Y-67051777D01*
X82356747Y-67033599D01*
X82342132Y-67013893D01*
X82329520Y-66992850D01*
X82319030Y-66970671D01*
X82310765Y-66947572D01*
X82304804Y-66923773D01*
X82301204Y-66899505D01*
X82300000Y-66875001D01*
X82300000Y-66224999D01*
X82301204Y-66200495D01*
X82304804Y-66176227D01*
X82310765Y-66152428D01*
X82319030Y-66129329D01*
X82329520Y-66107150D01*
X82342132Y-66086107D01*
X82356747Y-66066401D01*
X82373223Y-66048223D01*
X82391401Y-66031747D01*
X82411107Y-66017132D01*
X82432150Y-66004520D01*
X82454329Y-65994030D01*
X82477428Y-65985765D01*
X82501227Y-65979804D01*
X82525495Y-65976204D01*
X82549999Y-65975000D01*
X83450001Y-65975000D01*
X83474505Y-65976204D01*
G37*
G36*
X80974505Y-63926204D02*
G01*
X80998773Y-63929804D01*
X81022572Y-63935765D01*
X81045671Y-63944030D01*
X81067850Y-63954520D01*
X81088893Y-63967132D01*
X81108599Y-63981747D01*
X81126777Y-63998223D01*
X81143253Y-64016401D01*
X81157868Y-64036107D01*
X81170480Y-64057150D01*
X81180970Y-64079329D01*
X81189235Y-64102428D01*
X81195196Y-64126227D01*
X81198796Y-64150495D01*
X81200000Y-64174999D01*
X81200000Y-64825001D01*
X81198796Y-64849505D01*
X81195196Y-64873773D01*
X81189235Y-64897572D01*
X81180970Y-64920671D01*
X81170480Y-64942850D01*
X81157868Y-64963893D01*
X81143253Y-64983599D01*
X81126777Y-65001777D01*
X81108599Y-65018253D01*
X81088893Y-65032868D01*
X81067850Y-65045480D01*
X81045671Y-65055970D01*
X81022572Y-65064235D01*
X80998773Y-65070196D01*
X80974505Y-65073796D01*
X80950001Y-65075000D01*
X80049999Y-65075000D01*
X80025495Y-65073796D01*
X80001227Y-65070196D01*
X79977428Y-65064235D01*
X79954329Y-65055970D01*
X79932150Y-65045480D01*
X79911107Y-65032868D01*
X79891401Y-65018253D01*
X79873223Y-65001777D01*
X79856747Y-64983599D01*
X79842132Y-64963893D01*
X79829520Y-64942850D01*
X79819030Y-64920671D01*
X79810765Y-64897572D01*
X79804804Y-64873773D01*
X79801204Y-64849505D01*
X79800000Y-64825001D01*
X79800000Y-64174999D01*
X79801204Y-64150495D01*
X79804804Y-64126227D01*
X79810765Y-64102428D01*
X79819030Y-64079329D01*
X79829520Y-64057150D01*
X79842132Y-64036107D01*
X79856747Y-64016401D01*
X79873223Y-63998223D01*
X79891401Y-63981747D01*
X79911107Y-63967132D01*
X79932150Y-63954520D01*
X79954329Y-63944030D01*
X79977428Y-63935765D01*
X80001227Y-63929804D01*
X80025495Y-63926204D01*
X80049999Y-63925000D01*
X80950001Y-63925000D01*
X80974505Y-63926204D01*
G37*
G36*
X80974505Y-65976204D02*
G01*
X80998773Y-65979804D01*
X81022572Y-65985765D01*
X81045671Y-65994030D01*
X81067850Y-66004520D01*
X81088893Y-66017132D01*
X81108599Y-66031747D01*
X81126777Y-66048223D01*
X81143253Y-66066401D01*
X81157868Y-66086107D01*
X81170480Y-66107150D01*
X81180970Y-66129329D01*
X81189235Y-66152428D01*
X81195196Y-66176227D01*
X81198796Y-66200495D01*
X81200000Y-66224999D01*
X81200000Y-66875001D01*
X81198796Y-66899505D01*
X81195196Y-66923773D01*
X81189235Y-66947572D01*
X81180970Y-66970671D01*
X81170480Y-66992850D01*
X81157868Y-67013893D01*
X81143253Y-67033599D01*
X81126777Y-67051777D01*
X81108599Y-67068253D01*
X81088893Y-67082868D01*
X81067850Y-67095480D01*
X81045671Y-67105970D01*
X81022572Y-67114235D01*
X80998773Y-67120196D01*
X80974505Y-67123796D01*
X80950001Y-67125000D01*
X80049999Y-67125000D01*
X80025495Y-67123796D01*
X80001227Y-67120196D01*
X79977428Y-67114235D01*
X79954329Y-67105970D01*
X79932150Y-67095480D01*
X79911107Y-67082868D01*
X79891401Y-67068253D01*
X79873223Y-67051777D01*
X79856747Y-67033599D01*
X79842132Y-67013893D01*
X79829520Y-66992850D01*
X79819030Y-66970671D01*
X79810765Y-66947572D01*
X79804804Y-66923773D01*
X79801204Y-66899505D01*
X79800000Y-66875001D01*
X79800000Y-66224999D01*
X79801204Y-66200495D01*
X79804804Y-66176227D01*
X79810765Y-66152428D01*
X79819030Y-66129329D01*
X79829520Y-66107150D01*
X79842132Y-66086107D01*
X79856747Y-66066401D01*
X79873223Y-66048223D01*
X79891401Y-66031747D01*
X79911107Y-66017132D01*
X79932150Y-66004520D01*
X79954329Y-65994030D01*
X79977428Y-65985765D01*
X80001227Y-65979804D01*
X80025495Y-65976204D01*
X80049999Y-65975000D01*
X80950001Y-65975000D01*
X80974505Y-65976204D01*
G37*
G36*
X93692505Y-50743204D02*
G01*
X93716773Y-50746804D01*
X93740572Y-50752765D01*
X93763671Y-50761030D01*
X93785850Y-50771520D01*
X93806893Y-50784132D01*
X93826599Y-50798747D01*
X93844777Y-50815223D01*
X93861253Y-50833401D01*
X93875868Y-50853107D01*
X93888480Y-50874150D01*
X93898970Y-50896329D01*
X93907235Y-50919428D01*
X93913196Y-50943227D01*
X93916796Y-50967495D01*
X93918000Y-50991999D01*
X93918000Y-51642001D01*
X93916796Y-51666505D01*
X93913196Y-51690773D01*
X93907235Y-51714572D01*
X93898970Y-51737671D01*
X93888480Y-51759850D01*
X93875868Y-51780893D01*
X93861253Y-51800599D01*
X93844777Y-51818777D01*
X93826599Y-51835253D01*
X93806893Y-51849868D01*
X93785850Y-51862480D01*
X93763671Y-51872970D01*
X93740572Y-51881235D01*
X93716773Y-51887196D01*
X93692505Y-51890796D01*
X93668001Y-51892000D01*
X92767999Y-51892000D01*
X92743495Y-51890796D01*
X92719227Y-51887196D01*
X92695428Y-51881235D01*
X92672329Y-51872970D01*
X92650150Y-51862480D01*
X92629107Y-51849868D01*
X92609401Y-51835253D01*
X92591223Y-51818777D01*
X92574747Y-51800599D01*
X92560132Y-51780893D01*
X92547520Y-51759850D01*
X92537030Y-51737671D01*
X92528765Y-51714572D01*
X92522804Y-51690773D01*
X92519204Y-51666505D01*
X92518000Y-51642001D01*
X92518000Y-50991999D01*
X92519204Y-50967495D01*
X92522804Y-50943227D01*
X92528765Y-50919428D01*
X92537030Y-50896329D01*
X92547520Y-50874150D01*
X92560132Y-50853107D01*
X92574747Y-50833401D01*
X92591223Y-50815223D01*
X92609401Y-50798747D01*
X92629107Y-50784132D01*
X92650150Y-50771520D01*
X92672329Y-50761030D01*
X92695428Y-50752765D01*
X92719227Y-50746804D01*
X92743495Y-50743204D01*
X92767999Y-50742000D01*
X93668001Y-50742000D01*
X93692505Y-50743204D01*
G37*
G36*
X93692505Y-48693204D02*
G01*
X93716773Y-48696804D01*
X93740572Y-48702765D01*
X93763671Y-48711030D01*
X93785850Y-48721520D01*
X93806893Y-48734132D01*
X93826599Y-48748747D01*
X93844777Y-48765223D01*
X93861253Y-48783401D01*
X93875868Y-48803107D01*
X93888480Y-48824150D01*
X93898970Y-48846329D01*
X93907235Y-48869428D01*
X93913196Y-48893227D01*
X93916796Y-48917495D01*
X93918000Y-48941999D01*
X93918000Y-49592001D01*
X93916796Y-49616505D01*
X93913196Y-49640773D01*
X93907235Y-49664572D01*
X93898970Y-49687671D01*
X93888480Y-49709850D01*
X93875868Y-49730893D01*
X93861253Y-49750599D01*
X93844777Y-49768777D01*
X93826599Y-49785253D01*
X93806893Y-49799868D01*
X93785850Y-49812480D01*
X93763671Y-49822970D01*
X93740572Y-49831235D01*
X93716773Y-49837196D01*
X93692505Y-49840796D01*
X93668001Y-49842000D01*
X92767999Y-49842000D01*
X92743495Y-49840796D01*
X92719227Y-49837196D01*
X92695428Y-49831235D01*
X92672329Y-49822970D01*
X92650150Y-49812480D01*
X92629107Y-49799868D01*
X92609401Y-49785253D01*
X92591223Y-49768777D01*
X92574747Y-49750599D01*
X92560132Y-49730893D01*
X92547520Y-49709850D01*
X92537030Y-49687671D01*
X92528765Y-49664572D01*
X92522804Y-49640773D01*
X92519204Y-49616505D01*
X92518000Y-49592001D01*
X92518000Y-48941999D01*
X92519204Y-48917495D01*
X92522804Y-48893227D01*
X92528765Y-48869428D01*
X92537030Y-48846329D01*
X92547520Y-48824150D01*
X92560132Y-48803107D01*
X92574747Y-48783401D01*
X92591223Y-48765223D01*
X92609401Y-48748747D01*
X92629107Y-48734132D01*
X92650150Y-48721520D01*
X92672329Y-48711030D01*
X92695428Y-48702765D01*
X92719227Y-48696804D01*
X92743495Y-48693204D01*
X92767999Y-48692000D01*
X93668001Y-48692000D01*
X93692505Y-48693204D01*
G37*
G36*
X83456305Y-59826204D02*
G01*
X83480573Y-59829804D01*
X83504372Y-59835765D01*
X83527471Y-59844030D01*
X83549650Y-59854520D01*
X83570693Y-59867132D01*
X83590399Y-59881747D01*
X83608577Y-59898223D01*
X83625053Y-59916401D01*
X83639668Y-59936107D01*
X83652280Y-59957150D01*
X83662770Y-59979329D01*
X83671035Y-60002428D01*
X83676996Y-60026227D01*
X83680596Y-60050495D01*
X83681800Y-60074999D01*
X83681800Y-60725001D01*
X83680596Y-60749505D01*
X83676996Y-60773773D01*
X83671035Y-60797572D01*
X83662770Y-60820671D01*
X83652280Y-60842850D01*
X83639668Y-60863893D01*
X83625053Y-60883599D01*
X83608577Y-60901777D01*
X83590399Y-60918253D01*
X83570693Y-60932868D01*
X83549650Y-60945480D01*
X83527471Y-60955970D01*
X83504372Y-60964235D01*
X83480573Y-60970196D01*
X83456305Y-60973796D01*
X83431801Y-60975000D01*
X82531799Y-60975000D01*
X82507295Y-60973796D01*
X82483027Y-60970196D01*
X82459228Y-60964235D01*
X82436129Y-60955970D01*
X82413950Y-60945480D01*
X82392907Y-60932868D01*
X82373201Y-60918253D01*
X82355023Y-60901777D01*
X82338547Y-60883599D01*
X82323932Y-60863893D01*
X82311320Y-60842850D01*
X82300830Y-60820671D01*
X82292565Y-60797572D01*
X82286604Y-60773773D01*
X82283004Y-60749505D01*
X82281800Y-60725001D01*
X82281800Y-60074999D01*
X82283004Y-60050495D01*
X82286604Y-60026227D01*
X82292565Y-60002428D01*
X82300830Y-59979329D01*
X82311320Y-59957150D01*
X82323932Y-59936107D01*
X82338547Y-59916401D01*
X82355023Y-59898223D01*
X82373201Y-59881747D01*
X82392907Y-59867132D01*
X82413950Y-59854520D01*
X82436129Y-59844030D01*
X82459228Y-59835765D01*
X82483027Y-59829804D01*
X82507295Y-59826204D01*
X82531799Y-59825000D01*
X83431801Y-59825000D01*
X83456305Y-59826204D01*
G37*
G36*
X83456305Y-61876204D02*
G01*
X83480573Y-61879804D01*
X83504372Y-61885765D01*
X83527471Y-61894030D01*
X83549650Y-61904520D01*
X83570693Y-61917132D01*
X83590399Y-61931747D01*
X83608577Y-61948223D01*
X83625053Y-61966401D01*
X83639668Y-61986107D01*
X83652280Y-62007150D01*
X83662770Y-62029329D01*
X83671035Y-62052428D01*
X83676996Y-62076227D01*
X83680596Y-62100495D01*
X83681800Y-62124999D01*
X83681800Y-62775001D01*
X83680596Y-62799505D01*
X83676996Y-62823773D01*
X83671035Y-62847572D01*
X83662770Y-62870671D01*
X83652280Y-62892850D01*
X83639668Y-62913893D01*
X83625053Y-62933599D01*
X83608577Y-62951777D01*
X83590399Y-62968253D01*
X83570693Y-62982868D01*
X83549650Y-62995480D01*
X83527471Y-63005970D01*
X83504372Y-63014235D01*
X83480573Y-63020196D01*
X83456305Y-63023796D01*
X83431801Y-63025000D01*
X82531799Y-63025000D01*
X82507295Y-63023796D01*
X82483027Y-63020196D01*
X82459228Y-63014235D01*
X82436129Y-63005970D01*
X82413950Y-62995480D01*
X82392907Y-62982868D01*
X82373201Y-62968253D01*
X82355023Y-62951777D01*
X82338547Y-62933599D01*
X82323932Y-62913893D01*
X82311320Y-62892850D01*
X82300830Y-62870671D01*
X82292565Y-62847572D01*
X82286604Y-62823773D01*
X82283004Y-62799505D01*
X82281800Y-62775001D01*
X82281800Y-62124999D01*
X82283004Y-62100495D01*
X82286604Y-62076227D01*
X82292565Y-62052428D01*
X82300830Y-62029329D01*
X82311320Y-62007150D01*
X82323932Y-61986107D01*
X82338547Y-61966401D01*
X82355023Y-61948223D01*
X82373201Y-61931747D01*
X82392907Y-61917132D01*
X82413950Y-61904520D01*
X82436129Y-61894030D01*
X82459228Y-61885765D01*
X82483027Y-61879804D01*
X82507295Y-61876204D01*
X82531799Y-61875000D01*
X83431801Y-61875000D01*
X83456305Y-61876204D01*
G37*
G36*
X80992505Y-59826204D02*
G01*
X81016773Y-59829804D01*
X81040572Y-59835765D01*
X81063671Y-59844030D01*
X81085850Y-59854520D01*
X81106893Y-59867132D01*
X81126599Y-59881747D01*
X81144777Y-59898223D01*
X81161253Y-59916401D01*
X81175868Y-59936107D01*
X81188480Y-59957150D01*
X81198970Y-59979329D01*
X81207235Y-60002428D01*
X81213196Y-60026227D01*
X81216796Y-60050495D01*
X81218000Y-60074999D01*
X81218000Y-60725001D01*
X81216796Y-60749505D01*
X81213196Y-60773773D01*
X81207235Y-60797572D01*
X81198970Y-60820671D01*
X81188480Y-60842850D01*
X81175868Y-60863893D01*
X81161253Y-60883599D01*
X81144777Y-60901777D01*
X81126599Y-60918253D01*
X81106893Y-60932868D01*
X81085850Y-60945480D01*
X81063671Y-60955970D01*
X81040572Y-60964235D01*
X81016773Y-60970196D01*
X80992505Y-60973796D01*
X80968001Y-60975000D01*
X80067999Y-60975000D01*
X80043495Y-60973796D01*
X80019227Y-60970196D01*
X79995428Y-60964235D01*
X79972329Y-60955970D01*
X79950150Y-60945480D01*
X79929107Y-60932868D01*
X79909401Y-60918253D01*
X79891223Y-60901777D01*
X79874747Y-60883599D01*
X79860132Y-60863893D01*
X79847520Y-60842850D01*
X79837030Y-60820671D01*
X79828765Y-60797572D01*
X79822804Y-60773773D01*
X79819204Y-60749505D01*
X79818000Y-60725001D01*
X79818000Y-60074999D01*
X79819204Y-60050495D01*
X79822804Y-60026227D01*
X79828765Y-60002428D01*
X79837030Y-59979329D01*
X79847520Y-59957150D01*
X79860132Y-59936107D01*
X79874747Y-59916401D01*
X79891223Y-59898223D01*
X79909401Y-59881747D01*
X79929107Y-59867132D01*
X79950150Y-59854520D01*
X79972329Y-59844030D01*
X79995428Y-59835765D01*
X80019227Y-59829804D01*
X80043495Y-59826204D01*
X80067999Y-59825000D01*
X80968001Y-59825000D01*
X80992505Y-59826204D01*
G37*
G36*
X80992505Y-61876204D02*
G01*
X81016773Y-61879804D01*
X81040572Y-61885765D01*
X81063671Y-61894030D01*
X81085850Y-61904520D01*
X81106893Y-61917132D01*
X81126599Y-61931747D01*
X81144777Y-61948223D01*
X81161253Y-61966401D01*
X81175868Y-61986107D01*
X81188480Y-62007150D01*
X81198970Y-62029329D01*
X81207235Y-62052428D01*
X81213196Y-62076227D01*
X81216796Y-62100495D01*
X81218000Y-62124999D01*
X81218000Y-62775001D01*
X81216796Y-62799505D01*
X81213196Y-62823773D01*
X81207235Y-62847572D01*
X81198970Y-62870671D01*
X81188480Y-62892850D01*
X81175868Y-62913893D01*
X81161253Y-62933599D01*
X81144777Y-62951777D01*
X81126599Y-62968253D01*
X81106893Y-62982868D01*
X81085850Y-62995480D01*
X81063671Y-63005970D01*
X81040572Y-63014235D01*
X81016773Y-63020196D01*
X80992505Y-63023796D01*
X80968001Y-63025000D01*
X80067999Y-63025000D01*
X80043495Y-63023796D01*
X80019227Y-63020196D01*
X79995428Y-63014235D01*
X79972329Y-63005970D01*
X79950150Y-62995480D01*
X79929107Y-62982868D01*
X79909401Y-62968253D01*
X79891223Y-62951777D01*
X79874747Y-62933599D01*
X79860132Y-62913893D01*
X79847520Y-62892850D01*
X79837030Y-62870671D01*
X79828765Y-62847572D01*
X79822804Y-62823773D01*
X79819204Y-62799505D01*
X79818000Y-62775001D01*
X79818000Y-62124999D01*
X79819204Y-62100495D01*
X79822804Y-62076227D01*
X79828765Y-62052428D01*
X79837030Y-62029329D01*
X79847520Y-62007150D01*
X79860132Y-61986107D01*
X79874747Y-61966401D01*
X79891223Y-61948223D01*
X79909401Y-61931747D01*
X79929107Y-61917132D01*
X79950150Y-61904520D01*
X79972329Y-61894030D01*
X79995428Y-61885765D01*
X80019227Y-61879804D01*
X80043495Y-61876204D01*
X80067999Y-61875000D01*
X80968001Y-61875000D01*
X80992505Y-61876204D01*
G37*
G36*
X79722505Y-70528204D02*
G01*
X79746773Y-70531804D01*
X79770572Y-70537765D01*
X79793671Y-70546030D01*
X79815850Y-70556520D01*
X79836893Y-70569132D01*
X79856599Y-70583747D01*
X79874777Y-70600223D01*
X79891253Y-70618401D01*
X79905868Y-70638107D01*
X79918480Y-70659150D01*
X79928970Y-70681329D01*
X79937235Y-70704428D01*
X79943196Y-70728227D01*
X79946796Y-70752495D01*
X79948000Y-70776999D01*
X79948000Y-71427001D01*
X79946796Y-71451505D01*
X79943196Y-71475773D01*
X79937235Y-71499572D01*
X79928970Y-71522671D01*
X79918480Y-71544850D01*
X79905868Y-71565893D01*
X79891253Y-71585599D01*
X79874777Y-71603777D01*
X79856599Y-71620253D01*
X79836893Y-71634868D01*
X79815850Y-71647480D01*
X79793671Y-71657970D01*
X79770572Y-71666235D01*
X79746773Y-71672196D01*
X79722505Y-71675796D01*
X79698001Y-71677000D01*
X78797999Y-71677000D01*
X78773495Y-71675796D01*
X78749227Y-71672196D01*
X78725428Y-71666235D01*
X78702329Y-71657970D01*
X78680150Y-71647480D01*
X78659107Y-71634868D01*
X78639401Y-71620253D01*
X78621223Y-71603777D01*
X78604747Y-71585599D01*
X78590132Y-71565893D01*
X78577520Y-71544850D01*
X78567030Y-71522671D01*
X78558765Y-71499572D01*
X78552804Y-71475773D01*
X78549204Y-71451505D01*
X78548000Y-71427001D01*
X78548000Y-70776999D01*
X78549204Y-70752495D01*
X78552804Y-70728227D01*
X78558765Y-70704428D01*
X78567030Y-70681329D01*
X78577520Y-70659150D01*
X78590132Y-70638107D01*
X78604747Y-70618401D01*
X78621223Y-70600223D01*
X78639401Y-70583747D01*
X78659107Y-70569132D01*
X78680150Y-70556520D01*
X78702329Y-70546030D01*
X78725428Y-70537765D01*
X78749227Y-70531804D01*
X78773495Y-70528204D01*
X78797999Y-70527000D01*
X79698001Y-70527000D01*
X79722505Y-70528204D01*
G37*
G36*
X79722505Y-72578204D02*
G01*
X79746773Y-72581804D01*
X79770572Y-72587765D01*
X79793671Y-72596030D01*
X79815850Y-72606520D01*
X79836893Y-72619132D01*
X79856599Y-72633747D01*
X79874777Y-72650223D01*
X79891253Y-72668401D01*
X79905868Y-72688107D01*
X79918480Y-72709150D01*
X79928970Y-72731329D01*
X79937235Y-72754428D01*
X79943196Y-72778227D01*
X79946796Y-72802495D01*
X79948000Y-72826999D01*
X79948000Y-73477001D01*
X79946796Y-73501505D01*
X79943196Y-73525773D01*
X79937235Y-73549572D01*
X79928970Y-73572671D01*
X79918480Y-73594850D01*
X79905868Y-73615893D01*
X79891253Y-73635599D01*
X79874777Y-73653777D01*
X79856599Y-73670253D01*
X79836893Y-73684868D01*
X79815850Y-73697480D01*
X79793671Y-73707970D01*
X79770572Y-73716235D01*
X79746773Y-73722196D01*
X79722505Y-73725796D01*
X79698001Y-73727000D01*
X78797999Y-73727000D01*
X78773495Y-73725796D01*
X78749227Y-73722196D01*
X78725428Y-73716235D01*
X78702329Y-73707970D01*
X78680150Y-73697480D01*
X78659107Y-73684868D01*
X78639401Y-73670253D01*
X78621223Y-73653777D01*
X78604747Y-73635599D01*
X78590132Y-73615893D01*
X78577520Y-73594850D01*
X78567030Y-73572671D01*
X78558765Y-73549572D01*
X78552804Y-73525773D01*
X78549204Y-73501505D01*
X78548000Y-73477001D01*
X78548000Y-72826999D01*
X78549204Y-72802495D01*
X78552804Y-72778227D01*
X78558765Y-72754428D01*
X78567030Y-72731329D01*
X78577520Y-72709150D01*
X78590132Y-72688107D01*
X78604747Y-72668401D01*
X78621223Y-72650223D01*
X78639401Y-72633747D01*
X78659107Y-72619132D01*
X78680150Y-72606520D01*
X78702329Y-72596030D01*
X78725428Y-72587765D01*
X78749227Y-72581804D01*
X78773495Y-72578204D01*
X78797999Y-72577000D01*
X79698001Y-72577000D01*
X79722505Y-72578204D01*
G37*
G36*
X84169505Y-74993204D02*
G01*
X84193773Y-74996804D01*
X84217572Y-75002765D01*
X84240671Y-75011030D01*
X84262850Y-75021520D01*
X84283893Y-75034132D01*
X84303599Y-75048747D01*
X84321777Y-75065223D01*
X84338253Y-75083401D01*
X84352868Y-75103107D01*
X84365480Y-75124150D01*
X84375970Y-75146329D01*
X84384235Y-75169428D01*
X84390196Y-75193227D01*
X84393796Y-75217495D01*
X84395000Y-75241999D01*
X84395000Y-76142001D01*
X84393796Y-76166505D01*
X84390196Y-76190773D01*
X84384235Y-76214572D01*
X84375970Y-76237671D01*
X84365480Y-76259850D01*
X84352868Y-76280893D01*
X84338253Y-76300599D01*
X84321777Y-76318777D01*
X84303599Y-76335253D01*
X84283893Y-76349868D01*
X84262850Y-76362480D01*
X84240671Y-76372970D01*
X84217572Y-76381235D01*
X84193773Y-76387196D01*
X84169505Y-76390796D01*
X84145001Y-76392000D01*
X83494999Y-76392000D01*
X83470495Y-76390796D01*
X83446227Y-76387196D01*
X83422428Y-76381235D01*
X83399329Y-76372970D01*
X83377150Y-76362480D01*
X83356107Y-76349868D01*
X83336401Y-76335253D01*
X83318223Y-76318777D01*
X83301747Y-76300599D01*
X83287132Y-76280893D01*
X83274520Y-76259850D01*
X83264030Y-76237671D01*
X83255765Y-76214572D01*
X83249804Y-76190773D01*
X83246204Y-76166505D01*
X83245000Y-76142001D01*
X83245000Y-75241999D01*
X83246204Y-75217495D01*
X83249804Y-75193227D01*
X83255765Y-75169428D01*
X83264030Y-75146329D01*
X83274520Y-75124150D01*
X83287132Y-75103107D01*
X83301747Y-75083401D01*
X83318223Y-75065223D01*
X83336401Y-75048747D01*
X83356107Y-75034132D01*
X83377150Y-75021520D01*
X83399329Y-75011030D01*
X83422428Y-75002765D01*
X83446227Y-74996804D01*
X83470495Y-74993204D01*
X83494999Y-74992000D01*
X84145001Y-74992000D01*
X84169505Y-74993204D01*
G37*
G36*
X82119505Y-74993204D02*
G01*
X82143773Y-74996804D01*
X82167572Y-75002765D01*
X82190671Y-75011030D01*
X82212850Y-75021520D01*
X82233893Y-75034132D01*
X82253599Y-75048747D01*
X82271777Y-75065223D01*
X82288253Y-75083401D01*
X82302868Y-75103107D01*
X82315480Y-75124150D01*
X82325970Y-75146329D01*
X82334235Y-75169428D01*
X82340196Y-75193227D01*
X82343796Y-75217495D01*
X82345000Y-75241999D01*
X82345000Y-76142001D01*
X82343796Y-76166505D01*
X82340196Y-76190773D01*
X82334235Y-76214572D01*
X82325970Y-76237671D01*
X82315480Y-76259850D01*
X82302868Y-76280893D01*
X82288253Y-76300599D01*
X82271777Y-76318777D01*
X82253599Y-76335253D01*
X82233893Y-76349868D01*
X82212850Y-76362480D01*
X82190671Y-76372970D01*
X82167572Y-76381235D01*
X82143773Y-76387196D01*
X82119505Y-76390796D01*
X82095001Y-76392000D01*
X81444999Y-76392000D01*
X81420495Y-76390796D01*
X81396227Y-76387196D01*
X81372428Y-76381235D01*
X81349329Y-76372970D01*
X81327150Y-76362480D01*
X81306107Y-76349868D01*
X81286401Y-76335253D01*
X81268223Y-76318777D01*
X81251747Y-76300599D01*
X81237132Y-76280893D01*
X81224520Y-76259850D01*
X81214030Y-76237671D01*
X81205765Y-76214572D01*
X81199804Y-76190773D01*
X81196204Y-76166505D01*
X81195000Y-76142001D01*
X81195000Y-75241999D01*
X81196204Y-75217495D01*
X81199804Y-75193227D01*
X81205765Y-75169428D01*
X81214030Y-75146329D01*
X81224520Y-75124150D01*
X81237132Y-75103107D01*
X81251747Y-75083401D01*
X81268223Y-75065223D01*
X81286401Y-75048747D01*
X81306107Y-75034132D01*
X81327150Y-75021520D01*
X81349329Y-75011030D01*
X81372428Y-75002765D01*
X81396227Y-74996804D01*
X81420495Y-74993204D01*
X81444999Y-74992000D01*
X82095001Y-74992000D01*
X82119505Y-74993204D01*
G37*
G36*
X77699505Y-56501204D02*
G01*
X77723773Y-56504804D01*
X77747572Y-56510765D01*
X77770671Y-56519030D01*
X77792850Y-56529520D01*
X77813893Y-56542132D01*
X77833599Y-56556747D01*
X77851777Y-56573223D01*
X77868253Y-56591401D01*
X77882868Y-56611107D01*
X77895480Y-56632150D01*
X77905970Y-56654329D01*
X77914235Y-56677428D01*
X77920196Y-56701227D01*
X77923796Y-56725495D01*
X77925000Y-56749999D01*
X77925000Y-57650001D01*
X77923796Y-57674505D01*
X77920196Y-57698773D01*
X77914235Y-57722572D01*
X77905970Y-57745671D01*
X77895480Y-57767850D01*
X77882868Y-57788893D01*
X77868253Y-57808599D01*
X77851777Y-57826777D01*
X77833599Y-57843253D01*
X77813893Y-57857868D01*
X77792850Y-57870480D01*
X77770671Y-57880970D01*
X77747572Y-57889235D01*
X77723773Y-57895196D01*
X77699505Y-57898796D01*
X77675001Y-57900000D01*
X77024999Y-57900000D01*
X77000495Y-57898796D01*
X76976227Y-57895196D01*
X76952428Y-57889235D01*
X76929329Y-57880970D01*
X76907150Y-57870480D01*
X76886107Y-57857868D01*
X76866401Y-57843253D01*
X76848223Y-57826777D01*
X76831747Y-57808599D01*
X76817132Y-57788893D01*
X76804520Y-57767850D01*
X76794030Y-57745671D01*
X76785765Y-57722572D01*
X76779804Y-57698773D01*
X76776204Y-57674505D01*
X76775000Y-57650001D01*
X76775000Y-56749999D01*
X76776204Y-56725495D01*
X76779804Y-56701227D01*
X76785765Y-56677428D01*
X76794030Y-56654329D01*
X76804520Y-56632150D01*
X76817132Y-56611107D01*
X76831747Y-56591401D01*
X76848223Y-56573223D01*
X76866401Y-56556747D01*
X76886107Y-56542132D01*
X76907150Y-56529520D01*
X76929329Y-56519030D01*
X76952428Y-56510765D01*
X76976227Y-56504804D01*
X77000495Y-56501204D01*
X77024999Y-56500000D01*
X77675001Y-56500000D01*
X77699505Y-56501204D01*
G37*
G36*
X79749505Y-56501204D02*
G01*
X79773773Y-56504804D01*
X79797572Y-56510765D01*
X79820671Y-56519030D01*
X79842850Y-56529520D01*
X79863893Y-56542132D01*
X79883599Y-56556747D01*
X79901777Y-56573223D01*
X79918253Y-56591401D01*
X79932868Y-56611107D01*
X79945480Y-56632150D01*
X79955970Y-56654329D01*
X79964235Y-56677428D01*
X79970196Y-56701227D01*
X79973796Y-56725495D01*
X79975000Y-56749999D01*
X79975000Y-57650001D01*
X79973796Y-57674505D01*
X79970196Y-57698773D01*
X79964235Y-57722572D01*
X79955970Y-57745671D01*
X79945480Y-57767850D01*
X79932868Y-57788893D01*
X79918253Y-57808599D01*
X79901777Y-57826777D01*
X79883599Y-57843253D01*
X79863893Y-57857868D01*
X79842850Y-57870480D01*
X79820671Y-57880970D01*
X79797572Y-57889235D01*
X79773773Y-57895196D01*
X79749505Y-57898796D01*
X79725001Y-57900000D01*
X79074999Y-57900000D01*
X79050495Y-57898796D01*
X79026227Y-57895196D01*
X79002428Y-57889235D01*
X78979329Y-57880970D01*
X78957150Y-57870480D01*
X78936107Y-57857868D01*
X78916401Y-57843253D01*
X78898223Y-57826777D01*
X78881747Y-57808599D01*
X78867132Y-57788893D01*
X78854520Y-57767850D01*
X78844030Y-57745671D01*
X78835765Y-57722572D01*
X78829804Y-57698773D01*
X78826204Y-57674505D01*
X78825000Y-57650001D01*
X78825000Y-56749999D01*
X78826204Y-56725495D01*
X78829804Y-56701227D01*
X78835765Y-56677428D01*
X78844030Y-56654329D01*
X78854520Y-56632150D01*
X78867132Y-56611107D01*
X78881747Y-56591401D01*
X78898223Y-56573223D01*
X78916401Y-56556747D01*
X78936107Y-56542132D01*
X78957150Y-56529520D01*
X78979329Y-56519030D01*
X79002428Y-56510765D01*
X79026227Y-56504804D01*
X79050495Y-56501204D01*
X79074999Y-56500000D01*
X79725001Y-56500000D01*
X79749505Y-56501204D01*
G37*
G36*
X98674505Y-74276204D02*
G01*
X98698773Y-74279804D01*
X98722572Y-74285765D01*
X98745671Y-74294030D01*
X98767850Y-74304520D01*
X98788893Y-74317132D01*
X98808599Y-74331747D01*
X98826777Y-74348223D01*
X98843253Y-74366401D01*
X98857868Y-74386107D01*
X98870480Y-74407150D01*
X98880970Y-74429329D01*
X98889235Y-74452428D01*
X98895196Y-74476227D01*
X98898796Y-74500495D01*
X98900000Y-74524999D01*
X98900000Y-75175001D01*
X98898796Y-75199505D01*
X98895196Y-75223773D01*
X98889235Y-75247572D01*
X98880970Y-75270671D01*
X98870480Y-75292850D01*
X98857868Y-75313893D01*
X98843253Y-75333599D01*
X98826777Y-75351777D01*
X98808599Y-75368253D01*
X98788893Y-75382868D01*
X98767850Y-75395480D01*
X98745671Y-75405970D01*
X98722572Y-75414235D01*
X98698773Y-75420196D01*
X98674505Y-75423796D01*
X98650001Y-75425000D01*
X97749999Y-75425000D01*
X97725495Y-75423796D01*
X97701227Y-75420196D01*
X97677428Y-75414235D01*
X97654329Y-75405970D01*
X97632150Y-75395480D01*
X97611107Y-75382868D01*
X97591401Y-75368253D01*
X97573223Y-75351777D01*
X97556747Y-75333599D01*
X97542132Y-75313893D01*
X97529520Y-75292850D01*
X97519030Y-75270671D01*
X97510765Y-75247572D01*
X97504804Y-75223773D01*
X97501204Y-75199505D01*
X97500000Y-75175001D01*
X97500000Y-74524999D01*
X97501204Y-74500495D01*
X97504804Y-74476227D01*
X97510765Y-74452428D01*
X97519030Y-74429329D01*
X97529520Y-74407150D01*
X97542132Y-74386107D01*
X97556747Y-74366401D01*
X97573223Y-74348223D01*
X97591401Y-74331747D01*
X97611107Y-74317132D01*
X97632150Y-74304520D01*
X97654329Y-74294030D01*
X97677428Y-74285765D01*
X97701227Y-74279804D01*
X97725495Y-74276204D01*
X97749999Y-74275000D01*
X98650001Y-74275000D01*
X98674505Y-74276204D01*
G37*
G36*
X98674505Y-72226204D02*
G01*
X98698773Y-72229804D01*
X98722572Y-72235765D01*
X98745671Y-72244030D01*
X98767850Y-72254520D01*
X98788893Y-72267132D01*
X98808599Y-72281747D01*
X98826777Y-72298223D01*
X98843253Y-72316401D01*
X98857868Y-72336107D01*
X98870480Y-72357150D01*
X98880970Y-72379329D01*
X98889235Y-72402428D01*
X98895196Y-72426227D01*
X98898796Y-72450495D01*
X98900000Y-72474999D01*
X98900000Y-73125001D01*
X98898796Y-73149505D01*
X98895196Y-73173773D01*
X98889235Y-73197572D01*
X98880970Y-73220671D01*
X98870480Y-73242850D01*
X98857868Y-73263893D01*
X98843253Y-73283599D01*
X98826777Y-73301777D01*
X98808599Y-73318253D01*
X98788893Y-73332868D01*
X98767850Y-73345480D01*
X98745671Y-73355970D01*
X98722572Y-73364235D01*
X98698773Y-73370196D01*
X98674505Y-73373796D01*
X98650001Y-73375000D01*
X97749999Y-73375000D01*
X97725495Y-73373796D01*
X97701227Y-73370196D01*
X97677428Y-73364235D01*
X97654329Y-73355970D01*
X97632150Y-73345480D01*
X97611107Y-73332868D01*
X97591401Y-73318253D01*
X97573223Y-73301777D01*
X97556747Y-73283599D01*
X97542132Y-73263893D01*
X97529520Y-73242850D01*
X97519030Y-73220671D01*
X97510765Y-73197572D01*
X97504804Y-73173773D01*
X97501204Y-73149505D01*
X97500000Y-73125001D01*
X97500000Y-72474999D01*
X97501204Y-72450495D01*
X97504804Y-72426227D01*
X97510765Y-72402428D01*
X97519030Y-72379329D01*
X97529520Y-72357150D01*
X97542132Y-72336107D01*
X97556747Y-72316401D01*
X97573223Y-72298223D01*
X97591401Y-72281747D01*
X97611107Y-72267132D01*
X97632150Y-72254520D01*
X97654329Y-72244030D01*
X97677428Y-72235765D01*
X97701227Y-72229804D01*
X97725495Y-72226204D01*
X97749999Y-72225000D01*
X98650001Y-72225000D01*
X98674505Y-72226204D01*
G37*
G36*
X101099505Y-51301204D02*
G01*
X101123773Y-51304804D01*
X101147572Y-51310765D01*
X101170671Y-51319030D01*
X101192850Y-51329520D01*
X101213893Y-51342132D01*
X101233599Y-51356747D01*
X101251777Y-51373223D01*
X101268253Y-51391401D01*
X101282868Y-51411107D01*
X101295480Y-51432150D01*
X101305970Y-51454329D01*
X101314235Y-51477428D01*
X101320196Y-51501227D01*
X101323796Y-51525495D01*
X101325000Y-51549999D01*
X101325000Y-52450001D01*
X101323796Y-52474505D01*
X101320196Y-52498773D01*
X101314235Y-52522572D01*
X101305970Y-52545671D01*
X101295480Y-52567850D01*
X101282868Y-52588893D01*
X101268253Y-52608599D01*
X101251777Y-52626777D01*
X101233599Y-52643253D01*
X101213893Y-52657868D01*
X101192850Y-52670480D01*
X101170671Y-52680970D01*
X101147572Y-52689235D01*
X101123773Y-52695196D01*
X101099505Y-52698796D01*
X101075001Y-52700000D01*
X100424999Y-52700000D01*
X100400495Y-52698796D01*
X100376227Y-52695196D01*
X100352428Y-52689235D01*
X100329329Y-52680970D01*
X100307150Y-52670480D01*
X100286107Y-52657868D01*
X100266401Y-52643253D01*
X100248223Y-52626777D01*
X100231747Y-52608599D01*
X100217132Y-52588893D01*
X100204520Y-52567850D01*
X100194030Y-52545671D01*
X100185765Y-52522572D01*
X100179804Y-52498773D01*
X100176204Y-52474505D01*
X100175000Y-52450001D01*
X100175000Y-51549999D01*
X100176204Y-51525495D01*
X100179804Y-51501227D01*
X100185765Y-51477428D01*
X100194030Y-51454329D01*
X100204520Y-51432150D01*
X100217132Y-51411107D01*
X100231747Y-51391401D01*
X100248223Y-51373223D01*
X100266401Y-51356747D01*
X100286107Y-51342132D01*
X100307150Y-51329520D01*
X100329329Y-51319030D01*
X100352428Y-51310765D01*
X100376227Y-51304804D01*
X100400495Y-51301204D01*
X100424999Y-51300000D01*
X101075001Y-51300000D01*
X101099505Y-51301204D01*
G37*
G36*
X99049505Y-51301204D02*
G01*
X99073773Y-51304804D01*
X99097572Y-51310765D01*
X99120671Y-51319030D01*
X99142850Y-51329520D01*
X99163893Y-51342132D01*
X99183599Y-51356747D01*
X99201777Y-51373223D01*
X99218253Y-51391401D01*
X99232868Y-51411107D01*
X99245480Y-51432150D01*
X99255970Y-51454329D01*
X99264235Y-51477428D01*
X99270196Y-51501227D01*
X99273796Y-51525495D01*
X99275000Y-51549999D01*
X99275000Y-52450001D01*
X99273796Y-52474505D01*
X99270196Y-52498773D01*
X99264235Y-52522572D01*
X99255970Y-52545671D01*
X99245480Y-52567850D01*
X99232868Y-52588893D01*
X99218253Y-52608599D01*
X99201777Y-52626777D01*
X99183599Y-52643253D01*
X99163893Y-52657868D01*
X99142850Y-52670480D01*
X99120671Y-52680970D01*
X99097572Y-52689235D01*
X99073773Y-52695196D01*
X99049505Y-52698796D01*
X99025001Y-52700000D01*
X98374999Y-52700000D01*
X98350495Y-52698796D01*
X98326227Y-52695196D01*
X98302428Y-52689235D01*
X98279329Y-52680970D01*
X98257150Y-52670480D01*
X98236107Y-52657868D01*
X98216401Y-52643253D01*
X98198223Y-52626777D01*
X98181747Y-52608599D01*
X98167132Y-52588893D01*
X98154520Y-52567850D01*
X98144030Y-52545671D01*
X98135765Y-52522572D01*
X98129804Y-52498773D01*
X98126204Y-52474505D01*
X98125000Y-52450001D01*
X98125000Y-51549999D01*
X98126204Y-51525495D01*
X98129804Y-51501227D01*
X98135765Y-51477428D01*
X98144030Y-51454329D01*
X98154520Y-51432150D01*
X98167132Y-51411107D01*
X98181747Y-51391401D01*
X98198223Y-51373223D01*
X98216401Y-51356747D01*
X98236107Y-51342132D01*
X98257150Y-51329520D01*
X98279329Y-51319030D01*
X98302428Y-51310765D01*
X98326227Y-51304804D01*
X98350495Y-51301204D01*
X98374999Y-51300000D01*
X99025001Y-51300000D01*
X99049505Y-51301204D01*
G37*
M02*
