G04 #@! TF.GenerationSoftware,KiCad,Pcbnew,5.1.5*
G04 #@! TF.CreationDate,2020-04-26T21:12:40+03:00*
G04 #@! TF.ProjectId,nanopicore_debug,6e616e6f-7069-4636-9f72-655f64656275,rev?*
G04 #@! TF.SameCoordinates,Original*
G04 #@! TF.FileFunction,Copper,L1,Top*
G04 #@! TF.FilePolarity,Positive*
%FSLAX46Y46*%
G04 Gerber Fmt 4.6, Leading zero omitted, Abs format (unit mm)*
G04 Created by KiCad (PCBNEW 5.1.5) date 2020-04-26 21:12:40*
%MOMM*%
%LPD*%
G04 APERTURE LIST*
%ADD10C,0.100000*%
%ADD11C,1.600000*%
%ADD12R,1.600000X1.600000*%
%ADD13C,3.000000*%
%ADD14R,1.700000X1.000000*%
%ADD15O,1.700000X1.700000*%
%ADD16R,1.700000X1.700000*%
%ADD17R,1.800000X2.100000*%
%ADD18R,1.560000X0.650000*%
%ADD19R,1.500000X2.000000*%
%ADD20R,3.800000X2.000000*%
%ADD21O,1.050000X1.900000*%
%ADD22C,0.800000*%
%ADD23C,0.500000*%
%ADD24C,0.300000*%
%ADD25C,0.250000*%
%ADD26C,1.000000*%
%ADD27C,0.200000*%
%ADD28C,0.254000*%
G04 APERTURE END LIST*
G04 #@! TA.AperFunction,SMDPad,CuDef*
D10*
G36*
X96456103Y-74220922D02*
G01*
X96470664Y-74223082D01*
X96484943Y-74226659D01*
X96498803Y-74231618D01*
X96512110Y-74237912D01*
X96524736Y-74245480D01*
X96536559Y-74254248D01*
X96547466Y-74264134D01*
X96557352Y-74275041D01*
X96566120Y-74286864D01*
X96573688Y-74299490D01*
X96579982Y-74312797D01*
X96584941Y-74326657D01*
X96588518Y-74340936D01*
X96590678Y-74355497D01*
X96591400Y-74370200D01*
X96591400Y-76020200D01*
X96590678Y-76034903D01*
X96588518Y-76049464D01*
X96584941Y-76063743D01*
X96579982Y-76077603D01*
X96573688Y-76090910D01*
X96566120Y-76103536D01*
X96557352Y-76115359D01*
X96547466Y-76126266D01*
X96536559Y-76136152D01*
X96524736Y-76144920D01*
X96512110Y-76152488D01*
X96498803Y-76158782D01*
X96484943Y-76163741D01*
X96470664Y-76167318D01*
X96456103Y-76169478D01*
X96441400Y-76170200D01*
X96141400Y-76170200D01*
X96126697Y-76169478D01*
X96112136Y-76167318D01*
X96097857Y-76163741D01*
X96083997Y-76158782D01*
X96070690Y-76152488D01*
X96058064Y-76144920D01*
X96046241Y-76136152D01*
X96035334Y-76126266D01*
X96025448Y-76115359D01*
X96016680Y-76103536D01*
X96009112Y-76090910D01*
X96002818Y-76077603D01*
X95997859Y-76063743D01*
X95994282Y-76049464D01*
X95992122Y-76034903D01*
X95991400Y-76020200D01*
X95991400Y-74370200D01*
X95992122Y-74355497D01*
X95994282Y-74340936D01*
X95997859Y-74326657D01*
X96002818Y-74312797D01*
X96009112Y-74299490D01*
X96016680Y-74286864D01*
X96025448Y-74275041D01*
X96035334Y-74264134D01*
X96046241Y-74254248D01*
X96058064Y-74245480D01*
X96070690Y-74237912D01*
X96083997Y-74231618D01*
X96097857Y-74226659D01*
X96112136Y-74223082D01*
X96126697Y-74220922D01*
X96141400Y-74220200D01*
X96441400Y-74220200D01*
X96456103Y-74220922D01*
G37*
G04 #@! TD.AperFunction*
G04 #@! TA.AperFunction,SMDPad,CuDef*
G36*
X95186103Y-74220922D02*
G01*
X95200664Y-74223082D01*
X95214943Y-74226659D01*
X95228803Y-74231618D01*
X95242110Y-74237912D01*
X95254736Y-74245480D01*
X95266559Y-74254248D01*
X95277466Y-74264134D01*
X95287352Y-74275041D01*
X95296120Y-74286864D01*
X95303688Y-74299490D01*
X95309982Y-74312797D01*
X95314941Y-74326657D01*
X95318518Y-74340936D01*
X95320678Y-74355497D01*
X95321400Y-74370200D01*
X95321400Y-76020200D01*
X95320678Y-76034903D01*
X95318518Y-76049464D01*
X95314941Y-76063743D01*
X95309982Y-76077603D01*
X95303688Y-76090910D01*
X95296120Y-76103536D01*
X95287352Y-76115359D01*
X95277466Y-76126266D01*
X95266559Y-76136152D01*
X95254736Y-76144920D01*
X95242110Y-76152488D01*
X95228803Y-76158782D01*
X95214943Y-76163741D01*
X95200664Y-76167318D01*
X95186103Y-76169478D01*
X95171400Y-76170200D01*
X94871400Y-76170200D01*
X94856697Y-76169478D01*
X94842136Y-76167318D01*
X94827857Y-76163741D01*
X94813997Y-76158782D01*
X94800690Y-76152488D01*
X94788064Y-76144920D01*
X94776241Y-76136152D01*
X94765334Y-76126266D01*
X94755448Y-76115359D01*
X94746680Y-76103536D01*
X94739112Y-76090910D01*
X94732818Y-76077603D01*
X94727859Y-76063743D01*
X94724282Y-76049464D01*
X94722122Y-76034903D01*
X94721400Y-76020200D01*
X94721400Y-74370200D01*
X94722122Y-74355497D01*
X94724282Y-74340936D01*
X94727859Y-74326657D01*
X94732818Y-74312797D01*
X94739112Y-74299490D01*
X94746680Y-74286864D01*
X94755448Y-74275041D01*
X94765334Y-74264134D01*
X94776241Y-74254248D01*
X94788064Y-74245480D01*
X94800690Y-74237912D01*
X94813997Y-74231618D01*
X94827857Y-74226659D01*
X94842136Y-74223082D01*
X94856697Y-74220922D01*
X94871400Y-74220200D01*
X95171400Y-74220200D01*
X95186103Y-74220922D01*
G37*
G04 #@! TD.AperFunction*
G04 #@! TA.AperFunction,SMDPad,CuDef*
G36*
X93916103Y-74220922D02*
G01*
X93930664Y-74223082D01*
X93944943Y-74226659D01*
X93958803Y-74231618D01*
X93972110Y-74237912D01*
X93984736Y-74245480D01*
X93996559Y-74254248D01*
X94007466Y-74264134D01*
X94017352Y-74275041D01*
X94026120Y-74286864D01*
X94033688Y-74299490D01*
X94039982Y-74312797D01*
X94044941Y-74326657D01*
X94048518Y-74340936D01*
X94050678Y-74355497D01*
X94051400Y-74370200D01*
X94051400Y-76020200D01*
X94050678Y-76034903D01*
X94048518Y-76049464D01*
X94044941Y-76063743D01*
X94039982Y-76077603D01*
X94033688Y-76090910D01*
X94026120Y-76103536D01*
X94017352Y-76115359D01*
X94007466Y-76126266D01*
X93996559Y-76136152D01*
X93984736Y-76144920D01*
X93972110Y-76152488D01*
X93958803Y-76158782D01*
X93944943Y-76163741D01*
X93930664Y-76167318D01*
X93916103Y-76169478D01*
X93901400Y-76170200D01*
X93601400Y-76170200D01*
X93586697Y-76169478D01*
X93572136Y-76167318D01*
X93557857Y-76163741D01*
X93543997Y-76158782D01*
X93530690Y-76152488D01*
X93518064Y-76144920D01*
X93506241Y-76136152D01*
X93495334Y-76126266D01*
X93485448Y-76115359D01*
X93476680Y-76103536D01*
X93469112Y-76090910D01*
X93462818Y-76077603D01*
X93457859Y-76063743D01*
X93454282Y-76049464D01*
X93452122Y-76034903D01*
X93451400Y-76020200D01*
X93451400Y-74370200D01*
X93452122Y-74355497D01*
X93454282Y-74340936D01*
X93457859Y-74326657D01*
X93462818Y-74312797D01*
X93469112Y-74299490D01*
X93476680Y-74286864D01*
X93485448Y-74275041D01*
X93495334Y-74264134D01*
X93506241Y-74254248D01*
X93518064Y-74245480D01*
X93530690Y-74237912D01*
X93543997Y-74231618D01*
X93557857Y-74226659D01*
X93572136Y-74223082D01*
X93586697Y-74220922D01*
X93601400Y-74220200D01*
X93901400Y-74220200D01*
X93916103Y-74220922D01*
G37*
G04 #@! TD.AperFunction*
G04 #@! TA.AperFunction,SMDPad,CuDef*
G36*
X92646103Y-74220922D02*
G01*
X92660664Y-74223082D01*
X92674943Y-74226659D01*
X92688803Y-74231618D01*
X92702110Y-74237912D01*
X92714736Y-74245480D01*
X92726559Y-74254248D01*
X92737466Y-74264134D01*
X92747352Y-74275041D01*
X92756120Y-74286864D01*
X92763688Y-74299490D01*
X92769982Y-74312797D01*
X92774941Y-74326657D01*
X92778518Y-74340936D01*
X92780678Y-74355497D01*
X92781400Y-74370200D01*
X92781400Y-76020200D01*
X92780678Y-76034903D01*
X92778518Y-76049464D01*
X92774941Y-76063743D01*
X92769982Y-76077603D01*
X92763688Y-76090910D01*
X92756120Y-76103536D01*
X92747352Y-76115359D01*
X92737466Y-76126266D01*
X92726559Y-76136152D01*
X92714736Y-76144920D01*
X92702110Y-76152488D01*
X92688803Y-76158782D01*
X92674943Y-76163741D01*
X92660664Y-76167318D01*
X92646103Y-76169478D01*
X92631400Y-76170200D01*
X92331400Y-76170200D01*
X92316697Y-76169478D01*
X92302136Y-76167318D01*
X92287857Y-76163741D01*
X92273997Y-76158782D01*
X92260690Y-76152488D01*
X92248064Y-76144920D01*
X92236241Y-76136152D01*
X92225334Y-76126266D01*
X92215448Y-76115359D01*
X92206680Y-76103536D01*
X92199112Y-76090910D01*
X92192818Y-76077603D01*
X92187859Y-76063743D01*
X92184282Y-76049464D01*
X92182122Y-76034903D01*
X92181400Y-76020200D01*
X92181400Y-74370200D01*
X92182122Y-74355497D01*
X92184282Y-74340936D01*
X92187859Y-74326657D01*
X92192818Y-74312797D01*
X92199112Y-74299490D01*
X92206680Y-74286864D01*
X92215448Y-74275041D01*
X92225334Y-74264134D01*
X92236241Y-74254248D01*
X92248064Y-74245480D01*
X92260690Y-74237912D01*
X92273997Y-74231618D01*
X92287857Y-74226659D01*
X92302136Y-74223082D01*
X92316697Y-74220922D01*
X92331400Y-74220200D01*
X92631400Y-74220200D01*
X92646103Y-74220922D01*
G37*
G04 #@! TD.AperFunction*
G04 #@! TA.AperFunction,SMDPad,CuDef*
G36*
X91376103Y-74220922D02*
G01*
X91390664Y-74223082D01*
X91404943Y-74226659D01*
X91418803Y-74231618D01*
X91432110Y-74237912D01*
X91444736Y-74245480D01*
X91456559Y-74254248D01*
X91467466Y-74264134D01*
X91477352Y-74275041D01*
X91486120Y-74286864D01*
X91493688Y-74299490D01*
X91499982Y-74312797D01*
X91504941Y-74326657D01*
X91508518Y-74340936D01*
X91510678Y-74355497D01*
X91511400Y-74370200D01*
X91511400Y-76020200D01*
X91510678Y-76034903D01*
X91508518Y-76049464D01*
X91504941Y-76063743D01*
X91499982Y-76077603D01*
X91493688Y-76090910D01*
X91486120Y-76103536D01*
X91477352Y-76115359D01*
X91467466Y-76126266D01*
X91456559Y-76136152D01*
X91444736Y-76144920D01*
X91432110Y-76152488D01*
X91418803Y-76158782D01*
X91404943Y-76163741D01*
X91390664Y-76167318D01*
X91376103Y-76169478D01*
X91361400Y-76170200D01*
X91061400Y-76170200D01*
X91046697Y-76169478D01*
X91032136Y-76167318D01*
X91017857Y-76163741D01*
X91003997Y-76158782D01*
X90990690Y-76152488D01*
X90978064Y-76144920D01*
X90966241Y-76136152D01*
X90955334Y-76126266D01*
X90945448Y-76115359D01*
X90936680Y-76103536D01*
X90929112Y-76090910D01*
X90922818Y-76077603D01*
X90917859Y-76063743D01*
X90914282Y-76049464D01*
X90912122Y-76034903D01*
X90911400Y-76020200D01*
X90911400Y-74370200D01*
X90912122Y-74355497D01*
X90914282Y-74340936D01*
X90917859Y-74326657D01*
X90922818Y-74312797D01*
X90929112Y-74299490D01*
X90936680Y-74286864D01*
X90945448Y-74275041D01*
X90955334Y-74264134D01*
X90966241Y-74254248D01*
X90978064Y-74245480D01*
X90990690Y-74237912D01*
X91003997Y-74231618D01*
X91017857Y-74226659D01*
X91032136Y-74223082D01*
X91046697Y-74220922D01*
X91061400Y-74220200D01*
X91361400Y-74220200D01*
X91376103Y-74220922D01*
G37*
G04 #@! TD.AperFunction*
G04 #@! TA.AperFunction,SMDPad,CuDef*
G36*
X90106103Y-74220922D02*
G01*
X90120664Y-74223082D01*
X90134943Y-74226659D01*
X90148803Y-74231618D01*
X90162110Y-74237912D01*
X90174736Y-74245480D01*
X90186559Y-74254248D01*
X90197466Y-74264134D01*
X90207352Y-74275041D01*
X90216120Y-74286864D01*
X90223688Y-74299490D01*
X90229982Y-74312797D01*
X90234941Y-74326657D01*
X90238518Y-74340936D01*
X90240678Y-74355497D01*
X90241400Y-74370200D01*
X90241400Y-76020200D01*
X90240678Y-76034903D01*
X90238518Y-76049464D01*
X90234941Y-76063743D01*
X90229982Y-76077603D01*
X90223688Y-76090910D01*
X90216120Y-76103536D01*
X90207352Y-76115359D01*
X90197466Y-76126266D01*
X90186559Y-76136152D01*
X90174736Y-76144920D01*
X90162110Y-76152488D01*
X90148803Y-76158782D01*
X90134943Y-76163741D01*
X90120664Y-76167318D01*
X90106103Y-76169478D01*
X90091400Y-76170200D01*
X89791400Y-76170200D01*
X89776697Y-76169478D01*
X89762136Y-76167318D01*
X89747857Y-76163741D01*
X89733997Y-76158782D01*
X89720690Y-76152488D01*
X89708064Y-76144920D01*
X89696241Y-76136152D01*
X89685334Y-76126266D01*
X89675448Y-76115359D01*
X89666680Y-76103536D01*
X89659112Y-76090910D01*
X89652818Y-76077603D01*
X89647859Y-76063743D01*
X89644282Y-76049464D01*
X89642122Y-76034903D01*
X89641400Y-76020200D01*
X89641400Y-74370200D01*
X89642122Y-74355497D01*
X89644282Y-74340936D01*
X89647859Y-74326657D01*
X89652818Y-74312797D01*
X89659112Y-74299490D01*
X89666680Y-74286864D01*
X89675448Y-74275041D01*
X89685334Y-74264134D01*
X89696241Y-74254248D01*
X89708064Y-74245480D01*
X89720690Y-74237912D01*
X89733997Y-74231618D01*
X89747857Y-74226659D01*
X89762136Y-74223082D01*
X89776697Y-74220922D01*
X89791400Y-74220200D01*
X90091400Y-74220200D01*
X90106103Y-74220922D01*
G37*
G04 #@! TD.AperFunction*
G04 #@! TA.AperFunction,SMDPad,CuDef*
G36*
X88836103Y-74220922D02*
G01*
X88850664Y-74223082D01*
X88864943Y-74226659D01*
X88878803Y-74231618D01*
X88892110Y-74237912D01*
X88904736Y-74245480D01*
X88916559Y-74254248D01*
X88927466Y-74264134D01*
X88937352Y-74275041D01*
X88946120Y-74286864D01*
X88953688Y-74299490D01*
X88959982Y-74312797D01*
X88964941Y-74326657D01*
X88968518Y-74340936D01*
X88970678Y-74355497D01*
X88971400Y-74370200D01*
X88971400Y-76020200D01*
X88970678Y-76034903D01*
X88968518Y-76049464D01*
X88964941Y-76063743D01*
X88959982Y-76077603D01*
X88953688Y-76090910D01*
X88946120Y-76103536D01*
X88937352Y-76115359D01*
X88927466Y-76126266D01*
X88916559Y-76136152D01*
X88904736Y-76144920D01*
X88892110Y-76152488D01*
X88878803Y-76158782D01*
X88864943Y-76163741D01*
X88850664Y-76167318D01*
X88836103Y-76169478D01*
X88821400Y-76170200D01*
X88521400Y-76170200D01*
X88506697Y-76169478D01*
X88492136Y-76167318D01*
X88477857Y-76163741D01*
X88463997Y-76158782D01*
X88450690Y-76152488D01*
X88438064Y-76144920D01*
X88426241Y-76136152D01*
X88415334Y-76126266D01*
X88405448Y-76115359D01*
X88396680Y-76103536D01*
X88389112Y-76090910D01*
X88382818Y-76077603D01*
X88377859Y-76063743D01*
X88374282Y-76049464D01*
X88372122Y-76034903D01*
X88371400Y-76020200D01*
X88371400Y-74370200D01*
X88372122Y-74355497D01*
X88374282Y-74340936D01*
X88377859Y-74326657D01*
X88382818Y-74312797D01*
X88389112Y-74299490D01*
X88396680Y-74286864D01*
X88405448Y-74275041D01*
X88415334Y-74264134D01*
X88426241Y-74254248D01*
X88438064Y-74245480D01*
X88450690Y-74237912D01*
X88463997Y-74231618D01*
X88477857Y-74226659D01*
X88492136Y-74223082D01*
X88506697Y-74220922D01*
X88521400Y-74220200D01*
X88821400Y-74220200D01*
X88836103Y-74220922D01*
G37*
G04 #@! TD.AperFunction*
G04 #@! TA.AperFunction,SMDPad,CuDef*
G36*
X87566103Y-74220922D02*
G01*
X87580664Y-74223082D01*
X87594943Y-74226659D01*
X87608803Y-74231618D01*
X87622110Y-74237912D01*
X87634736Y-74245480D01*
X87646559Y-74254248D01*
X87657466Y-74264134D01*
X87667352Y-74275041D01*
X87676120Y-74286864D01*
X87683688Y-74299490D01*
X87689982Y-74312797D01*
X87694941Y-74326657D01*
X87698518Y-74340936D01*
X87700678Y-74355497D01*
X87701400Y-74370200D01*
X87701400Y-76020200D01*
X87700678Y-76034903D01*
X87698518Y-76049464D01*
X87694941Y-76063743D01*
X87689982Y-76077603D01*
X87683688Y-76090910D01*
X87676120Y-76103536D01*
X87667352Y-76115359D01*
X87657466Y-76126266D01*
X87646559Y-76136152D01*
X87634736Y-76144920D01*
X87622110Y-76152488D01*
X87608803Y-76158782D01*
X87594943Y-76163741D01*
X87580664Y-76167318D01*
X87566103Y-76169478D01*
X87551400Y-76170200D01*
X87251400Y-76170200D01*
X87236697Y-76169478D01*
X87222136Y-76167318D01*
X87207857Y-76163741D01*
X87193997Y-76158782D01*
X87180690Y-76152488D01*
X87168064Y-76144920D01*
X87156241Y-76136152D01*
X87145334Y-76126266D01*
X87135448Y-76115359D01*
X87126680Y-76103536D01*
X87119112Y-76090910D01*
X87112818Y-76077603D01*
X87107859Y-76063743D01*
X87104282Y-76049464D01*
X87102122Y-76034903D01*
X87101400Y-76020200D01*
X87101400Y-74370200D01*
X87102122Y-74355497D01*
X87104282Y-74340936D01*
X87107859Y-74326657D01*
X87112818Y-74312797D01*
X87119112Y-74299490D01*
X87126680Y-74286864D01*
X87135448Y-74275041D01*
X87145334Y-74264134D01*
X87156241Y-74254248D01*
X87168064Y-74245480D01*
X87180690Y-74237912D01*
X87193997Y-74231618D01*
X87207857Y-74226659D01*
X87222136Y-74223082D01*
X87236697Y-74220922D01*
X87251400Y-74220200D01*
X87551400Y-74220200D01*
X87566103Y-74220922D01*
G37*
G04 #@! TD.AperFunction*
G04 #@! TA.AperFunction,SMDPad,CuDef*
G36*
X87566103Y-69270922D02*
G01*
X87580664Y-69273082D01*
X87594943Y-69276659D01*
X87608803Y-69281618D01*
X87622110Y-69287912D01*
X87634736Y-69295480D01*
X87646559Y-69304248D01*
X87657466Y-69314134D01*
X87667352Y-69325041D01*
X87676120Y-69336864D01*
X87683688Y-69349490D01*
X87689982Y-69362797D01*
X87694941Y-69376657D01*
X87698518Y-69390936D01*
X87700678Y-69405497D01*
X87701400Y-69420200D01*
X87701400Y-71070200D01*
X87700678Y-71084903D01*
X87698518Y-71099464D01*
X87694941Y-71113743D01*
X87689982Y-71127603D01*
X87683688Y-71140910D01*
X87676120Y-71153536D01*
X87667352Y-71165359D01*
X87657466Y-71176266D01*
X87646559Y-71186152D01*
X87634736Y-71194920D01*
X87622110Y-71202488D01*
X87608803Y-71208782D01*
X87594943Y-71213741D01*
X87580664Y-71217318D01*
X87566103Y-71219478D01*
X87551400Y-71220200D01*
X87251400Y-71220200D01*
X87236697Y-71219478D01*
X87222136Y-71217318D01*
X87207857Y-71213741D01*
X87193997Y-71208782D01*
X87180690Y-71202488D01*
X87168064Y-71194920D01*
X87156241Y-71186152D01*
X87145334Y-71176266D01*
X87135448Y-71165359D01*
X87126680Y-71153536D01*
X87119112Y-71140910D01*
X87112818Y-71127603D01*
X87107859Y-71113743D01*
X87104282Y-71099464D01*
X87102122Y-71084903D01*
X87101400Y-71070200D01*
X87101400Y-69420200D01*
X87102122Y-69405497D01*
X87104282Y-69390936D01*
X87107859Y-69376657D01*
X87112818Y-69362797D01*
X87119112Y-69349490D01*
X87126680Y-69336864D01*
X87135448Y-69325041D01*
X87145334Y-69314134D01*
X87156241Y-69304248D01*
X87168064Y-69295480D01*
X87180690Y-69287912D01*
X87193997Y-69281618D01*
X87207857Y-69276659D01*
X87222136Y-69273082D01*
X87236697Y-69270922D01*
X87251400Y-69270200D01*
X87551400Y-69270200D01*
X87566103Y-69270922D01*
G37*
G04 #@! TD.AperFunction*
G04 #@! TA.AperFunction,SMDPad,CuDef*
G36*
X88836103Y-69270922D02*
G01*
X88850664Y-69273082D01*
X88864943Y-69276659D01*
X88878803Y-69281618D01*
X88892110Y-69287912D01*
X88904736Y-69295480D01*
X88916559Y-69304248D01*
X88927466Y-69314134D01*
X88937352Y-69325041D01*
X88946120Y-69336864D01*
X88953688Y-69349490D01*
X88959982Y-69362797D01*
X88964941Y-69376657D01*
X88968518Y-69390936D01*
X88970678Y-69405497D01*
X88971400Y-69420200D01*
X88971400Y-71070200D01*
X88970678Y-71084903D01*
X88968518Y-71099464D01*
X88964941Y-71113743D01*
X88959982Y-71127603D01*
X88953688Y-71140910D01*
X88946120Y-71153536D01*
X88937352Y-71165359D01*
X88927466Y-71176266D01*
X88916559Y-71186152D01*
X88904736Y-71194920D01*
X88892110Y-71202488D01*
X88878803Y-71208782D01*
X88864943Y-71213741D01*
X88850664Y-71217318D01*
X88836103Y-71219478D01*
X88821400Y-71220200D01*
X88521400Y-71220200D01*
X88506697Y-71219478D01*
X88492136Y-71217318D01*
X88477857Y-71213741D01*
X88463997Y-71208782D01*
X88450690Y-71202488D01*
X88438064Y-71194920D01*
X88426241Y-71186152D01*
X88415334Y-71176266D01*
X88405448Y-71165359D01*
X88396680Y-71153536D01*
X88389112Y-71140910D01*
X88382818Y-71127603D01*
X88377859Y-71113743D01*
X88374282Y-71099464D01*
X88372122Y-71084903D01*
X88371400Y-71070200D01*
X88371400Y-69420200D01*
X88372122Y-69405497D01*
X88374282Y-69390936D01*
X88377859Y-69376657D01*
X88382818Y-69362797D01*
X88389112Y-69349490D01*
X88396680Y-69336864D01*
X88405448Y-69325041D01*
X88415334Y-69314134D01*
X88426241Y-69304248D01*
X88438064Y-69295480D01*
X88450690Y-69287912D01*
X88463997Y-69281618D01*
X88477857Y-69276659D01*
X88492136Y-69273082D01*
X88506697Y-69270922D01*
X88521400Y-69270200D01*
X88821400Y-69270200D01*
X88836103Y-69270922D01*
G37*
G04 #@! TD.AperFunction*
G04 #@! TA.AperFunction,SMDPad,CuDef*
G36*
X90106103Y-69270922D02*
G01*
X90120664Y-69273082D01*
X90134943Y-69276659D01*
X90148803Y-69281618D01*
X90162110Y-69287912D01*
X90174736Y-69295480D01*
X90186559Y-69304248D01*
X90197466Y-69314134D01*
X90207352Y-69325041D01*
X90216120Y-69336864D01*
X90223688Y-69349490D01*
X90229982Y-69362797D01*
X90234941Y-69376657D01*
X90238518Y-69390936D01*
X90240678Y-69405497D01*
X90241400Y-69420200D01*
X90241400Y-71070200D01*
X90240678Y-71084903D01*
X90238518Y-71099464D01*
X90234941Y-71113743D01*
X90229982Y-71127603D01*
X90223688Y-71140910D01*
X90216120Y-71153536D01*
X90207352Y-71165359D01*
X90197466Y-71176266D01*
X90186559Y-71186152D01*
X90174736Y-71194920D01*
X90162110Y-71202488D01*
X90148803Y-71208782D01*
X90134943Y-71213741D01*
X90120664Y-71217318D01*
X90106103Y-71219478D01*
X90091400Y-71220200D01*
X89791400Y-71220200D01*
X89776697Y-71219478D01*
X89762136Y-71217318D01*
X89747857Y-71213741D01*
X89733997Y-71208782D01*
X89720690Y-71202488D01*
X89708064Y-71194920D01*
X89696241Y-71186152D01*
X89685334Y-71176266D01*
X89675448Y-71165359D01*
X89666680Y-71153536D01*
X89659112Y-71140910D01*
X89652818Y-71127603D01*
X89647859Y-71113743D01*
X89644282Y-71099464D01*
X89642122Y-71084903D01*
X89641400Y-71070200D01*
X89641400Y-69420200D01*
X89642122Y-69405497D01*
X89644282Y-69390936D01*
X89647859Y-69376657D01*
X89652818Y-69362797D01*
X89659112Y-69349490D01*
X89666680Y-69336864D01*
X89675448Y-69325041D01*
X89685334Y-69314134D01*
X89696241Y-69304248D01*
X89708064Y-69295480D01*
X89720690Y-69287912D01*
X89733997Y-69281618D01*
X89747857Y-69276659D01*
X89762136Y-69273082D01*
X89776697Y-69270922D01*
X89791400Y-69270200D01*
X90091400Y-69270200D01*
X90106103Y-69270922D01*
G37*
G04 #@! TD.AperFunction*
G04 #@! TA.AperFunction,SMDPad,CuDef*
G36*
X91376103Y-69270922D02*
G01*
X91390664Y-69273082D01*
X91404943Y-69276659D01*
X91418803Y-69281618D01*
X91432110Y-69287912D01*
X91444736Y-69295480D01*
X91456559Y-69304248D01*
X91467466Y-69314134D01*
X91477352Y-69325041D01*
X91486120Y-69336864D01*
X91493688Y-69349490D01*
X91499982Y-69362797D01*
X91504941Y-69376657D01*
X91508518Y-69390936D01*
X91510678Y-69405497D01*
X91511400Y-69420200D01*
X91511400Y-71070200D01*
X91510678Y-71084903D01*
X91508518Y-71099464D01*
X91504941Y-71113743D01*
X91499982Y-71127603D01*
X91493688Y-71140910D01*
X91486120Y-71153536D01*
X91477352Y-71165359D01*
X91467466Y-71176266D01*
X91456559Y-71186152D01*
X91444736Y-71194920D01*
X91432110Y-71202488D01*
X91418803Y-71208782D01*
X91404943Y-71213741D01*
X91390664Y-71217318D01*
X91376103Y-71219478D01*
X91361400Y-71220200D01*
X91061400Y-71220200D01*
X91046697Y-71219478D01*
X91032136Y-71217318D01*
X91017857Y-71213741D01*
X91003997Y-71208782D01*
X90990690Y-71202488D01*
X90978064Y-71194920D01*
X90966241Y-71186152D01*
X90955334Y-71176266D01*
X90945448Y-71165359D01*
X90936680Y-71153536D01*
X90929112Y-71140910D01*
X90922818Y-71127603D01*
X90917859Y-71113743D01*
X90914282Y-71099464D01*
X90912122Y-71084903D01*
X90911400Y-71070200D01*
X90911400Y-69420200D01*
X90912122Y-69405497D01*
X90914282Y-69390936D01*
X90917859Y-69376657D01*
X90922818Y-69362797D01*
X90929112Y-69349490D01*
X90936680Y-69336864D01*
X90945448Y-69325041D01*
X90955334Y-69314134D01*
X90966241Y-69304248D01*
X90978064Y-69295480D01*
X90990690Y-69287912D01*
X91003997Y-69281618D01*
X91017857Y-69276659D01*
X91032136Y-69273082D01*
X91046697Y-69270922D01*
X91061400Y-69270200D01*
X91361400Y-69270200D01*
X91376103Y-69270922D01*
G37*
G04 #@! TD.AperFunction*
G04 #@! TA.AperFunction,SMDPad,CuDef*
G36*
X92646103Y-69270922D02*
G01*
X92660664Y-69273082D01*
X92674943Y-69276659D01*
X92688803Y-69281618D01*
X92702110Y-69287912D01*
X92714736Y-69295480D01*
X92726559Y-69304248D01*
X92737466Y-69314134D01*
X92747352Y-69325041D01*
X92756120Y-69336864D01*
X92763688Y-69349490D01*
X92769982Y-69362797D01*
X92774941Y-69376657D01*
X92778518Y-69390936D01*
X92780678Y-69405497D01*
X92781400Y-69420200D01*
X92781400Y-71070200D01*
X92780678Y-71084903D01*
X92778518Y-71099464D01*
X92774941Y-71113743D01*
X92769982Y-71127603D01*
X92763688Y-71140910D01*
X92756120Y-71153536D01*
X92747352Y-71165359D01*
X92737466Y-71176266D01*
X92726559Y-71186152D01*
X92714736Y-71194920D01*
X92702110Y-71202488D01*
X92688803Y-71208782D01*
X92674943Y-71213741D01*
X92660664Y-71217318D01*
X92646103Y-71219478D01*
X92631400Y-71220200D01*
X92331400Y-71220200D01*
X92316697Y-71219478D01*
X92302136Y-71217318D01*
X92287857Y-71213741D01*
X92273997Y-71208782D01*
X92260690Y-71202488D01*
X92248064Y-71194920D01*
X92236241Y-71186152D01*
X92225334Y-71176266D01*
X92215448Y-71165359D01*
X92206680Y-71153536D01*
X92199112Y-71140910D01*
X92192818Y-71127603D01*
X92187859Y-71113743D01*
X92184282Y-71099464D01*
X92182122Y-71084903D01*
X92181400Y-71070200D01*
X92181400Y-69420200D01*
X92182122Y-69405497D01*
X92184282Y-69390936D01*
X92187859Y-69376657D01*
X92192818Y-69362797D01*
X92199112Y-69349490D01*
X92206680Y-69336864D01*
X92215448Y-69325041D01*
X92225334Y-69314134D01*
X92236241Y-69304248D01*
X92248064Y-69295480D01*
X92260690Y-69287912D01*
X92273997Y-69281618D01*
X92287857Y-69276659D01*
X92302136Y-69273082D01*
X92316697Y-69270922D01*
X92331400Y-69270200D01*
X92631400Y-69270200D01*
X92646103Y-69270922D01*
G37*
G04 #@! TD.AperFunction*
G04 #@! TA.AperFunction,SMDPad,CuDef*
G36*
X93916103Y-69270922D02*
G01*
X93930664Y-69273082D01*
X93944943Y-69276659D01*
X93958803Y-69281618D01*
X93972110Y-69287912D01*
X93984736Y-69295480D01*
X93996559Y-69304248D01*
X94007466Y-69314134D01*
X94017352Y-69325041D01*
X94026120Y-69336864D01*
X94033688Y-69349490D01*
X94039982Y-69362797D01*
X94044941Y-69376657D01*
X94048518Y-69390936D01*
X94050678Y-69405497D01*
X94051400Y-69420200D01*
X94051400Y-71070200D01*
X94050678Y-71084903D01*
X94048518Y-71099464D01*
X94044941Y-71113743D01*
X94039982Y-71127603D01*
X94033688Y-71140910D01*
X94026120Y-71153536D01*
X94017352Y-71165359D01*
X94007466Y-71176266D01*
X93996559Y-71186152D01*
X93984736Y-71194920D01*
X93972110Y-71202488D01*
X93958803Y-71208782D01*
X93944943Y-71213741D01*
X93930664Y-71217318D01*
X93916103Y-71219478D01*
X93901400Y-71220200D01*
X93601400Y-71220200D01*
X93586697Y-71219478D01*
X93572136Y-71217318D01*
X93557857Y-71213741D01*
X93543997Y-71208782D01*
X93530690Y-71202488D01*
X93518064Y-71194920D01*
X93506241Y-71186152D01*
X93495334Y-71176266D01*
X93485448Y-71165359D01*
X93476680Y-71153536D01*
X93469112Y-71140910D01*
X93462818Y-71127603D01*
X93457859Y-71113743D01*
X93454282Y-71099464D01*
X93452122Y-71084903D01*
X93451400Y-71070200D01*
X93451400Y-69420200D01*
X93452122Y-69405497D01*
X93454282Y-69390936D01*
X93457859Y-69376657D01*
X93462818Y-69362797D01*
X93469112Y-69349490D01*
X93476680Y-69336864D01*
X93485448Y-69325041D01*
X93495334Y-69314134D01*
X93506241Y-69304248D01*
X93518064Y-69295480D01*
X93530690Y-69287912D01*
X93543997Y-69281618D01*
X93557857Y-69276659D01*
X93572136Y-69273082D01*
X93586697Y-69270922D01*
X93601400Y-69270200D01*
X93901400Y-69270200D01*
X93916103Y-69270922D01*
G37*
G04 #@! TD.AperFunction*
G04 #@! TA.AperFunction,SMDPad,CuDef*
G36*
X95186103Y-69270922D02*
G01*
X95200664Y-69273082D01*
X95214943Y-69276659D01*
X95228803Y-69281618D01*
X95242110Y-69287912D01*
X95254736Y-69295480D01*
X95266559Y-69304248D01*
X95277466Y-69314134D01*
X95287352Y-69325041D01*
X95296120Y-69336864D01*
X95303688Y-69349490D01*
X95309982Y-69362797D01*
X95314941Y-69376657D01*
X95318518Y-69390936D01*
X95320678Y-69405497D01*
X95321400Y-69420200D01*
X95321400Y-71070200D01*
X95320678Y-71084903D01*
X95318518Y-71099464D01*
X95314941Y-71113743D01*
X95309982Y-71127603D01*
X95303688Y-71140910D01*
X95296120Y-71153536D01*
X95287352Y-71165359D01*
X95277466Y-71176266D01*
X95266559Y-71186152D01*
X95254736Y-71194920D01*
X95242110Y-71202488D01*
X95228803Y-71208782D01*
X95214943Y-71213741D01*
X95200664Y-71217318D01*
X95186103Y-71219478D01*
X95171400Y-71220200D01*
X94871400Y-71220200D01*
X94856697Y-71219478D01*
X94842136Y-71217318D01*
X94827857Y-71213741D01*
X94813997Y-71208782D01*
X94800690Y-71202488D01*
X94788064Y-71194920D01*
X94776241Y-71186152D01*
X94765334Y-71176266D01*
X94755448Y-71165359D01*
X94746680Y-71153536D01*
X94739112Y-71140910D01*
X94732818Y-71127603D01*
X94727859Y-71113743D01*
X94724282Y-71099464D01*
X94722122Y-71084903D01*
X94721400Y-71070200D01*
X94721400Y-69420200D01*
X94722122Y-69405497D01*
X94724282Y-69390936D01*
X94727859Y-69376657D01*
X94732818Y-69362797D01*
X94739112Y-69349490D01*
X94746680Y-69336864D01*
X94755448Y-69325041D01*
X94765334Y-69314134D01*
X94776241Y-69304248D01*
X94788064Y-69295480D01*
X94800690Y-69287912D01*
X94813997Y-69281618D01*
X94827857Y-69276659D01*
X94842136Y-69273082D01*
X94856697Y-69270922D01*
X94871400Y-69270200D01*
X95171400Y-69270200D01*
X95186103Y-69270922D01*
G37*
G04 #@! TD.AperFunction*
G04 #@! TA.AperFunction,SMDPad,CuDef*
G36*
X96456103Y-69270922D02*
G01*
X96470664Y-69273082D01*
X96484943Y-69276659D01*
X96498803Y-69281618D01*
X96512110Y-69287912D01*
X96524736Y-69295480D01*
X96536559Y-69304248D01*
X96547466Y-69314134D01*
X96557352Y-69325041D01*
X96566120Y-69336864D01*
X96573688Y-69349490D01*
X96579982Y-69362797D01*
X96584941Y-69376657D01*
X96588518Y-69390936D01*
X96590678Y-69405497D01*
X96591400Y-69420200D01*
X96591400Y-71070200D01*
X96590678Y-71084903D01*
X96588518Y-71099464D01*
X96584941Y-71113743D01*
X96579982Y-71127603D01*
X96573688Y-71140910D01*
X96566120Y-71153536D01*
X96557352Y-71165359D01*
X96547466Y-71176266D01*
X96536559Y-71186152D01*
X96524736Y-71194920D01*
X96512110Y-71202488D01*
X96498803Y-71208782D01*
X96484943Y-71213741D01*
X96470664Y-71217318D01*
X96456103Y-71219478D01*
X96441400Y-71220200D01*
X96141400Y-71220200D01*
X96126697Y-71219478D01*
X96112136Y-71217318D01*
X96097857Y-71213741D01*
X96083997Y-71208782D01*
X96070690Y-71202488D01*
X96058064Y-71194920D01*
X96046241Y-71186152D01*
X96035334Y-71176266D01*
X96025448Y-71165359D01*
X96016680Y-71153536D01*
X96009112Y-71140910D01*
X96002818Y-71127603D01*
X95997859Y-71113743D01*
X95994282Y-71099464D01*
X95992122Y-71084903D01*
X95991400Y-71070200D01*
X95991400Y-69420200D01*
X95992122Y-69405497D01*
X95994282Y-69390936D01*
X95997859Y-69376657D01*
X96002818Y-69362797D01*
X96009112Y-69349490D01*
X96016680Y-69336864D01*
X96025448Y-69325041D01*
X96035334Y-69314134D01*
X96046241Y-69304248D01*
X96058064Y-69295480D01*
X96070690Y-69287912D01*
X96083997Y-69281618D01*
X96097857Y-69276659D01*
X96112136Y-69273082D01*
X96126697Y-69270922D01*
X96141400Y-69270200D01*
X96441400Y-69270200D01*
X96456103Y-69270922D01*
G37*
G04 #@! TD.AperFunction*
D11*
X86756000Y-54432200D03*
X84256000Y-54432200D03*
X82256000Y-54432200D03*
D12*
X79756000Y-54432200D03*
D13*
X76686000Y-51722200D03*
X89826000Y-51722200D03*
D14*
X86550000Y-48500000D03*
X80250000Y-48500000D03*
X86550000Y-44700000D03*
X80250000Y-44700000D03*
G04 #@! TA.AperFunction,SMDPad,CuDef*
D10*
G36*
X77674505Y-46426204D02*
G01*
X77698773Y-46429804D01*
X77722572Y-46435765D01*
X77745671Y-46444030D01*
X77767850Y-46454520D01*
X77788893Y-46467132D01*
X77808599Y-46481747D01*
X77826777Y-46498223D01*
X77843253Y-46516401D01*
X77857868Y-46536107D01*
X77870480Y-46557150D01*
X77880970Y-46579329D01*
X77889235Y-46602428D01*
X77895196Y-46626227D01*
X77898796Y-46650495D01*
X77900000Y-46674999D01*
X77900000Y-47325001D01*
X77898796Y-47349505D01*
X77895196Y-47373773D01*
X77889235Y-47397572D01*
X77880970Y-47420671D01*
X77870480Y-47442850D01*
X77857868Y-47463893D01*
X77843253Y-47483599D01*
X77826777Y-47501777D01*
X77808599Y-47518253D01*
X77788893Y-47532868D01*
X77767850Y-47545480D01*
X77745671Y-47555970D01*
X77722572Y-47564235D01*
X77698773Y-47570196D01*
X77674505Y-47573796D01*
X77650001Y-47575000D01*
X76749999Y-47575000D01*
X76725495Y-47573796D01*
X76701227Y-47570196D01*
X76677428Y-47564235D01*
X76654329Y-47555970D01*
X76632150Y-47545480D01*
X76611107Y-47532868D01*
X76591401Y-47518253D01*
X76573223Y-47501777D01*
X76556747Y-47483599D01*
X76542132Y-47463893D01*
X76529520Y-47442850D01*
X76519030Y-47420671D01*
X76510765Y-47397572D01*
X76504804Y-47373773D01*
X76501204Y-47349505D01*
X76500000Y-47325001D01*
X76500000Y-46674999D01*
X76501204Y-46650495D01*
X76504804Y-46626227D01*
X76510765Y-46602428D01*
X76519030Y-46579329D01*
X76529520Y-46557150D01*
X76542132Y-46536107D01*
X76556747Y-46516401D01*
X76573223Y-46498223D01*
X76591401Y-46481747D01*
X76611107Y-46467132D01*
X76632150Y-46454520D01*
X76654329Y-46444030D01*
X76677428Y-46435765D01*
X76701227Y-46429804D01*
X76725495Y-46426204D01*
X76749999Y-46425000D01*
X77650001Y-46425000D01*
X77674505Y-46426204D01*
G37*
G04 #@! TD.AperFunction*
G04 #@! TA.AperFunction,SMDPad,CuDef*
G36*
X77674505Y-44376204D02*
G01*
X77698773Y-44379804D01*
X77722572Y-44385765D01*
X77745671Y-44394030D01*
X77767850Y-44404520D01*
X77788893Y-44417132D01*
X77808599Y-44431747D01*
X77826777Y-44448223D01*
X77843253Y-44466401D01*
X77857868Y-44486107D01*
X77870480Y-44507150D01*
X77880970Y-44529329D01*
X77889235Y-44552428D01*
X77895196Y-44576227D01*
X77898796Y-44600495D01*
X77900000Y-44624999D01*
X77900000Y-45275001D01*
X77898796Y-45299505D01*
X77895196Y-45323773D01*
X77889235Y-45347572D01*
X77880970Y-45370671D01*
X77870480Y-45392850D01*
X77857868Y-45413893D01*
X77843253Y-45433599D01*
X77826777Y-45451777D01*
X77808599Y-45468253D01*
X77788893Y-45482868D01*
X77767850Y-45495480D01*
X77745671Y-45505970D01*
X77722572Y-45514235D01*
X77698773Y-45520196D01*
X77674505Y-45523796D01*
X77650001Y-45525000D01*
X76749999Y-45525000D01*
X76725495Y-45523796D01*
X76701227Y-45520196D01*
X76677428Y-45514235D01*
X76654329Y-45505970D01*
X76632150Y-45495480D01*
X76611107Y-45482868D01*
X76591401Y-45468253D01*
X76573223Y-45451777D01*
X76556747Y-45433599D01*
X76542132Y-45413893D01*
X76529520Y-45392850D01*
X76519030Y-45370671D01*
X76510765Y-45347572D01*
X76504804Y-45323773D01*
X76501204Y-45299505D01*
X76500000Y-45275001D01*
X76500000Y-44624999D01*
X76501204Y-44600495D01*
X76504804Y-44576227D01*
X76510765Y-44552428D01*
X76519030Y-44529329D01*
X76529520Y-44507150D01*
X76542132Y-44486107D01*
X76556747Y-44466401D01*
X76573223Y-44448223D01*
X76591401Y-44431747D01*
X76611107Y-44417132D01*
X76632150Y-44404520D01*
X76654329Y-44394030D01*
X76677428Y-44385765D01*
X76701227Y-44379804D01*
X76725495Y-44376204D01*
X76749999Y-44375000D01*
X77650001Y-44375000D01*
X77674505Y-44376204D01*
G37*
G04 #@! TD.AperFunction*
D15*
X72669400Y-76581000D03*
X70129400Y-76581000D03*
X72669400Y-74041000D03*
X70129400Y-74041000D03*
X72669400Y-71501000D03*
X70129400Y-71501000D03*
X72669400Y-68961000D03*
X70129400Y-68961000D03*
X72669400Y-66421000D03*
X70129400Y-66421000D03*
X72669400Y-63881000D03*
X70129400Y-63881000D03*
X72669400Y-61341000D03*
X70129400Y-61341000D03*
X72669400Y-58801000D03*
X70129400Y-58801000D03*
X72669400Y-56261000D03*
X70129400Y-56261000D03*
X72669400Y-53721000D03*
X70129400Y-53721000D03*
X72669400Y-51181000D03*
X70129400Y-51181000D03*
X72669400Y-48641000D03*
D16*
X70129400Y-48641000D03*
D15*
X77470000Y-81280000D03*
X77470000Y-78740000D03*
X80010000Y-81280000D03*
X80010000Y-78740000D03*
X82550000Y-81280000D03*
X82550000Y-78740000D03*
X85090000Y-81280000D03*
X85090000Y-78740000D03*
X87630000Y-81280000D03*
X87630000Y-78740000D03*
X90170000Y-81280000D03*
X90170000Y-78740000D03*
X92710000Y-81280000D03*
X92710000Y-78740000D03*
X95250000Y-81280000D03*
X95250000Y-78740000D03*
X97790000Y-81280000D03*
X97790000Y-78740000D03*
X100330000Y-81280000D03*
D16*
X100330000Y-78740000D03*
D15*
X107670600Y-76581000D03*
X105130600Y-76581000D03*
X107670600Y-74041000D03*
X105130600Y-74041000D03*
X107670600Y-71501000D03*
X105130600Y-71501000D03*
X107670600Y-68961000D03*
X105130600Y-68961000D03*
X107670600Y-66421000D03*
X105130600Y-66421000D03*
X107670600Y-63881000D03*
X105130600Y-63881000D03*
X107670600Y-61341000D03*
X105130600Y-61341000D03*
X107670600Y-58801000D03*
X105130600Y-58801000D03*
X107670600Y-56261000D03*
X105130600Y-56261000D03*
X107670600Y-53721000D03*
X105130600Y-53721000D03*
X107670600Y-51181000D03*
X105130600Y-51181000D03*
X107670600Y-48641000D03*
D16*
X105130600Y-48641000D03*
D17*
X84074000Y-73152000D03*
X84074000Y-70252000D03*
X81774000Y-70252000D03*
X81774000Y-73152000D03*
D18*
X91901000Y-58100000D03*
X91901000Y-57150000D03*
X91901000Y-59050000D03*
X89201000Y-59050000D03*
X89201000Y-58100000D03*
X89201000Y-57150000D03*
D19*
X100979000Y-54635000D03*
X96379000Y-54635000D03*
X98679000Y-54635000D03*
D20*
X98679000Y-60935000D03*
G04 #@! TA.AperFunction,SMDPad,CuDef*
D10*
G36*
X89874505Y-60401204D02*
G01*
X89898773Y-60404804D01*
X89922572Y-60410765D01*
X89945671Y-60419030D01*
X89967850Y-60429520D01*
X89988893Y-60442132D01*
X90008599Y-60456747D01*
X90026777Y-60473223D01*
X90043253Y-60491401D01*
X90057868Y-60511107D01*
X90070480Y-60532150D01*
X90080970Y-60554329D01*
X90089235Y-60577428D01*
X90095196Y-60601227D01*
X90098796Y-60625495D01*
X90100000Y-60649999D01*
X90100000Y-61550001D01*
X90098796Y-61574505D01*
X90095196Y-61598773D01*
X90089235Y-61622572D01*
X90080970Y-61645671D01*
X90070480Y-61667850D01*
X90057868Y-61688893D01*
X90043253Y-61708599D01*
X90026777Y-61726777D01*
X90008599Y-61743253D01*
X89988893Y-61757868D01*
X89967850Y-61770480D01*
X89945671Y-61780970D01*
X89922572Y-61789235D01*
X89898773Y-61795196D01*
X89874505Y-61798796D01*
X89850001Y-61800000D01*
X89199999Y-61800000D01*
X89175495Y-61798796D01*
X89151227Y-61795196D01*
X89127428Y-61789235D01*
X89104329Y-61780970D01*
X89082150Y-61770480D01*
X89061107Y-61757868D01*
X89041401Y-61743253D01*
X89023223Y-61726777D01*
X89006747Y-61708599D01*
X88992132Y-61688893D01*
X88979520Y-61667850D01*
X88969030Y-61645671D01*
X88960765Y-61622572D01*
X88954804Y-61598773D01*
X88951204Y-61574505D01*
X88950000Y-61550001D01*
X88950000Y-60649999D01*
X88951204Y-60625495D01*
X88954804Y-60601227D01*
X88960765Y-60577428D01*
X88969030Y-60554329D01*
X88979520Y-60532150D01*
X88992132Y-60511107D01*
X89006747Y-60491401D01*
X89023223Y-60473223D01*
X89041401Y-60456747D01*
X89061107Y-60442132D01*
X89082150Y-60429520D01*
X89104329Y-60419030D01*
X89127428Y-60410765D01*
X89151227Y-60404804D01*
X89175495Y-60401204D01*
X89199999Y-60400000D01*
X89850001Y-60400000D01*
X89874505Y-60401204D01*
G37*
G04 #@! TD.AperFunction*
G04 #@! TA.AperFunction,SMDPad,CuDef*
G36*
X91924505Y-60401204D02*
G01*
X91948773Y-60404804D01*
X91972572Y-60410765D01*
X91995671Y-60419030D01*
X92017850Y-60429520D01*
X92038893Y-60442132D01*
X92058599Y-60456747D01*
X92076777Y-60473223D01*
X92093253Y-60491401D01*
X92107868Y-60511107D01*
X92120480Y-60532150D01*
X92130970Y-60554329D01*
X92139235Y-60577428D01*
X92145196Y-60601227D01*
X92148796Y-60625495D01*
X92150000Y-60649999D01*
X92150000Y-61550001D01*
X92148796Y-61574505D01*
X92145196Y-61598773D01*
X92139235Y-61622572D01*
X92130970Y-61645671D01*
X92120480Y-61667850D01*
X92107868Y-61688893D01*
X92093253Y-61708599D01*
X92076777Y-61726777D01*
X92058599Y-61743253D01*
X92038893Y-61757868D01*
X92017850Y-61770480D01*
X91995671Y-61780970D01*
X91972572Y-61789235D01*
X91948773Y-61795196D01*
X91924505Y-61798796D01*
X91900001Y-61800000D01*
X91249999Y-61800000D01*
X91225495Y-61798796D01*
X91201227Y-61795196D01*
X91177428Y-61789235D01*
X91154329Y-61780970D01*
X91132150Y-61770480D01*
X91111107Y-61757868D01*
X91091401Y-61743253D01*
X91073223Y-61726777D01*
X91056747Y-61708599D01*
X91042132Y-61688893D01*
X91029520Y-61667850D01*
X91019030Y-61645671D01*
X91010765Y-61622572D01*
X91004804Y-61598773D01*
X91001204Y-61574505D01*
X91000000Y-61550001D01*
X91000000Y-60649999D01*
X91001204Y-60625495D01*
X91004804Y-60601227D01*
X91010765Y-60577428D01*
X91019030Y-60554329D01*
X91029520Y-60532150D01*
X91042132Y-60511107D01*
X91056747Y-60491401D01*
X91073223Y-60473223D01*
X91091401Y-60456747D01*
X91111107Y-60442132D01*
X91132150Y-60429520D01*
X91154329Y-60419030D01*
X91177428Y-60410765D01*
X91201227Y-60404804D01*
X91225495Y-60401204D01*
X91249999Y-60400000D01*
X91900001Y-60400000D01*
X91924505Y-60401204D01*
G37*
G04 #@! TD.AperFunction*
G04 #@! TA.AperFunction,SMDPad,CuDef*
G36*
X93006705Y-45951604D02*
G01*
X93030973Y-45955204D01*
X93054772Y-45961165D01*
X93077871Y-45969430D01*
X93100050Y-45979920D01*
X93121093Y-45992532D01*
X93140799Y-46007147D01*
X93158977Y-46023623D01*
X93175453Y-46041801D01*
X93190068Y-46061507D01*
X93202680Y-46082550D01*
X93213170Y-46104729D01*
X93221435Y-46127828D01*
X93227396Y-46151627D01*
X93230996Y-46175895D01*
X93232200Y-46200399D01*
X93232200Y-46850401D01*
X93230996Y-46874905D01*
X93227396Y-46899173D01*
X93221435Y-46922972D01*
X93213170Y-46946071D01*
X93202680Y-46968250D01*
X93190068Y-46989293D01*
X93175453Y-47008999D01*
X93158977Y-47027177D01*
X93140799Y-47043653D01*
X93121093Y-47058268D01*
X93100050Y-47070880D01*
X93077871Y-47081370D01*
X93054772Y-47089635D01*
X93030973Y-47095596D01*
X93006705Y-47099196D01*
X92982201Y-47100400D01*
X92082199Y-47100400D01*
X92057695Y-47099196D01*
X92033427Y-47095596D01*
X92009628Y-47089635D01*
X91986529Y-47081370D01*
X91964350Y-47070880D01*
X91943307Y-47058268D01*
X91923601Y-47043653D01*
X91905423Y-47027177D01*
X91888947Y-47008999D01*
X91874332Y-46989293D01*
X91861720Y-46968250D01*
X91851230Y-46946071D01*
X91842965Y-46922972D01*
X91837004Y-46899173D01*
X91833404Y-46874905D01*
X91832200Y-46850401D01*
X91832200Y-46200399D01*
X91833404Y-46175895D01*
X91837004Y-46151627D01*
X91842965Y-46127828D01*
X91851230Y-46104729D01*
X91861720Y-46082550D01*
X91874332Y-46061507D01*
X91888947Y-46041801D01*
X91905423Y-46023623D01*
X91923601Y-46007147D01*
X91943307Y-45992532D01*
X91964350Y-45979920D01*
X91986529Y-45969430D01*
X92009628Y-45961165D01*
X92033427Y-45955204D01*
X92057695Y-45951604D01*
X92082199Y-45950400D01*
X92982201Y-45950400D01*
X93006705Y-45951604D01*
G37*
G04 #@! TD.AperFunction*
G04 #@! TA.AperFunction,SMDPad,CuDef*
G36*
X93006705Y-43901604D02*
G01*
X93030973Y-43905204D01*
X93054772Y-43911165D01*
X93077871Y-43919430D01*
X93100050Y-43929920D01*
X93121093Y-43942532D01*
X93140799Y-43957147D01*
X93158977Y-43973623D01*
X93175453Y-43991801D01*
X93190068Y-44011507D01*
X93202680Y-44032550D01*
X93213170Y-44054729D01*
X93221435Y-44077828D01*
X93227396Y-44101627D01*
X93230996Y-44125895D01*
X93232200Y-44150399D01*
X93232200Y-44800401D01*
X93230996Y-44824905D01*
X93227396Y-44849173D01*
X93221435Y-44872972D01*
X93213170Y-44896071D01*
X93202680Y-44918250D01*
X93190068Y-44939293D01*
X93175453Y-44958999D01*
X93158977Y-44977177D01*
X93140799Y-44993653D01*
X93121093Y-45008268D01*
X93100050Y-45020880D01*
X93077871Y-45031370D01*
X93054772Y-45039635D01*
X93030973Y-45045596D01*
X93006705Y-45049196D01*
X92982201Y-45050400D01*
X92082199Y-45050400D01*
X92057695Y-45049196D01*
X92033427Y-45045596D01*
X92009628Y-45039635D01*
X91986529Y-45031370D01*
X91964350Y-45020880D01*
X91943307Y-45008268D01*
X91923601Y-44993653D01*
X91905423Y-44977177D01*
X91888947Y-44958999D01*
X91874332Y-44939293D01*
X91861720Y-44918250D01*
X91851230Y-44896071D01*
X91842965Y-44872972D01*
X91837004Y-44849173D01*
X91833404Y-44824905D01*
X91832200Y-44800401D01*
X91832200Y-44150399D01*
X91833404Y-44125895D01*
X91837004Y-44101627D01*
X91842965Y-44077828D01*
X91851230Y-44054729D01*
X91861720Y-44032550D01*
X91874332Y-44011507D01*
X91888947Y-43991801D01*
X91905423Y-43973623D01*
X91923601Y-43957147D01*
X91943307Y-43942532D01*
X91964350Y-43929920D01*
X91986529Y-43919430D01*
X92009628Y-43911165D01*
X92033427Y-43905204D01*
X92057695Y-43901604D01*
X92082199Y-43900400D01*
X92982201Y-43900400D01*
X93006705Y-43901604D01*
G37*
G04 #@! TD.AperFunction*
G04 #@! TA.AperFunction,SMDPad,CuDef*
G36*
X83474505Y-63926204D02*
G01*
X83498773Y-63929804D01*
X83522572Y-63935765D01*
X83545671Y-63944030D01*
X83567850Y-63954520D01*
X83588893Y-63967132D01*
X83608599Y-63981747D01*
X83626777Y-63998223D01*
X83643253Y-64016401D01*
X83657868Y-64036107D01*
X83670480Y-64057150D01*
X83680970Y-64079329D01*
X83689235Y-64102428D01*
X83695196Y-64126227D01*
X83698796Y-64150495D01*
X83700000Y-64174999D01*
X83700000Y-64825001D01*
X83698796Y-64849505D01*
X83695196Y-64873773D01*
X83689235Y-64897572D01*
X83680970Y-64920671D01*
X83670480Y-64942850D01*
X83657868Y-64963893D01*
X83643253Y-64983599D01*
X83626777Y-65001777D01*
X83608599Y-65018253D01*
X83588893Y-65032868D01*
X83567850Y-65045480D01*
X83545671Y-65055970D01*
X83522572Y-65064235D01*
X83498773Y-65070196D01*
X83474505Y-65073796D01*
X83450001Y-65075000D01*
X82549999Y-65075000D01*
X82525495Y-65073796D01*
X82501227Y-65070196D01*
X82477428Y-65064235D01*
X82454329Y-65055970D01*
X82432150Y-65045480D01*
X82411107Y-65032868D01*
X82391401Y-65018253D01*
X82373223Y-65001777D01*
X82356747Y-64983599D01*
X82342132Y-64963893D01*
X82329520Y-64942850D01*
X82319030Y-64920671D01*
X82310765Y-64897572D01*
X82304804Y-64873773D01*
X82301204Y-64849505D01*
X82300000Y-64825001D01*
X82300000Y-64174999D01*
X82301204Y-64150495D01*
X82304804Y-64126227D01*
X82310765Y-64102428D01*
X82319030Y-64079329D01*
X82329520Y-64057150D01*
X82342132Y-64036107D01*
X82356747Y-64016401D01*
X82373223Y-63998223D01*
X82391401Y-63981747D01*
X82411107Y-63967132D01*
X82432150Y-63954520D01*
X82454329Y-63944030D01*
X82477428Y-63935765D01*
X82501227Y-63929804D01*
X82525495Y-63926204D01*
X82549999Y-63925000D01*
X83450001Y-63925000D01*
X83474505Y-63926204D01*
G37*
G04 #@! TD.AperFunction*
G04 #@! TA.AperFunction,SMDPad,CuDef*
G36*
X83474505Y-65976204D02*
G01*
X83498773Y-65979804D01*
X83522572Y-65985765D01*
X83545671Y-65994030D01*
X83567850Y-66004520D01*
X83588893Y-66017132D01*
X83608599Y-66031747D01*
X83626777Y-66048223D01*
X83643253Y-66066401D01*
X83657868Y-66086107D01*
X83670480Y-66107150D01*
X83680970Y-66129329D01*
X83689235Y-66152428D01*
X83695196Y-66176227D01*
X83698796Y-66200495D01*
X83700000Y-66224999D01*
X83700000Y-66875001D01*
X83698796Y-66899505D01*
X83695196Y-66923773D01*
X83689235Y-66947572D01*
X83680970Y-66970671D01*
X83670480Y-66992850D01*
X83657868Y-67013893D01*
X83643253Y-67033599D01*
X83626777Y-67051777D01*
X83608599Y-67068253D01*
X83588893Y-67082868D01*
X83567850Y-67095480D01*
X83545671Y-67105970D01*
X83522572Y-67114235D01*
X83498773Y-67120196D01*
X83474505Y-67123796D01*
X83450001Y-67125000D01*
X82549999Y-67125000D01*
X82525495Y-67123796D01*
X82501227Y-67120196D01*
X82477428Y-67114235D01*
X82454329Y-67105970D01*
X82432150Y-67095480D01*
X82411107Y-67082868D01*
X82391401Y-67068253D01*
X82373223Y-67051777D01*
X82356747Y-67033599D01*
X82342132Y-67013893D01*
X82329520Y-66992850D01*
X82319030Y-66970671D01*
X82310765Y-66947572D01*
X82304804Y-66923773D01*
X82301204Y-66899505D01*
X82300000Y-66875001D01*
X82300000Y-66224999D01*
X82301204Y-66200495D01*
X82304804Y-66176227D01*
X82310765Y-66152428D01*
X82319030Y-66129329D01*
X82329520Y-66107150D01*
X82342132Y-66086107D01*
X82356747Y-66066401D01*
X82373223Y-66048223D01*
X82391401Y-66031747D01*
X82411107Y-66017132D01*
X82432150Y-66004520D01*
X82454329Y-65994030D01*
X82477428Y-65985765D01*
X82501227Y-65979804D01*
X82525495Y-65976204D01*
X82549999Y-65975000D01*
X83450001Y-65975000D01*
X83474505Y-65976204D01*
G37*
G04 #@! TD.AperFunction*
G04 #@! TA.AperFunction,SMDPad,CuDef*
G36*
X80974505Y-63926204D02*
G01*
X80998773Y-63929804D01*
X81022572Y-63935765D01*
X81045671Y-63944030D01*
X81067850Y-63954520D01*
X81088893Y-63967132D01*
X81108599Y-63981747D01*
X81126777Y-63998223D01*
X81143253Y-64016401D01*
X81157868Y-64036107D01*
X81170480Y-64057150D01*
X81180970Y-64079329D01*
X81189235Y-64102428D01*
X81195196Y-64126227D01*
X81198796Y-64150495D01*
X81200000Y-64174999D01*
X81200000Y-64825001D01*
X81198796Y-64849505D01*
X81195196Y-64873773D01*
X81189235Y-64897572D01*
X81180970Y-64920671D01*
X81170480Y-64942850D01*
X81157868Y-64963893D01*
X81143253Y-64983599D01*
X81126777Y-65001777D01*
X81108599Y-65018253D01*
X81088893Y-65032868D01*
X81067850Y-65045480D01*
X81045671Y-65055970D01*
X81022572Y-65064235D01*
X80998773Y-65070196D01*
X80974505Y-65073796D01*
X80950001Y-65075000D01*
X80049999Y-65075000D01*
X80025495Y-65073796D01*
X80001227Y-65070196D01*
X79977428Y-65064235D01*
X79954329Y-65055970D01*
X79932150Y-65045480D01*
X79911107Y-65032868D01*
X79891401Y-65018253D01*
X79873223Y-65001777D01*
X79856747Y-64983599D01*
X79842132Y-64963893D01*
X79829520Y-64942850D01*
X79819030Y-64920671D01*
X79810765Y-64897572D01*
X79804804Y-64873773D01*
X79801204Y-64849505D01*
X79800000Y-64825001D01*
X79800000Y-64174999D01*
X79801204Y-64150495D01*
X79804804Y-64126227D01*
X79810765Y-64102428D01*
X79819030Y-64079329D01*
X79829520Y-64057150D01*
X79842132Y-64036107D01*
X79856747Y-64016401D01*
X79873223Y-63998223D01*
X79891401Y-63981747D01*
X79911107Y-63967132D01*
X79932150Y-63954520D01*
X79954329Y-63944030D01*
X79977428Y-63935765D01*
X80001227Y-63929804D01*
X80025495Y-63926204D01*
X80049999Y-63925000D01*
X80950001Y-63925000D01*
X80974505Y-63926204D01*
G37*
G04 #@! TD.AperFunction*
G04 #@! TA.AperFunction,SMDPad,CuDef*
G36*
X80974505Y-65976204D02*
G01*
X80998773Y-65979804D01*
X81022572Y-65985765D01*
X81045671Y-65994030D01*
X81067850Y-66004520D01*
X81088893Y-66017132D01*
X81108599Y-66031747D01*
X81126777Y-66048223D01*
X81143253Y-66066401D01*
X81157868Y-66086107D01*
X81170480Y-66107150D01*
X81180970Y-66129329D01*
X81189235Y-66152428D01*
X81195196Y-66176227D01*
X81198796Y-66200495D01*
X81200000Y-66224999D01*
X81200000Y-66875001D01*
X81198796Y-66899505D01*
X81195196Y-66923773D01*
X81189235Y-66947572D01*
X81180970Y-66970671D01*
X81170480Y-66992850D01*
X81157868Y-67013893D01*
X81143253Y-67033599D01*
X81126777Y-67051777D01*
X81108599Y-67068253D01*
X81088893Y-67082868D01*
X81067850Y-67095480D01*
X81045671Y-67105970D01*
X81022572Y-67114235D01*
X80998773Y-67120196D01*
X80974505Y-67123796D01*
X80950001Y-67125000D01*
X80049999Y-67125000D01*
X80025495Y-67123796D01*
X80001227Y-67120196D01*
X79977428Y-67114235D01*
X79954329Y-67105970D01*
X79932150Y-67095480D01*
X79911107Y-67082868D01*
X79891401Y-67068253D01*
X79873223Y-67051777D01*
X79856747Y-67033599D01*
X79842132Y-67013893D01*
X79829520Y-66992850D01*
X79819030Y-66970671D01*
X79810765Y-66947572D01*
X79804804Y-66923773D01*
X79801204Y-66899505D01*
X79800000Y-66875001D01*
X79800000Y-66224999D01*
X79801204Y-66200495D01*
X79804804Y-66176227D01*
X79810765Y-66152428D01*
X79819030Y-66129329D01*
X79829520Y-66107150D01*
X79842132Y-66086107D01*
X79856747Y-66066401D01*
X79873223Y-66048223D01*
X79891401Y-66031747D01*
X79911107Y-66017132D01*
X79932150Y-66004520D01*
X79954329Y-65994030D01*
X79977428Y-65985765D01*
X80001227Y-65979804D01*
X80025495Y-65976204D01*
X80049999Y-65975000D01*
X80950001Y-65975000D01*
X80974505Y-65976204D01*
G37*
G04 #@! TD.AperFunction*
D21*
X102863600Y-45000400D03*
X95713600Y-45000400D03*
G04 #@! TA.AperFunction,SMDPad,CuDef*
D10*
G36*
X93692505Y-50743204D02*
G01*
X93716773Y-50746804D01*
X93740572Y-50752765D01*
X93763671Y-50761030D01*
X93785850Y-50771520D01*
X93806893Y-50784132D01*
X93826599Y-50798747D01*
X93844777Y-50815223D01*
X93861253Y-50833401D01*
X93875868Y-50853107D01*
X93888480Y-50874150D01*
X93898970Y-50896329D01*
X93907235Y-50919428D01*
X93913196Y-50943227D01*
X93916796Y-50967495D01*
X93918000Y-50991999D01*
X93918000Y-51642001D01*
X93916796Y-51666505D01*
X93913196Y-51690773D01*
X93907235Y-51714572D01*
X93898970Y-51737671D01*
X93888480Y-51759850D01*
X93875868Y-51780893D01*
X93861253Y-51800599D01*
X93844777Y-51818777D01*
X93826599Y-51835253D01*
X93806893Y-51849868D01*
X93785850Y-51862480D01*
X93763671Y-51872970D01*
X93740572Y-51881235D01*
X93716773Y-51887196D01*
X93692505Y-51890796D01*
X93668001Y-51892000D01*
X92767999Y-51892000D01*
X92743495Y-51890796D01*
X92719227Y-51887196D01*
X92695428Y-51881235D01*
X92672329Y-51872970D01*
X92650150Y-51862480D01*
X92629107Y-51849868D01*
X92609401Y-51835253D01*
X92591223Y-51818777D01*
X92574747Y-51800599D01*
X92560132Y-51780893D01*
X92547520Y-51759850D01*
X92537030Y-51737671D01*
X92528765Y-51714572D01*
X92522804Y-51690773D01*
X92519204Y-51666505D01*
X92518000Y-51642001D01*
X92518000Y-50991999D01*
X92519204Y-50967495D01*
X92522804Y-50943227D01*
X92528765Y-50919428D01*
X92537030Y-50896329D01*
X92547520Y-50874150D01*
X92560132Y-50853107D01*
X92574747Y-50833401D01*
X92591223Y-50815223D01*
X92609401Y-50798747D01*
X92629107Y-50784132D01*
X92650150Y-50771520D01*
X92672329Y-50761030D01*
X92695428Y-50752765D01*
X92719227Y-50746804D01*
X92743495Y-50743204D01*
X92767999Y-50742000D01*
X93668001Y-50742000D01*
X93692505Y-50743204D01*
G37*
G04 #@! TD.AperFunction*
G04 #@! TA.AperFunction,SMDPad,CuDef*
G36*
X93692505Y-48693204D02*
G01*
X93716773Y-48696804D01*
X93740572Y-48702765D01*
X93763671Y-48711030D01*
X93785850Y-48721520D01*
X93806893Y-48734132D01*
X93826599Y-48748747D01*
X93844777Y-48765223D01*
X93861253Y-48783401D01*
X93875868Y-48803107D01*
X93888480Y-48824150D01*
X93898970Y-48846329D01*
X93907235Y-48869428D01*
X93913196Y-48893227D01*
X93916796Y-48917495D01*
X93918000Y-48941999D01*
X93918000Y-49592001D01*
X93916796Y-49616505D01*
X93913196Y-49640773D01*
X93907235Y-49664572D01*
X93898970Y-49687671D01*
X93888480Y-49709850D01*
X93875868Y-49730893D01*
X93861253Y-49750599D01*
X93844777Y-49768777D01*
X93826599Y-49785253D01*
X93806893Y-49799868D01*
X93785850Y-49812480D01*
X93763671Y-49822970D01*
X93740572Y-49831235D01*
X93716773Y-49837196D01*
X93692505Y-49840796D01*
X93668001Y-49842000D01*
X92767999Y-49842000D01*
X92743495Y-49840796D01*
X92719227Y-49837196D01*
X92695428Y-49831235D01*
X92672329Y-49822970D01*
X92650150Y-49812480D01*
X92629107Y-49799868D01*
X92609401Y-49785253D01*
X92591223Y-49768777D01*
X92574747Y-49750599D01*
X92560132Y-49730893D01*
X92547520Y-49709850D01*
X92537030Y-49687671D01*
X92528765Y-49664572D01*
X92522804Y-49640773D01*
X92519204Y-49616505D01*
X92518000Y-49592001D01*
X92518000Y-48941999D01*
X92519204Y-48917495D01*
X92522804Y-48893227D01*
X92528765Y-48869428D01*
X92537030Y-48846329D01*
X92547520Y-48824150D01*
X92560132Y-48803107D01*
X92574747Y-48783401D01*
X92591223Y-48765223D01*
X92609401Y-48748747D01*
X92629107Y-48734132D01*
X92650150Y-48721520D01*
X92672329Y-48711030D01*
X92695428Y-48702765D01*
X92719227Y-48696804D01*
X92743495Y-48693204D01*
X92767999Y-48692000D01*
X93668001Y-48692000D01*
X93692505Y-48693204D01*
G37*
G04 #@! TD.AperFunction*
G04 #@! TA.AperFunction,SMDPad,CuDef*
G36*
X83456305Y-59826204D02*
G01*
X83480573Y-59829804D01*
X83504372Y-59835765D01*
X83527471Y-59844030D01*
X83549650Y-59854520D01*
X83570693Y-59867132D01*
X83590399Y-59881747D01*
X83608577Y-59898223D01*
X83625053Y-59916401D01*
X83639668Y-59936107D01*
X83652280Y-59957150D01*
X83662770Y-59979329D01*
X83671035Y-60002428D01*
X83676996Y-60026227D01*
X83680596Y-60050495D01*
X83681800Y-60074999D01*
X83681800Y-60725001D01*
X83680596Y-60749505D01*
X83676996Y-60773773D01*
X83671035Y-60797572D01*
X83662770Y-60820671D01*
X83652280Y-60842850D01*
X83639668Y-60863893D01*
X83625053Y-60883599D01*
X83608577Y-60901777D01*
X83590399Y-60918253D01*
X83570693Y-60932868D01*
X83549650Y-60945480D01*
X83527471Y-60955970D01*
X83504372Y-60964235D01*
X83480573Y-60970196D01*
X83456305Y-60973796D01*
X83431801Y-60975000D01*
X82531799Y-60975000D01*
X82507295Y-60973796D01*
X82483027Y-60970196D01*
X82459228Y-60964235D01*
X82436129Y-60955970D01*
X82413950Y-60945480D01*
X82392907Y-60932868D01*
X82373201Y-60918253D01*
X82355023Y-60901777D01*
X82338547Y-60883599D01*
X82323932Y-60863893D01*
X82311320Y-60842850D01*
X82300830Y-60820671D01*
X82292565Y-60797572D01*
X82286604Y-60773773D01*
X82283004Y-60749505D01*
X82281800Y-60725001D01*
X82281800Y-60074999D01*
X82283004Y-60050495D01*
X82286604Y-60026227D01*
X82292565Y-60002428D01*
X82300830Y-59979329D01*
X82311320Y-59957150D01*
X82323932Y-59936107D01*
X82338547Y-59916401D01*
X82355023Y-59898223D01*
X82373201Y-59881747D01*
X82392907Y-59867132D01*
X82413950Y-59854520D01*
X82436129Y-59844030D01*
X82459228Y-59835765D01*
X82483027Y-59829804D01*
X82507295Y-59826204D01*
X82531799Y-59825000D01*
X83431801Y-59825000D01*
X83456305Y-59826204D01*
G37*
G04 #@! TD.AperFunction*
G04 #@! TA.AperFunction,SMDPad,CuDef*
G36*
X83456305Y-61876204D02*
G01*
X83480573Y-61879804D01*
X83504372Y-61885765D01*
X83527471Y-61894030D01*
X83549650Y-61904520D01*
X83570693Y-61917132D01*
X83590399Y-61931747D01*
X83608577Y-61948223D01*
X83625053Y-61966401D01*
X83639668Y-61986107D01*
X83652280Y-62007150D01*
X83662770Y-62029329D01*
X83671035Y-62052428D01*
X83676996Y-62076227D01*
X83680596Y-62100495D01*
X83681800Y-62124999D01*
X83681800Y-62775001D01*
X83680596Y-62799505D01*
X83676996Y-62823773D01*
X83671035Y-62847572D01*
X83662770Y-62870671D01*
X83652280Y-62892850D01*
X83639668Y-62913893D01*
X83625053Y-62933599D01*
X83608577Y-62951777D01*
X83590399Y-62968253D01*
X83570693Y-62982868D01*
X83549650Y-62995480D01*
X83527471Y-63005970D01*
X83504372Y-63014235D01*
X83480573Y-63020196D01*
X83456305Y-63023796D01*
X83431801Y-63025000D01*
X82531799Y-63025000D01*
X82507295Y-63023796D01*
X82483027Y-63020196D01*
X82459228Y-63014235D01*
X82436129Y-63005970D01*
X82413950Y-62995480D01*
X82392907Y-62982868D01*
X82373201Y-62968253D01*
X82355023Y-62951777D01*
X82338547Y-62933599D01*
X82323932Y-62913893D01*
X82311320Y-62892850D01*
X82300830Y-62870671D01*
X82292565Y-62847572D01*
X82286604Y-62823773D01*
X82283004Y-62799505D01*
X82281800Y-62775001D01*
X82281800Y-62124999D01*
X82283004Y-62100495D01*
X82286604Y-62076227D01*
X82292565Y-62052428D01*
X82300830Y-62029329D01*
X82311320Y-62007150D01*
X82323932Y-61986107D01*
X82338547Y-61966401D01*
X82355023Y-61948223D01*
X82373201Y-61931747D01*
X82392907Y-61917132D01*
X82413950Y-61904520D01*
X82436129Y-61894030D01*
X82459228Y-61885765D01*
X82483027Y-61879804D01*
X82507295Y-61876204D01*
X82531799Y-61875000D01*
X83431801Y-61875000D01*
X83456305Y-61876204D01*
G37*
G04 #@! TD.AperFunction*
G04 #@! TA.AperFunction,SMDPad,CuDef*
G36*
X80992505Y-59826204D02*
G01*
X81016773Y-59829804D01*
X81040572Y-59835765D01*
X81063671Y-59844030D01*
X81085850Y-59854520D01*
X81106893Y-59867132D01*
X81126599Y-59881747D01*
X81144777Y-59898223D01*
X81161253Y-59916401D01*
X81175868Y-59936107D01*
X81188480Y-59957150D01*
X81198970Y-59979329D01*
X81207235Y-60002428D01*
X81213196Y-60026227D01*
X81216796Y-60050495D01*
X81218000Y-60074999D01*
X81218000Y-60725001D01*
X81216796Y-60749505D01*
X81213196Y-60773773D01*
X81207235Y-60797572D01*
X81198970Y-60820671D01*
X81188480Y-60842850D01*
X81175868Y-60863893D01*
X81161253Y-60883599D01*
X81144777Y-60901777D01*
X81126599Y-60918253D01*
X81106893Y-60932868D01*
X81085850Y-60945480D01*
X81063671Y-60955970D01*
X81040572Y-60964235D01*
X81016773Y-60970196D01*
X80992505Y-60973796D01*
X80968001Y-60975000D01*
X80067999Y-60975000D01*
X80043495Y-60973796D01*
X80019227Y-60970196D01*
X79995428Y-60964235D01*
X79972329Y-60955970D01*
X79950150Y-60945480D01*
X79929107Y-60932868D01*
X79909401Y-60918253D01*
X79891223Y-60901777D01*
X79874747Y-60883599D01*
X79860132Y-60863893D01*
X79847520Y-60842850D01*
X79837030Y-60820671D01*
X79828765Y-60797572D01*
X79822804Y-60773773D01*
X79819204Y-60749505D01*
X79818000Y-60725001D01*
X79818000Y-60074999D01*
X79819204Y-60050495D01*
X79822804Y-60026227D01*
X79828765Y-60002428D01*
X79837030Y-59979329D01*
X79847520Y-59957150D01*
X79860132Y-59936107D01*
X79874747Y-59916401D01*
X79891223Y-59898223D01*
X79909401Y-59881747D01*
X79929107Y-59867132D01*
X79950150Y-59854520D01*
X79972329Y-59844030D01*
X79995428Y-59835765D01*
X80019227Y-59829804D01*
X80043495Y-59826204D01*
X80067999Y-59825000D01*
X80968001Y-59825000D01*
X80992505Y-59826204D01*
G37*
G04 #@! TD.AperFunction*
G04 #@! TA.AperFunction,SMDPad,CuDef*
G36*
X80992505Y-61876204D02*
G01*
X81016773Y-61879804D01*
X81040572Y-61885765D01*
X81063671Y-61894030D01*
X81085850Y-61904520D01*
X81106893Y-61917132D01*
X81126599Y-61931747D01*
X81144777Y-61948223D01*
X81161253Y-61966401D01*
X81175868Y-61986107D01*
X81188480Y-62007150D01*
X81198970Y-62029329D01*
X81207235Y-62052428D01*
X81213196Y-62076227D01*
X81216796Y-62100495D01*
X81218000Y-62124999D01*
X81218000Y-62775001D01*
X81216796Y-62799505D01*
X81213196Y-62823773D01*
X81207235Y-62847572D01*
X81198970Y-62870671D01*
X81188480Y-62892850D01*
X81175868Y-62913893D01*
X81161253Y-62933599D01*
X81144777Y-62951777D01*
X81126599Y-62968253D01*
X81106893Y-62982868D01*
X81085850Y-62995480D01*
X81063671Y-63005970D01*
X81040572Y-63014235D01*
X81016773Y-63020196D01*
X80992505Y-63023796D01*
X80968001Y-63025000D01*
X80067999Y-63025000D01*
X80043495Y-63023796D01*
X80019227Y-63020196D01*
X79995428Y-63014235D01*
X79972329Y-63005970D01*
X79950150Y-62995480D01*
X79929107Y-62982868D01*
X79909401Y-62968253D01*
X79891223Y-62951777D01*
X79874747Y-62933599D01*
X79860132Y-62913893D01*
X79847520Y-62892850D01*
X79837030Y-62870671D01*
X79828765Y-62847572D01*
X79822804Y-62823773D01*
X79819204Y-62799505D01*
X79818000Y-62775001D01*
X79818000Y-62124999D01*
X79819204Y-62100495D01*
X79822804Y-62076227D01*
X79828765Y-62052428D01*
X79837030Y-62029329D01*
X79847520Y-62007150D01*
X79860132Y-61986107D01*
X79874747Y-61966401D01*
X79891223Y-61948223D01*
X79909401Y-61931747D01*
X79929107Y-61917132D01*
X79950150Y-61904520D01*
X79972329Y-61894030D01*
X79995428Y-61885765D01*
X80019227Y-61879804D01*
X80043495Y-61876204D01*
X80067999Y-61875000D01*
X80968001Y-61875000D01*
X80992505Y-61876204D01*
G37*
G04 #@! TD.AperFunction*
G04 #@! TA.AperFunction,SMDPad,CuDef*
G36*
X79722505Y-70528204D02*
G01*
X79746773Y-70531804D01*
X79770572Y-70537765D01*
X79793671Y-70546030D01*
X79815850Y-70556520D01*
X79836893Y-70569132D01*
X79856599Y-70583747D01*
X79874777Y-70600223D01*
X79891253Y-70618401D01*
X79905868Y-70638107D01*
X79918480Y-70659150D01*
X79928970Y-70681329D01*
X79937235Y-70704428D01*
X79943196Y-70728227D01*
X79946796Y-70752495D01*
X79948000Y-70776999D01*
X79948000Y-71427001D01*
X79946796Y-71451505D01*
X79943196Y-71475773D01*
X79937235Y-71499572D01*
X79928970Y-71522671D01*
X79918480Y-71544850D01*
X79905868Y-71565893D01*
X79891253Y-71585599D01*
X79874777Y-71603777D01*
X79856599Y-71620253D01*
X79836893Y-71634868D01*
X79815850Y-71647480D01*
X79793671Y-71657970D01*
X79770572Y-71666235D01*
X79746773Y-71672196D01*
X79722505Y-71675796D01*
X79698001Y-71677000D01*
X78797999Y-71677000D01*
X78773495Y-71675796D01*
X78749227Y-71672196D01*
X78725428Y-71666235D01*
X78702329Y-71657970D01*
X78680150Y-71647480D01*
X78659107Y-71634868D01*
X78639401Y-71620253D01*
X78621223Y-71603777D01*
X78604747Y-71585599D01*
X78590132Y-71565893D01*
X78577520Y-71544850D01*
X78567030Y-71522671D01*
X78558765Y-71499572D01*
X78552804Y-71475773D01*
X78549204Y-71451505D01*
X78548000Y-71427001D01*
X78548000Y-70776999D01*
X78549204Y-70752495D01*
X78552804Y-70728227D01*
X78558765Y-70704428D01*
X78567030Y-70681329D01*
X78577520Y-70659150D01*
X78590132Y-70638107D01*
X78604747Y-70618401D01*
X78621223Y-70600223D01*
X78639401Y-70583747D01*
X78659107Y-70569132D01*
X78680150Y-70556520D01*
X78702329Y-70546030D01*
X78725428Y-70537765D01*
X78749227Y-70531804D01*
X78773495Y-70528204D01*
X78797999Y-70527000D01*
X79698001Y-70527000D01*
X79722505Y-70528204D01*
G37*
G04 #@! TD.AperFunction*
G04 #@! TA.AperFunction,SMDPad,CuDef*
G36*
X79722505Y-72578204D02*
G01*
X79746773Y-72581804D01*
X79770572Y-72587765D01*
X79793671Y-72596030D01*
X79815850Y-72606520D01*
X79836893Y-72619132D01*
X79856599Y-72633747D01*
X79874777Y-72650223D01*
X79891253Y-72668401D01*
X79905868Y-72688107D01*
X79918480Y-72709150D01*
X79928970Y-72731329D01*
X79937235Y-72754428D01*
X79943196Y-72778227D01*
X79946796Y-72802495D01*
X79948000Y-72826999D01*
X79948000Y-73477001D01*
X79946796Y-73501505D01*
X79943196Y-73525773D01*
X79937235Y-73549572D01*
X79928970Y-73572671D01*
X79918480Y-73594850D01*
X79905868Y-73615893D01*
X79891253Y-73635599D01*
X79874777Y-73653777D01*
X79856599Y-73670253D01*
X79836893Y-73684868D01*
X79815850Y-73697480D01*
X79793671Y-73707970D01*
X79770572Y-73716235D01*
X79746773Y-73722196D01*
X79722505Y-73725796D01*
X79698001Y-73727000D01*
X78797999Y-73727000D01*
X78773495Y-73725796D01*
X78749227Y-73722196D01*
X78725428Y-73716235D01*
X78702329Y-73707970D01*
X78680150Y-73697480D01*
X78659107Y-73684868D01*
X78639401Y-73670253D01*
X78621223Y-73653777D01*
X78604747Y-73635599D01*
X78590132Y-73615893D01*
X78577520Y-73594850D01*
X78567030Y-73572671D01*
X78558765Y-73549572D01*
X78552804Y-73525773D01*
X78549204Y-73501505D01*
X78548000Y-73477001D01*
X78548000Y-72826999D01*
X78549204Y-72802495D01*
X78552804Y-72778227D01*
X78558765Y-72754428D01*
X78567030Y-72731329D01*
X78577520Y-72709150D01*
X78590132Y-72688107D01*
X78604747Y-72668401D01*
X78621223Y-72650223D01*
X78639401Y-72633747D01*
X78659107Y-72619132D01*
X78680150Y-72606520D01*
X78702329Y-72596030D01*
X78725428Y-72587765D01*
X78749227Y-72581804D01*
X78773495Y-72578204D01*
X78797999Y-72577000D01*
X79698001Y-72577000D01*
X79722505Y-72578204D01*
G37*
G04 #@! TD.AperFunction*
G04 #@! TA.AperFunction,SMDPad,CuDef*
G36*
X84169505Y-74993204D02*
G01*
X84193773Y-74996804D01*
X84217572Y-75002765D01*
X84240671Y-75011030D01*
X84262850Y-75021520D01*
X84283893Y-75034132D01*
X84303599Y-75048747D01*
X84321777Y-75065223D01*
X84338253Y-75083401D01*
X84352868Y-75103107D01*
X84365480Y-75124150D01*
X84375970Y-75146329D01*
X84384235Y-75169428D01*
X84390196Y-75193227D01*
X84393796Y-75217495D01*
X84395000Y-75241999D01*
X84395000Y-76142001D01*
X84393796Y-76166505D01*
X84390196Y-76190773D01*
X84384235Y-76214572D01*
X84375970Y-76237671D01*
X84365480Y-76259850D01*
X84352868Y-76280893D01*
X84338253Y-76300599D01*
X84321777Y-76318777D01*
X84303599Y-76335253D01*
X84283893Y-76349868D01*
X84262850Y-76362480D01*
X84240671Y-76372970D01*
X84217572Y-76381235D01*
X84193773Y-76387196D01*
X84169505Y-76390796D01*
X84145001Y-76392000D01*
X83494999Y-76392000D01*
X83470495Y-76390796D01*
X83446227Y-76387196D01*
X83422428Y-76381235D01*
X83399329Y-76372970D01*
X83377150Y-76362480D01*
X83356107Y-76349868D01*
X83336401Y-76335253D01*
X83318223Y-76318777D01*
X83301747Y-76300599D01*
X83287132Y-76280893D01*
X83274520Y-76259850D01*
X83264030Y-76237671D01*
X83255765Y-76214572D01*
X83249804Y-76190773D01*
X83246204Y-76166505D01*
X83245000Y-76142001D01*
X83245000Y-75241999D01*
X83246204Y-75217495D01*
X83249804Y-75193227D01*
X83255765Y-75169428D01*
X83264030Y-75146329D01*
X83274520Y-75124150D01*
X83287132Y-75103107D01*
X83301747Y-75083401D01*
X83318223Y-75065223D01*
X83336401Y-75048747D01*
X83356107Y-75034132D01*
X83377150Y-75021520D01*
X83399329Y-75011030D01*
X83422428Y-75002765D01*
X83446227Y-74996804D01*
X83470495Y-74993204D01*
X83494999Y-74992000D01*
X84145001Y-74992000D01*
X84169505Y-74993204D01*
G37*
G04 #@! TD.AperFunction*
G04 #@! TA.AperFunction,SMDPad,CuDef*
G36*
X82119505Y-74993204D02*
G01*
X82143773Y-74996804D01*
X82167572Y-75002765D01*
X82190671Y-75011030D01*
X82212850Y-75021520D01*
X82233893Y-75034132D01*
X82253599Y-75048747D01*
X82271777Y-75065223D01*
X82288253Y-75083401D01*
X82302868Y-75103107D01*
X82315480Y-75124150D01*
X82325970Y-75146329D01*
X82334235Y-75169428D01*
X82340196Y-75193227D01*
X82343796Y-75217495D01*
X82345000Y-75241999D01*
X82345000Y-76142001D01*
X82343796Y-76166505D01*
X82340196Y-76190773D01*
X82334235Y-76214572D01*
X82325970Y-76237671D01*
X82315480Y-76259850D01*
X82302868Y-76280893D01*
X82288253Y-76300599D01*
X82271777Y-76318777D01*
X82253599Y-76335253D01*
X82233893Y-76349868D01*
X82212850Y-76362480D01*
X82190671Y-76372970D01*
X82167572Y-76381235D01*
X82143773Y-76387196D01*
X82119505Y-76390796D01*
X82095001Y-76392000D01*
X81444999Y-76392000D01*
X81420495Y-76390796D01*
X81396227Y-76387196D01*
X81372428Y-76381235D01*
X81349329Y-76372970D01*
X81327150Y-76362480D01*
X81306107Y-76349868D01*
X81286401Y-76335253D01*
X81268223Y-76318777D01*
X81251747Y-76300599D01*
X81237132Y-76280893D01*
X81224520Y-76259850D01*
X81214030Y-76237671D01*
X81205765Y-76214572D01*
X81199804Y-76190773D01*
X81196204Y-76166505D01*
X81195000Y-76142001D01*
X81195000Y-75241999D01*
X81196204Y-75217495D01*
X81199804Y-75193227D01*
X81205765Y-75169428D01*
X81214030Y-75146329D01*
X81224520Y-75124150D01*
X81237132Y-75103107D01*
X81251747Y-75083401D01*
X81268223Y-75065223D01*
X81286401Y-75048747D01*
X81306107Y-75034132D01*
X81327150Y-75021520D01*
X81349329Y-75011030D01*
X81372428Y-75002765D01*
X81396227Y-74996804D01*
X81420495Y-74993204D01*
X81444999Y-74992000D01*
X82095001Y-74992000D01*
X82119505Y-74993204D01*
G37*
G04 #@! TD.AperFunction*
G04 #@! TA.AperFunction,SMDPad,CuDef*
G36*
X77699505Y-56501204D02*
G01*
X77723773Y-56504804D01*
X77747572Y-56510765D01*
X77770671Y-56519030D01*
X77792850Y-56529520D01*
X77813893Y-56542132D01*
X77833599Y-56556747D01*
X77851777Y-56573223D01*
X77868253Y-56591401D01*
X77882868Y-56611107D01*
X77895480Y-56632150D01*
X77905970Y-56654329D01*
X77914235Y-56677428D01*
X77920196Y-56701227D01*
X77923796Y-56725495D01*
X77925000Y-56749999D01*
X77925000Y-57650001D01*
X77923796Y-57674505D01*
X77920196Y-57698773D01*
X77914235Y-57722572D01*
X77905970Y-57745671D01*
X77895480Y-57767850D01*
X77882868Y-57788893D01*
X77868253Y-57808599D01*
X77851777Y-57826777D01*
X77833599Y-57843253D01*
X77813893Y-57857868D01*
X77792850Y-57870480D01*
X77770671Y-57880970D01*
X77747572Y-57889235D01*
X77723773Y-57895196D01*
X77699505Y-57898796D01*
X77675001Y-57900000D01*
X77024999Y-57900000D01*
X77000495Y-57898796D01*
X76976227Y-57895196D01*
X76952428Y-57889235D01*
X76929329Y-57880970D01*
X76907150Y-57870480D01*
X76886107Y-57857868D01*
X76866401Y-57843253D01*
X76848223Y-57826777D01*
X76831747Y-57808599D01*
X76817132Y-57788893D01*
X76804520Y-57767850D01*
X76794030Y-57745671D01*
X76785765Y-57722572D01*
X76779804Y-57698773D01*
X76776204Y-57674505D01*
X76775000Y-57650001D01*
X76775000Y-56749999D01*
X76776204Y-56725495D01*
X76779804Y-56701227D01*
X76785765Y-56677428D01*
X76794030Y-56654329D01*
X76804520Y-56632150D01*
X76817132Y-56611107D01*
X76831747Y-56591401D01*
X76848223Y-56573223D01*
X76866401Y-56556747D01*
X76886107Y-56542132D01*
X76907150Y-56529520D01*
X76929329Y-56519030D01*
X76952428Y-56510765D01*
X76976227Y-56504804D01*
X77000495Y-56501204D01*
X77024999Y-56500000D01*
X77675001Y-56500000D01*
X77699505Y-56501204D01*
G37*
G04 #@! TD.AperFunction*
G04 #@! TA.AperFunction,SMDPad,CuDef*
G36*
X79749505Y-56501204D02*
G01*
X79773773Y-56504804D01*
X79797572Y-56510765D01*
X79820671Y-56519030D01*
X79842850Y-56529520D01*
X79863893Y-56542132D01*
X79883599Y-56556747D01*
X79901777Y-56573223D01*
X79918253Y-56591401D01*
X79932868Y-56611107D01*
X79945480Y-56632150D01*
X79955970Y-56654329D01*
X79964235Y-56677428D01*
X79970196Y-56701227D01*
X79973796Y-56725495D01*
X79975000Y-56749999D01*
X79975000Y-57650001D01*
X79973796Y-57674505D01*
X79970196Y-57698773D01*
X79964235Y-57722572D01*
X79955970Y-57745671D01*
X79945480Y-57767850D01*
X79932868Y-57788893D01*
X79918253Y-57808599D01*
X79901777Y-57826777D01*
X79883599Y-57843253D01*
X79863893Y-57857868D01*
X79842850Y-57870480D01*
X79820671Y-57880970D01*
X79797572Y-57889235D01*
X79773773Y-57895196D01*
X79749505Y-57898796D01*
X79725001Y-57900000D01*
X79074999Y-57900000D01*
X79050495Y-57898796D01*
X79026227Y-57895196D01*
X79002428Y-57889235D01*
X78979329Y-57880970D01*
X78957150Y-57870480D01*
X78936107Y-57857868D01*
X78916401Y-57843253D01*
X78898223Y-57826777D01*
X78881747Y-57808599D01*
X78867132Y-57788893D01*
X78854520Y-57767850D01*
X78844030Y-57745671D01*
X78835765Y-57722572D01*
X78829804Y-57698773D01*
X78826204Y-57674505D01*
X78825000Y-57650001D01*
X78825000Y-56749999D01*
X78826204Y-56725495D01*
X78829804Y-56701227D01*
X78835765Y-56677428D01*
X78844030Y-56654329D01*
X78854520Y-56632150D01*
X78867132Y-56611107D01*
X78881747Y-56591401D01*
X78898223Y-56573223D01*
X78916401Y-56556747D01*
X78936107Y-56542132D01*
X78957150Y-56529520D01*
X78979329Y-56519030D01*
X79002428Y-56510765D01*
X79026227Y-56504804D01*
X79050495Y-56501204D01*
X79074999Y-56500000D01*
X79725001Y-56500000D01*
X79749505Y-56501204D01*
G37*
G04 #@! TD.AperFunction*
G04 #@! TA.AperFunction,SMDPad,CuDef*
G36*
X98674505Y-74276204D02*
G01*
X98698773Y-74279804D01*
X98722572Y-74285765D01*
X98745671Y-74294030D01*
X98767850Y-74304520D01*
X98788893Y-74317132D01*
X98808599Y-74331747D01*
X98826777Y-74348223D01*
X98843253Y-74366401D01*
X98857868Y-74386107D01*
X98870480Y-74407150D01*
X98880970Y-74429329D01*
X98889235Y-74452428D01*
X98895196Y-74476227D01*
X98898796Y-74500495D01*
X98900000Y-74524999D01*
X98900000Y-75175001D01*
X98898796Y-75199505D01*
X98895196Y-75223773D01*
X98889235Y-75247572D01*
X98880970Y-75270671D01*
X98870480Y-75292850D01*
X98857868Y-75313893D01*
X98843253Y-75333599D01*
X98826777Y-75351777D01*
X98808599Y-75368253D01*
X98788893Y-75382868D01*
X98767850Y-75395480D01*
X98745671Y-75405970D01*
X98722572Y-75414235D01*
X98698773Y-75420196D01*
X98674505Y-75423796D01*
X98650001Y-75425000D01*
X97749999Y-75425000D01*
X97725495Y-75423796D01*
X97701227Y-75420196D01*
X97677428Y-75414235D01*
X97654329Y-75405970D01*
X97632150Y-75395480D01*
X97611107Y-75382868D01*
X97591401Y-75368253D01*
X97573223Y-75351777D01*
X97556747Y-75333599D01*
X97542132Y-75313893D01*
X97529520Y-75292850D01*
X97519030Y-75270671D01*
X97510765Y-75247572D01*
X97504804Y-75223773D01*
X97501204Y-75199505D01*
X97500000Y-75175001D01*
X97500000Y-74524999D01*
X97501204Y-74500495D01*
X97504804Y-74476227D01*
X97510765Y-74452428D01*
X97519030Y-74429329D01*
X97529520Y-74407150D01*
X97542132Y-74386107D01*
X97556747Y-74366401D01*
X97573223Y-74348223D01*
X97591401Y-74331747D01*
X97611107Y-74317132D01*
X97632150Y-74304520D01*
X97654329Y-74294030D01*
X97677428Y-74285765D01*
X97701227Y-74279804D01*
X97725495Y-74276204D01*
X97749999Y-74275000D01*
X98650001Y-74275000D01*
X98674505Y-74276204D01*
G37*
G04 #@! TD.AperFunction*
G04 #@! TA.AperFunction,SMDPad,CuDef*
G36*
X98674505Y-72226204D02*
G01*
X98698773Y-72229804D01*
X98722572Y-72235765D01*
X98745671Y-72244030D01*
X98767850Y-72254520D01*
X98788893Y-72267132D01*
X98808599Y-72281747D01*
X98826777Y-72298223D01*
X98843253Y-72316401D01*
X98857868Y-72336107D01*
X98870480Y-72357150D01*
X98880970Y-72379329D01*
X98889235Y-72402428D01*
X98895196Y-72426227D01*
X98898796Y-72450495D01*
X98900000Y-72474999D01*
X98900000Y-73125001D01*
X98898796Y-73149505D01*
X98895196Y-73173773D01*
X98889235Y-73197572D01*
X98880970Y-73220671D01*
X98870480Y-73242850D01*
X98857868Y-73263893D01*
X98843253Y-73283599D01*
X98826777Y-73301777D01*
X98808599Y-73318253D01*
X98788893Y-73332868D01*
X98767850Y-73345480D01*
X98745671Y-73355970D01*
X98722572Y-73364235D01*
X98698773Y-73370196D01*
X98674505Y-73373796D01*
X98650001Y-73375000D01*
X97749999Y-73375000D01*
X97725495Y-73373796D01*
X97701227Y-73370196D01*
X97677428Y-73364235D01*
X97654329Y-73355970D01*
X97632150Y-73345480D01*
X97611107Y-73332868D01*
X97591401Y-73318253D01*
X97573223Y-73301777D01*
X97556747Y-73283599D01*
X97542132Y-73263893D01*
X97529520Y-73242850D01*
X97519030Y-73220671D01*
X97510765Y-73197572D01*
X97504804Y-73173773D01*
X97501204Y-73149505D01*
X97500000Y-73125001D01*
X97500000Y-72474999D01*
X97501204Y-72450495D01*
X97504804Y-72426227D01*
X97510765Y-72402428D01*
X97519030Y-72379329D01*
X97529520Y-72357150D01*
X97542132Y-72336107D01*
X97556747Y-72316401D01*
X97573223Y-72298223D01*
X97591401Y-72281747D01*
X97611107Y-72267132D01*
X97632150Y-72254520D01*
X97654329Y-72244030D01*
X97677428Y-72235765D01*
X97701227Y-72229804D01*
X97725495Y-72226204D01*
X97749999Y-72225000D01*
X98650001Y-72225000D01*
X98674505Y-72226204D01*
G37*
G04 #@! TD.AperFunction*
G04 #@! TA.AperFunction,SMDPad,CuDef*
G36*
X101099505Y-51301204D02*
G01*
X101123773Y-51304804D01*
X101147572Y-51310765D01*
X101170671Y-51319030D01*
X101192850Y-51329520D01*
X101213893Y-51342132D01*
X101233599Y-51356747D01*
X101251777Y-51373223D01*
X101268253Y-51391401D01*
X101282868Y-51411107D01*
X101295480Y-51432150D01*
X101305970Y-51454329D01*
X101314235Y-51477428D01*
X101320196Y-51501227D01*
X101323796Y-51525495D01*
X101325000Y-51549999D01*
X101325000Y-52450001D01*
X101323796Y-52474505D01*
X101320196Y-52498773D01*
X101314235Y-52522572D01*
X101305970Y-52545671D01*
X101295480Y-52567850D01*
X101282868Y-52588893D01*
X101268253Y-52608599D01*
X101251777Y-52626777D01*
X101233599Y-52643253D01*
X101213893Y-52657868D01*
X101192850Y-52670480D01*
X101170671Y-52680970D01*
X101147572Y-52689235D01*
X101123773Y-52695196D01*
X101099505Y-52698796D01*
X101075001Y-52700000D01*
X100424999Y-52700000D01*
X100400495Y-52698796D01*
X100376227Y-52695196D01*
X100352428Y-52689235D01*
X100329329Y-52680970D01*
X100307150Y-52670480D01*
X100286107Y-52657868D01*
X100266401Y-52643253D01*
X100248223Y-52626777D01*
X100231747Y-52608599D01*
X100217132Y-52588893D01*
X100204520Y-52567850D01*
X100194030Y-52545671D01*
X100185765Y-52522572D01*
X100179804Y-52498773D01*
X100176204Y-52474505D01*
X100175000Y-52450001D01*
X100175000Y-51549999D01*
X100176204Y-51525495D01*
X100179804Y-51501227D01*
X100185765Y-51477428D01*
X100194030Y-51454329D01*
X100204520Y-51432150D01*
X100217132Y-51411107D01*
X100231747Y-51391401D01*
X100248223Y-51373223D01*
X100266401Y-51356747D01*
X100286107Y-51342132D01*
X100307150Y-51329520D01*
X100329329Y-51319030D01*
X100352428Y-51310765D01*
X100376227Y-51304804D01*
X100400495Y-51301204D01*
X100424999Y-51300000D01*
X101075001Y-51300000D01*
X101099505Y-51301204D01*
G37*
G04 #@! TD.AperFunction*
G04 #@! TA.AperFunction,SMDPad,CuDef*
G36*
X99049505Y-51301204D02*
G01*
X99073773Y-51304804D01*
X99097572Y-51310765D01*
X99120671Y-51319030D01*
X99142850Y-51329520D01*
X99163893Y-51342132D01*
X99183599Y-51356747D01*
X99201777Y-51373223D01*
X99218253Y-51391401D01*
X99232868Y-51411107D01*
X99245480Y-51432150D01*
X99255970Y-51454329D01*
X99264235Y-51477428D01*
X99270196Y-51501227D01*
X99273796Y-51525495D01*
X99275000Y-51549999D01*
X99275000Y-52450001D01*
X99273796Y-52474505D01*
X99270196Y-52498773D01*
X99264235Y-52522572D01*
X99255970Y-52545671D01*
X99245480Y-52567850D01*
X99232868Y-52588893D01*
X99218253Y-52608599D01*
X99201777Y-52626777D01*
X99183599Y-52643253D01*
X99163893Y-52657868D01*
X99142850Y-52670480D01*
X99120671Y-52680970D01*
X99097572Y-52689235D01*
X99073773Y-52695196D01*
X99049505Y-52698796D01*
X99025001Y-52700000D01*
X98374999Y-52700000D01*
X98350495Y-52698796D01*
X98326227Y-52695196D01*
X98302428Y-52689235D01*
X98279329Y-52680970D01*
X98257150Y-52670480D01*
X98236107Y-52657868D01*
X98216401Y-52643253D01*
X98198223Y-52626777D01*
X98181747Y-52608599D01*
X98167132Y-52588893D01*
X98154520Y-52567850D01*
X98144030Y-52545671D01*
X98135765Y-52522572D01*
X98129804Y-52498773D01*
X98126204Y-52474505D01*
X98125000Y-52450001D01*
X98125000Y-51549999D01*
X98126204Y-51525495D01*
X98129804Y-51501227D01*
X98135765Y-51477428D01*
X98144030Y-51454329D01*
X98154520Y-51432150D01*
X98167132Y-51411107D01*
X98181747Y-51391401D01*
X98198223Y-51373223D01*
X98216401Y-51356747D01*
X98236107Y-51342132D01*
X98257150Y-51329520D01*
X98279329Y-51319030D01*
X98302428Y-51310765D01*
X98326227Y-51304804D01*
X98350495Y-51301204D01*
X98374999Y-51300000D01*
X99025001Y-51300000D01*
X99049505Y-51301204D01*
G37*
G04 #@! TD.AperFunction*
D22*
X100965000Y-49530000D03*
X93980000Y-44577000D03*
X99950000Y-74850000D03*
X96300000Y-68500000D03*
X86700000Y-77100000D03*
X79200000Y-74500000D03*
X76900000Y-74500000D03*
X86000000Y-70200000D03*
X80100000Y-75100000D03*
X80200000Y-50000000D03*
X86550000Y-50000000D03*
X98200000Y-76200000D03*
X99600000Y-76050000D03*
X88900000Y-77100000D03*
X91400000Y-77150000D03*
X100965000Y-56540400D03*
X102819200Y-54737000D03*
X101015800Y-57912000D03*
X102590600Y-52044600D03*
X94716600Y-65709800D03*
X92964000Y-62636400D03*
X92913200Y-55422800D03*
X96723200Y-58191400D03*
X86360000Y-60045600D03*
X85013800Y-58801000D03*
X99822000Y-64262000D03*
X99822000Y-66548000D03*
X75438000Y-65024000D03*
X77216000Y-65024000D03*
X76962000Y-69342000D03*
X75438000Y-70866000D03*
X82804000Y-46736000D03*
X83820000Y-46736000D03*
X95758000Y-67564000D03*
X96520000Y-66802000D03*
X80800000Y-57200000D03*
X88300000Y-61100000D03*
X75800000Y-44950000D03*
X90800000Y-65800000D03*
X96710600Y-49428400D03*
X91101400Y-68300000D03*
X94625000Y-59050000D03*
X90051400Y-68300000D03*
X93200000Y-57100000D03*
D23*
X100965000Y-54621000D02*
X100979000Y-54635000D01*
X100965000Y-49530000D02*
X100965000Y-54621000D01*
X92633800Y-44577000D02*
X92532200Y-44475400D01*
X93980000Y-44577000D02*
X92633800Y-44577000D01*
X81774000Y-73152000D02*
X79248000Y-73152000D01*
X81774000Y-75688000D02*
X81770000Y-75692000D01*
X81774000Y-73152000D02*
X81774000Y-75688000D01*
D24*
X90450000Y-56450000D02*
X89826000Y-55826000D01*
X89826000Y-55826000D02*
X89826000Y-51722200D01*
X90450000Y-57725000D02*
X90450000Y-56450000D01*
X89201000Y-58100000D02*
X90075000Y-58100000D01*
X90075000Y-58100000D02*
X90450000Y-57725000D01*
D10*
X105980599Y-57951001D02*
X105980599Y-57919401D01*
X105130600Y-58801000D02*
X105980599Y-57951001D01*
X105980599Y-57919401D02*
X106400000Y-57500000D01*
X106400000Y-54991600D02*
X107670600Y-53721000D01*
X106400000Y-57500000D02*
X106400000Y-54991600D01*
X105130600Y-58801000D02*
X106300000Y-59970400D01*
X106300000Y-62510400D02*
X107670600Y-63881000D01*
X106300000Y-59970400D02*
X106300000Y-62510400D01*
X102900000Y-72800000D02*
X106400000Y-72800000D01*
X100850000Y-74850000D02*
X102900000Y-72800000D01*
X107670600Y-71501000D02*
X106400000Y-72800000D01*
X106400000Y-72800000D02*
X106371600Y-72800000D01*
X99950000Y-74850000D02*
X100850000Y-74850000D01*
D23*
X96291400Y-68508600D02*
X96300000Y-68500000D01*
X96291400Y-70245200D02*
X96291400Y-68508600D01*
X98200000Y-74850000D02*
X99950000Y-74850000D01*
X79400000Y-54788200D02*
X79756000Y-54432200D01*
X79400000Y-57200000D02*
X79400000Y-54788200D01*
X79400000Y-57200000D02*
X80800000Y-57200000D01*
X89525000Y-61100000D02*
X88300000Y-61100000D01*
X77200000Y-44950000D02*
X75800000Y-44950000D01*
X98679000Y-54635000D02*
X98679000Y-60935000D01*
X93218000Y-51317000D02*
X93218000Y-53968000D01*
X93218000Y-53968000D02*
X94750000Y-55500000D01*
X94750000Y-55500000D02*
X94750000Y-56250000D01*
X94750000Y-56250000D02*
X95000000Y-56500000D01*
X98679000Y-56135000D02*
X98679000Y-54635000D01*
X98314000Y-56500000D02*
X98679000Y-56135000D01*
X95000000Y-56500000D02*
X98314000Y-56500000D01*
X98679000Y-56865000D02*
X98679000Y-60935000D01*
X98314000Y-56500000D02*
X98679000Y-56865000D01*
D24*
X98700000Y-54614000D02*
X98679000Y-54635000D01*
X98700000Y-52000000D02*
X98700000Y-54614000D01*
X96291400Y-75195200D02*
X96291400Y-74591400D01*
X96291400Y-74591400D02*
X96300000Y-74582800D01*
X96300000Y-74582800D02*
X96300000Y-73500000D01*
X96300000Y-73500000D02*
X95600000Y-72800000D01*
X95600000Y-72800000D02*
X93700000Y-72800000D01*
D23*
X98679000Y-60935000D02*
X98679000Y-62435000D01*
X98679000Y-62435000D02*
X97900000Y-63214000D01*
X92481400Y-71581400D02*
X92481400Y-70245200D01*
X93700000Y-72800000D02*
X92481400Y-71581400D01*
X95100000Y-72800000D02*
X96100000Y-72800000D01*
X95100000Y-72800000D02*
X93700000Y-72800000D01*
X96700000Y-72800000D02*
X95100000Y-72800000D01*
X96100000Y-72800000D02*
X96291400Y-72991400D01*
X96291400Y-73208600D02*
X96700000Y-72800000D01*
X96291400Y-73491400D02*
X96291400Y-75195200D01*
X96291400Y-73491400D02*
X96291400Y-73208600D01*
X96291400Y-72991400D02*
X96291400Y-73491400D01*
D24*
X80518000Y-60400000D02*
X82981800Y-60400000D01*
X83681800Y-60400000D02*
X87281800Y-64000000D01*
X82981800Y-60400000D02*
X83681800Y-60400000D01*
X97500000Y-64000000D02*
X97900000Y-63600000D01*
D23*
X97900000Y-63600000D02*
X97900000Y-64000000D01*
X97900000Y-63214000D02*
X97900000Y-63600000D01*
D24*
X97500000Y-64000000D02*
X97900000Y-64000000D01*
X87281800Y-64000000D02*
X97500000Y-64000000D01*
X97500000Y-64000000D02*
X97900000Y-64400000D01*
D23*
X97900000Y-64000000D02*
X97900000Y-64400000D01*
X97900000Y-64400000D02*
X97900000Y-71600000D01*
X97900000Y-71925000D02*
X97900000Y-71600000D01*
X98200000Y-72225000D02*
X97900000Y-71925000D01*
X98200000Y-72800000D02*
X98200000Y-72225000D01*
X96482800Y-72800000D02*
X96291400Y-72991400D01*
X98200000Y-72800000D02*
X96482800Y-72800000D01*
X98200000Y-72800000D02*
X98000000Y-72800000D01*
X97900000Y-71600000D02*
X97500000Y-72300000D01*
X98000000Y-72800000D02*
X97500000Y-72300000D01*
X97500000Y-72300000D02*
X96700000Y-72800000D01*
X83820000Y-73406000D02*
X84074000Y-73152000D01*
X83820000Y-75692000D02*
X83820000Y-73406000D01*
X84074000Y-73152000D02*
X84598000Y-73152000D01*
D25*
X88671400Y-70245200D02*
X88671400Y-71220200D01*
X88671400Y-71220200D02*
X87891600Y-72000000D01*
X84074000Y-73152000D02*
X84074000Y-72176000D01*
X84074000Y-72176000D02*
X84250000Y-72000000D01*
X87891600Y-72000000D02*
X84250000Y-72000000D01*
D23*
X80924000Y-71102000D02*
X81774000Y-70252000D01*
X79248000Y-71102000D02*
X80924000Y-71102000D01*
D25*
X81774000Y-70402000D02*
X81774000Y-70252000D01*
X82500000Y-70978000D02*
X81774000Y-70252000D01*
X87401400Y-70245200D02*
X87401400Y-71348600D01*
X87100010Y-71649990D02*
X82850010Y-71649990D01*
X82850010Y-71649990D02*
X82500000Y-71299980D01*
X87401400Y-71348600D02*
X87100010Y-71649990D01*
X82500000Y-71299980D02*
X82500000Y-70978000D01*
D23*
X80518000Y-64482000D02*
X80500000Y-64500000D01*
X80518000Y-62450000D02*
X80518000Y-64482000D01*
X82981800Y-62450000D02*
X82950000Y-62450000D01*
X83000000Y-62500000D02*
X83000000Y-64500000D01*
X82950000Y-62450000D02*
X83000000Y-62500000D01*
D10*
X92532200Y-46525400D02*
X92525400Y-46525400D01*
D26*
X92532200Y-48581200D02*
X93218000Y-49267000D01*
X92532200Y-46525400D02*
X92532200Y-48581200D01*
D24*
X93751400Y-70245200D02*
X93751400Y-69648600D01*
X93751400Y-69648600D02*
X93700000Y-69597200D01*
X93700000Y-69597200D02*
X93700000Y-68300000D01*
X91950000Y-66550000D02*
X83000000Y-66550000D01*
X93700000Y-68300000D02*
X91950000Y-66550000D01*
X83000000Y-67125000D02*
X82425000Y-67700000D01*
X83000000Y-66550000D02*
X83000000Y-67125000D01*
X76470400Y-67700000D02*
X72669400Y-71501000D01*
X82425000Y-67700000D02*
X76470400Y-67700000D01*
X95021400Y-70245200D02*
X95021400Y-68621400D01*
X95021400Y-68621400D02*
X92200000Y-65800000D01*
X92200000Y-65800000D02*
X90800000Y-65800000D01*
X75080400Y-66550000D02*
X80500000Y-66550000D01*
X72669400Y-68961000D02*
X75080400Y-66550000D01*
D23*
X96710600Y-54303400D02*
X96379000Y-54635000D01*
X96710600Y-49428400D02*
X96710600Y-54303400D01*
D24*
X91150000Y-60400000D02*
X91150000Y-60675000D01*
X90700000Y-59950000D02*
X91150000Y-60400000D01*
X91150000Y-60675000D02*
X91575000Y-61100000D01*
X91295998Y-58100000D02*
X91270998Y-58125000D01*
X91901000Y-58100000D02*
X91295998Y-58100000D01*
X91270998Y-58125000D02*
X91075000Y-58125000D01*
X90700000Y-58500000D02*
X90700000Y-59950000D01*
X91075000Y-58125000D02*
X90700000Y-58500000D01*
D25*
X87255999Y-58275000D02*
X86098800Y-58275000D01*
X88030999Y-59050000D02*
X87255999Y-58275000D01*
X86098800Y-58275000D02*
X84008513Y-56184713D01*
X89201000Y-59050000D02*
X88030999Y-59050000D01*
X84008513Y-56184713D02*
X82256000Y-54432200D01*
X88030999Y-57150000D02*
X87255999Y-57925000D01*
X89201000Y-57150000D02*
X88030999Y-57150000D01*
X87255999Y-57925000D02*
X86243775Y-57925000D01*
X86243775Y-57925000D02*
X84256000Y-55937225D01*
X84256000Y-55937225D02*
X84256000Y-54432200D01*
D23*
X91211400Y-68410000D02*
X91101400Y-68300000D01*
X91211400Y-70245200D02*
X91211400Y-68410000D01*
D24*
X91901000Y-59050000D02*
X94625000Y-59050000D01*
D23*
X89941400Y-68410000D02*
X90051400Y-68300000D01*
X89941400Y-70245200D02*
X89941400Y-68410000D01*
D24*
X91901000Y-57150000D02*
X93150000Y-57150000D01*
X93150000Y-57150000D02*
X93200000Y-57100000D01*
D23*
X85200000Y-44700000D02*
X80250000Y-44700000D01*
X86550000Y-44700000D02*
X85200000Y-44700000D01*
X80250000Y-44700000D02*
X80250000Y-45700000D01*
X78950000Y-47000000D02*
X77200000Y-47000000D01*
X80250000Y-45700000D02*
X78950000Y-47000000D01*
D27*
X71420400Y-60050000D02*
X70129400Y-61341000D01*
X76500000Y-47000000D02*
X74450000Y-49050000D01*
X77200000Y-47000000D02*
X76500000Y-47000000D01*
X73950000Y-60050000D02*
X71420400Y-60050000D01*
X74450000Y-49050000D02*
X74450000Y-59550000D01*
X74450000Y-59550000D02*
X73950000Y-60050000D01*
D28*
G36*
X77597000Y-77255000D02*
G01*
X77323740Y-77255000D01*
X77036842Y-77312068D01*
X76766589Y-77424010D01*
X76523368Y-77586525D01*
X76316525Y-77793368D01*
X76154010Y-78036589D01*
X76042068Y-78306842D01*
X75985000Y-78593740D01*
X75985000Y-78886260D01*
X76042068Y-79173158D01*
X76154010Y-79443411D01*
X76316525Y-79686632D01*
X76523368Y-79893475D01*
X76697760Y-80010000D01*
X76523368Y-80126525D01*
X76316525Y-80333368D01*
X76154010Y-80576589D01*
X76042068Y-80846842D01*
X75985000Y-81133740D01*
X75985000Y-81426260D01*
X76042068Y-81713158D01*
X76146881Y-81966200D01*
X72614946Y-81966200D01*
X72905363Y-81675783D01*
X73139012Y-81326102D01*
X73299953Y-80937556D01*
X73382000Y-80525079D01*
X73382000Y-80104521D01*
X73299953Y-79692044D01*
X73139012Y-79303498D01*
X72905363Y-78953817D01*
X72607983Y-78656437D01*
X72258302Y-78422788D01*
X71869756Y-78261847D01*
X71457279Y-78179800D01*
X71036721Y-78179800D01*
X70624244Y-78261847D01*
X70235698Y-78422788D01*
X69886017Y-78656437D01*
X69621000Y-78921454D01*
X69621000Y-77968736D01*
X69772509Y-78022481D01*
X70002400Y-77901814D01*
X70002400Y-76708000D01*
X70256400Y-76708000D01*
X70256400Y-77901814D01*
X70486291Y-78022481D01*
X70760652Y-77925157D01*
X71010755Y-77776178D01*
X71226988Y-77581269D01*
X71399400Y-77350120D01*
X71571812Y-77581269D01*
X71788045Y-77776178D01*
X72038148Y-77925157D01*
X72312509Y-78022481D01*
X72542400Y-77901814D01*
X72542400Y-76708000D01*
X72796400Y-76708000D01*
X72796400Y-77901814D01*
X73026291Y-78022481D01*
X73300652Y-77925157D01*
X73550755Y-77776178D01*
X73766988Y-77581269D01*
X73941041Y-77347920D01*
X74066225Y-77085099D01*
X74110876Y-76937890D01*
X73989555Y-76708000D01*
X72796400Y-76708000D01*
X72542400Y-76708000D01*
X70256400Y-76708000D01*
X70002400Y-76708000D01*
X69982400Y-76708000D01*
X69982400Y-76454000D01*
X70002400Y-76454000D01*
X70002400Y-76434000D01*
X70256400Y-76434000D01*
X70256400Y-76454000D01*
X72542400Y-76454000D01*
X72542400Y-76434000D01*
X72796400Y-76434000D01*
X72796400Y-76454000D01*
X73989555Y-76454000D01*
X74110876Y-76224110D01*
X74066225Y-76076901D01*
X73941041Y-75814080D01*
X73766988Y-75580731D01*
X73550755Y-75385822D01*
X73433866Y-75316195D01*
X73616032Y-75194475D01*
X73822875Y-74987632D01*
X73985390Y-74744411D01*
X74097332Y-74474158D01*
X74154400Y-74187260D01*
X74154400Y-73894740D01*
X74097332Y-73607842D01*
X73985390Y-73337589D01*
X73822875Y-73094368D01*
X73616032Y-72887525D01*
X73441640Y-72771000D01*
X73616032Y-72654475D01*
X73822875Y-72447632D01*
X73985390Y-72204411D01*
X74097332Y-71934158D01*
X74154400Y-71647260D01*
X74154400Y-71354740D01*
X74116475Y-71164082D01*
X76795557Y-68485000D01*
X77597000Y-68485000D01*
X77597000Y-77255000D01*
G37*
X77597000Y-77255000D02*
X77323740Y-77255000D01*
X77036842Y-77312068D01*
X76766589Y-77424010D01*
X76523368Y-77586525D01*
X76316525Y-77793368D01*
X76154010Y-78036589D01*
X76042068Y-78306842D01*
X75985000Y-78593740D01*
X75985000Y-78886260D01*
X76042068Y-79173158D01*
X76154010Y-79443411D01*
X76316525Y-79686632D01*
X76523368Y-79893475D01*
X76697760Y-80010000D01*
X76523368Y-80126525D01*
X76316525Y-80333368D01*
X76154010Y-80576589D01*
X76042068Y-80846842D01*
X75985000Y-81133740D01*
X75985000Y-81426260D01*
X76042068Y-81713158D01*
X76146881Y-81966200D01*
X72614946Y-81966200D01*
X72905363Y-81675783D01*
X73139012Y-81326102D01*
X73299953Y-80937556D01*
X73382000Y-80525079D01*
X73382000Y-80104521D01*
X73299953Y-79692044D01*
X73139012Y-79303498D01*
X72905363Y-78953817D01*
X72607983Y-78656437D01*
X72258302Y-78422788D01*
X71869756Y-78261847D01*
X71457279Y-78179800D01*
X71036721Y-78179800D01*
X70624244Y-78261847D01*
X70235698Y-78422788D01*
X69886017Y-78656437D01*
X69621000Y-78921454D01*
X69621000Y-77968736D01*
X69772509Y-78022481D01*
X70002400Y-77901814D01*
X70002400Y-76708000D01*
X70256400Y-76708000D01*
X70256400Y-77901814D01*
X70486291Y-78022481D01*
X70760652Y-77925157D01*
X71010755Y-77776178D01*
X71226988Y-77581269D01*
X71399400Y-77350120D01*
X71571812Y-77581269D01*
X71788045Y-77776178D01*
X72038148Y-77925157D01*
X72312509Y-78022481D01*
X72542400Y-77901814D01*
X72542400Y-76708000D01*
X72796400Y-76708000D01*
X72796400Y-77901814D01*
X73026291Y-78022481D01*
X73300652Y-77925157D01*
X73550755Y-77776178D01*
X73766988Y-77581269D01*
X73941041Y-77347920D01*
X74066225Y-77085099D01*
X74110876Y-76937890D01*
X73989555Y-76708000D01*
X72796400Y-76708000D01*
X72542400Y-76708000D01*
X70256400Y-76708000D01*
X70002400Y-76708000D01*
X69982400Y-76708000D01*
X69982400Y-76454000D01*
X70002400Y-76454000D01*
X70002400Y-76434000D01*
X70256400Y-76434000D01*
X70256400Y-76454000D01*
X72542400Y-76454000D01*
X72542400Y-76434000D01*
X72796400Y-76434000D01*
X72796400Y-76454000D01*
X73989555Y-76454000D01*
X74110876Y-76224110D01*
X74066225Y-76076901D01*
X73941041Y-75814080D01*
X73766988Y-75580731D01*
X73550755Y-75385822D01*
X73433866Y-75316195D01*
X73616032Y-75194475D01*
X73822875Y-74987632D01*
X73985390Y-74744411D01*
X74097332Y-74474158D01*
X74154400Y-74187260D01*
X74154400Y-73894740D01*
X74097332Y-73607842D01*
X73985390Y-73337589D01*
X73822875Y-73094368D01*
X73616032Y-72887525D01*
X73441640Y-72771000D01*
X73616032Y-72654475D01*
X73822875Y-72447632D01*
X73985390Y-72204411D01*
X74097332Y-71934158D01*
X74154400Y-71647260D01*
X74154400Y-71354740D01*
X74116475Y-71164082D01*
X76795557Y-68485000D01*
X77597000Y-68485000D01*
X77597000Y-77255000D01*
G36*
X91684752Y-43281555D02*
G01*
X91588020Y-43310898D01*
X91477706Y-43369863D01*
X91381015Y-43449215D01*
X91301663Y-43545906D01*
X91242698Y-43656220D01*
X91206388Y-43775918D01*
X91194128Y-43900400D01*
X91197200Y-44189650D01*
X91355950Y-44348400D01*
X92405200Y-44348400D01*
X92405200Y-44328400D01*
X92659200Y-44328400D01*
X92659200Y-44348400D01*
X93708450Y-44348400D01*
X93867200Y-44189650D01*
X93870272Y-43900400D01*
X93858012Y-43775918D01*
X93821702Y-43656220D01*
X93762737Y-43545906D01*
X93683385Y-43449215D01*
X93586694Y-43369863D01*
X93476380Y-43310898D01*
X93379744Y-43281584D01*
X105260666Y-43281788D01*
X104996237Y-43546217D01*
X104762588Y-43895898D01*
X104601647Y-44284444D01*
X104519600Y-44696921D01*
X104519600Y-45117479D01*
X104601647Y-45529956D01*
X104762588Y-45918502D01*
X104996237Y-46268183D01*
X105293617Y-46565563D01*
X105643298Y-46799212D01*
X106031844Y-46960153D01*
X106444321Y-47042200D01*
X106864879Y-47042200D01*
X107277356Y-46960153D01*
X107665902Y-46799212D01*
X108015583Y-46565563D01*
X108281582Y-46299564D01*
X108282291Y-47287019D01*
X108103758Y-47213068D01*
X107816860Y-47156000D01*
X107524340Y-47156000D01*
X107237442Y-47213068D01*
X106967189Y-47325010D01*
X106723968Y-47487525D01*
X106592113Y-47619380D01*
X106570102Y-47546820D01*
X106511137Y-47436506D01*
X106431785Y-47339815D01*
X106335094Y-47260463D01*
X106224780Y-47201498D01*
X106105082Y-47165188D01*
X105980600Y-47152928D01*
X104280600Y-47152928D01*
X104156118Y-47165188D01*
X104036420Y-47201498D01*
X103926106Y-47260463D01*
X103829415Y-47339815D01*
X103750063Y-47436506D01*
X103691098Y-47546820D01*
X103654788Y-47666518D01*
X103642528Y-47791000D01*
X103642528Y-49491000D01*
X103654788Y-49615482D01*
X103691098Y-49735180D01*
X103750063Y-49845494D01*
X103829415Y-49942185D01*
X103926106Y-50021537D01*
X104036420Y-50080502D01*
X104108980Y-50102513D01*
X103977125Y-50234368D01*
X103814610Y-50477589D01*
X103702668Y-50747842D01*
X103645600Y-51034740D01*
X103645600Y-51327260D01*
X103702668Y-51614158D01*
X103814610Y-51884411D01*
X103977125Y-52127632D01*
X104183968Y-52334475D01*
X104358360Y-52451000D01*
X104183968Y-52567525D01*
X103977125Y-52774368D01*
X103814610Y-53017589D01*
X103702668Y-53287842D01*
X103645600Y-53574740D01*
X103645600Y-53867260D01*
X103702668Y-54154158D01*
X103814610Y-54424411D01*
X103977125Y-54667632D01*
X104183968Y-54874475D01*
X104358360Y-54991000D01*
X104183968Y-55107525D01*
X103977125Y-55314368D01*
X103814610Y-55557589D01*
X103702668Y-55827842D01*
X103645600Y-56114740D01*
X103645600Y-56407260D01*
X103702668Y-56694158D01*
X103814610Y-56964411D01*
X103977125Y-57207632D01*
X104183968Y-57414475D01*
X104366134Y-57536195D01*
X104249245Y-57605822D01*
X104033012Y-57800731D01*
X103858959Y-58034080D01*
X103733775Y-58296901D01*
X103689124Y-58444110D01*
X103810445Y-58674000D01*
X105003600Y-58674000D01*
X105003600Y-58654000D01*
X105257600Y-58654000D01*
X105257600Y-58674000D01*
X105277600Y-58674000D01*
X105277600Y-58928000D01*
X105257600Y-58928000D01*
X105257600Y-58948000D01*
X105003600Y-58948000D01*
X105003600Y-58928000D01*
X103810445Y-58928000D01*
X103689124Y-59157890D01*
X103733775Y-59305099D01*
X103858959Y-59567920D01*
X104033012Y-59801269D01*
X104249245Y-59996178D01*
X104366134Y-60065805D01*
X104183968Y-60187525D01*
X103977125Y-60394368D01*
X103814610Y-60637589D01*
X103702668Y-60907842D01*
X103645600Y-61194740D01*
X103645600Y-61487260D01*
X103702668Y-61774158D01*
X103814610Y-62044411D01*
X103977125Y-62287632D01*
X104183968Y-62494475D01*
X104358360Y-62611000D01*
X104183968Y-62727525D01*
X103977125Y-62934368D01*
X103814610Y-63177589D01*
X103702668Y-63447842D01*
X103645600Y-63734740D01*
X103645600Y-64027260D01*
X103702668Y-64314158D01*
X103814610Y-64584411D01*
X103977125Y-64827632D01*
X104183968Y-65034475D01*
X104358360Y-65151000D01*
X104183968Y-65267525D01*
X103977125Y-65474368D01*
X103814610Y-65717589D01*
X103702668Y-65987842D01*
X103645600Y-66274740D01*
X103645600Y-66567260D01*
X103702668Y-66854158D01*
X103814610Y-67124411D01*
X103977125Y-67367632D01*
X104183968Y-67574475D01*
X104358360Y-67691000D01*
X104183968Y-67807525D01*
X103977125Y-68014368D01*
X103814610Y-68257589D01*
X103702668Y-68527842D01*
X103645600Y-68814740D01*
X103645600Y-69107260D01*
X103702668Y-69394158D01*
X103814610Y-69664411D01*
X103977125Y-69907632D01*
X104183968Y-70114475D01*
X104358360Y-70231000D01*
X104183968Y-70347525D01*
X103977125Y-70554368D01*
X103814610Y-70797589D01*
X103702668Y-71067842D01*
X103645600Y-71354740D01*
X103645600Y-71647260D01*
X103702668Y-71934158D01*
X103814610Y-72204411D01*
X103977125Y-72447632D01*
X104183968Y-72654475D01*
X104358360Y-72771000D01*
X104183968Y-72887525D01*
X103977125Y-73094368D01*
X103814610Y-73337589D01*
X103702668Y-73607842D01*
X103645600Y-73894740D01*
X103645600Y-74187260D01*
X103702668Y-74474158D01*
X103814610Y-74744411D01*
X103977125Y-74987632D01*
X104183968Y-75194475D01*
X104358360Y-75311000D01*
X104183968Y-75427525D01*
X103977125Y-75634368D01*
X103814610Y-75877589D01*
X103702668Y-76147842D01*
X103645600Y-76434740D01*
X103645600Y-76727260D01*
X103702668Y-77014158D01*
X103814610Y-77284411D01*
X103977125Y-77527632D01*
X104183968Y-77734475D01*
X104427189Y-77896990D01*
X104697442Y-78008932D01*
X104984340Y-78066000D01*
X105276860Y-78066000D01*
X105563758Y-78008932D01*
X105834011Y-77896990D01*
X106077232Y-77734475D01*
X106284075Y-77527632D01*
X106400600Y-77353240D01*
X106517125Y-77527632D01*
X106723968Y-77734475D01*
X106967189Y-77896990D01*
X107237442Y-78008932D01*
X107524340Y-78066000D01*
X107816860Y-78066000D01*
X108103758Y-78008932D01*
X108304302Y-77925864D01*
X108305035Y-78945889D01*
X108015583Y-78656437D01*
X107665902Y-78422788D01*
X107277356Y-78261847D01*
X106864879Y-78179800D01*
X106444321Y-78179800D01*
X106031844Y-78261847D01*
X105643298Y-78422788D01*
X105293617Y-78656437D01*
X104996237Y-78953817D01*
X104762588Y-79303498D01*
X104601647Y-79692044D01*
X104519600Y-80104521D01*
X104519600Y-80525079D01*
X104601647Y-80937556D01*
X104762588Y-81326102D01*
X104996237Y-81675783D01*
X105286654Y-81966200D01*
X101653119Y-81966200D01*
X101757932Y-81713158D01*
X101815000Y-81426260D01*
X101815000Y-81133740D01*
X101757932Y-80846842D01*
X101645990Y-80576589D01*
X101483475Y-80333368D01*
X101351620Y-80201513D01*
X101424180Y-80179502D01*
X101534494Y-80120537D01*
X101631185Y-80041185D01*
X101710537Y-79944494D01*
X101769502Y-79834180D01*
X101805812Y-79714482D01*
X101818072Y-79590000D01*
X101818072Y-77890000D01*
X101805812Y-77765518D01*
X101769502Y-77645820D01*
X101710537Y-77535506D01*
X101631185Y-77438815D01*
X101534494Y-77359463D01*
X101424180Y-77300498D01*
X101304482Y-77264188D01*
X101180000Y-77251928D01*
X99480000Y-77251928D01*
X99355518Y-77264188D01*
X99235820Y-77300498D01*
X99125506Y-77359463D01*
X99028815Y-77438815D01*
X98949463Y-77535506D01*
X98890498Y-77645820D01*
X98868487Y-77718380D01*
X98736632Y-77586525D01*
X98493411Y-77424010D01*
X98223158Y-77312068D01*
X97936260Y-77255000D01*
X97643740Y-77255000D01*
X97356842Y-77312068D01*
X97086589Y-77424010D01*
X96843368Y-77586525D01*
X96636525Y-77793368D01*
X96520000Y-77967760D01*
X96403475Y-77793368D01*
X96196632Y-77586525D01*
X95953411Y-77424010D01*
X95683158Y-77312068D01*
X95396260Y-77255000D01*
X95103740Y-77255000D01*
X94816842Y-77312068D01*
X94546589Y-77424010D01*
X94303368Y-77586525D01*
X94096525Y-77793368D01*
X93980000Y-77967760D01*
X93863475Y-77793368D01*
X93656632Y-77586525D01*
X93413411Y-77424010D01*
X93143158Y-77312068D01*
X92856260Y-77255000D01*
X92563740Y-77255000D01*
X92276842Y-77312068D01*
X92006589Y-77424010D01*
X91763368Y-77586525D01*
X91556525Y-77793368D01*
X91440000Y-77967760D01*
X91323475Y-77793368D01*
X91116632Y-77586525D01*
X90873411Y-77424010D01*
X90603158Y-77312068D01*
X90316260Y-77255000D01*
X90023740Y-77255000D01*
X89736842Y-77312068D01*
X89466589Y-77424010D01*
X89223368Y-77586525D01*
X89016525Y-77793368D01*
X88894805Y-77975534D01*
X88825178Y-77858645D01*
X88630269Y-77642412D01*
X88396920Y-77468359D01*
X88134099Y-77343175D01*
X87986890Y-77298524D01*
X87757000Y-77419845D01*
X87757000Y-78613000D01*
X87777000Y-78613000D01*
X87777000Y-78867000D01*
X87757000Y-78867000D01*
X87757000Y-81153000D01*
X87777000Y-81153000D01*
X87777000Y-81407000D01*
X87757000Y-81407000D01*
X87757000Y-81427000D01*
X87503000Y-81427000D01*
X87503000Y-81407000D01*
X87483000Y-81407000D01*
X87483000Y-81153000D01*
X87503000Y-81153000D01*
X87503000Y-78867000D01*
X87483000Y-78867000D01*
X87483000Y-78613000D01*
X87503000Y-78613000D01*
X87503000Y-77419845D01*
X87273110Y-77298524D01*
X87125901Y-77343175D01*
X86863080Y-77468359D01*
X86629731Y-77642412D01*
X86434822Y-77858645D01*
X86365195Y-77975534D01*
X86243475Y-77793368D01*
X86036632Y-77586525D01*
X85947547Y-77527000D01*
X86000000Y-77527000D01*
X86024776Y-77524560D01*
X86048601Y-77517333D01*
X86070557Y-77505597D01*
X86089803Y-77489803D01*
X86105597Y-77470557D01*
X86117333Y-77448601D01*
X86124560Y-77424776D01*
X86127000Y-77400000D01*
X86127000Y-73027000D01*
X89662000Y-73027000D01*
X89686776Y-73024560D01*
X89710601Y-73017333D01*
X89732557Y-73005597D01*
X89751803Y-72989803D01*
X89767597Y-72970557D01*
X89779333Y-72948601D01*
X89786560Y-72924776D01*
X89789000Y-72900000D01*
X89789000Y-71858036D01*
X89791400Y-71858272D01*
X90091400Y-71858272D01*
X90245145Y-71843129D01*
X90392982Y-71798284D01*
X90529229Y-71725458D01*
X90576400Y-71686746D01*
X90623571Y-71725458D01*
X90759818Y-71798284D01*
X90907655Y-71843129D01*
X91061400Y-71858272D01*
X91361400Y-71858272D01*
X91515145Y-71843129D01*
X91625791Y-71809565D01*
X91659811Y-71921712D01*
X91741989Y-72075458D01*
X91852583Y-72210217D01*
X91886356Y-72237934D01*
X93043470Y-73395049D01*
X93071183Y-73428817D01*
X93104951Y-73456530D01*
X93104953Y-73456532D01*
X93205941Y-73539411D01*
X93359686Y-73621589D01*
X93363587Y-73622772D01*
X93299818Y-73642116D01*
X93163571Y-73714942D01*
X93116400Y-73753654D01*
X93069229Y-73714942D01*
X92932982Y-73642116D01*
X92785145Y-73597271D01*
X92631400Y-73582128D01*
X92331400Y-73582128D01*
X92177655Y-73597271D01*
X92029818Y-73642116D01*
X91893571Y-73714942D01*
X91846400Y-73753654D01*
X91799229Y-73714942D01*
X91662982Y-73642116D01*
X91515145Y-73597271D01*
X91361400Y-73582128D01*
X91061400Y-73582128D01*
X90907655Y-73597271D01*
X90759818Y-73642116D01*
X90623571Y-73714942D01*
X90576400Y-73753654D01*
X90529229Y-73714942D01*
X90392982Y-73642116D01*
X90245145Y-73597271D01*
X90091400Y-73582128D01*
X89791400Y-73582128D01*
X89637655Y-73597271D01*
X89489818Y-73642116D01*
X89353571Y-73714942D01*
X89306400Y-73753654D01*
X89259229Y-73714942D01*
X89122982Y-73642116D01*
X88975145Y-73597271D01*
X88821400Y-73582128D01*
X88521400Y-73582128D01*
X88367655Y-73597271D01*
X88219818Y-73642116D01*
X88083571Y-73714942D01*
X88036400Y-73753654D01*
X87989229Y-73714942D01*
X87852982Y-73642116D01*
X87705145Y-73597271D01*
X87551400Y-73582128D01*
X87251400Y-73582128D01*
X87097655Y-73597271D01*
X86949818Y-73642116D01*
X86813571Y-73714942D01*
X86694149Y-73812949D01*
X86596142Y-73932371D01*
X86523316Y-74068618D01*
X86478471Y-74216455D01*
X86463328Y-74370200D01*
X86463328Y-76020200D01*
X86478471Y-76173945D01*
X86523316Y-76321782D01*
X86596142Y-76458029D01*
X86694149Y-76577451D01*
X86813571Y-76675458D01*
X86949818Y-76748284D01*
X87097655Y-76793129D01*
X87251400Y-76808272D01*
X87551400Y-76808272D01*
X87705145Y-76793129D01*
X87852982Y-76748284D01*
X87989229Y-76675458D01*
X88036400Y-76636746D01*
X88083571Y-76675458D01*
X88219818Y-76748284D01*
X88367655Y-76793129D01*
X88521400Y-76808272D01*
X88821400Y-76808272D01*
X88975145Y-76793129D01*
X89122982Y-76748284D01*
X89259229Y-76675458D01*
X89306400Y-76636746D01*
X89353571Y-76675458D01*
X89489818Y-76748284D01*
X89637655Y-76793129D01*
X89791400Y-76808272D01*
X90091400Y-76808272D01*
X90245145Y-76793129D01*
X90392982Y-76748284D01*
X90529229Y-76675458D01*
X90576400Y-76636746D01*
X90623571Y-76675458D01*
X90759818Y-76748284D01*
X90907655Y-76793129D01*
X91061400Y-76808272D01*
X91361400Y-76808272D01*
X91515145Y-76793129D01*
X91662982Y-76748284D01*
X91799229Y-76675458D01*
X91846400Y-76636746D01*
X91893571Y-76675458D01*
X92029818Y-76748284D01*
X92177655Y-76793129D01*
X92331400Y-76808272D01*
X92631400Y-76808272D01*
X92785145Y-76793129D01*
X92932982Y-76748284D01*
X93069229Y-76675458D01*
X93116400Y-76636746D01*
X93163571Y-76675458D01*
X93299818Y-76748284D01*
X93447655Y-76793129D01*
X93601400Y-76808272D01*
X93901400Y-76808272D01*
X94055145Y-76793129D01*
X94202982Y-76748284D01*
X94339229Y-76675458D01*
X94386400Y-76636746D01*
X94433571Y-76675458D01*
X94569818Y-76748284D01*
X94717655Y-76793129D01*
X94871400Y-76808272D01*
X95171400Y-76808272D01*
X95325145Y-76793129D01*
X95472982Y-76748284D01*
X95609229Y-76675458D01*
X95656400Y-76636746D01*
X95703571Y-76675458D01*
X95839818Y-76748284D01*
X95987655Y-76793129D01*
X96141400Y-76808272D01*
X96441400Y-76808272D01*
X96595145Y-76793129D01*
X96742982Y-76748284D01*
X96879229Y-76675458D01*
X96998651Y-76577451D01*
X97096658Y-76458029D01*
X97169484Y-76321782D01*
X97214329Y-76173945D01*
X97229472Y-76020200D01*
X97229472Y-76000418D01*
X97255820Y-76014502D01*
X97375518Y-76050812D01*
X97500000Y-76063072D01*
X97914250Y-76060000D01*
X98073000Y-75901250D01*
X98073000Y-74977000D01*
X98327000Y-74977000D01*
X98327000Y-75901250D01*
X98485750Y-76060000D01*
X98900000Y-76063072D01*
X99024482Y-76050812D01*
X99144180Y-76014502D01*
X99254494Y-75955537D01*
X99351185Y-75876185D01*
X99430537Y-75779494D01*
X99489502Y-75669180D01*
X99525812Y-75549482D01*
X99538072Y-75425000D01*
X99535000Y-75135750D01*
X99376250Y-74977000D01*
X98327000Y-74977000D01*
X98073000Y-74977000D01*
X98053000Y-74977000D01*
X98053000Y-74723000D01*
X98073000Y-74723000D01*
X98073000Y-74703000D01*
X98327000Y-74703000D01*
X98327000Y-74723000D01*
X99376250Y-74723000D01*
X99535000Y-74564250D01*
X99538072Y-74275000D01*
X99525812Y-74150518D01*
X99489502Y-74030820D01*
X99430537Y-73920506D01*
X99351185Y-73823815D01*
X99271406Y-73758342D01*
X99277962Y-73752962D01*
X99388405Y-73618387D01*
X99470472Y-73464851D01*
X99521008Y-73298255D01*
X99538072Y-73125001D01*
X99538072Y-72474999D01*
X99521008Y-72301745D01*
X99470472Y-72135149D01*
X99388405Y-71981613D01*
X99277962Y-71847038D01*
X99143387Y-71736595D01*
X98989851Y-71654528D01*
X98839194Y-71608827D01*
X98828817Y-71596183D01*
X98795044Y-71568466D01*
X98786487Y-71559909D01*
X98787110Y-71537888D01*
X98785000Y-71525453D01*
X98785000Y-63580578D01*
X99274049Y-63091530D01*
X99307817Y-63063817D01*
X99365067Y-62994059D01*
X99418410Y-62929060D01*
X99418411Y-62929059D01*
X99500589Y-62775313D01*
X99551195Y-62608490D01*
X99554683Y-62573072D01*
X100579000Y-62573072D01*
X100703482Y-62560812D01*
X100823180Y-62524502D01*
X100933494Y-62465537D01*
X101030185Y-62386185D01*
X101109537Y-62289494D01*
X101168502Y-62179180D01*
X101204812Y-62059482D01*
X101217072Y-61935000D01*
X101217072Y-59935000D01*
X101204812Y-59810518D01*
X101168502Y-59690820D01*
X101109537Y-59580506D01*
X101030185Y-59483815D01*
X100933494Y-59404463D01*
X100823180Y-59345498D01*
X100703482Y-59309188D01*
X100579000Y-59296928D01*
X99564000Y-59296928D01*
X99564000Y-56908469D01*
X99568281Y-56865000D01*
X99564000Y-56821531D01*
X99564000Y-56257621D01*
X99673180Y-56224502D01*
X99783494Y-56165537D01*
X99829000Y-56128191D01*
X99874506Y-56165537D01*
X99984820Y-56224502D01*
X100104518Y-56260812D01*
X100229000Y-56273072D01*
X100693250Y-56270000D01*
X100852000Y-56111250D01*
X100852000Y-54762000D01*
X101106000Y-54762000D01*
X101106000Y-56111250D01*
X101264750Y-56270000D01*
X101729000Y-56273072D01*
X101853482Y-56260812D01*
X101973180Y-56224502D01*
X102083494Y-56165537D01*
X102180185Y-56086185D01*
X102259537Y-55989494D01*
X102318502Y-55879180D01*
X102354812Y-55759482D01*
X102367072Y-55635000D01*
X102364000Y-54920750D01*
X102205250Y-54762000D01*
X101106000Y-54762000D01*
X100852000Y-54762000D01*
X100832000Y-54762000D01*
X100832000Y-54508000D01*
X100852000Y-54508000D01*
X100852000Y-54488000D01*
X101106000Y-54488000D01*
X101106000Y-54508000D01*
X102205250Y-54508000D01*
X102364000Y-54349250D01*
X102367072Y-53635000D01*
X102354812Y-53510518D01*
X102318502Y-53390820D01*
X102259537Y-53280506D01*
X102180185Y-53183815D01*
X102083494Y-53104463D01*
X101973180Y-53045498D01*
X101876088Y-53016046D01*
X101914502Y-52944180D01*
X101950812Y-52824482D01*
X101963072Y-52700000D01*
X101960000Y-52285750D01*
X101801250Y-52127000D01*
X100877000Y-52127000D01*
X100877000Y-52147000D01*
X100623000Y-52147000D01*
X100623000Y-52127000D01*
X100603000Y-52127000D01*
X100603000Y-51873000D01*
X100623000Y-51873000D01*
X100623000Y-50823750D01*
X100877000Y-50823750D01*
X100877000Y-51873000D01*
X101801250Y-51873000D01*
X101960000Y-51714250D01*
X101963072Y-51300000D01*
X101950812Y-51175518D01*
X101914502Y-51055820D01*
X101855537Y-50945506D01*
X101776185Y-50848815D01*
X101679494Y-50769463D01*
X101569180Y-50710498D01*
X101449482Y-50674188D01*
X101325000Y-50661928D01*
X101035750Y-50665000D01*
X100877000Y-50823750D01*
X100623000Y-50823750D01*
X100464250Y-50665000D01*
X100175000Y-50661928D01*
X100050518Y-50674188D01*
X99930820Y-50710498D01*
X99820506Y-50769463D01*
X99723815Y-50848815D01*
X99658342Y-50928594D01*
X99652962Y-50922038D01*
X99518387Y-50811595D01*
X99364851Y-50729528D01*
X99198255Y-50678992D01*
X99025001Y-50661928D01*
X98374999Y-50661928D01*
X98201745Y-50678992D01*
X98035149Y-50729528D01*
X97881613Y-50811595D01*
X97747038Y-50922038D01*
X97636595Y-51056613D01*
X97595600Y-51133309D01*
X97595600Y-49966854D01*
X97627805Y-49918656D01*
X97705826Y-49730298D01*
X97745600Y-49530339D01*
X97745600Y-49326461D01*
X97705826Y-49126502D01*
X97627805Y-48938144D01*
X97514537Y-48768626D01*
X97370374Y-48624463D01*
X97200856Y-48511195D01*
X97012498Y-48433174D01*
X96812539Y-48393400D01*
X96608661Y-48393400D01*
X96408702Y-48433174D01*
X96220344Y-48511195D01*
X96050826Y-48624463D01*
X95906663Y-48768626D01*
X95793395Y-48938144D01*
X95715374Y-49126502D01*
X95675600Y-49326461D01*
X95675600Y-49530339D01*
X95715374Y-49730298D01*
X95793395Y-49918656D01*
X95825600Y-49966854D01*
X95825601Y-52996928D01*
X95629000Y-52996928D01*
X95504518Y-53009188D01*
X95384820Y-53045498D01*
X95274506Y-53104463D01*
X95177815Y-53183815D01*
X95098463Y-53280506D01*
X95039498Y-53390820D01*
X95003188Y-53510518D01*
X94990928Y-53635000D01*
X94990928Y-54489349D01*
X94103000Y-53601422D01*
X94103000Y-52411614D01*
X94161387Y-52380405D01*
X94295962Y-52269962D01*
X94406405Y-52135387D01*
X94488472Y-51981851D01*
X94539008Y-51815255D01*
X94556072Y-51642001D01*
X94556072Y-50991999D01*
X94539008Y-50818745D01*
X94488472Y-50652149D01*
X94406405Y-50498613D01*
X94295962Y-50364038D01*
X94208184Y-50292000D01*
X94295962Y-50219962D01*
X94406405Y-50085387D01*
X94488472Y-49931851D01*
X94539008Y-49765255D01*
X94556072Y-49592001D01*
X94556072Y-48941999D01*
X94539008Y-48768745D01*
X94488472Y-48602149D01*
X94406405Y-48448613D01*
X94295962Y-48314038D01*
X94161387Y-48203595D01*
X94007851Y-48121528D01*
X93841255Y-48070992D01*
X93668001Y-48053928D01*
X93667200Y-48053928D01*
X93667200Y-47408861D01*
X93720605Y-47343787D01*
X93802672Y-47190251D01*
X93853208Y-47023655D01*
X93870272Y-46850401D01*
X93870272Y-46200399D01*
X93853208Y-46027145D01*
X93802672Y-45860549D01*
X93720605Y-45707013D01*
X93610162Y-45572438D01*
X93603606Y-45567058D01*
X93683385Y-45501585D01*
X93762737Y-45404894D01*
X93821702Y-45294580D01*
X93858012Y-45174882D01*
X93862688Y-45127400D01*
X94553600Y-45127400D01*
X94553600Y-45552400D01*
X94600666Y-45776265D01*
X94690501Y-45986646D01*
X94819653Y-46175459D01*
X94983159Y-46335447D01*
X95174736Y-46460463D01*
X95407790Y-46544364D01*
X95586600Y-46418563D01*
X95586600Y-45127400D01*
X95840600Y-45127400D01*
X95840600Y-46418563D01*
X96019410Y-46544364D01*
X96252464Y-46460463D01*
X96444041Y-46335447D01*
X96607547Y-46175459D01*
X96736699Y-45986646D01*
X96826534Y-45776265D01*
X96873600Y-45552400D01*
X96873600Y-45127400D01*
X101703600Y-45127400D01*
X101703600Y-45552400D01*
X101750666Y-45776265D01*
X101840501Y-45986646D01*
X101969653Y-46175459D01*
X102133159Y-46335447D01*
X102324736Y-46460463D01*
X102557790Y-46544364D01*
X102736600Y-46418563D01*
X102736600Y-45127400D01*
X102990600Y-45127400D01*
X102990600Y-46418563D01*
X103169410Y-46544364D01*
X103402464Y-46460463D01*
X103594041Y-46335447D01*
X103757547Y-46175459D01*
X103886699Y-45986646D01*
X103976534Y-45776265D01*
X104023600Y-45552400D01*
X104023600Y-45127400D01*
X102990600Y-45127400D01*
X102736600Y-45127400D01*
X101703600Y-45127400D01*
X96873600Y-45127400D01*
X95840600Y-45127400D01*
X95586600Y-45127400D01*
X94553600Y-45127400D01*
X93862688Y-45127400D01*
X93870272Y-45050400D01*
X93867200Y-44761150D01*
X93708450Y-44602400D01*
X92659200Y-44602400D01*
X92659200Y-44622400D01*
X92405200Y-44622400D01*
X92405200Y-44602400D01*
X91355950Y-44602400D01*
X91197200Y-44761150D01*
X91194128Y-45050400D01*
X91206388Y-45174882D01*
X91242698Y-45294580D01*
X91301663Y-45404894D01*
X91381015Y-45501585D01*
X91460794Y-45567058D01*
X91454238Y-45572438D01*
X91343795Y-45707013D01*
X91261728Y-45860549D01*
X91211192Y-46027145D01*
X91194128Y-46200399D01*
X91194128Y-46850401D01*
X91211192Y-47023655D01*
X91261728Y-47190251D01*
X91343795Y-47343787D01*
X91397200Y-47408862D01*
X91397201Y-48525439D01*
X91391709Y-48581200D01*
X91413623Y-48803698D01*
X91478524Y-49017646D01*
X91516176Y-49088087D01*
X91583917Y-49214823D01*
X91725752Y-49387649D01*
X91769060Y-49423191D01*
X91879928Y-49534059D01*
X91879928Y-49592001D01*
X91896992Y-49765255D01*
X91947528Y-49931851D01*
X92029595Y-50085387D01*
X92140038Y-50219962D01*
X92227816Y-50292000D01*
X92140038Y-50364038D01*
X92029595Y-50498613D01*
X91947528Y-50652149D01*
X91896992Y-50818745D01*
X91879928Y-50991999D01*
X91879928Y-51134457D01*
X91791243Y-50861817D01*
X91633214Y-50566162D01*
X91317653Y-50410152D01*
X90005605Y-51722200D01*
X91317653Y-53034248D01*
X91633214Y-52878238D01*
X91824020Y-52503455D01*
X91938044Y-52098649D01*
X91947265Y-51980985D01*
X91947528Y-51981851D01*
X92029595Y-52135387D01*
X92140038Y-52269962D01*
X92274613Y-52380405D01*
X92333000Y-52411614D01*
X92333001Y-53924521D01*
X92328719Y-53968000D01*
X92345805Y-54141490D01*
X92396412Y-54308313D01*
X92478590Y-54462059D01*
X92561468Y-54563046D01*
X92561471Y-54563049D01*
X92589184Y-54596817D01*
X92622951Y-54624529D01*
X93865000Y-55866579D01*
X93865000Y-56206531D01*
X93860719Y-56250000D01*
X93865000Y-56293469D01*
X93865000Y-56293477D01*
X93865853Y-56302142D01*
X93859774Y-56296063D01*
X93690256Y-56182795D01*
X93501898Y-56104774D01*
X93301939Y-56065000D01*
X93098061Y-56065000D01*
X92898102Y-56104774D01*
X92709744Y-56182795D01*
X92700661Y-56188864D01*
X92681000Y-56186928D01*
X91121000Y-56186928D01*
X90996518Y-56199188D01*
X90876820Y-56235498D01*
X90766506Y-56294463D01*
X90669815Y-56373815D01*
X90590463Y-56470506D01*
X90551000Y-56544335D01*
X90511537Y-56470506D01*
X90432185Y-56373815D01*
X90335494Y-56294463D01*
X90225180Y-56235498D01*
X90105482Y-56199188D01*
X89981000Y-56186928D01*
X88421000Y-56186928D01*
X88296518Y-56199188D01*
X88176820Y-56235498D01*
X88066506Y-56294463D01*
X87969815Y-56373815D01*
X87953267Y-56393979D01*
X87882013Y-56400997D01*
X87738752Y-56444454D01*
X87606723Y-56515026D01*
X87490998Y-56609999D01*
X87467200Y-56638998D01*
X86941198Y-57165000D01*
X86558577Y-57165000D01*
X85032677Y-55639100D01*
X85170759Y-55546837D01*
X85292694Y-55424902D01*
X85942903Y-55424902D01*
X86014486Y-55668871D01*
X86269996Y-55789771D01*
X86544184Y-55858500D01*
X86826512Y-55872417D01*
X87106130Y-55830987D01*
X87372292Y-55735803D01*
X87497514Y-55668871D01*
X87569097Y-55424902D01*
X86756000Y-54611805D01*
X85942903Y-55424902D01*
X85292694Y-55424902D01*
X85370637Y-55346959D01*
X85504692Y-55146331D01*
X85519329Y-55173714D01*
X85763298Y-55245297D01*
X86576395Y-54432200D01*
X86935605Y-54432200D01*
X87748702Y-55245297D01*
X87992671Y-55173714D01*
X88113571Y-54918204D01*
X88182300Y-54644016D01*
X88196217Y-54361688D01*
X88154787Y-54082070D01*
X88059603Y-53815908D01*
X87992671Y-53690686D01*
X87748702Y-53619103D01*
X86935605Y-54432200D01*
X86576395Y-54432200D01*
X85763298Y-53619103D01*
X85519329Y-53690686D01*
X85505676Y-53719541D01*
X85370637Y-53517441D01*
X85292694Y-53439498D01*
X85942903Y-53439498D01*
X86756000Y-54252595D01*
X87569097Y-53439498D01*
X87502891Y-53213853D01*
X88513952Y-53213853D01*
X88669962Y-53529414D01*
X89044745Y-53720220D01*
X89449551Y-53834244D01*
X89868824Y-53867102D01*
X90286451Y-53817534D01*
X90686383Y-53687443D01*
X90982038Y-53529414D01*
X91138048Y-53213853D01*
X89826000Y-51901805D01*
X88513952Y-53213853D01*
X87502891Y-53213853D01*
X87497514Y-53195529D01*
X87242004Y-53074629D01*
X86967816Y-53005900D01*
X86685488Y-52991983D01*
X86405870Y-53033413D01*
X86139708Y-53128597D01*
X86014486Y-53195529D01*
X85942903Y-53439498D01*
X85292694Y-53439498D01*
X85170759Y-53317563D01*
X84935727Y-53160520D01*
X84674574Y-53052347D01*
X84397335Y-52997200D01*
X84114665Y-52997200D01*
X83837426Y-53052347D01*
X83576273Y-53160520D01*
X83341241Y-53317563D01*
X83256000Y-53402804D01*
X83170759Y-53317563D01*
X82935727Y-53160520D01*
X82674574Y-53052347D01*
X82397335Y-52997200D01*
X82114665Y-52997200D01*
X81837426Y-53052347D01*
X81576273Y-53160520D01*
X81341241Y-53317563D01*
X81174661Y-53484143D01*
X81145502Y-53388020D01*
X81086537Y-53277706D01*
X81007185Y-53181015D01*
X80910494Y-53101663D01*
X80800180Y-53042698D01*
X80680482Y-53006388D01*
X80556000Y-52994128D01*
X78956000Y-52994128D01*
X78831518Y-53006388D01*
X78711820Y-53042698D01*
X78601506Y-53101663D01*
X78504815Y-53181015D01*
X78425463Y-53277706D01*
X78366498Y-53388020D01*
X78330188Y-53507718D01*
X78317928Y-53632200D01*
X78317928Y-55232200D01*
X78330188Y-55356682D01*
X78366498Y-55476380D01*
X78425463Y-55586694D01*
X78504815Y-55683385D01*
X78515001Y-55691744D01*
X78515000Y-56066263D01*
X78447038Y-56122038D01*
X78441658Y-56128594D01*
X78376185Y-56048815D01*
X78279494Y-55969463D01*
X78169180Y-55910498D01*
X78049482Y-55874188D01*
X77925000Y-55861928D01*
X77635750Y-55865000D01*
X77477000Y-56023750D01*
X77477000Y-57073000D01*
X77497000Y-57073000D01*
X77497000Y-57327000D01*
X77477000Y-57327000D01*
X77477000Y-58376250D01*
X77635750Y-58535000D01*
X77925000Y-58538072D01*
X78049482Y-58525812D01*
X78169180Y-58489502D01*
X78279494Y-58430537D01*
X78376185Y-58351185D01*
X78441658Y-58271406D01*
X78447038Y-58277962D01*
X78581613Y-58388405D01*
X78735149Y-58470472D01*
X78901745Y-58521008D01*
X79074999Y-58538072D01*
X79725001Y-58538072D01*
X79898255Y-58521008D01*
X80064851Y-58470472D01*
X80218387Y-58388405D01*
X80352962Y-58277962D01*
X80440457Y-58171349D01*
X80498102Y-58195226D01*
X80698061Y-58235000D01*
X80901939Y-58235000D01*
X81101898Y-58195226D01*
X81290256Y-58117205D01*
X81459774Y-58003937D01*
X81603937Y-57859774D01*
X81717205Y-57690256D01*
X81795226Y-57501898D01*
X81835000Y-57301939D01*
X81835000Y-57098061D01*
X81795226Y-56898102D01*
X81717205Y-56709744D01*
X81603937Y-56540226D01*
X81459774Y-56396063D01*
X81290256Y-56282795D01*
X81101898Y-56204774D01*
X80901939Y-56165000D01*
X80698061Y-56165000D01*
X80498102Y-56204774D01*
X80440457Y-56228651D01*
X80352962Y-56122038D01*
X80285000Y-56066263D01*
X80285000Y-55870272D01*
X80556000Y-55870272D01*
X80680482Y-55858012D01*
X80800180Y-55821702D01*
X80910494Y-55762737D01*
X81007185Y-55683385D01*
X81086537Y-55586694D01*
X81145502Y-55476380D01*
X81174661Y-55380257D01*
X81341241Y-55546837D01*
X81576273Y-55703880D01*
X81837426Y-55812053D01*
X82114665Y-55867200D01*
X82397335Y-55867200D01*
X82579886Y-55830888D01*
X83497510Y-56748512D01*
X83497515Y-56748516D01*
X85535000Y-58786002D01*
X85558799Y-58815001D01*
X85674524Y-58909974D01*
X85806553Y-58980546D01*
X85949814Y-59024003D01*
X86061467Y-59035000D01*
X86061476Y-59035000D01*
X86098799Y-59038676D01*
X86136122Y-59035000D01*
X86941198Y-59035000D01*
X87467200Y-59561002D01*
X87490998Y-59590001D01*
X87519996Y-59613799D01*
X87606723Y-59684974D01*
X87738752Y-59755546D01*
X87882013Y-59799003D01*
X87953267Y-59806021D01*
X87969815Y-59826185D01*
X88066506Y-59905537D01*
X88176820Y-59964502D01*
X88296518Y-60000812D01*
X88421000Y-60013072D01*
X88582963Y-60013072D01*
X88572038Y-60022038D01*
X88517857Y-60088057D01*
X88401939Y-60065000D01*
X88198061Y-60065000D01*
X87998102Y-60104774D01*
X87809744Y-60182795D01*
X87640226Y-60296063D01*
X87496063Y-60440226D01*
X87382795Y-60609744D01*
X87304774Y-60798102D01*
X87265000Y-60998061D01*
X87265000Y-61201939D01*
X87304774Y-61401898D01*
X87382795Y-61590256D01*
X87496063Y-61759774D01*
X87640226Y-61903937D01*
X87809744Y-62017205D01*
X87998102Y-62095226D01*
X88198061Y-62135000D01*
X88401939Y-62135000D01*
X88517857Y-62111943D01*
X88572038Y-62177962D01*
X88706613Y-62288405D01*
X88860149Y-62370472D01*
X89026745Y-62421008D01*
X89199999Y-62438072D01*
X89850001Y-62438072D01*
X90023255Y-62421008D01*
X90189851Y-62370472D01*
X90343387Y-62288405D01*
X90477962Y-62177962D01*
X90550000Y-62090184D01*
X90622038Y-62177962D01*
X90756613Y-62288405D01*
X90910149Y-62370472D01*
X91076745Y-62421008D01*
X91249999Y-62438072D01*
X91900001Y-62438072D01*
X92073255Y-62421008D01*
X92239851Y-62370472D01*
X92393387Y-62288405D01*
X92527962Y-62177962D01*
X92638405Y-62043387D01*
X92720472Y-61889851D01*
X92771008Y-61723255D01*
X92788072Y-61550001D01*
X92788072Y-60649999D01*
X92771008Y-60476745D01*
X92720472Y-60310149D01*
X92638405Y-60156613D01*
X92527962Y-60022038D01*
X92517037Y-60013072D01*
X92681000Y-60013072D01*
X92805482Y-60000812D01*
X92925180Y-59964502D01*
X93035494Y-59905537D01*
X93121444Y-59835000D01*
X93946289Y-59835000D01*
X93965226Y-59853937D01*
X94134744Y-59967205D01*
X94323102Y-60045226D01*
X94523061Y-60085000D01*
X94726939Y-60085000D01*
X94926898Y-60045226D01*
X95115256Y-59967205D01*
X95284774Y-59853937D01*
X95428937Y-59709774D01*
X95542205Y-59540256D01*
X95620226Y-59351898D01*
X95660000Y-59151939D01*
X95660000Y-58948061D01*
X95620226Y-58748102D01*
X95542205Y-58559744D01*
X95428937Y-58390226D01*
X95284774Y-58246063D01*
X95115256Y-58132795D01*
X94926898Y-58054774D01*
X94726939Y-58015000D01*
X94523061Y-58015000D01*
X94323102Y-58054774D01*
X94134744Y-58132795D01*
X93965226Y-58246063D01*
X93946289Y-58265000D01*
X93319072Y-58265000D01*
X93319072Y-58131592D01*
X93501898Y-58095226D01*
X93690256Y-58017205D01*
X93859774Y-57903937D01*
X94003937Y-57759774D01*
X94117205Y-57590256D01*
X94195226Y-57401898D01*
X94235000Y-57201939D01*
X94235000Y-56998061D01*
X94232149Y-56983727D01*
X94343466Y-57095044D01*
X94371183Y-57128817D01*
X94505941Y-57239411D01*
X94659687Y-57321589D01*
X94826510Y-57372195D01*
X94956523Y-57385000D01*
X94956533Y-57385000D01*
X94999999Y-57389281D01*
X95043465Y-57385000D01*
X97794000Y-57385000D01*
X97794001Y-58901014D01*
X97794001Y-59296928D01*
X96779000Y-59296928D01*
X96654518Y-59309188D01*
X96534820Y-59345498D01*
X96424506Y-59404463D01*
X96327815Y-59483815D01*
X96248463Y-59580506D01*
X96189498Y-59690820D01*
X96153188Y-59810518D01*
X96140928Y-59935000D01*
X96140928Y-61935000D01*
X96153188Y-62059482D01*
X96189498Y-62179180D01*
X96248463Y-62289494D01*
X96327815Y-62386185D01*
X96424506Y-62465537D01*
X96534820Y-62524502D01*
X96654518Y-62560812D01*
X96779000Y-62573072D01*
X97285940Y-62573072D01*
X97271183Y-62585183D01*
X97160589Y-62719942D01*
X97078411Y-62873688D01*
X97027805Y-63040511D01*
X97015000Y-63170524D01*
X97015000Y-63170531D01*
X97010719Y-63214000D01*
X97010817Y-63215000D01*
X87606957Y-63215000D01*
X84303803Y-59911846D01*
X84302808Y-59901745D01*
X84252272Y-59735149D01*
X84170205Y-59581613D01*
X84059762Y-59447038D01*
X83925187Y-59336595D01*
X83771651Y-59254528D01*
X83605055Y-59203992D01*
X83431801Y-59186928D01*
X82531799Y-59186928D01*
X82358545Y-59203992D01*
X82191949Y-59254528D01*
X82038413Y-59336595D01*
X81903838Y-59447038D01*
X81793395Y-59581613D01*
X81775549Y-59615000D01*
X81724251Y-59615000D01*
X81706405Y-59581613D01*
X81595962Y-59447038D01*
X81461387Y-59336595D01*
X81307851Y-59254528D01*
X81141255Y-59203992D01*
X80968001Y-59186928D01*
X80067999Y-59186928D01*
X79894745Y-59203992D01*
X79728149Y-59254528D01*
X79574613Y-59336595D01*
X79440038Y-59447038D01*
X79329595Y-59581613D01*
X79247528Y-59735149D01*
X79196992Y-59901745D01*
X79179928Y-60074999D01*
X79179928Y-60725001D01*
X79196992Y-60898255D01*
X79247528Y-61064851D01*
X79329595Y-61218387D01*
X79440038Y-61352962D01*
X79527816Y-61425000D01*
X79440038Y-61497038D01*
X79329595Y-61631613D01*
X79247528Y-61785149D01*
X79196992Y-61951745D01*
X79179928Y-62124999D01*
X79179928Y-62775001D01*
X79196992Y-62948255D01*
X79247528Y-63114851D01*
X79329595Y-63268387D01*
X79440038Y-63402962D01*
X79518816Y-63467614D01*
X79422038Y-63547038D01*
X79311595Y-63681613D01*
X79229528Y-63835149D01*
X79178992Y-64001745D01*
X79161928Y-64174999D01*
X79161928Y-64825001D01*
X79178992Y-64998255D01*
X79229528Y-65164851D01*
X79311595Y-65318387D01*
X79422038Y-65452962D01*
X79509816Y-65525000D01*
X79422038Y-65597038D01*
X79311595Y-65731613D01*
X79293749Y-65765000D01*
X75118956Y-65765000D01*
X75080400Y-65761203D01*
X75041844Y-65765000D01*
X75041839Y-65765000D01*
X75001426Y-65768980D01*
X74926513Y-65776358D01*
X74778540Y-65821246D01*
X74642167Y-65894138D01*
X74581959Y-65943550D01*
X74552587Y-65967655D01*
X74552584Y-65967658D01*
X74522636Y-65992236D01*
X74498058Y-66022184D01*
X74154400Y-66365842D01*
X74154400Y-66274740D01*
X74097332Y-65987842D01*
X73985390Y-65717589D01*
X73822875Y-65474368D01*
X73616032Y-65267525D01*
X73441640Y-65151000D01*
X73616032Y-65034475D01*
X73822875Y-64827632D01*
X73985390Y-64584411D01*
X74097332Y-64314158D01*
X74154400Y-64027260D01*
X74154400Y-63734740D01*
X74097332Y-63447842D01*
X73985390Y-63177589D01*
X73822875Y-62934368D01*
X73616032Y-62727525D01*
X73441640Y-62611000D01*
X73616032Y-62494475D01*
X73822875Y-62287632D01*
X73985390Y-62044411D01*
X74097332Y-61774158D01*
X74154400Y-61487260D01*
X74154400Y-61194740D01*
X74097332Y-60907842D01*
X74044084Y-60779290D01*
X74094085Y-60774365D01*
X74232633Y-60732337D01*
X74360320Y-60664087D01*
X74472238Y-60572238D01*
X74495258Y-60544188D01*
X74944192Y-60095254D01*
X74972238Y-60072238D01*
X75064087Y-59960320D01*
X75132337Y-59832633D01*
X75174365Y-59694085D01*
X75185000Y-59586105D01*
X75188556Y-59550000D01*
X75185000Y-59513895D01*
X75185000Y-57900000D01*
X76136928Y-57900000D01*
X76149188Y-58024482D01*
X76185498Y-58144180D01*
X76244463Y-58254494D01*
X76323815Y-58351185D01*
X76420506Y-58430537D01*
X76530820Y-58489502D01*
X76650518Y-58525812D01*
X76775000Y-58538072D01*
X77064250Y-58535000D01*
X77223000Y-58376250D01*
X77223000Y-57327000D01*
X76298750Y-57327000D01*
X76140000Y-57485750D01*
X76136928Y-57900000D01*
X75185000Y-57900000D01*
X75185000Y-56500000D01*
X76136928Y-56500000D01*
X76140000Y-56914250D01*
X76298750Y-57073000D01*
X77223000Y-57073000D01*
X77223000Y-56023750D01*
X77064250Y-55865000D01*
X76775000Y-55861928D01*
X76650518Y-55874188D01*
X76530820Y-55910498D01*
X76420506Y-55969463D01*
X76323815Y-56048815D01*
X76244463Y-56145506D01*
X76185498Y-56255820D01*
X76149188Y-56375518D01*
X76136928Y-56500000D01*
X75185000Y-56500000D01*
X75185000Y-53254286D01*
X75259261Y-53328547D01*
X75373953Y-53213855D01*
X75529962Y-53529414D01*
X75904745Y-53720220D01*
X76309551Y-53834244D01*
X76728824Y-53867102D01*
X77146451Y-53817534D01*
X77546383Y-53687443D01*
X77842038Y-53529414D01*
X77998048Y-53213853D01*
X76686000Y-51901805D01*
X76671858Y-51915948D01*
X76492253Y-51736343D01*
X76506395Y-51722200D01*
X76865605Y-51722200D01*
X78177653Y-53034248D01*
X78493214Y-52878238D01*
X78684020Y-52503455D01*
X78798044Y-52098649D01*
X78824189Y-51765024D01*
X87681098Y-51765024D01*
X87730666Y-52182651D01*
X87860757Y-52582583D01*
X88018786Y-52878238D01*
X88334347Y-53034248D01*
X89646395Y-51722200D01*
X88334347Y-50410152D01*
X88018786Y-50566162D01*
X87827980Y-50940945D01*
X87713956Y-51345751D01*
X87681098Y-51765024D01*
X78824189Y-51765024D01*
X78830902Y-51679376D01*
X78781334Y-51261749D01*
X78651243Y-50861817D01*
X78493214Y-50566162D01*
X78177653Y-50410152D01*
X76865605Y-51722200D01*
X76506395Y-51722200D01*
X76492253Y-51708058D01*
X76671858Y-51528453D01*
X76686000Y-51542595D01*
X77998048Y-50230547D01*
X88513952Y-50230547D01*
X89826000Y-51542595D01*
X91138048Y-50230547D01*
X90982038Y-49914986D01*
X90607255Y-49724180D01*
X90202449Y-49610156D01*
X89783176Y-49577298D01*
X89365549Y-49626866D01*
X88965617Y-49756957D01*
X88669962Y-49914986D01*
X88513952Y-50230547D01*
X77998048Y-50230547D01*
X77842038Y-49914986D01*
X77467255Y-49724180D01*
X77062449Y-49610156D01*
X76643176Y-49577298D01*
X76225549Y-49626866D01*
X75825617Y-49756957D01*
X75529962Y-49914986D01*
X75373953Y-50230545D01*
X75259261Y-50115853D01*
X75185000Y-50190114D01*
X75185000Y-49354446D01*
X75539446Y-49000000D01*
X78761928Y-49000000D01*
X78774188Y-49124482D01*
X78810498Y-49244180D01*
X78869463Y-49354494D01*
X78948815Y-49451185D01*
X79045506Y-49530537D01*
X79155820Y-49589502D01*
X79275518Y-49625812D01*
X79400000Y-49638072D01*
X79964250Y-49635000D01*
X80123000Y-49476250D01*
X80123000Y-48627000D01*
X80377000Y-48627000D01*
X80377000Y-49476250D01*
X80535750Y-49635000D01*
X81100000Y-49638072D01*
X81224482Y-49625812D01*
X81344180Y-49589502D01*
X81454494Y-49530537D01*
X81551185Y-49451185D01*
X81630537Y-49354494D01*
X81689502Y-49244180D01*
X81725812Y-49124482D01*
X81738072Y-49000000D01*
X85061928Y-49000000D01*
X85074188Y-49124482D01*
X85110498Y-49244180D01*
X85169463Y-49354494D01*
X85248815Y-49451185D01*
X85345506Y-49530537D01*
X85455820Y-49589502D01*
X85575518Y-49625812D01*
X85700000Y-49638072D01*
X86264250Y-49635000D01*
X86423000Y-49476250D01*
X86423000Y-48627000D01*
X86677000Y-48627000D01*
X86677000Y-49476250D01*
X86835750Y-49635000D01*
X87400000Y-49638072D01*
X87524482Y-49625812D01*
X87644180Y-49589502D01*
X87754494Y-49530537D01*
X87851185Y-49451185D01*
X87930537Y-49354494D01*
X87989502Y-49244180D01*
X88025812Y-49124482D01*
X88038072Y-49000000D01*
X88035000Y-48785750D01*
X87876250Y-48627000D01*
X86677000Y-48627000D01*
X86423000Y-48627000D01*
X85223750Y-48627000D01*
X85065000Y-48785750D01*
X85061928Y-49000000D01*
X81738072Y-49000000D01*
X81735000Y-48785750D01*
X81576250Y-48627000D01*
X80377000Y-48627000D01*
X80123000Y-48627000D01*
X78923750Y-48627000D01*
X78765000Y-48785750D01*
X78761928Y-49000000D01*
X75539446Y-49000000D01*
X76399609Y-48139838D01*
X76410149Y-48145472D01*
X76576745Y-48196008D01*
X76749999Y-48213072D01*
X77650001Y-48213072D01*
X77823255Y-48196008D01*
X77989851Y-48145472D01*
X78143387Y-48063405D01*
X78277962Y-47952962D01*
X78333737Y-47885000D01*
X78773254Y-47885000D01*
X78761928Y-48000000D01*
X78765000Y-48214250D01*
X78923750Y-48373000D01*
X80123000Y-48373000D01*
X80123000Y-47523750D01*
X80377000Y-47523750D01*
X80377000Y-48373000D01*
X81576250Y-48373000D01*
X81735000Y-48214250D01*
X81738072Y-48000000D01*
X85061928Y-48000000D01*
X85065000Y-48214250D01*
X85223750Y-48373000D01*
X86423000Y-48373000D01*
X86423000Y-47523750D01*
X86677000Y-47523750D01*
X86677000Y-48373000D01*
X87876250Y-48373000D01*
X88035000Y-48214250D01*
X88038072Y-48000000D01*
X88025812Y-47875518D01*
X87989502Y-47755820D01*
X87930537Y-47645506D01*
X87851185Y-47548815D01*
X87754494Y-47469463D01*
X87644180Y-47410498D01*
X87524482Y-47374188D01*
X87400000Y-47361928D01*
X86835750Y-47365000D01*
X86677000Y-47523750D01*
X86423000Y-47523750D01*
X86264250Y-47365000D01*
X85700000Y-47361928D01*
X85575518Y-47374188D01*
X85455820Y-47410498D01*
X85345506Y-47469463D01*
X85248815Y-47548815D01*
X85169463Y-47645506D01*
X85110498Y-47755820D01*
X85074188Y-47875518D01*
X85061928Y-48000000D01*
X81738072Y-48000000D01*
X81725812Y-47875518D01*
X81689502Y-47755820D01*
X81630537Y-47645506D01*
X81551185Y-47548815D01*
X81454494Y-47469463D01*
X81344180Y-47410498D01*
X81224482Y-47374188D01*
X81100000Y-47361928D01*
X80535750Y-47365000D01*
X80377000Y-47523750D01*
X80123000Y-47523750D01*
X79964250Y-47365000D01*
X79837270Y-47364309D01*
X80845049Y-46356530D01*
X80878817Y-46328817D01*
X80928579Y-46268183D01*
X80989411Y-46194059D01*
X81071589Y-46040314D01*
X81122195Y-45873490D01*
X81122814Y-45867205D01*
X81125935Y-45835518D01*
X81224482Y-45825812D01*
X81344180Y-45789502D01*
X81454494Y-45730537D01*
X81551185Y-45651185D01*
X81605501Y-45585000D01*
X85194499Y-45585000D01*
X85248815Y-45651185D01*
X85345506Y-45730537D01*
X85455820Y-45789502D01*
X85575518Y-45825812D01*
X85700000Y-45838072D01*
X87400000Y-45838072D01*
X87524482Y-45825812D01*
X87644180Y-45789502D01*
X87754494Y-45730537D01*
X87851185Y-45651185D01*
X87930537Y-45554494D01*
X87989502Y-45444180D01*
X88025812Y-45324482D01*
X88038072Y-45200000D01*
X88038072Y-44448400D01*
X94553600Y-44448400D01*
X94553600Y-44873400D01*
X95586600Y-44873400D01*
X95586600Y-43582237D01*
X95840600Y-43582237D01*
X95840600Y-44873400D01*
X96873600Y-44873400D01*
X96873600Y-44448400D01*
X101703600Y-44448400D01*
X101703600Y-44873400D01*
X102736600Y-44873400D01*
X102736600Y-43582237D01*
X102990600Y-43582237D01*
X102990600Y-44873400D01*
X104023600Y-44873400D01*
X104023600Y-44448400D01*
X103976534Y-44224535D01*
X103886699Y-44014154D01*
X103757547Y-43825341D01*
X103594041Y-43665353D01*
X103402464Y-43540337D01*
X103169410Y-43456436D01*
X102990600Y-43582237D01*
X102736600Y-43582237D01*
X102557790Y-43456436D01*
X102324736Y-43540337D01*
X102133159Y-43665353D01*
X101969653Y-43825341D01*
X101840501Y-44014154D01*
X101750666Y-44224535D01*
X101703600Y-44448400D01*
X96873600Y-44448400D01*
X96826534Y-44224535D01*
X96736699Y-44014154D01*
X96607547Y-43825341D01*
X96444041Y-43665353D01*
X96252464Y-43540337D01*
X96019410Y-43456436D01*
X95840600Y-43582237D01*
X95586600Y-43582237D01*
X95407790Y-43456436D01*
X95174736Y-43540337D01*
X94983159Y-43665353D01*
X94819653Y-43825341D01*
X94690501Y-44014154D01*
X94600666Y-44224535D01*
X94553600Y-44448400D01*
X88038072Y-44448400D01*
X88038072Y-44200000D01*
X88025812Y-44075518D01*
X87989502Y-43955820D01*
X87930537Y-43845506D01*
X87851185Y-43748815D01*
X87754494Y-43669463D01*
X87644180Y-43610498D01*
X87524482Y-43574188D01*
X87400000Y-43561928D01*
X85700000Y-43561928D01*
X85575518Y-43574188D01*
X85455820Y-43610498D01*
X85345506Y-43669463D01*
X85248815Y-43748815D01*
X85194499Y-43815000D01*
X81605501Y-43815000D01*
X81551185Y-43748815D01*
X81454494Y-43669463D01*
X81344180Y-43610498D01*
X81224482Y-43574188D01*
X81100000Y-43561928D01*
X79400000Y-43561928D01*
X79275518Y-43574188D01*
X79155820Y-43610498D01*
X79045506Y-43669463D01*
X78948815Y-43748815D01*
X78869463Y-43845506D01*
X78810498Y-43955820D01*
X78774188Y-44075518D01*
X78761928Y-44200000D01*
X78761928Y-45200000D01*
X78774188Y-45324482D01*
X78810498Y-45444180D01*
X78869463Y-45554494D01*
X78948815Y-45651185D01*
X79002873Y-45695549D01*
X78583422Y-46115000D01*
X78333737Y-46115000D01*
X78277962Y-46047038D01*
X78190184Y-45975000D01*
X78277962Y-45902962D01*
X78388405Y-45768387D01*
X78470472Y-45614851D01*
X78521008Y-45448255D01*
X78538072Y-45275001D01*
X78538072Y-44624999D01*
X78521008Y-44451745D01*
X78470472Y-44285149D01*
X78388405Y-44131613D01*
X78277962Y-43997038D01*
X78143387Y-43886595D01*
X77989851Y-43804528D01*
X77823255Y-43753992D01*
X77650001Y-43736928D01*
X76749999Y-43736928D01*
X76576745Y-43753992D01*
X76410149Y-43804528D01*
X76256613Y-43886595D01*
X76149507Y-43974495D01*
X76101898Y-43954774D01*
X75901939Y-43915000D01*
X75698061Y-43915000D01*
X75498102Y-43954774D01*
X75309744Y-44032795D01*
X75140226Y-44146063D01*
X74996063Y-44290226D01*
X74882795Y-44459744D01*
X74804774Y-44648102D01*
X74765000Y-44848061D01*
X74765000Y-45051939D01*
X74804774Y-45251898D01*
X74882795Y-45440256D01*
X74996063Y-45609774D01*
X75140226Y-45753937D01*
X75309744Y-45867205D01*
X75498102Y-45945226D01*
X75698061Y-45985000D01*
X75901939Y-45985000D01*
X76101898Y-45945226D01*
X76149507Y-45925505D01*
X76209816Y-45975000D01*
X76122038Y-46047038D01*
X76011595Y-46181613D01*
X75929528Y-46335149D01*
X75878992Y-46501745D01*
X75870272Y-46590281D01*
X74123111Y-48337443D01*
X74097332Y-48207842D01*
X73985390Y-47937589D01*
X73822875Y-47694368D01*
X73616032Y-47487525D01*
X73372811Y-47325010D01*
X73102558Y-47213068D01*
X72815660Y-47156000D01*
X72523140Y-47156000D01*
X72236242Y-47213068D01*
X71965989Y-47325010D01*
X71722768Y-47487525D01*
X71590913Y-47619380D01*
X71568902Y-47546820D01*
X71509937Y-47436506D01*
X71430585Y-47339815D01*
X71333894Y-47260463D01*
X71223580Y-47201498D01*
X71103882Y-47165188D01*
X70979400Y-47152928D01*
X69621000Y-47152928D01*
X69621000Y-46300546D01*
X69886017Y-46565563D01*
X70235698Y-46799212D01*
X70624244Y-46960153D01*
X71036721Y-47042200D01*
X71457279Y-47042200D01*
X71869756Y-46960153D01*
X72258302Y-46799212D01*
X72607983Y-46565563D01*
X72905363Y-46268183D01*
X73139012Y-45918502D01*
X73299953Y-45529956D01*
X73382000Y-45117479D01*
X73382000Y-44696921D01*
X73299953Y-44284444D01*
X73139012Y-43895898D01*
X72905363Y-43546217D01*
X72640374Y-43281228D01*
X91684752Y-43281555D01*
G37*
X91684752Y-43281555D02*
X91588020Y-43310898D01*
X91477706Y-43369863D01*
X91381015Y-43449215D01*
X91301663Y-43545906D01*
X91242698Y-43656220D01*
X91206388Y-43775918D01*
X91194128Y-43900400D01*
X91197200Y-44189650D01*
X91355950Y-44348400D01*
X92405200Y-44348400D01*
X92405200Y-44328400D01*
X92659200Y-44328400D01*
X92659200Y-44348400D01*
X93708450Y-44348400D01*
X93867200Y-44189650D01*
X93870272Y-43900400D01*
X93858012Y-43775918D01*
X93821702Y-43656220D01*
X93762737Y-43545906D01*
X93683385Y-43449215D01*
X93586694Y-43369863D01*
X93476380Y-43310898D01*
X93379744Y-43281584D01*
X105260666Y-43281788D01*
X104996237Y-43546217D01*
X104762588Y-43895898D01*
X104601647Y-44284444D01*
X104519600Y-44696921D01*
X104519600Y-45117479D01*
X104601647Y-45529956D01*
X104762588Y-45918502D01*
X104996237Y-46268183D01*
X105293617Y-46565563D01*
X105643298Y-46799212D01*
X106031844Y-46960153D01*
X106444321Y-47042200D01*
X106864879Y-47042200D01*
X107277356Y-46960153D01*
X107665902Y-46799212D01*
X108015583Y-46565563D01*
X108281582Y-46299564D01*
X108282291Y-47287019D01*
X108103758Y-47213068D01*
X107816860Y-47156000D01*
X107524340Y-47156000D01*
X107237442Y-47213068D01*
X106967189Y-47325010D01*
X106723968Y-47487525D01*
X106592113Y-47619380D01*
X106570102Y-47546820D01*
X106511137Y-47436506D01*
X106431785Y-47339815D01*
X106335094Y-47260463D01*
X106224780Y-47201498D01*
X106105082Y-47165188D01*
X105980600Y-47152928D01*
X104280600Y-47152928D01*
X104156118Y-47165188D01*
X104036420Y-47201498D01*
X103926106Y-47260463D01*
X103829415Y-47339815D01*
X103750063Y-47436506D01*
X103691098Y-47546820D01*
X103654788Y-47666518D01*
X103642528Y-47791000D01*
X103642528Y-49491000D01*
X103654788Y-49615482D01*
X103691098Y-49735180D01*
X103750063Y-49845494D01*
X103829415Y-49942185D01*
X103926106Y-50021537D01*
X104036420Y-50080502D01*
X104108980Y-50102513D01*
X103977125Y-50234368D01*
X103814610Y-50477589D01*
X103702668Y-50747842D01*
X103645600Y-51034740D01*
X103645600Y-51327260D01*
X103702668Y-51614158D01*
X103814610Y-51884411D01*
X103977125Y-52127632D01*
X104183968Y-52334475D01*
X104358360Y-52451000D01*
X104183968Y-52567525D01*
X103977125Y-52774368D01*
X103814610Y-53017589D01*
X103702668Y-53287842D01*
X103645600Y-53574740D01*
X103645600Y-53867260D01*
X103702668Y-54154158D01*
X103814610Y-54424411D01*
X103977125Y-54667632D01*
X104183968Y-54874475D01*
X104358360Y-54991000D01*
X104183968Y-55107525D01*
X103977125Y-55314368D01*
X103814610Y-55557589D01*
X103702668Y-55827842D01*
X103645600Y-56114740D01*
X103645600Y-56407260D01*
X103702668Y-56694158D01*
X103814610Y-56964411D01*
X103977125Y-57207632D01*
X104183968Y-57414475D01*
X104366134Y-57536195D01*
X104249245Y-57605822D01*
X104033012Y-57800731D01*
X103858959Y-58034080D01*
X103733775Y-58296901D01*
X103689124Y-58444110D01*
X103810445Y-58674000D01*
X105003600Y-58674000D01*
X105003600Y-58654000D01*
X105257600Y-58654000D01*
X105257600Y-58674000D01*
X105277600Y-58674000D01*
X105277600Y-58928000D01*
X105257600Y-58928000D01*
X105257600Y-58948000D01*
X105003600Y-58948000D01*
X105003600Y-58928000D01*
X103810445Y-58928000D01*
X103689124Y-59157890D01*
X103733775Y-59305099D01*
X103858959Y-59567920D01*
X104033012Y-59801269D01*
X104249245Y-59996178D01*
X104366134Y-60065805D01*
X104183968Y-60187525D01*
X103977125Y-60394368D01*
X103814610Y-60637589D01*
X103702668Y-60907842D01*
X103645600Y-61194740D01*
X103645600Y-61487260D01*
X103702668Y-61774158D01*
X103814610Y-62044411D01*
X103977125Y-62287632D01*
X104183968Y-62494475D01*
X104358360Y-62611000D01*
X104183968Y-62727525D01*
X103977125Y-62934368D01*
X103814610Y-63177589D01*
X103702668Y-63447842D01*
X103645600Y-63734740D01*
X103645600Y-64027260D01*
X103702668Y-64314158D01*
X103814610Y-64584411D01*
X103977125Y-64827632D01*
X104183968Y-65034475D01*
X104358360Y-65151000D01*
X104183968Y-65267525D01*
X103977125Y-65474368D01*
X103814610Y-65717589D01*
X103702668Y-65987842D01*
X103645600Y-66274740D01*
X103645600Y-66567260D01*
X103702668Y-66854158D01*
X103814610Y-67124411D01*
X103977125Y-67367632D01*
X104183968Y-67574475D01*
X104358360Y-67691000D01*
X104183968Y-67807525D01*
X103977125Y-68014368D01*
X103814610Y-68257589D01*
X103702668Y-68527842D01*
X103645600Y-68814740D01*
X103645600Y-69107260D01*
X103702668Y-69394158D01*
X103814610Y-69664411D01*
X103977125Y-69907632D01*
X104183968Y-70114475D01*
X104358360Y-70231000D01*
X104183968Y-70347525D01*
X103977125Y-70554368D01*
X103814610Y-70797589D01*
X103702668Y-71067842D01*
X103645600Y-71354740D01*
X103645600Y-71647260D01*
X103702668Y-71934158D01*
X103814610Y-72204411D01*
X103977125Y-72447632D01*
X104183968Y-72654475D01*
X104358360Y-72771000D01*
X104183968Y-72887525D01*
X103977125Y-73094368D01*
X103814610Y-73337589D01*
X103702668Y-73607842D01*
X103645600Y-73894740D01*
X103645600Y-74187260D01*
X103702668Y-74474158D01*
X103814610Y-74744411D01*
X103977125Y-74987632D01*
X104183968Y-75194475D01*
X104358360Y-75311000D01*
X104183968Y-75427525D01*
X103977125Y-75634368D01*
X103814610Y-75877589D01*
X103702668Y-76147842D01*
X103645600Y-76434740D01*
X103645600Y-76727260D01*
X103702668Y-77014158D01*
X103814610Y-77284411D01*
X103977125Y-77527632D01*
X104183968Y-77734475D01*
X104427189Y-77896990D01*
X104697442Y-78008932D01*
X104984340Y-78066000D01*
X105276860Y-78066000D01*
X105563758Y-78008932D01*
X105834011Y-77896990D01*
X106077232Y-77734475D01*
X106284075Y-77527632D01*
X106400600Y-77353240D01*
X106517125Y-77527632D01*
X106723968Y-77734475D01*
X106967189Y-77896990D01*
X107237442Y-78008932D01*
X107524340Y-78066000D01*
X107816860Y-78066000D01*
X108103758Y-78008932D01*
X108304302Y-77925864D01*
X108305035Y-78945889D01*
X108015583Y-78656437D01*
X107665902Y-78422788D01*
X107277356Y-78261847D01*
X106864879Y-78179800D01*
X106444321Y-78179800D01*
X106031844Y-78261847D01*
X105643298Y-78422788D01*
X105293617Y-78656437D01*
X104996237Y-78953817D01*
X104762588Y-79303498D01*
X104601647Y-79692044D01*
X104519600Y-80104521D01*
X104519600Y-80525079D01*
X104601647Y-80937556D01*
X104762588Y-81326102D01*
X104996237Y-81675783D01*
X105286654Y-81966200D01*
X101653119Y-81966200D01*
X101757932Y-81713158D01*
X101815000Y-81426260D01*
X101815000Y-81133740D01*
X101757932Y-80846842D01*
X101645990Y-80576589D01*
X101483475Y-80333368D01*
X101351620Y-80201513D01*
X101424180Y-80179502D01*
X101534494Y-80120537D01*
X101631185Y-80041185D01*
X101710537Y-79944494D01*
X101769502Y-79834180D01*
X101805812Y-79714482D01*
X101818072Y-79590000D01*
X101818072Y-77890000D01*
X101805812Y-77765518D01*
X101769502Y-77645820D01*
X101710537Y-77535506D01*
X101631185Y-77438815D01*
X101534494Y-77359463D01*
X101424180Y-77300498D01*
X101304482Y-77264188D01*
X101180000Y-77251928D01*
X99480000Y-77251928D01*
X99355518Y-77264188D01*
X99235820Y-77300498D01*
X99125506Y-77359463D01*
X99028815Y-77438815D01*
X98949463Y-77535506D01*
X98890498Y-77645820D01*
X98868487Y-77718380D01*
X98736632Y-77586525D01*
X98493411Y-77424010D01*
X98223158Y-77312068D01*
X97936260Y-77255000D01*
X97643740Y-77255000D01*
X97356842Y-77312068D01*
X97086589Y-77424010D01*
X96843368Y-77586525D01*
X96636525Y-77793368D01*
X96520000Y-77967760D01*
X96403475Y-77793368D01*
X96196632Y-77586525D01*
X95953411Y-77424010D01*
X95683158Y-77312068D01*
X95396260Y-77255000D01*
X95103740Y-77255000D01*
X94816842Y-77312068D01*
X94546589Y-77424010D01*
X94303368Y-77586525D01*
X94096525Y-77793368D01*
X93980000Y-77967760D01*
X93863475Y-77793368D01*
X93656632Y-77586525D01*
X93413411Y-77424010D01*
X93143158Y-77312068D01*
X92856260Y-77255000D01*
X92563740Y-77255000D01*
X92276842Y-77312068D01*
X92006589Y-77424010D01*
X91763368Y-77586525D01*
X91556525Y-77793368D01*
X91440000Y-77967760D01*
X91323475Y-77793368D01*
X91116632Y-77586525D01*
X90873411Y-77424010D01*
X90603158Y-77312068D01*
X90316260Y-77255000D01*
X90023740Y-77255000D01*
X89736842Y-77312068D01*
X89466589Y-77424010D01*
X89223368Y-77586525D01*
X89016525Y-77793368D01*
X88894805Y-77975534D01*
X88825178Y-77858645D01*
X88630269Y-77642412D01*
X88396920Y-77468359D01*
X88134099Y-77343175D01*
X87986890Y-77298524D01*
X87757000Y-77419845D01*
X87757000Y-78613000D01*
X87777000Y-78613000D01*
X87777000Y-78867000D01*
X87757000Y-78867000D01*
X87757000Y-81153000D01*
X87777000Y-81153000D01*
X87777000Y-81407000D01*
X87757000Y-81407000D01*
X87757000Y-81427000D01*
X87503000Y-81427000D01*
X87503000Y-81407000D01*
X87483000Y-81407000D01*
X87483000Y-81153000D01*
X87503000Y-81153000D01*
X87503000Y-78867000D01*
X87483000Y-78867000D01*
X87483000Y-78613000D01*
X87503000Y-78613000D01*
X87503000Y-77419845D01*
X87273110Y-77298524D01*
X87125901Y-77343175D01*
X86863080Y-77468359D01*
X86629731Y-77642412D01*
X86434822Y-77858645D01*
X86365195Y-77975534D01*
X86243475Y-77793368D01*
X86036632Y-77586525D01*
X85947547Y-77527000D01*
X86000000Y-77527000D01*
X86024776Y-77524560D01*
X86048601Y-77517333D01*
X86070557Y-77505597D01*
X86089803Y-77489803D01*
X86105597Y-77470557D01*
X86117333Y-77448601D01*
X86124560Y-77424776D01*
X86127000Y-77400000D01*
X86127000Y-73027000D01*
X89662000Y-73027000D01*
X89686776Y-73024560D01*
X89710601Y-73017333D01*
X89732557Y-73005597D01*
X89751803Y-72989803D01*
X89767597Y-72970557D01*
X89779333Y-72948601D01*
X89786560Y-72924776D01*
X89789000Y-72900000D01*
X89789000Y-71858036D01*
X89791400Y-71858272D01*
X90091400Y-71858272D01*
X90245145Y-71843129D01*
X90392982Y-71798284D01*
X90529229Y-71725458D01*
X90576400Y-71686746D01*
X90623571Y-71725458D01*
X90759818Y-71798284D01*
X90907655Y-71843129D01*
X91061400Y-71858272D01*
X91361400Y-71858272D01*
X91515145Y-71843129D01*
X91625791Y-71809565D01*
X91659811Y-71921712D01*
X91741989Y-72075458D01*
X91852583Y-72210217D01*
X91886356Y-72237934D01*
X93043470Y-73395049D01*
X93071183Y-73428817D01*
X93104951Y-73456530D01*
X93104953Y-73456532D01*
X93205941Y-73539411D01*
X93359686Y-73621589D01*
X93363587Y-73622772D01*
X93299818Y-73642116D01*
X93163571Y-73714942D01*
X93116400Y-73753654D01*
X93069229Y-73714942D01*
X92932982Y-73642116D01*
X92785145Y-73597271D01*
X92631400Y-73582128D01*
X92331400Y-73582128D01*
X92177655Y-73597271D01*
X92029818Y-73642116D01*
X91893571Y-73714942D01*
X91846400Y-73753654D01*
X91799229Y-73714942D01*
X91662982Y-73642116D01*
X91515145Y-73597271D01*
X91361400Y-73582128D01*
X91061400Y-73582128D01*
X90907655Y-73597271D01*
X90759818Y-73642116D01*
X90623571Y-73714942D01*
X90576400Y-73753654D01*
X90529229Y-73714942D01*
X90392982Y-73642116D01*
X90245145Y-73597271D01*
X90091400Y-73582128D01*
X89791400Y-73582128D01*
X89637655Y-73597271D01*
X89489818Y-73642116D01*
X89353571Y-73714942D01*
X89306400Y-73753654D01*
X89259229Y-73714942D01*
X89122982Y-73642116D01*
X88975145Y-73597271D01*
X88821400Y-73582128D01*
X88521400Y-73582128D01*
X88367655Y-73597271D01*
X88219818Y-73642116D01*
X88083571Y-73714942D01*
X88036400Y-73753654D01*
X87989229Y-73714942D01*
X87852982Y-73642116D01*
X87705145Y-73597271D01*
X87551400Y-73582128D01*
X87251400Y-73582128D01*
X87097655Y-73597271D01*
X86949818Y-73642116D01*
X86813571Y-73714942D01*
X86694149Y-73812949D01*
X86596142Y-73932371D01*
X86523316Y-74068618D01*
X86478471Y-74216455D01*
X86463328Y-74370200D01*
X86463328Y-76020200D01*
X86478471Y-76173945D01*
X86523316Y-76321782D01*
X86596142Y-76458029D01*
X86694149Y-76577451D01*
X86813571Y-76675458D01*
X86949818Y-76748284D01*
X87097655Y-76793129D01*
X87251400Y-76808272D01*
X87551400Y-76808272D01*
X87705145Y-76793129D01*
X87852982Y-76748284D01*
X87989229Y-76675458D01*
X88036400Y-76636746D01*
X88083571Y-76675458D01*
X88219818Y-76748284D01*
X88367655Y-76793129D01*
X88521400Y-76808272D01*
X88821400Y-76808272D01*
X88975145Y-76793129D01*
X89122982Y-76748284D01*
X89259229Y-76675458D01*
X89306400Y-76636746D01*
X89353571Y-76675458D01*
X89489818Y-76748284D01*
X89637655Y-76793129D01*
X89791400Y-76808272D01*
X90091400Y-76808272D01*
X90245145Y-76793129D01*
X90392982Y-76748284D01*
X90529229Y-76675458D01*
X90576400Y-76636746D01*
X90623571Y-76675458D01*
X90759818Y-76748284D01*
X90907655Y-76793129D01*
X91061400Y-76808272D01*
X91361400Y-76808272D01*
X91515145Y-76793129D01*
X91662982Y-76748284D01*
X91799229Y-76675458D01*
X91846400Y-76636746D01*
X91893571Y-76675458D01*
X92029818Y-76748284D01*
X92177655Y-76793129D01*
X92331400Y-76808272D01*
X92631400Y-76808272D01*
X92785145Y-76793129D01*
X92932982Y-76748284D01*
X93069229Y-76675458D01*
X93116400Y-76636746D01*
X93163571Y-76675458D01*
X93299818Y-76748284D01*
X93447655Y-76793129D01*
X93601400Y-76808272D01*
X93901400Y-76808272D01*
X94055145Y-76793129D01*
X94202982Y-76748284D01*
X94339229Y-76675458D01*
X94386400Y-76636746D01*
X94433571Y-76675458D01*
X94569818Y-76748284D01*
X94717655Y-76793129D01*
X94871400Y-76808272D01*
X95171400Y-76808272D01*
X95325145Y-76793129D01*
X95472982Y-76748284D01*
X95609229Y-76675458D01*
X95656400Y-76636746D01*
X95703571Y-76675458D01*
X95839818Y-76748284D01*
X95987655Y-76793129D01*
X96141400Y-76808272D01*
X96441400Y-76808272D01*
X96595145Y-76793129D01*
X96742982Y-76748284D01*
X96879229Y-76675458D01*
X96998651Y-76577451D01*
X97096658Y-76458029D01*
X97169484Y-76321782D01*
X97214329Y-76173945D01*
X97229472Y-76020200D01*
X97229472Y-76000418D01*
X97255820Y-76014502D01*
X97375518Y-76050812D01*
X97500000Y-76063072D01*
X97914250Y-76060000D01*
X98073000Y-75901250D01*
X98073000Y-74977000D01*
X98327000Y-74977000D01*
X98327000Y-75901250D01*
X98485750Y-76060000D01*
X98900000Y-76063072D01*
X99024482Y-76050812D01*
X99144180Y-76014502D01*
X99254494Y-75955537D01*
X99351185Y-75876185D01*
X99430537Y-75779494D01*
X99489502Y-75669180D01*
X99525812Y-75549482D01*
X99538072Y-75425000D01*
X99535000Y-75135750D01*
X99376250Y-74977000D01*
X98327000Y-74977000D01*
X98073000Y-74977000D01*
X98053000Y-74977000D01*
X98053000Y-74723000D01*
X98073000Y-74723000D01*
X98073000Y-74703000D01*
X98327000Y-74703000D01*
X98327000Y-74723000D01*
X99376250Y-74723000D01*
X99535000Y-74564250D01*
X99538072Y-74275000D01*
X99525812Y-74150518D01*
X99489502Y-74030820D01*
X99430537Y-73920506D01*
X99351185Y-73823815D01*
X99271406Y-73758342D01*
X99277962Y-73752962D01*
X99388405Y-73618387D01*
X99470472Y-73464851D01*
X99521008Y-73298255D01*
X99538072Y-73125001D01*
X99538072Y-72474999D01*
X99521008Y-72301745D01*
X99470472Y-72135149D01*
X99388405Y-71981613D01*
X99277962Y-71847038D01*
X99143387Y-71736595D01*
X98989851Y-71654528D01*
X98839194Y-71608827D01*
X98828817Y-71596183D01*
X98795044Y-71568466D01*
X98786487Y-71559909D01*
X98787110Y-71537888D01*
X98785000Y-71525453D01*
X98785000Y-63580578D01*
X99274049Y-63091530D01*
X99307817Y-63063817D01*
X99365067Y-62994059D01*
X99418410Y-62929060D01*
X99418411Y-62929059D01*
X99500589Y-62775313D01*
X99551195Y-62608490D01*
X99554683Y-62573072D01*
X100579000Y-62573072D01*
X100703482Y-62560812D01*
X100823180Y-62524502D01*
X100933494Y-62465537D01*
X101030185Y-62386185D01*
X101109537Y-62289494D01*
X101168502Y-62179180D01*
X101204812Y-62059482D01*
X101217072Y-61935000D01*
X101217072Y-59935000D01*
X101204812Y-59810518D01*
X101168502Y-59690820D01*
X101109537Y-59580506D01*
X101030185Y-59483815D01*
X100933494Y-59404463D01*
X100823180Y-59345498D01*
X100703482Y-59309188D01*
X100579000Y-59296928D01*
X99564000Y-59296928D01*
X99564000Y-56908469D01*
X99568281Y-56865000D01*
X99564000Y-56821531D01*
X99564000Y-56257621D01*
X99673180Y-56224502D01*
X99783494Y-56165537D01*
X99829000Y-56128191D01*
X99874506Y-56165537D01*
X99984820Y-56224502D01*
X100104518Y-56260812D01*
X100229000Y-56273072D01*
X100693250Y-56270000D01*
X100852000Y-56111250D01*
X100852000Y-54762000D01*
X101106000Y-54762000D01*
X101106000Y-56111250D01*
X101264750Y-56270000D01*
X101729000Y-56273072D01*
X101853482Y-56260812D01*
X101973180Y-56224502D01*
X102083494Y-56165537D01*
X102180185Y-56086185D01*
X102259537Y-55989494D01*
X102318502Y-55879180D01*
X102354812Y-55759482D01*
X102367072Y-55635000D01*
X102364000Y-54920750D01*
X102205250Y-54762000D01*
X101106000Y-54762000D01*
X100852000Y-54762000D01*
X100832000Y-54762000D01*
X100832000Y-54508000D01*
X100852000Y-54508000D01*
X100852000Y-54488000D01*
X101106000Y-54488000D01*
X101106000Y-54508000D01*
X102205250Y-54508000D01*
X102364000Y-54349250D01*
X102367072Y-53635000D01*
X102354812Y-53510518D01*
X102318502Y-53390820D01*
X102259537Y-53280506D01*
X102180185Y-53183815D01*
X102083494Y-53104463D01*
X101973180Y-53045498D01*
X101876088Y-53016046D01*
X101914502Y-52944180D01*
X101950812Y-52824482D01*
X101963072Y-52700000D01*
X101960000Y-52285750D01*
X101801250Y-52127000D01*
X100877000Y-52127000D01*
X100877000Y-52147000D01*
X100623000Y-52147000D01*
X100623000Y-52127000D01*
X100603000Y-52127000D01*
X100603000Y-51873000D01*
X100623000Y-51873000D01*
X100623000Y-50823750D01*
X100877000Y-50823750D01*
X100877000Y-51873000D01*
X101801250Y-51873000D01*
X101960000Y-51714250D01*
X101963072Y-51300000D01*
X101950812Y-51175518D01*
X101914502Y-51055820D01*
X101855537Y-50945506D01*
X101776185Y-50848815D01*
X101679494Y-50769463D01*
X101569180Y-50710498D01*
X101449482Y-50674188D01*
X101325000Y-50661928D01*
X101035750Y-50665000D01*
X100877000Y-50823750D01*
X100623000Y-50823750D01*
X100464250Y-50665000D01*
X100175000Y-50661928D01*
X100050518Y-50674188D01*
X99930820Y-50710498D01*
X99820506Y-50769463D01*
X99723815Y-50848815D01*
X99658342Y-50928594D01*
X99652962Y-50922038D01*
X99518387Y-50811595D01*
X99364851Y-50729528D01*
X99198255Y-50678992D01*
X99025001Y-50661928D01*
X98374999Y-50661928D01*
X98201745Y-50678992D01*
X98035149Y-50729528D01*
X97881613Y-50811595D01*
X97747038Y-50922038D01*
X97636595Y-51056613D01*
X97595600Y-51133309D01*
X97595600Y-49966854D01*
X97627805Y-49918656D01*
X97705826Y-49730298D01*
X97745600Y-49530339D01*
X97745600Y-49326461D01*
X97705826Y-49126502D01*
X97627805Y-48938144D01*
X97514537Y-48768626D01*
X97370374Y-48624463D01*
X97200856Y-48511195D01*
X97012498Y-48433174D01*
X96812539Y-48393400D01*
X96608661Y-48393400D01*
X96408702Y-48433174D01*
X96220344Y-48511195D01*
X96050826Y-48624463D01*
X95906663Y-48768626D01*
X95793395Y-48938144D01*
X95715374Y-49126502D01*
X95675600Y-49326461D01*
X95675600Y-49530339D01*
X95715374Y-49730298D01*
X95793395Y-49918656D01*
X95825600Y-49966854D01*
X95825601Y-52996928D01*
X95629000Y-52996928D01*
X95504518Y-53009188D01*
X95384820Y-53045498D01*
X95274506Y-53104463D01*
X95177815Y-53183815D01*
X95098463Y-53280506D01*
X95039498Y-53390820D01*
X95003188Y-53510518D01*
X94990928Y-53635000D01*
X94990928Y-54489349D01*
X94103000Y-53601422D01*
X94103000Y-52411614D01*
X94161387Y-52380405D01*
X94295962Y-52269962D01*
X94406405Y-52135387D01*
X94488472Y-51981851D01*
X94539008Y-51815255D01*
X94556072Y-51642001D01*
X94556072Y-50991999D01*
X94539008Y-50818745D01*
X94488472Y-50652149D01*
X94406405Y-50498613D01*
X94295962Y-50364038D01*
X94208184Y-50292000D01*
X94295962Y-50219962D01*
X94406405Y-50085387D01*
X94488472Y-49931851D01*
X94539008Y-49765255D01*
X94556072Y-49592001D01*
X94556072Y-48941999D01*
X94539008Y-48768745D01*
X94488472Y-48602149D01*
X94406405Y-48448613D01*
X94295962Y-48314038D01*
X94161387Y-48203595D01*
X94007851Y-48121528D01*
X93841255Y-48070992D01*
X93668001Y-48053928D01*
X93667200Y-48053928D01*
X93667200Y-47408861D01*
X93720605Y-47343787D01*
X93802672Y-47190251D01*
X93853208Y-47023655D01*
X93870272Y-46850401D01*
X93870272Y-46200399D01*
X93853208Y-46027145D01*
X93802672Y-45860549D01*
X93720605Y-45707013D01*
X93610162Y-45572438D01*
X93603606Y-45567058D01*
X93683385Y-45501585D01*
X93762737Y-45404894D01*
X93821702Y-45294580D01*
X93858012Y-45174882D01*
X93862688Y-45127400D01*
X94553600Y-45127400D01*
X94553600Y-45552400D01*
X94600666Y-45776265D01*
X94690501Y-45986646D01*
X94819653Y-46175459D01*
X94983159Y-46335447D01*
X95174736Y-46460463D01*
X95407790Y-46544364D01*
X95586600Y-46418563D01*
X95586600Y-45127400D01*
X95840600Y-45127400D01*
X95840600Y-46418563D01*
X96019410Y-46544364D01*
X96252464Y-46460463D01*
X96444041Y-46335447D01*
X96607547Y-46175459D01*
X96736699Y-45986646D01*
X96826534Y-45776265D01*
X96873600Y-45552400D01*
X96873600Y-45127400D01*
X101703600Y-45127400D01*
X101703600Y-45552400D01*
X101750666Y-45776265D01*
X101840501Y-45986646D01*
X101969653Y-46175459D01*
X102133159Y-46335447D01*
X102324736Y-46460463D01*
X102557790Y-46544364D01*
X102736600Y-46418563D01*
X102736600Y-45127400D01*
X102990600Y-45127400D01*
X102990600Y-46418563D01*
X103169410Y-46544364D01*
X103402464Y-46460463D01*
X103594041Y-46335447D01*
X103757547Y-46175459D01*
X103886699Y-45986646D01*
X103976534Y-45776265D01*
X104023600Y-45552400D01*
X104023600Y-45127400D01*
X102990600Y-45127400D01*
X102736600Y-45127400D01*
X101703600Y-45127400D01*
X96873600Y-45127400D01*
X95840600Y-45127400D01*
X95586600Y-45127400D01*
X94553600Y-45127400D01*
X93862688Y-45127400D01*
X93870272Y-45050400D01*
X93867200Y-44761150D01*
X93708450Y-44602400D01*
X92659200Y-44602400D01*
X92659200Y-44622400D01*
X92405200Y-44622400D01*
X92405200Y-44602400D01*
X91355950Y-44602400D01*
X91197200Y-44761150D01*
X91194128Y-45050400D01*
X91206388Y-45174882D01*
X91242698Y-45294580D01*
X91301663Y-45404894D01*
X91381015Y-45501585D01*
X91460794Y-45567058D01*
X91454238Y-45572438D01*
X91343795Y-45707013D01*
X91261728Y-45860549D01*
X91211192Y-46027145D01*
X91194128Y-46200399D01*
X91194128Y-46850401D01*
X91211192Y-47023655D01*
X91261728Y-47190251D01*
X91343795Y-47343787D01*
X91397200Y-47408862D01*
X91397201Y-48525439D01*
X91391709Y-48581200D01*
X91413623Y-48803698D01*
X91478524Y-49017646D01*
X91516176Y-49088087D01*
X91583917Y-49214823D01*
X91725752Y-49387649D01*
X91769060Y-49423191D01*
X91879928Y-49534059D01*
X91879928Y-49592001D01*
X91896992Y-49765255D01*
X91947528Y-49931851D01*
X92029595Y-50085387D01*
X92140038Y-50219962D01*
X92227816Y-50292000D01*
X92140038Y-50364038D01*
X92029595Y-50498613D01*
X91947528Y-50652149D01*
X91896992Y-50818745D01*
X91879928Y-50991999D01*
X91879928Y-51134457D01*
X91791243Y-50861817D01*
X91633214Y-50566162D01*
X91317653Y-50410152D01*
X90005605Y-51722200D01*
X91317653Y-53034248D01*
X91633214Y-52878238D01*
X91824020Y-52503455D01*
X91938044Y-52098649D01*
X91947265Y-51980985D01*
X91947528Y-51981851D01*
X92029595Y-52135387D01*
X92140038Y-52269962D01*
X92274613Y-52380405D01*
X92333000Y-52411614D01*
X92333001Y-53924521D01*
X92328719Y-53968000D01*
X92345805Y-54141490D01*
X92396412Y-54308313D01*
X92478590Y-54462059D01*
X92561468Y-54563046D01*
X92561471Y-54563049D01*
X92589184Y-54596817D01*
X92622951Y-54624529D01*
X93865000Y-55866579D01*
X93865000Y-56206531D01*
X93860719Y-56250000D01*
X93865000Y-56293469D01*
X93865000Y-56293477D01*
X93865853Y-56302142D01*
X93859774Y-56296063D01*
X93690256Y-56182795D01*
X93501898Y-56104774D01*
X93301939Y-56065000D01*
X93098061Y-56065000D01*
X92898102Y-56104774D01*
X92709744Y-56182795D01*
X92700661Y-56188864D01*
X92681000Y-56186928D01*
X91121000Y-56186928D01*
X90996518Y-56199188D01*
X90876820Y-56235498D01*
X90766506Y-56294463D01*
X90669815Y-56373815D01*
X90590463Y-56470506D01*
X90551000Y-56544335D01*
X90511537Y-56470506D01*
X90432185Y-56373815D01*
X90335494Y-56294463D01*
X90225180Y-56235498D01*
X90105482Y-56199188D01*
X89981000Y-56186928D01*
X88421000Y-56186928D01*
X88296518Y-56199188D01*
X88176820Y-56235498D01*
X88066506Y-56294463D01*
X87969815Y-56373815D01*
X87953267Y-56393979D01*
X87882013Y-56400997D01*
X87738752Y-56444454D01*
X87606723Y-56515026D01*
X87490998Y-56609999D01*
X87467200Y-56638998D01*
X86941198Y-57165000D01*
X86558577Y-57165000D01*
X85032677Y-55639100D01*
X85170759Y-55546837D01*
X85292694Y-55424902D01*
X85942903Y-55424902D01*
X86014486Y-55668871D01*
X86269996Y-55789771D01*
X86544184Y-55858500D01*
X86826512Y-55872417D01*
X87106130Y-55830987D01*
X87372292Y-55735803D01*
X87497514Y-55668871D01*
X87569097Y-55424902D01*
X86756000Y-54611805D01*
X85942903Y-55424902D01*
X85292694Y-55424902D01*
X85370637Y-55346959D01*
X85504692Y-55146331D01*
X85519329Y-55173714D01*
X85763298Y-55245297D01*
X86576395Y-54432200D01*
X86935605Y-54432200D01*
X87748702Y-55245297D01*
X87992671Y-55173714D01*
X88113571Y-54918204D01*
X88182300Y-54644016D01*
X88196217Y-54361688D01*
X88154787Y-54082070D01*
X88059603Y-53815908D01*
X87992671Y-53690686D01*
X87748702Y-53619103D01*
X86935605Y-54432200D01*
X86576395Y-54432200D01*
X85763298Y-53619103D01*
X85519329Y-53690686D01*
X85505676Y-53719541D01*
X85370637Y-53517441D01*
X85292694Y-53439498D01*
X85942903Y-53439498D01*
X86756000Y-54252595D01*
X87569097Y-53439498D01*
X87502891Y-53213853D01*
X88513952Y-53213853D01*
X88669962Y-53529414D01*
X89044745Y-53720220D01*
X89449551Y-53834244D01*
X89868824Y-53867102D01*
X90286451Y-53817534D01*
X90686383Y-53687443D01*
X90982038Y-53529414D01*
X91138048Y-53213853D01*
X89826000Y-51901805D01*
X88513952Y-53213853D01*
X87502891Y-53213853D01*
X87497514Y-53195529D01*
X87242004Y-53074629D01*
X86967816Y-53005900D01*
X86685488Y-52991983D01*
X86405870Y-53033413D01*
X86139708Y-53128597D01*
X86014486Y-53195529D01*
X85942903Y-53439498D01*
X85292694Y-53439498D01*
X85170759Y-53317563D01*
X84935727Y-53160520D01*
X84674574Y-53052347D01*
X84397335Y-52997200D01*
X84114665Y-52997200D01*
X83837426Y-53052347D01*
X83576273Y-53160520D01*
X83341241Y-53317563D01*
X83256000Y-53402804D01*
X83170759Y-53317563D01*
X82935727Y-53160520D01*
X82674574Y-53052347D01*
X82397335Y-52997200D01*
X82114665Y-52997200D01*
X81837426Y-53052347D01*
X81576273Y-53160520D01*
X81341241Y-53317563D01*
X81174661Y-53484143D01*
X81145502Y-53388020D01*
X81086537Y-53277706D01*
X81007185Y-53181015D01*
X80910494Y-53101663D01*
X80800180Y-53042698D01*
X80680482Y-53006388D01*
X80556000Y-52994128D01*
X78956000Y-52994128D01*
X78831518Y-53006388D01*
X78711820Y-53042698D01*
X78601506Y-53101663D01*
X78504815Y-53181015D01*
X78425463Y-53277706D01*
X78366498Y-53388020D01*
X78330188Y-53507718D01*
X78317928Y-53632200D01*
X78317928Y-55232200D01*
X78330188Y-55356682D01*
X78366498Y-55476380D01*
X78425463Y-55586694D01*
X78504815Y-55683385D01*
X78515001Y-55691744D01*
X78515000Y-56066263D01*
X78447038Y-56122038D01*
X78441658Y-56128594D01*
X78376185Y-56048815D01*
X78279494Y-55969463D01*
X78169180Y-55910498D01*
X78049482Y-55874188D01*
X77925000Y-55861928D01*
X77635750Y-55865000D01*
X77477000Y-56023750D01*
X77477000Y-57073000D01*
X77497000Y-57073000D01*
X77497000Y-57327000D01*
X77477000Y-57327000D01*
X77477000Y-58376250D01*
X77635750Y-58535000D01*
X77925000Y-58538072D01*
X78049482Y-58525812D01*
X78169180Y-58489502D01*
X78279494Y-58430537D01*
X78376185Y-58351185D01*
X78441658Y-58271406D01*
X78447038Y-58277962D01*
X78581613Y-58388405D01*
X78735149Y-58470472D01*
X78901745Y-58521008D01*
X79074999Y-58538072D01*
X79725001Y-58538072D01*
X79898255Y-58521008D01*
X80064851Y-58470472D01*
X80218387Y-58388405D01*
X80352962Y-58277962D01*
X80440457Y-58171349D01*
X80498102Y-58195226D01*
X80698061Y-58235000D01*
X80901939Y-58235000D01*
X81101898Y-58195226D01*
X81290256Y-58117205D01*
X81459774Y-58003937D01*
X81603937Y-57859774D01*
X81717205Y-57690256D01*
X81795226Y-57501898D01*
X81835000Y-57301939D01*
X81835000Y-57098061D01*
X81795226Y-56898102D01*
X81717205Y-56709744D01*
X81603937Y-56540226D01*
X81459774Y-56396063D01*
X81290256Y-56282795D01*
X81101898Y-56204774D01*
X80901939Y-56165000D01*
X80698061Y-56165000D01*
X80498102Y-56204774D01*
X80440457Y-56228651D01*
X80352962Y-56122038D01*
X80285000Y-56066263D01*
X80285000Y-55870272D01*
X80556000Y-55870272D01*
X80680482Y-55858012D01*
X80800180Y-55821702D01*
X80910494Y-55762737D01*
X81007185Y-55683385D01*
X81086537Y-55586694D01*
X81145502Y-55476380D01*
X81174661Y-55380257D01*
X81341241Y-55546837D01*
X81576273Y-55703880D01*
X81837426Y-55812053D01*
X82114665Y-55867200D01*
X82397335Y-55867200D01*
X82579886Y-55830888D01*
X83497510Y-56748512D01*
X83497515Y-56748516D01*
X85535000Y-58786002D01*
X85558799Y-58815001D01*
X85674524Y-58909974D01*
X85806553Y-58980546D01*
X85949814Y-59024003D01*
X86061467Y-59035000D01*
X86061476Y-59035000D01*
X86098799Y-59038676D01*
X86136122Y-59035000D01*
X86941198Y-59035000D01*
X87467200Y-59561002D01*
X87490998Y-59590001D01*
X87519996Y-59613799D01*
X87606723Y-59684974D01*
X87738752Y-59755546D01*
X87882013Y-59799003D01*
X87953267Y-59806021D01*
X87969815Y-59826185D01*
X88066506Y-59905537D01*
X88176820Y-59964502D01*
X88296518Y-60000812D01*
X88421000Y-60013072D01*
X88582963Y-60013072D01*
X88572038Y-60022038D01*
X88517857Y-60088057D01*
X88401939Y-60065000D01*
X88198061Y-60065000D01*
X87998102Y-60104774D01*
X87809744Y-60182795D01*
X87640226Y-60296063D01*
X87496063Y-60440226D01*
X87382795Y-60609744D01*
X87304774Y-60798102D01*
X87265000Y-60998061D01*
X87265000Y-61201939D01*
X87304774Y-61401898D01*
X87382795Y-61590256D01*
X87496063Y-61759774D01*
X87640226Y-61903937D01*
X87809744Y-62017205D01*
X87998102Y-62095226D01*
X88198061Y-62135000D01*
X88401939Y-62135000D01*
X88517857Y-62111943D01*
X88572038Y-62177962D01*
X88706613Y-62288405D01*
X88860149Y-62370472D01*
X89026745Y-62421008D01*
X89199999Y-62438072D01*
X89850001Y-62438072D01*
X90023255Y-62421008D01*
X90189851Y-62370472D01*
X90343387Y-62288405D01*
X90477962Y-62177962D01*
X90550000Y-62090184D01*
X90622038Y-62177962D01*
X90756613Y-62288405D01*
X90910149Y-62370472D01*
X91076745Y-62421008D01*
X91249999Y-62438072D01*
X91900001Y-62438072D01*
X92073255Y-62421008D01*
X92239851Y-62370472D01*
X92393387Y-62288405D01*
X92527962Y-62177962D01*
X92638405Y-62043387D01*
X92720472Y-61889851D01*
X92771008Y-61723255D01*
X92788072Y-61550001D01*
X92788072Y-60649999D01*
X92771008Y-60476745D01*
X92720472Y-60310149D01*
X92638405Y-60156613D01*
X92527962Y-60022038D01*
X92517037Y-60013072D01*
X92681000Y-60013072D01*
X92805482Y-60000812D01*
X92925180Y-59964502D01*
X93035494Y-59905537D01*
X93121444Y-59835000D01*
X93946289Y-59835000D01*
X93965226Y-59853937D01*
X94134744Y-59967205D01*
X94323102Y-60045226D01*
X94523061Y-60085000D01*
X94726939Y-60085000D01*
X94926898Y-60045226D01*
X95115256Y-59967205D01*
X95284774Y-59853937D01*
X95428937Y-59709774D01*
X95542205Y-59540256D01*
X95620226Y-59351898D01*
X95660000Y-59151939D01*
X95660000Y-58948061D01*
X95620226Y-58748102D01*
X95542205Y-58559744D01*
X95428937Y-58390226D01*
X95284774Y-58246063D01*
X95115256Y-58132795D01*
X94926898Y-58054774D01*
X94726939Y-58015000D01*
X94523061Y-58015000D01*
X94323102Y-58054774D01*
X94134744Y-58132795D01*
X93965226Y-58246063D01*
X93946289Y-58265000D01*
X93319072Y-58265000D01*
X93319072Y-58131592D01*
X93501898Y-58095226D01*
X93690256Y-58017205D01*
X93859774Y-57903937D01*
X94003937Y-57759774D01*
X94117205Y-57590256D01*
X94195226Y-57401898D01*
X94235000Y-57201939D01*
X94235000Y-56998061D01*
X94232149Y-56983727D01*
X94343466Y-57095044D01*
X94371183Y-57128817D01*
X94505941Y-57239411D01*
X94659687Y-57321589D01*
X94826510Y-57372195D01*
X94956523Y-57385000D01*
X94956533Y-57385000D01*
X94999999Y-57389281D01*
X95043465Y-57385000D01*
X97794000Y-57385000D01*
X97794001Y-58901014D01*
X97794001Y-59296928D01*
X96779000Y-59296928D01*
X96654518Y-59309188D01*
X96534820Y-59345498D01*
X96424506Y-59404463D01*
X96327815Y-59483815D01*
X96248463Y-59580506D01*
X96189498Y-59690820D01*
X96153188Y-59810518D01*
X96140928Y-59935000D01*
X96140928Y-61935000D01*
X96153188Y-62059482D01*
X96189498Y-62179180D01*
X96248463Y-62289494D01*
X96327815Y-62386185D01*
X96424506Y-62465537D01*
X96534820Y-62524502D01*
X96654518Y-62560812D01*
X96779000Y-62573072D01*
X97285940Y-62573072D01*
X97271183Y-62585183D01*
X97160589Y-62719942D01*
X97078411Y-62873688D01*
X97027805Y-63040511D01*
X97015000Y-63170524D01*
X97015000Y-63170531D01*
X97010719Y-63214000D01*
X97010817Y-63215000D01*
X87606957Y-63215000D01*
X84303803Y-59911846D01*
X84302808Y-59901745D01*
X84252272Y-59735149D01*
X84170205Y-59581613D01*
X84059762Y-59447038D01*
X83925187Y-59336595D01*
X83771651Y-59254528D01*
X83605055Y-59203992D01*
X83431801Y-59186928D01*
X82531799Y-59186928D01*
X82358545Y-59203992D01*
X82191949Y-59254528D01*
X82038413Y-59336595D01*
X81903838Y-59447038D01*
X81793395Y-59581613D01*
X81775549Y-59615000D01*
X81724251Y-59615000D01*
X81706405Y-59581613D01*
X81595962Y-59447038D01*
X81461387Y-59336595D01*
X81307851Y-59254528D01*
X81141255Y-59203992D01*
X80968001Y-59186928D01*
X80067999Y-59186928D01*
X79894745Y-59203992D01*
X79728149Y-59254528D01*
X79574613Y-59336595D01*
X79440038Y-59447038D01*
X79329595Y-59581613D01*
X79247528Y-59735149D01*
X79196992Y-59901745D01*
X79179928Y-60074999D01*
X79179928Y-60725001D01*
X79196992Y-60898255D01*
X79247528Y-61064851D01*
X79329595Y-61218387D01*
X79440038Y-61352962D01*
X79527816Y-61425000D01*
X79440038Y-61497038D01*
X79329595Y-61631613D01*
X79247528Y-61785149D01*
X79196992Y-61951745D01*
X79179928Y-62124999D01*
X79179928Y-62775001D01*
X79196992Y-62948255D01*
X79247528Y-63114851D01*
X79329595Y-63268387D01*
X79440038Y-63402962D01*
X79518816Y-63467614D01*
X79422038Y-63547038D01*
X79311595Y-63681613D01*
X79229528Y-63835149D01*
X79178992Y-64001745D01*
X79161928Y-64174999D01*
X79161928Y-64825001D01*
X79178992Y-64998255D01*
X79229528Y-65164851D01*
X79311595Y-65318387D01*
X79422038Y-65452962D01*
X79509816Y-65525000D01*
X79422038Y-65597038D01*
X79311595Y-65731613D01*
X79293749Y-65765000D01*
X75118956Y-65765000D01*
X75080400Y-65761203D01*
X75041844Y-65765000D01*
X75041839Y-65765000D01*
X75001426Y-65768980D01*
X74926513Y-65776358D01*
X74778540Y-65821246D01*
X74642167Y-65894138D01*
X74581959Y-65943550D01*
X74552587Y-65967655D01*
X74552584Y-65967658D01*
X74522636Y-65992236D01*
X74498058Y-66022184D01*
X74154400Y-66365842D01*
X74154400Y-66274740D01*
X74097332Y-65987842D01*
X73985390Y-65717589D01*
X73822875Y-65474368D01*
X73616032Y-65267525D01*
X73441640Y-65151000D01*
X73616032Y-65034475D01*
X73822875Y-64827632D01*
X73985390Y-64584411D01*
X74097332Y-64314158D01*
X74154400Y-64027260D01*
X74154400Y-63734740D01*
X74097332Y-63447842D01*
X73985390Y-63177589D01*
X73822875Y-62934368D01*
X73616032Y-62727525D01*
X73441640Y-62611000D01*
X73616032Y-62494475D01*
X73822875Y-62287632D01*
X73985390Y-62044411D01*
X74097332Y-61774158D01*
X74154400Y-61487260D01*
X74154400Y-61194740D01*
X74097332Y-60907842D01*
X74044084Y-60779290D01*
X74094085Y-60774365D01*
X74232633Y-60732337D01*
X74360320Y-60664087D01*
X74472238Y-60572238D01*
X74495258Y-60544188D01*
X74944192Y-60095254D01*
X74972238Y-60072238D01*
X75064087Y-59960320D01*
X75132337Y-59832633D01*
X75174365Y-59694085D01*
X75185000Y-59586105D01*
X75188556Y-59550000D01*
X75185000Y-59513895D01*
X75185000Y-57900000D01*
X76136928Y-57900000D01*
X76149188Y-58024482D01*
X76185498Y-58144180D01*
X76244463Y-58254494D01*
X76323815Y-58351185D01*
X76420506Y-58430537D01*
X76530820Y-58489502D01*
X76650518Y-58525812D01*
X76775000Y-58538072D01*
X77064250Y-58535000D01*
X77223000Y-58376250D01*
X77223000Y-57327000D01*
X76298750Y-57327000D01*
X76140000Y-57485750D01*
X76136928Y-57900000D01*
X75185000Y-57900000D01*
X75185000Y-56500000D01*
X76136928Y-56500000D01*
X76140000Y-56914250D01*
X76298750Y-57073000D01*
X77223000Y-57073000D01*
X77223000Y-56023750D01*
X77064250Y-55865000D01*
X76775000Y-55861928D01*
X76650518Y-55874188D01*
X76530820Y-55910498D01*
X76420506Y-55969463D01*
X76323815Y-56048815D01*
X76244463Y-56145506D01*
X76185498Y-56255820D01*
X76149188Y-56375518D01*
X76136928Y-56500000D01*
X75185000Y-56500000D01*
X75185000Y-53254286D01*
X75259261Y-53328547D01*
X75373953Y-53213855D01*
X75529962Y-53529414D01*
X75904745Y-53720220D01*
X76309551Y-53834244D01*
X76728824Y-53867102D01*
X77146451Y-53817534D01*
X77546383Y-53687443D01*
X77842038Y-53529414D01*
X77998048Y-53213853D01*
X76686000Y-51901805D01*
X76671858Y-51915948D01*
X76492253Y-51736343D01*
X76506395Y-51722200D01*
X76865605Y-51722200D01*
X78177653Y-53034248D01*
X78493214Y-52878238D01*
X78684020Y-52503455D01*
X78798044Y-52098649D01*
X78824189Y-51765024D01*
X87681098Y-51765024D01*
X87730666Y-52182651D01*
X87860757Y-52582583D01*
X88018786Y-52878238D01*
X88334347Y-53034248D01*
X89646395Y-51722200D01*
X88334347Y-50410152D01*
X88018786Y-50566162D01*
X87827980Y-50940945D01*
X87713956Y-51345751D01*
X87681098Y-51765024D01*
X78824189Y-51765024D01*
X78830902Y-51679376D01*
X78781334Y-51261749D01*
X78651243Y-50861817D01*
X78493214Y-50566162D01*
X78177653Y-50410152D01*
X76865605Y-51722200D01*
X76506395Y-51722200D01*
X76492253Y-51708058D01*
X76671858Y-51528453D01*
X76686000Y-51542595D01*
X77998048Y-50230547D01*
X88513952Y-50230547D01*
X89826000Y-51542595D01*
X91138048Y-50230547D01*
X90982038Y-49914986D01*
X90607255Y-49724180D01*
X90202449Y-49610156D01*
X89783176Y-49577298D01*
X89365549Y-49626866D01*
X88965617Y-49756957D01*
X88669962Y-49914986D01*
X88513952Y-50230547D01*
X77998048Y-50230547D01*
X77842038Y-49914986D01*
X77467255Y-49724180D01*
X77062449Y-49610156D01*
X76643176Y-49577298D01*
X76225549Y-49626866D01*
X75825617Y-49756957D01*
X75529962Y-49914986D01*
X75373953Y-50230545D01*
X75259261Y-50115853D01*
X75185000Y-50190114D01*
X75185000Y-49354446D01*
X75539446Y-49000000D01*
X78761928Y-49000000D01*
X78774188Y-49124482D01*
X78810498Y-49244180D01*
X78869463Y-49354494D01*
X78948815Y-49451185D01*
X79045506Y-49530537D01*
X79155820Y-49589502D01*
X79275518Y-49625812D01*
X79400000Y-49638072D01*
X79964250Y-49635000D01*
X80123000Y-49476250D01*
X80123000Y-48627000D01*
X80377000Y-48627000D01*
X80377000Y-49476250D01*
X80535750Y-49635000D01*
X81100000Y-49638072D01*
X81224482Y-49625812D01*
X81344180Y-49589502D01*
X81454494Y-49530537D01*
X81551185Y-49451185D01*
X81630537Y-49354494D01*
X81689502Y-49244180D01*
X81725812Y-49124482D01*
X81738072Y-49000000D01*
X85061928Y-49000000D01*
X85074188Y-49124482D01*
X85110498Y-49244180D01*
X85169463Y-49354494D01*
X85248815Y-49451185D01*
X85345506Y-49530537D01*
X85455820Y-49589502D01*
X85575518Y-49625812D01*
X85700000Y-49638072D01*
X86264250Y-49635000D01*
X86423000Y-49476250D01*
X86423000Y-48627000D01*
X86677000Y-48627000D01*
X86677000Y-49476250D01*
X86835750Y-49635000D01*
X87400000Y-49638072D01*
X87524482Y-49625812D01*
X87644180Y-49589502D01*
X87754494Y-49530537D01*
X87851185Y-49451185D01*
X87930537Y-49354494D01*
X87989502Y-49244180D01*
X88025812Y-49124482D01*
X88038072Y-49000000D01*
X88035000Y-48785750D01*
X87876250Y-48627000D01*
X86677000Y-48627000D01*
X86423000Y-48627000D01*
X85223750Y-48627000D01*
X85065000Y-48785750D01*
X85061928Y-49000000D01*
X81738072Y-49000000D01*
X81735000Y-48785750D01*
X81576250Y-48627000D01*
X80377000Y-48627000D01*
X80123000Y-48627000D01*
X78923750Y-48627000D01*
X78765000Y-48785750D01*
X78761928Y-49000000D01*
X75539446Y-49000000D01*
X76399609Y-48139838D01*
X76410149Y-48145472D01*
X76576745Y-48196008D01*
X76749999Y-48213072D01*
X77650001Y-48213072D01*
X77823255Y-48196008D01*
X77989851Y-48145472D01*
X78143387Y-48063405D01*
X78277962Y-47952962D01*
X78333737Y-47885000D01*
X78773254Y-47885000D01*
X78761928Y-48000000D01*
X78765000Y-48214250D01*
X78923750Y-48373000D01*
X80123000Y-48373000D01*
X80123000Y-47523750D01*
X80377000Y-47523750D01*
X80377000Y-48373000D01*
X81576250Y-48373000D01*
X81735000Y-48214250D01*
X81738072Y-48000000D01*
X85061928Y-48000000D01*
X85065000Y-48214250D01*
X85223750Y-48373000D01*
X86423000Y-48373000D01*
X86423000Y-47523750D01*
X86677000Y-47523750D01*
X86677000Y-48373000D01*
X87876250Y-48373000D01*
X88035000Y-48214250D01*
X88038072Y-48000000D01*
X88025812Y-47875518D01*
X87989502Y-47755820D01*
X87930537Y-47645506D01*
X87851185Y-47548815D01*
X87754494Y-47469463D01*
X87644180Y-47410498D01*
X87524482Y-47374188D01*
X87400000Y-47361928D01*
X86835750Y-47365000D01*
X86677000Y-47523750D01*
X86423000Y-47523750D01*
X86264250Y-47365000D01*
X85700000Y-47361928D01*
X85575518Y-47374188D01*
X85455820Y-47410498D01*
X85345506Y-47469463D01*
X85248815Y-47548815D01*
X85169463Y-47645506D01*
X85110498Y-47755820D01*
X85074188Y-47875518D01*
X85061928Y-48000000D01*
X81738072Y-48000000D01*
X81725812Y-47875518D01*
X81689502Y-47755820D01*
X81630537Y-47645506D01*
X81551185Y-47548815D01*
X81454494Y-47469463D01*
X81344180Y-47410498D01*
X81224482Y-47374188D01*
X81100000Y-47361928D01*
X80535750Y-47365000D01*
X80377000Y-47523750D01*
X80123000Y-47523750D01*
X79964250Y-47365000D01*
X79837270Y-47364309D01*
X80845049Y-46356530D01*
X80878817Y-46328817D01*
X80928579Y-46268183D01*
X80989411Y-46194059D01*
X81071589Y-46040314D01*
X81122195Y-45873490D01*
X81122814Y-45867205D01*
X81125935Y-45835518D01*
X81224482Y-45825812D01*
X81344180Y-45789502D01*
X81454494Y-45730537D01*
X81551185Y-45651185D01*
X81605501Y-45585000D01*
X85194499Y-45585000D01*
X85248815Y-45651185D01*
X85345506Y-45730537D01*
X85455820Y-45789502D01*
X85575518Y-45825812D01*
X85700000Y-45838072D01*
X87400000Y-45838072D01*
X87524482Y-45825812D01*
X87644180Y-45789502D01*
X87754494Y-45730537D01*
X87851185Y-45651185D01*
X87930537Y-45554494D01*
X87989502Y-45444180D01*
X88025812Y-45324482D01*
X88038072Y-45200000D01*
X88038072Y-44448400D01*
X94553600Y-44448400D01*
X94553600Y-44873400D01*
X95586600Y-44873400D01*
X95586600Y-43582237D01*
X95840600Y-43582237D01*
X95840600Y-44873400D01*
X96873600Y-44873400D01*
X96873600Y-44448400D01*
X101703600Y-44448400D01*
X101703600Y-44873400D01*
X102736600Y-44873400D01*
X102736600Y-43582237D01*
X102990600Y-43582237D01*
X102990600Y-44873400D01*
X104023600Y-44873400D01*
X104023600Y-44448400D01*
X103976534Y-44224535D01*
X103886699Y-44014154D01*
X103757547Y-43825341D01*
X103594041Y-43665353D01*
X103402464Y-43540337D01*
X103169410Y-43456436D01*
X102990600Y-43582237D01*
X102736600Y-43582237D01*
X102557790Y-43456436D01*
X102324736Y-43540337D01*
X102133159Y-43665353D01*
X101969653Y-43825341D01*
X101840501Y-44014154D01*
X101750666Y-44224535D01*
X101703600Y-44448400D01*
X96873600Y-44448400D01*
X96826534Y-44224535D01*
X96736699Y-44014154D01*
X96607547Y-43825341D01*
X96444041Y-43665353D01*
X96252464Y-43540337D01*
X96019410Y-43456436D01*
X95840600Y-43582237D01*
X95586600Y-43582237D01*
X95407790Y-43456436D01*
X95174736Y-43540337D01*
X94983159Y-43665353D01*
X94819653Y-43825341D01*
X94690501Y-44014154D01*
X94600666Y-44224535D01*
X94553600Y-44448400D01*
X88038072Y-44448400D01*
X88038072Y-44200000D01*
X88025812Y-44075518D01*
X87989502Y-43955820D01*
X87930537Y-43845506D01*
X87851185Y-43748815D01*
X87754494Y-43669463D01*
X87644180Y-43610498D01*
X87524482Y-43574188D01*
X87400000Y-43561928D01*
X85700000Y-43561928D01*
X85575518Y-43574188D01*
X85455820Y-43610498D01*
X85345506Y-43669463D01*
X85248815Y-43748815D01*
X85194499Y-43815000D01*
X81605501Y-43815000D01*
X81551185Y-43748815D01*
X81454494Y-43669463D01*
X81344180Y-43610498D01*
X81224482Y-43574188D01*
X81100000Y-43561928D01*
X79400000Y-43561928D01*
X79275518Y-43574188D01*
X79155820Y-43610498D01*
X79045506Y-43669463D01*
X78948815Y-43748815D01*
X78869463Y-43845506D01*
X78810498Y-43955820D01*
X78774188Y-44075518D01*
X78761928Y-44200000D01*
X78761928Y-45200000D01*
X78774188Y-45324482D01*
X78810498Y-45444180D01*
X78869463Y-45554494D01*
X78948815Y-45651185D01*
X79002873Y-45695549D01*
X78583422Y-46115000D01*
X78333737Y-46115000D01*
X78277962Y-46047038D01*
X78190184Y-45975000D01*
X78277962Y-45902962D01*
X78388405Y-45768387D01*
X78470472Y-45614851D01*
X78521008Y-45448255D01*
X78538072Y-45275001D01*
X78538072Y-44624999D01*
X78521008Y-44451745D01*
X78470472Y-44285149D01*
X78388405Y-44131613D01*
X78277962Y-43997038D01*
X78143387Y-43886595D01*
X77989851Y-43804528D01*
X77823255Y-43753992D01*
X77650001Y-43736928D01*
X76749999Y-43736928D01*
X76576745Y-43753992D01*
X76410149Y-43804528D01*
X76256613Y-43886595D01*
X76149507Y-43974495D01*
X76101898Y-43954774D01*
X75901939Y-43915000D01*
X75698061Y-43915000D01*
X75498102Y-43954774D01*
X75309744Y-44032795D01*
X75140226Y-44146063D01*
X74996063Y-44290226D01*
X74882795Y-44459744D01*
X74804774Y-44648102D01*
X74765000Y-44848061D01*
X74765000Y-45051939D01*
X74804774Y-45251898D01*
X74882795Y-45440256D01*
X74996063Y-45609774D01*
X75140226Y-45753937D01*
X75309744Y-45867205D01*
X75498102Y-45945226D01*
X75698061Y-45985000D01*
X75901939Y-45985000D01*
X76101898Y-45945226D01*
X76149507Y-45925505D01*
X76209816Y-45975000D01*
X76122038Y-46047038D01*
X76011595Y-46181613D01*
X75929528Y-46335149D01*
X75878992Y-46501745D01*
X75870272Y-46590281D01*
X74123111Y-48337443D01*
X74097332Y-48207842D01*
X73985390Y-47937589D01*
X73822875Y-47694368D01*
X73616032Y-47487525D01*
X73372811Y-47325010D01*
X73102558Y-47213068D01*
X72815660Y-47156000D01*
X72523140Y-47156000D01*
X72236242Y-47213068D01*
X71965989Y-47325010D01*
X71722768Y-47487525D01*
X71590913Y-47619380D01*
X71568902Y-47546820D01*
X71509937Y-47436506D01*
X71430585Y-47339815D01*
X71333894Y-47260463D01*
X71223580Y-47201498D01*
X71103882Y-47165188D01*
X70979400Y-47152928D01*
X69621000Y-47152928D01*
X69621000Y-46300546D01*
X69886017Y-46565563D01*
X70235698Y-46799212D01*
X70624244Y-46960153D01*
X71036721Y-47042200D01*
X71457279Y-47042200D01*
X71869756Y-46960153D01*
X72258302Y-46799212D01*
X72607983Y-46565563D01*
X72905363Y-46268183D01*
X73139012Y-45918502D01*
X73299953Y-45529956D01*
X73382000Y-45117479D01*
X73382000Y-44696921D01*
X73299953Y-44284444D01*
X73139012Y-43895898D01*
X72905363Y-43546217D01*
X72640374Y-43281228D01*
X91684752Y-43281555D01*
G36*
X106573012Y-72501269D02*
G01*
X106789245Y-72696178D01*
X106906134Y-72765805D01*
X106723968Y-72887525D01*
X106517125Y-73094368D01*
X106400600Y-73268760D01*
X106284075Y-73094368D01*
X106077232Y-72887525D01*
X105902840Y-72771000D01*
X106077232Y-72654475D01*
X106284075Y-72447632D01*
X106401700Y-72271594D01*
X106573012Y-72501269D01*
G37*
X106573012Y-72501269D02*
X106789245Y-72696178D01*
X106906134Y-72765805D01*
X106723968Y-72887525D01*
X106517125Y-73094368D01*
X106400600Y-73268760D01*
X106284075Y-73094368D01*
X106077232Y-72887525D01*
X105902840Y-72771000D01*
X106077232Y-72654475D01*
X106284075Y-72447632D01*
X106401700Y-72271594D01*
X106573012Y-72501269D01*
G36*
X97015001Y-68796377D02*
G01*
X96945894Y-68739663D01*
X96835580Y-68680698D01*
X96715882Y-68644388D01*
X96591400Y-68632128D01*
X96577150Y-68635200D01*
X96418400Y-68793950D01*
X96418400Y-70118200D01*
X96438400Y-70118200D01*
X96438400Y-70372200D01*
X96418400Y-70372200D01*
X96418400Y-71696450D01*
X96563579Y-71841629D01*
X96447469Y-71914199D01*
X96439333Y-71915000D01*
X96143469Y-71915000D01*
X96100000Y-71910719D01*
X96056531Y-71915000D01*
X94066579Y-71915000D01*
X94000127Y-71848548D01*
X94055145Y-71843129D01*
X94202982Y-71798284D01*
X94339229Y-71725458D01*
X94386400Y-71686746D01*
X94433571Y-71725458D01*
X94569818Y-71798284D01*
X94717655Y-71843129D01*
X94871400Y-71858272D01*
X95171400Y-71858272D01*
X95325145Y-71843129D01*
X95472982Y-71798284D01*
X95607336Y-71726470D01*
X95636906Y-71750737D01*
X95747220Y-71809702D01*
X95866918Y-71846012D01*
X95991400Y-71858272D01*
X96005650Y-71855200D01*
X96164400Y-71696450D01*
X96164400Y-70372200D01*
X96144400Y-70372200D01*
X96144400Y-70118200D01*
X96164400Y-70118200D01*
X96164400Y-68793950D01*
X96005650Y-68635200D01*
X95991400Y-68632128D01*
X95866918Y-68644388D01*
X95806400Y-68662746D01*
X95806400Y-68659952D01*
X95810197Y-68621399D01*
X95806400Y-68582846D01*
X95806400Y-68582839D01*
X95795041Y-68467513D01*
X95777595Y-68409999D01*
X95750154Y-68319540D01*
X95730273Y-68282345D01*
X95677262Y-68183167D01*
X95579164Y-68063636D01*
X95549216Y-68039058D01*
X92782347Y-65272190D01*
X92757764Y-65242236D01*
X92638233Y-65144138D01*
X92501860Y-65071246D01*
X92353887Y-65026359D01*
X92238561Y-65015000D01*
X92238553Y-65015000D01*
X92200000Y-65011203D01*
X92161447Y-65015000D01*
X91478711Y-65015000D01*
X91459774Y-64996063D01*
X91290256Y-64882795D01*
X91101898Y-64804774D01*
X91002487Y-64785000D01*
X97015000Y-64785000D01*
X97015001Y-68796377D01*
G37*
X97015001Y-68796377D02*
X96945894Y-68739663D01*
X96835580Y-68680698D01*
X96715882Y-68644388D01*
X96591400Y-68632128D01*
X96577150Y-68635200D01*
X96418400Y-68793950D01*
X96418400Y-70118200D01*
X96438400Y-70118200D01*
X96438400Y-70372200D01*
X96418400Y-70372200D01*
X96418400Y-71696450D01*
X96563579Y-71841629D01*
X96447469Y-71914199D01*
X96439333Y-71915000D01*
X96143469Y-71915000D01*
X96100000Y-71910719D01*
X96056531Y-71915000D01*
X94066579Y-71915000D01*
X94000127Y-71848548D01*
X94055145Y-71843129D01*
X94202982Y-71798284D01*
X94339229Y-71725458D01*
X94386400Y-71686746D01*
X94433571Y-71725458D01*
X94569818Y-71798284D01*
X94717655Y-71843129D01*
X94871400Y-71858272D01*
X95171400Y-71858272D01*
X95325145Y-71843129D01*
X95472982Y-71798284D01*
X95607336Y-71726470D01*
X95636906Y-71750737D01*
X95747220Y-71809702D01*
X95866918Y-71846012D01*
X95991400Y-71858272D01*
X96005650Y-71855200D01*
X96164400Y-71696450D01*
X96164400Y-70372200D01*
X96144400Y-70372200D01*
X96144400Y-70118200D01*
X96164400Y-70118200D01*
X96164400Y-68793950D01*
X96005650Y-68635200D01*
X95991400Y-68632128D01*
X95866918Y-68644388D01*
X95806400Y-68662746D01*
X95806400Y-68659952D01*
X95810197Y-68621399D01*
X95806400Y-68582846D01*
X95806400Y-68582839D01*
X95795041Y-68467513D01*
X95777595Y-68409999D01*
X95750154Y-68319540D01*
X95730273Y-68282345D01*
X95677262Y-68183167D01*
X95579164Y-68063636D01*
X95549216Y-68039058D01*
X92782347Y-65272190D01*
X92757764Y-65242236D01*
X92638233Y-65144138D01*
X92501860Y-65071246D01*
X92353887Y-65026359D01*
X92238561Y-65015000D01*
X92238553Y-65015000D01*
X92200000Y-65011203D01*
X92161447Y-65015000D01*
X91478711Y-65015000D01*
X91459774Y-64996063D01*
X91290256Y-64882795D01*
X91101898Y-64804774D01*
X91002487Y-64785000D01*
X97015000Y-64785000D01*
X97015001Y-68796377D01*
G36*
X107797600Y-71374000D02*
G01*
X107817600Y-71374000D01*
X107817600Y-71628000D01*
X107797600Y-71628000D01*
X107797600Y-71648000D01*
X107543600Y-71648000D01*
X107543600Y-71628000D01*
X107523600Y-71628000D01*
X107523600Y-71374000D01*
X107543600Y-71374000D01*
X107543600Y-71354000D01*
X107797600Y-71354000D01*
X107797600Y-71374000D01*
G37*
X107797600Y-71374000D02*
X107817600Y-71374000D01*
X107817600Y-71628000D01*
X107797600Y-71628000D01*
X107797600Y-71648000D01*
X107543600Y-71648000D01*
X107543600Y-71628000D01*
X107523600Y-71628000D01*
X107523600Y-71374000D01*
X107543600Y-71374000D01*
X107543600Y-71354000D01*
X107797600Y-71354000D01*
X107797600Y-71374000D01*
G36*
X107797600Y-63754000D02*
G01*
X107817600Y-63754000D01*
X107817600Y-64008000D01*
X107797600Y-64008000D01*
X107797600Y-64028000D01*
X107543600Y-64028000D01*
X107543600Y-64008000D01*
X107523600Y-64008000D01*
X107523600Y-63754000D01*
X107543600Y-63754000D01*
X107543600Y-63734000D01*
X107797600Y-63734000D01*
X107797600Y-63754000D01*
G37*
X107797600Y-63754000D02*
X107817600Y-63754000D01*
X107817600Y-64008000D01*
X107797600Y-64008000D01*
X107797600Y-64028000D01*
X107543600Y-64028000D01*
X107543600Y-64008000D01*
X107523600Y-64008000D01*
X107523600Y-63754000D01*
X107543600Y-63754000D01*
X107543600Y-63734000D01*
X107797600Y-63734000D01*
X107797600Y-63754000D01*
G36*
X106517125Y-62287632D02*
G01*
X106723968Y-62494475D01*
X106906134Y-62616195D01*
X106789245Y-62685822D01*
X106573012Y-62880731D01*
X106401700Y-63110406D01*
X106284075Y-62934368D01*
X106077232Y-62727525D01*
X105902840Y-62611000D01*
X106077232Y-62494475D01*
X106284075Y-62287632D01*
X106400600Y-62113240D01*
X106517125Y-62287632D01*
G37*
X106517125Y-62287632D02*
X106723968Y-62494475D01*
X106906134Y-62616195D01*
X106789245Y-62685822D01*
X106573012Y-62880731D01*
X106401700Y-63110406D01*
X106284075Y-62934368D01*
X106077232Y-62727525D01*
X105902840Y-62611000D01*
X106077232Y-62494475D01*
X106284075Y-62287632D01*
X106400600Y-62113240D01*
X106517125Y-62287632D01*
G36*
X106517125Y-59747632D02*
G01*
X106723968Y-59954475D01*
X106898360Y-60071000D01*
X106723968Y-60187525D01*
X106517125Y-60394368D01*
X106400600Y-60568760D01*
X106284075Y-60394368D01*
X106077232Y-60187525D01*
X105895066Y-60065805D01*
X106011955Y-59996178D01*
X106228188Y-59801269D01*
X106399500Y-59571594D01*
X106517125Y-59747632D01*
G37*
X106517125Y-59747632D02*
X106723968Y-59954475D01*
X106898360Y-60071000D01*
X106723968Y-60187525D01*
X106517125Y-60394368D01*
X106400600Y-60568760D01*
X106284075Y-60394368D01*
X106077232Y-60187525D01*
X105895066Y-60065805D01*
X106011955Y-59996178D01*
X106228188Y-59801269D01*
X106399500Y-59571594D01*
X106517125Y-59747632D01*
G36*
X106517125Y-57207632D02*
G01*
X106723968Y-57414475D01*
X106898360Y-57531000D01*
X106723968Y-57647525D01*
X106517125Y-57854368D01*
X106399500Y-58030406D01*
X106228188Y-57800731D01*
X106011955Y-57605822D01*
X105895066Y-57536195D01*
X106077232Y-57414475D01*
X106284075Y-57207632D01*
X106400600Y-57033240D01*
X106517125Y-57207632D01*
G37*
X106517125Y-57207632D02*
X106723968Y-57414475D01*
X106898360Y-57531000D01*
X106723968Y-57647525D01*
X106517125Y-57854368D01*
X106399500Y-58030406D01*
X106228188Y-57800731D01*
X106011955Y-57605822D01*
X105895066Y-57536195D01*
X106077232Y-57414475D01*
X106284075Y-57207632D01*
X106400600Y-57033240D01*
X106517125Y-57207632D01*
G36*
X106573012Y-54721269D02*
G01*
X106789245Y-54916178D01*
X106906134Y-54985805D01*
X106723968Y-55107525D01*
X106517125Y-55314368D01*
X106400600Y-55488760D01*
X106284075Y-55314368D01*
X106077232Y-55107525D01*
X105902840Y-54991000D01*
X106077232Y-54874475D01*
X106284075Y-54667632D01*
X106401700Y-54491594D01*
X106573012Y-54721269D01*
G37*
X106573012Y-54721269D02*
X106789245Y-54916178D01*
X106906134Y-54985805D01*
X106723968Y-55107525D01*
X106517125Y-55314368D01*
X106400600Y-55488760D01*
X106284075Y-55314368D01*
X106077232Y-55107525D01*
X105902840Y-54991000D01*
X106077232Y-54874475D01*
X106284075Y-54667632D01*
X106401700Y-54491594D01*
X106573012Y-54721269D01*
G36*
X107797600Y-53594000D02*
G01*
X107817600Y-53594000D01*
X107817600Y-53848000D01*
X107797600Y-53848000D01*
X107797600Y-53868000D01*
X107543600Y-53868000D01*
X107543600Y-53848000D01*
X107523600Y-53848000D01*
X107523600Y-53594000D01*
X107543600Y-53594000D01*
X107543600Y-53574000D01*
X107797600Y-53574000D01*
X107797600Y-53594000D01*
G37*
X107797600Y-53594000D02*
X107817600Y-53594000D01*
X107817600Y-53848000D01*
X107797600Y-53848000D01*
X107797600Y-53868000D01*
X107543600Y-53868000D01*
X107543600Y-53848000D01*
X107523600Y-53848000D01*
X107523600Y-53594000D01*
X107543600Y-53594000D01*
X107543600Y-53574000D01*
X107797600Y-53574000D01*
X107797600Y-53594000D01*
G36*
X79375000Y-73025000D02*
G01*
X81647000Y-73025000D01*
X81647000Y-73005000D01*
X81901000Y-73005000D01*
X81901000Y-73025000D01*
X81921000Y-73025000D01*
X81921000Y-73279000D01*
X81901000Y-73279000D01*
X81901000Y-74511750D01*
X81897000Y-74515750D01*
X81897000Y-75565000D01*
X81917000Y-75565000D01*
X81917000Y-75819000D01*
X81897000Y-75819000D01*
X81897000Y-75839000D01*
X81643000Y-75839000D01*
X81643000Y-75819000D01*
X80718750Y-75819000D01*
X80560000Y-75977750D01*
X80556928Y-76392000D01*
X80569188Y-76516482D01*
X80601500Y-76623000D01*
X78627000Y-76623000D01*
X78627000Y-74364486D01*
X78962250Y-74362000D01*
X79121000Y-74203250D01*
X79121000Y-73279000D01*
X79375000Y-73279000D01*
X79375000Y-74203250D01*
X79533750Y-74362000D01*
X79948000Y-74365072D01*
X80072482Y-74352812D01*
X80192180Y-74316502D01*
X80244453Y-74288561D01*
X80248188Y-74326482D01*
X80284498Y-74446180D01*
X80343463Y-74556494D01*
X80422815Y-74653185D01*
X80519506Y-74732537D01*
X80597489Y-74774221D01*
X80569188Y-74867518D01*
X80556928Y-74992000D01*
X80560000Y-75406250D01*
X80718750Y-75565000D01*
X81643000Y-75565000D01*
X81643000Y-74682250D01*
X81647000Y-74678250D01*
X81647000Y-73279000D01*
X79375000Y-73279000D01*
X79121000Y-73279000D01*
X79101000Y-73279000D01*
X79101000Y-73025000D01*
X79121000Y-73025000D01*
X79121000Y-73005000D01*
X79375000Y-73005000D01*
X79375000Y-73025000D01*
G37*
X79375000Y-73025000D02*
X81647000Y-73025000D01*
X81647000Y-73005000D01*
X81901000Y-73005000D01*
X81901000Y-73025000D01*
X81921000Y-73025000D01*
X81921000Y-73279000D01*
X81901000Y-73279000D01*
X81901000Y-74511750D01*
X81897000Y-74515750D01*
X81897000Y-75565000D01*
X81917000Y-75565000D01*
X81917000Y-75819000D01*
X81897000Y-75819000D01*
X81897000Y-75839000D01*
X81643000Y-75839000D01*
X81643000Y-75819000D01*
X80718750Y-75819000D01*
X80560000Y-75977750D01*
X80556928Y-76392000D01*
X80569188Y-76516482D01*
X80601500Y-76623000D01*
X78627000Y-76623000D01*
X78627000Y-74364486D01*
X78962250Y-74362000D01*
X79121000Y-74203250D01*
X79121000Y-73279000D01*
X79375000Y-73279000D01*
X79375000Y-74203250D01*
X79533750Y-74362000D01*
X79948000Y-74365072D01*
X80072482Y-74352812D01*
X80192180Y-74316502D01*
X80244453Y-74288561D01*
X80248188Y-74326482D01*
X80284498Y-74446180D01*
X80343463Y-74556494D01*
X80422815Y-74653185D01*
X80519506Y-74732537D01*
X80597489Y-74774221D01*
X80569188Y-74867518D01*
X80556928Y-74992000D01*
X80560000Y-75406250D01*
X80718750Y-75565000D01*
X81643000Y-75565000D01*
X81643000Y-74682250D01*
X81647000Y-74678250D01*
X81647000Y-73279000D01*
X79375000Y-73279000D01*
X79121000Y-73279000D01*
X79101000Y-73279000D01*
X79101000Y-73025000D01*
X79121000Y-73025000D01*
X79121000Y-73005000D01*
X79375000Y-73005000D01*
X79375000Y-73025000D01*
G36*
X86596142Y-68982371D02*
G01*
X86523316Y-69118618D01*
X86478471Y-69266455D01*
X86463328Y-69420200D01*
X86463328Y-70889990D01*
X85610416Y-70889990D01*
X85609000Y-70537750D01*
X85450250Y-70379000D01*
X84201000Y-70379000D01*
X84201000Y-70399000D01*
X83947000Y-70399000D01*
X83947000Y-70379000D01*
X83927000Y-70379000D01*
X83927000Y-70125000D01*
X83947000Y-70125000D01*
X83947000Y-70105000D01*
X84201000Y-70105000D01*
X84201000Y-70125000D01*
X85450250Y-70125000D01*
X85609000Y-69966250D01*
X85612072Y-69202000D01*
X85599812Y-69077518D01*
X85563502Y-68957820D01*
X85520302Y-68877000D01*
X86682618Y-68877000D01*
X86596142Y-68982371D01*
G37*
X86596142Y-68982371D02*
X86523316Y-69118618D01*
X86478471Y-69266455D01*
X86463328Y-69420200D01*
X86463328Y-70889990D01*
X85610416Y-70889990D01*
X85609000Y-70537750D01*
X85450250Y-70379000D01*
X84201000Y-70379000D01*
X84201000Y-70399000D01*
X83947000Y-70399000D01*
X83947000Y-70379000D01*
X83927000Y-70379000D01*
X83927000Y-70125000D01*
X83947000Y-70125000D01*
X83947000Y-70105000D01*
X84201000Y-70105000D01*
X84201000Y-70125000D01*
X85450250Y-70125000D01*
X85609000Y-69966250D01*
X85612072Y-69202000D01*
X85599812Y-69077518D01*
X85563502Y-68957820D01*
X85520302Y-68877000D01*
X86682618Y-68877000D01*
X86596142Y-68982371D01*
M02*
