G04 #@! TF.GenerationSoftware,KiCad,Pcbnew,5.1.5*
G04 #@! TF.CreationDate,2020-04-26T21:12:41+03:00*
G04 #@! TF.ProjectId,nanopicore_debug,6e616e6f-7069-4636-9f72-655f64656275,rev?*
G04 #@! TF.SameCoordinates,Original*
G04 #@! TF.FileFunction,Copper,L3,Inr*
G04 #@! TF.FilePolarity,Positive*
%FSLAX46Y46*%
G04 Gerber Fmt 4.6, Leading zero omitted, Abs format (unit mm)*
G04 Created by KiCad (PCBNEW 5.1.5) date 2020-04-26 21:12:41*
%MOMM*%
%LPD*%
G04 APERTURE LIST*
%ADD10C,1.600000*%
%ADD11R,1.600000X1.600000*%
%ADD12C,3.000000*%
%ADD13O,1.700000X1.700000*%
%ADD14R,1.700000X1.700000*%
%ADD15O,1.050000X1.900000*%
%ADD16C,0.800000*%
%ADD17C,0.254000*%
G04 APERTURE END LIST*
D10*
X86756000Y-54432200D03*
X84256000Y-54432200D03*
X82256000Y-54432200D03*
D11*
X79756000Y-54432200D03*
D12*
X76686000Y-51722200D03*
X89826000Y-51722200D03*
D13*
X72669400Y-76581000D03*
X70129400Y-76581000D03*
X72669400Y-74041000D03*
X70129400Y-74041000D03*
X72669400Y-71501000D03*
X70129400Y-71501000D03*
X72669400Y-68961000D03*
X70129400Y-68961000D03*
X72669400Y-66421000D03*
X70129400Y-66421000D03*
X72669400Y-63881000D03*
X70129400Y-63881000D03*
X72669400Y-61341000D03*
X70129400Y-61341000D03*
X72669400Y-58801000D03*
X70129400Y-58801000D03*
X72669400Y-56261000D03*
X70129400Y-56261000D03*
X72669400Y-53721000D03*
X70129400Y-53721000D03*
X72669400Y-51181000D03*
X70129400Y-51181000D03*
X72669400Y-48641000D03*
D14*
X70129400Y-48641000D03*
D13*
X77470000Y-81280000D03*
X77470000Y-78740000D03*
X80010000Y-81280000D03*
X80010000Y-78740000D03*
X82550000Y-81280000D03*
X82550000Y-78740000D03*
X85090000Y-81280000D03*
X85090000Y-78740000D03*
X87630000Y-81280000D03*
X87630000Y-78740000D03*
X90170000Y-81280000D03*
X90170000Y-78740000D03*
X92710000Y-81280000D03*
X92710000Y-78740000D03*
X95250000Y-81280000D03*
X95250000Y-78740000D03*
X97790000Y-81280000D03*
X97790000Y-78740000D03*
X100330000Y-81280000D03*
D14*
X100330000Y-78740000D03*
D13*
X107670600Y-76581000D03*
X105130600Y-76581000D03*
X107670600Y-74041000D03*
X105130600Y-74041000D03*
X107670600Y-71501000D03*
X105130600Y-71501000D03*
X107670600Y-68961000D03*
X105130600Y-68961000D03*
X107670600Y-66421000D03*
X105130600Y-66421000D03*
X107670600Y-63881000D03*
X105130600Y-63881000D03*
X107670600Y-61341000D03*
X105130600Y-61341000D03*
X107670600Y-58801000D03*
X105130600Y-58801000D03*
X107670600Y-56261000D03*
X105130600Y-56261000D03*
X107670600Y-53721000D03*
X105130600Y-53721000D03*
X107670600Y-51181000D03*
X105130600Y-51181000D03*
X107670600Y-48641000D03*
D14*
X105130600Y-48641000D03*
D15*
X102863600Y-45000400D03*
X95713600Y-45000400D03*
D16*
X100965000Y-49530000D03*
X93980000Y-44577000D03*
X99950000Y-74850000D03*
X96300000Y-68500000D03*
X86700000Y-77100000D03*
X79200000Y-74500000D03*
X76900000Y-74500000D03*
X86000000Y-70200000D03*
X80100000Y-75100000D03*
X80200000Y-50000000D03*
X86550000Y-50000000D03*
X98200000Y-76200000D03*
X99600000Y-76050000D03*
X88900000Y-77100000D03*
X91400000Y-77150000D03*
X100965000Y-56540400D03*
X102819200Y-54737000D03*
X101015800Y-57912000D03*
X102590600Y-52044600D03*
X94716600Y-65709800D03*
X92964000Y-62636400D03*
X92913200Y-55422800D03*
X96723200Y-58191400D03*
X86360000Y-60045600D03*
X85013800Y-58801000D03*
X99822000Y-64262000D03*
X99822000Y-66548000D03*
X75438000Y-65024000D03*
X77216000Y-65024000D03*
X76962000Y-69342000D03*
X75438000Y-70866000D03*
X82804000Y-46736000D03*
X83820000Y-46736000D03*
X95758000Y-67564000D03*
X96520000Y-66802000D03*
X80800000Y-57200000D03*
X88300000Y-61100000D03*
X75800000Y-44950000D03*
X90800000Y-65800000D03*
X96710600Y-49428400D03*
X91101400Y-68300000D03*
X94625000Y-59050000D03*
X90051400Y-68300000D03*
X93200000Y-57100000D03*
D17*
G36*
X105260666Y-43281788D02*
G01*
X104996237Y-43546217D01*
X104762588Y-43895898D01*
X104601647Y-44284444D01*
X104519600Y-44696921D01*
X104519600Y-45117479D01*
X104601647Y-45529956D01*
X104762588Y-45918502D01*
X104996237Y-46268183D01*
X105293617Y-46565563D01*
X105643298Y-46799212D01*
X106031844Y-46960153D01*
X106444321Y-47042200D01*
X106864879Y-47042200D01*
X107277356Y-46960153D01*
X107665902Y-46799212D01*
X108015583Y-46565563D01*
X108281582Y-46299564D01*
X108282293Y-47289905D01*
X108027491Y-47199519D01*
X107797600Y-47320186D01*
X107797600Y-48514000D01*
X107817600Y-48514000D01*
X107817600Y-48768000D01*
X107797600Y-48768000D01*
X107797600Y-51054000D01*
X107817600Y-51054000D01*
X107817600Y-51308000D01*
X107797600Y-51308000D01*
X107797600Y-51328000D01*
X107543600Y-51328000D01*
X107543600Y-51308000D01*
X107523600Y-51308000D01*
X107523600Y-51054000D01*
X107543600Y-51054000D01*
X107543600Y-48768000D01*
X107523600Y-48768000D01*
X107523600Y-48514000D01*
X107543600Y-48514000D01*
X107543600Y-47320186D01*
X107313709Y-47199519D01*
X107039348Y-47296843D01*
X106789245Y-47445822D01*
X106593098Y-47622626D01*
X106570102Y-47546820D01*
X106511137Y-47436506D01*
X106431785Y-47339815D01*
X106335094Y-47260463D01*
X106224780Y-47201498D01*
X106105082Y-47165188D01*
X105980600Y-47152928D01*
X104280600Y-47152928D01*
X104156118Y-47165188D01*
X104036420Y-47201498D01*
X103926106Y-47260463D01*
X103829415Y-47339815D01*
X103750063Y-47436506D01*
X103691098Y-47546820D01*
X103654788Y-47666518D01*
X103642528Y-47791000D01*
X103642528Y-49491000D01*
X103654788Y-49615482D01*
X103691098Y-49735180D01*
X103750063Y-49845494D01*
X103829415Y-49942185D01*
X103926106Y-50021537D01*
X104036420Y-50080502D01*
X104108980Y-50102513D01*
X103977125Y-50234368D01*
X103814610Y-50477589D01*
X103702668Y-50747842D01*
X103645600Y-51034740D01*
X103645600Y-51327260D01*
X103702668Y-51614158D01*
X103814610Y-51884411D01*
X103977125Y-52127632D01*
X104183968Y-52334475D01*
X104358360Y-52451000D01*
X104183968Y-52567525D01*
X103977125Y-52774368D01*
X103814610Y-53017589D01*
X103702668Y-53287842D01*
X103645600Y-53574740D01*
X103645600Y-53867260D01*
X103702668Y-54154158D01*
X103814610Y-54424411D01*
X103977125Y-54667632D01*
X104183968Y-54874475D01*
X104358360Y-54991000D01*
X104183968Y-55107525D01*
X103977125Y-55314368D01*
X103814610Y-55557589D01*
X103702668Y-55827842D01*
X103645600Y-56114740D01*
X103645600Y-56407260D01*
X103702668Y-56694158D01*
X103814610Y-56964411D01*
X103977125Y-57207632D01*
X104183968Y-57414475D01*
X104358360Y-57531000D01*
X104183968Y-57647525D01*
X103977125Y-57854368D01*
X103814610Y-58097589D01*
X103702668Y-58367842D01*
X103645600Y-58654740D01*
X103645600Y-58947260D01*
X103702668Y-59234158D01*
X103814610Y-59504411D01*
X103977125Y-59747632D01*
X104183968Y-59954475D01*
X104358360Y-60071000D01*
X104183968Y-60187525D01*
X103977125Y-60394368D01*
X103814610Y-60637589D01*
X103702668Y-60907842D01*
X103645600Y-61194740D01*
X103645600Y-61487260D01*
X103702668Y-61774158D01*
X103814610Y-62044411D01*
X103977125Y-62287632D01*
X104183968Y-62494475D01*
X104358360Y-62611000D01*
X104183968Y-62727525D01*
X103977125Y-62934368D01*
X103814610Y-63177589D01*
X103702668Y-63447842D01*
X103645600Y-63734740D01*
X103645600Y-64027260D01*
X103702668Y-64314158D01*
X103814610Y-64584411D01*
X103977125Y-64827632D01*
X104183968Y-65034475D01*
X104358360Y-65151000D01*
X104183968Y-65267525D01*
X103977125Y-65474368D01*
X103814610Y-65717589D01*
X103702668Y-65987842D01*
X103645600Y-66274740D01*
X103645600Y-66567260D01*
X103702668Y-66854158D01*
X103814610Y-67124411D01*
X103977125Y-67367632D01*
X104183968Y-67574475D01*
X104358360Y-67691000D01*
X104183968Y-67807525D01*
X103977125Y-68014368D01*
X103814610Y-68257589D01*
X103702668Y-68527842D01*
X103645600Y-68814740D01*
X103645600Y-69107260D01*
X103702668Y-69394158D01*
X103814610Y-69664411D01*
X103977125Y-69907632D01*
X104183968Y-70114475D01*
X104358360Y-70231000D01*
X104183968Y-70347525D01*
X103977125Y-70554368D01*
X103814610Y-70797589D01*
X103702668Y-71067842D01*
X103645600Y-71354740D01*
X103645600Y-71647260D01*
X103702668Y-71934158D01*
X103814610Y-72204411D01*
X103977125Y-72447632D01*
X104183968Y-72654475D01*
X104358360Y-72771000D01*
X104183968Y-72887525D01*
X103977125Y-73094368D01*
X103814610Y-73337589D01*
X103702668Y-73607842D01*
X103645600Y-73894740D01*
X103645600Y-74187260D01*
X103702668Y-74474158D01*
X103814610Y-74744411D01*
X103977125Y-74987632D01*
X104183968Y-75194475D01*
X104358360Y-75311000D01*
X104183968Y-75427525D01*
X103977125Y-75634368D01*
X103814610Y-75877589D01*
X103702668Y-76147842D01*
X103645600Y-76434740D01*
X103645600Y-76727260D01*
X103702668Y-77014158D01*
X103814610Y-77284411D01*
X103977125Y-77527632D01*
X104183968Y-77734475D01*
X104427189Y-77896990D01*
X104697442Y-78008932D01*
X104984340Y-78066000D01*
X105276860Y-78066000D01*
X105563758Y-78008932D01*
X105834011Y-77896990D01*
X106077232Y-77734475D01*
X106284075Y-77527632D01*
X106400600Y-77353240D01*
X106517125Y-77527632D01*
X106723968Y-77734475D01*
X106967189Y-77896990D01*
X107237442Y-78008932D01*
X107524340Y-78066000D01*
X107816860Y-78066000D01*
X108103758Y-78008932D01*
X108304302Y-77925864D01*
X108305035Y-78945889D01*
X108015583Y-78656437D01*
X107665902Y-78422788D01*
X107277356Y-78261847D01*
X106864879Y-78179800D01*
X106444321Y-78179800D01*
X106031844Y-78261847D01*
X105643298Y-78422788D01*
X105293617Y-78656437D01*
X104996237Y-78953817D01*
X104762588Y-79303498D01*
X104601647Y-79692044D01*
X104519600Y-80104521D01*
X104519600Y-80525079D01*
X104601647Y-80937556D01*
X104762588Y-81326102D01*
X104996237Y-81675783D01*
X105286654Y-81966200D01*
X101653119Y-81966200D01*
X101757932Y-81713158D01*
X101815000Y-81426260D01*
X101815000Y-81133740D01*
X101757932Y-80846842D01*
X101645990Y-80576589D01*
X101483475Y-80333368D01*
X101351620Y-80201513D01*
X101424180Y-80179502D01*
X101534494Y-80120537D01*
X101631185Y-80041185D01*
X101710537Y-79944494D01*
X101769502Y-79834180D01*
X101805812Y-79714482D01*
X101818072Y-79590000D01*
X101818072Y-77890000D01*
X101805812Y-77765518D01*
X101769502Y-77645820D01*
X101710537Y-77535506D01*
X101631185Y-77438815D01*
X101534494Y-77359463D01*
X101424180Y-77300498D01*
X101304482Y-77264188D01*
X101180000Y-77251928D01*
X99480000Y-77251928D01*
X99355518Y-77264188D01*
X99235820Y-77300498D01*
X99125506Y-77359463D01*
X99028815Y-77438815D01*
X98949463Y-77535506D01*
X98890498Y-77645820D01*
X98868487Y-77718380D01*
X98736632Y-77586525D01*
X98493411Y-77424010D01*
X98223158Y-77312068D01*
X97936260Y-77255000D01*
X97643740Y-77255000D01*
X97356842Y-77312068D01*
X97086589Y-77424010D01*
X96843368Y-77586525D01*
X96636525Y-77793368D01*
X96520000Y-77967760D01*
X96403475Y-77793368D01*
X96196632Y-77586525D01*
X95953411Y-77424010D01*
X95683158Y-77312068D01*
X95396260Y-77255000D01*
X95103740Y-77255000D01*
X94816842Y-77312068D01*
X94546589Y-77424010D01*
X94303368Y-77586525D01*
X94096525Y-77793368D01*
X93980000Y-77967760D01*
X93863475Y-77793368D01*
X93656632Y-77586525D01*
X93413411Y-77424010D01*
X93143158Y-77312068D01*
X92856260Y-77255000D01*
X92563740Y-77255000D01*
X92429062Y-77281789D01*
X92435000Y-77251939D01*
X92435000Y-77048061D01*
X92395226Y-76848102D01*
X92317205Y-76659744D01*
X92203937Y-76490226D01*
X92059774Y-76346063D01*
X91890256Y-76232795D01*
X91701898Y-76154774D01*
X91501939Y-76115000D01*
X91298061Y-76115000D01*
X91098102Y-76154774D01*
X90909744Y-76232795D01*
X90740226Y-76346063D01*
X90596063Y-76490226D01*
X90482795Y-76659744D01*
X90404774Y-76848102D01*
X90365000Y-77048061D01*
X90365000Y-77251939D01*
X90367642Y-77265221D01*
X90316260Y-77255000D01*
X90023740Y-77255000D01*
X89920355Y-77275565D01*
X89935000Y-77201939D01*
X89935000Y-76998061D01*
X89895226Y-76798102D01*
X89817205Y-76609744D01*
X89703937Y-76440226D01*
X89559774Y-76296063D01*
X89390256Y-76182795D01*
X89201898Y-76104774D01*
X89168150Y-76098061D01*
X97165000Y-76098061D01*
X97165000Y-76301939D01*
X97204774Y-76501898D01*
X97282795Y-76690256D01*
X97396063Y-76859774D01*
X97540226Y-77003937D01*
X97709744Y-77117205D01*
X97898102Y-77195226D01*
X98098061Y-77235000D01*
X98301939Y-77235000D01*
X98501898Y-77195226D01*
X98690256Y-77117205D01*
X98859774Y-77003937D01*
X98981917Y-76881794D01*
X99109744Y-76967205D01*
X99298102Y-77045226D01*
X99498061Y-77085000D01*
X99701939Y-77085000D01*
X99901898Y-77045226D01*
X100090256Y-76967205D01*
X100259774Y-76853937D01*
X100403937Y-76709774D01*
X100517205Y-76540256D01*
X100595226Y-76351898D01*
X100635000Y-76151939D01*
X100635000Y-75948061D01*
X100595226Y-75748102D01*
X100567830Y-75681963D01*
X100609774Y-75653937D01*
X100753937Y-75509774D01*
X100867205Y-75340256D01*
X100945226Y-75151898D01*
X100985000Y-74951939D01*
X100985000Y-74748061D01*
X100945226Y-74548102D01*
X100867205Y-74359744D01*
X100753937Y-74190226D01*
X100609774Y-74046063D01*
X100440256Y-73932795D01*
X100251898Y-73854774D01*
X100051939Y-73815000D01*
X99848061Y-73815000D01*
X99648102Y-73854774D01*
X99459744Y-73932795D01*
X99290226Y-74046063D01*
X99146063Y-74190226D01*
X99032795Y-74359744D01*
X98954774Y-74548102D01*
X98915000Y-74748061D01*
X98915000Y-74951939D01*
X98954774Y-75151898D01*
X98982170Y-75218037D01*
X98940226Y-75246063D01*
X98818083Y-75368206D01*
X98690256Y-75282795D01*
X98501898Y-75204774D01*
X98301939Y-75165000D01*
X98098061Y-75165000D01*
X97898102Y-75204774D01*
X97709744Y-75282795D01*
X97540226Y-75396063D01*
X97396063Y-75540226D01*
X97282795Y-75709744D01*
X97204774Y-75898102D01*
X97165000Y-76098061D01*
X89168150Y-76098061D01*
X89001939Y-76065000D01*
X88798061Y-76065000D01*
X88598102Y-76104774D01*
X88409744Y-76182795D01*
X88240226Y-76296063D01*
X88096063Y-76440226D01*
X87982795Y-76609744D01*
X87904774Y-76798102D01*
X87865000Y-76998061D01*
X87865000Y-77201939D01*
X87879645Y-77275565D01*
X87776260Y-77255000D01*
X87724446Y-77255000D01*
X87735000Y-77201939D01*
X87735000Y-76998061D01*
X87695226Y-76798102D01*
X87617205Y-76609744D01*
X87503937Y-76440226D01*
X87359774Y-76296063D01*
X87190256Y-76182795D01*
X87001898Y-76104774D01*
X86801939Y-76065000D01*
X86598061Y-76065000D01*
X86398102Y-76104774D01*
X86209744Y-76182795D01*
X86127000Y-76238083D01*
X86127000Y-73027000D01*
X89662000Y-73027000D01*
X89686776Y-73024560D01*
X89710601Y-73017333D01*
X89732557Y-73005597D01*
X89751803Y-72989803D01*
X89767597Y-72970557D01*
X89779333Y-72948601D01*
X89786560Y-72924776D01*
X89789000Y-72900000D01*
X89789000Y-69303083D01*
X89949461Y-69335000D01*
X90153339Y-69335000D01*
X90353298Y-69295226D01*
X90541656Y-69217205D01*
X90576400Y-69193990D01*
X90611144Y-69217205D01*
X90799502Y-69295226D01*
X90999461Y-69335000D01*
X91203339Y-69335000D01*
X91403298Y-69295226D01*
X91591656Y-69217205D01*
X91761174Y-69103937D01*
X91905337Y-68959774D01*
X92018605Y-68790256D01*
X92096626Y-68601898D01*
X92136400Y-68401939D01*
X92136400Y-68198061D01*
X92096626Y-67998102D01*
X92018605Y-67809744D01*
X91905337Y-67640226D01*
X91761174Y-67496063D01*
X91710287Y-67462061D01*
X94723000Y-67462061D01*
X94723000Y-67665939D01*
X94762774Y-67865898D01*
X94840795Y-68054256D01*
X94954063Y-68223774D01*
X95098226Y-68367937D01*
X95265000Y-68479372D01*
X95265000Y-68601939D01*
X95304774Y-68801898D01*
X95382795Y-68990256D01*
X95496063Y-69159774D01*
X95640226Y-69303937D01*
X95809744Y-69417205D01*
X95998102Y-69495226D01*
X96198061Y-69535000D01*
X96401939Y-69535000D01*
X96601898Y-69495226D01*
X96790256Y-69417205D01*
X96959774Y-69303937D01*
X97103937Y-69159774D01*
X97217205Y-68990256D01*
X97295226Y-68801898D01*
X97335000Y-68601939D01*
X97335000Y-68398061D01*
X97295226Y-68198102D01*
X97217205Y-68009744D01*
X97103937Y-67840226D01*
X96990924Y-67727213D01*
X97010256Y-67719205D01*
X97179774Y-67605937D01*
X97323937Y-67461774D01*
X97437205Y-67292256D01*
X97515226Y-67103898D01*
X97555000Y-66903939D01*
X97555000Y-66700061D01*
X97515226Y-66500102D01*
X97492842Y-66446061D01*
X98787000Y-66446061D01*
X98787000Y-66649939D01*
X98826774Y-66849898D01*
X98904795Y-67038256D01*
X99018063Y-67207774D01*
X99162226Y-67351937D01*
X99331744Y-67465205D01*
X99520102Y-67543226D01*
X99720061Y-67583000D01*
X99923939Y-67583000D01*
X100123898Y-67543226D01*
X100312256Y-67465205D01*
X100481774Y-67351937D01*
X100625937Y-67207774D01*
X100739205Y-67038256D01*
X100817226Y-66849898D01*
X100857000Y-66649939D01*
X100857000Y-66446061D01*
X100817226Y-66246102D01*
X100739205Y-66057744D01*
X100625937Y-65888226D01*
X100481774Y-65744063D01*
X100312256Y-65630795D01*
X100123898Y-65552774D01*
X99923939Y-65513000D01*
X99720061Y-65513000D01*
X99520102Y-65552774D01*
X99331744Y-65630795D01*
X99162226Y-65744063D01*
X99018063Y-65888226D01*
X98904795Y-66057744D01*
X98826774Y-66246102D01*
X98787000Y-66446061D01*
X97492842Y-66446061D01*
X97437205Y-66311744D01*
X97323937Y-66142226D01*
X97179774Y-65998063D01*
X97010256Y-65884795D01*
X96821898Y-65806774D01*
X96621939Y-65767000D01*
X96418061Y-65767000D01*
X96218102Y-65806774D01*
X96029744Y-65884795D01*
X95860226Y-65998063D01*
X95716063Y-66142226D01*
X95602795Y-66311744D01*
X95524774Y-66500102D01*
X95513381Y-66557381D01*
X95456102Y-66568774D01*
X95267744Y-66646795D01*
X95098226Y-66760063D01*
X94954063Y-66904226D01*
X94840795Y-67073744D01*
X94762774Y-67262102D01*
X94723000Y-67462061D01*
X91710287Y-67462061D01*
X91591656Y-67382795D01*
X91403298Y-67304774D01*
X91203339Y-67265000D01*
X90999461Y-67265000D01*
X90799502Y-67304774D01*
X90611144Y-67382795D01*
X90576400Y-67406010D01*
X90541656Y-67382795D01*
X90353298Y-67304774D01*
X90153339Y-67265000D01*
X89949461Y-67265000D01*
X89749502Y-67304774D01*
X89561144Y-67382795D01*
X89391626Y-67496063D01*
X89247463Y-67640226D01*
X89134195Y-67809744D01*
X89109068Y-67870404D01*
X77724596Y-67817001D01*
X77699808Y-67819325D01*
X77675950Y-67826441D01*
X77653939Y-67838074D01*
X77634620Y-67853777D01*
X77618735Y-67872948D01*
X77606897Y-67894849D01*
X77599558Y-67918640D01*
X77597000Y-67944000D01*
X77597000Y-68521510D01*
X77452256Y-68424795D01*
X77263898Y-68346774D01*
X77063939Y-68307000D01*
X76860061Y-68307000D01*
X76660102Y-68346774D01*
X76471744Y-68424795D01*
X76302226Y-68538063D01*
X76158063Y-68682226D01*
X76044795Y-68851744D01*
X75966774Y-69040102D01*
X75927000Y-69240061D01*
X75927000Y-69443939D01*
X75966774Y-69643898D01*
X76044795Y-69832256D01*
X76158063Y-70001774D01*
X76302226Y-70145937D01*
X76471744Y-70259205D01*
X76660102Y-70337226D01*
X76860061Y-70377000D01*
X77063939Y-70377000D01*
X77263898Y-70337226D01*
X77452256Y-70259205D01*
X77597000Y-70162490D01*
X77597000Y-73733289D01*
X77559774Y-73696063D01*
X77390256Y-73582795D01*
X77201898Y-73504774D01*
X77001939Y-73465000D01*
X76798061Y-73465000D01*
X76598102Y-73504774D01*
X76409744Y-73582795D01*
X76240226Y-73696063D01*
X76096063Y-73840226D01*
X75982795Y-74009744D01*
X75904774Y-74198102D01*
X75865000Y-74398061D01*
X75865000Y-74601939D01*
X75904774Y-74801898D01*
X75982795Y-74990256D01*
X76096063Y-75159774D01*
X76240226Y-75303937D01*
X76409744Y-75417205D01*
X76598102Y-75495226D01*
X76798061Y-75535000D01*
X77001939Y-75535000D01*
X77201898Y-75495226D01*
X77390256Y-75417205D01*
X77559774Y-75303937D01*
X77597000Y-75266711D01*
X77597000Y-77344000D01*
X77599440Y-77368776D01*
X77606667Y-77392601D01*
X77615899Y-77409872D01*
X77597000Y-77419845D01*
X77597000Y-78613000D01*
X79883000Y-78613000D01*
X79883000Y-78593000D01*
X80137000Y-78593000D01*
X80137000Y-78613000D01*
X80157000Y-78613000D01*
X80157000Y-78867000D01*
X80137000Y-78867000D01*
X80137000Y-78887000D01*
X79883000Y-78887000D01*
X79883000Y-78867000D01*
X77597000Y-78867000D01*
X77597000Y-78887000D01*
X77343000Y-78887000D01*
X77343000Y-78867000D01*
X76149186Y-78867000D01*
X76028519Y-79096891D01*
X76125843Y-79371252D01*
X76274822Y-79621355D01*
X76469731Y-79837588D01*
X76699406Y-80008900D01*
X76523368Y-80126525D01*
X76316525Y-80333368D01*
X76154010Y-80576589D01*
X76042068Y-80846842D01*
X75985000Y-81133740D01*
X75985000Y-81426260D01*
X76042068Y-81713158D01*
X76146881Y-81966200D01*
X72614946Y-81966200D01*
X72905363Y-81675783D01*
X73139012Y-81326102D01*
X73299953Y-80937556D01*
X73382000Y-80525079D01*
X73382000Y-80104521D01*
X73299953Y-79692044D01*
X73139012Y-79303498D01*
X72905363Y-78953817D01*
X72607983Y-78656437D01*
X72258302Y-78422788D01*
X72162509Y-78383109D01*
X76028519Y-78383109D01*
X76149186Y-78613000D01*
X77343000Y-78613000D01*
X77343000Y-77419845D01*
X77113110Y-77298524D01*
X76965901Y-77343175D01*
X76703080Y-77468359D01*
X76469731Y-77642412D01*
X76274822Y-77858645D01*
X76125843Y-78108748D01*
X76028519Y-78383109D01*
X72162509Y-78383109D01*
X71869756Y-78261847D01*
X71457279Y-78179800D01*
X71036721Y-78179800D01*
X70624244Y-78261847D01*
X70235698Y-78422788D01*
X69886017Y-78656437D01*
X69621000Y-78921454D01*
X69621000Y-77977766D01*
X69696242Y-78008932D01*
X69983140Y-78066000D01*
X70275660Y-78066000D01*
X70562558Y-78008932D01*
X70832811Y-77896990D01*
X71076032Y-77734475D01*
X71282875Y-77527632D01*
X71399400Y-77353240D01*
X71515925Y-77527632D01*
X71722768Y-77734475D01*
X71965989Y-77896990D01*
X72236242Y-78008932D01*
X72523140Y-78066000D01*
X72815660Y-78066000D01*
X73102558Y-78008932D01*
X73372811Y-77896990D01*
X73616032Y-77734475D01*
X73822875Y-77527632D01*
X73985390Y-77284411D01*
X74097332Y-77014158D01*
X74154400Y-76727260D01*
X74154400Y-76434740D01*
X74097332Y-76147842D01*
X73985390Y-75877589D01*
X73822875Y-75634368D01*
X73616032Y-75427525D01*
X73433866Y-75305805D01*
X73550755Y-75236178D01*
X73766988Y-75041269D01*
X73941041Y-74807920D01*
X74066225Y-74545099D01*
X74110876Y-74397890D01*
X73989555Y-74168000D01*
X72796400Y-74168000D01*
X72796400Y-74188000D01*
X72542400Y-74188000D01*
X72542400Y-74168000D01*
X72522400Y-74168000D01*
X72522400Y-73914000D01*
X72542400Y-73914000D01*
X72542400Y-73894000D01*
X72796400Y-73894000D01*
X72796400Y-73914000D01*
X73989555Y-73914000D01*
X74110876Y-73684110D01*
X74066225Y-73536901D01*
X73941041Y-73274080D01*
X73766988Y-73040731D01*
X73550755Y-72845822D01*
X73433866Y-72776195D01*
X73616032Y-72654475D01*
X73822875Y-72447632D01*
X73985390Y-72204411D01*
X74097332Y-71934158D01*
X74154400Y-71647260D01*
X74154400Y-71354740D01*
X74097332Y-71067842D01*
X73985390Y-70797589D01*
X73962988Y-70764061D01*
X74403000Y-70764061D01*
X74403000Y-70967939D01*
X74442774Y-71167898D01*
X74520795Y-71356256D01*
X74634063Y-71525774D01*
X74778226Y-71669937D01*
X74947744Y-71783205D01*
X75136102Y-71861226D01*
X75336061Y-71901000D01*
X75539939Y-71901000D01*
X75739898Y-71861226D01*
X75928256Y-71783205D01*
X76097774Y-71669937D01*
X76241937Y-71525774D01*
X76355205Y-71356256D01*
X76433226Y-71167898D01*
X76473000Y-70967939D01*
X76473000Y-70764061D01*
X76433226Y-70564102D01*
X76355205Y-70375744D01*
X76241937Y-70206226D01*
X76097774Y-70062063D01*
X75928256Y-69948795D01*
X75739898Y-69870774D01*
X75539939Y-69831000D01*
X75336061Y-69831000D01*
X75136102Y-69870774D01*
X74947744Y-69948795D01*
X74778226Y-70062063D01*
X74634063Y-70206226D01*
X74520795Y-70375744D01*
X74442774Y-70564102D01*
X74403000Y-70764061D01*
X73962988Y-70764061D01*
X73822875Y-70554368D01*
X73616032Y-70347525D01*
X73441640Y-70231000D01*
X73616032Y-70114475D01*
X73822875Y-69907632D01*
X73985390Y-69664411D01*
X74097332Y-69394158D01*
X74154400Y-69107260D01*
X74154400Y-68814740D01*
X74097332Y-68527842D01*
X73985390Y-68257589D01*
X73822875Y-68014368D01*
X73616032Y-67807525D01*
X73441640Y-67691000D01*
X73616032Y-67574475D01*
X73822875Y-67367632D01*
X73985390Y-67124411D01*
X74097332Y-66854158D01*
X74154400Y-66567260D01*
X74154400Y-66274740D01*
X74097332Y-65987842D01*
X73985390Y-65717589D01*
X73822875Y-65474368D01*
X73616032Y-65267525D01*
X73441640Y-65151000D01*
X73616032Y-65034475D01*
X73728446Y-64922061D01*
X74403000Y-64922061D01*
X74403000Y-65125939D01*
X74442774Y-65325898D01*
X74520795Y-65514256D01*
X74634063Y-65683774D01*
X74778226Y-65827937D01*
X74947744Y-65941205D01*
X75136102Y-66019226D01*
X75336061Y-66059000D01*
X75539939Y-66059000D01*
X75739898Y-66019226D01*
X75928256Y-65941205D01*
X76097774Y-65827937D01*
X76241937Y-65683774D01*
X76327000Y-65556468D01*
X76412063Y-65683774D01*
X76556226Y-65827937D01*
X76725744Y-65941205D01*
X76914102Y-66019226D01*
X77114061Y-66059000D01*
X77317939Y-66059000D01*
X77517898Y-66019226D01*
X77706256Y-65941205D01*
X77875774Y-65827937D01*
X78005650Y-65698061D01*
X89765000Y-65698061D01*
X89765000Y-65901939D01*
X89804774Y-66101898D01*
X89882795Y-66290256D01*
X89996063Y-66459774D01*
X90140226Y-66603937D01*
X90309744Y-66717205D01*
X90498102Y-66795226D01*
X90698061Y-66835000D01*
X90901939Y-66835000D01*
X91101898Y-66795226D01*
X91290256Y-66717205D01*
X91459774Y-66603937D01*
X91603937Y-66459774D01*
X91717205Y-66290256D01*
X91795226Y-66101898D01*
X91835000Y-65901939D01*
X91835000Y-65698061D01*
X91817059Y-65607861D01*
X93681600Y-65607861D01*
X93681600Y-65811739D01*
X93721374Y-66011698D01*
X93799395Y-66200056D01*
X93912663Y-66369574D01*
X94056826Y-66513737D01*
X94226344Y-66627005D01*
X94414702Y-66705026D01*
X94614661Y-66744800D01*
X94818539Y-66744800D01*
X95018498Y-66705026D01*
X95206856Y-66627005D01*
X95376374Y-66513737D01*
X95520537Y-66369574D01*
X95633805Y-66200056D01*
X95711826Y-66011698D01*
X95751600Y-65811739D01*
X95751600Y-65607861D01*
X95711826Y-65407902D01*
X95633805Y-65219544D01*
X95520537Y-65050026D01*
X95376374Y-64905863D01*
X95206856Y-64792595D01*
X95018498Y-64714574D01*
X94818539Y-64674800D01*
X94614661Y-64674800D01*
X94414702Y-64714574D01*
X94226344Y-64792595D01*
X94056826Y-64905863D01*
X93912663Y-65050026D01*
X93799395Y-65219544D01*
X93721374Y-65407902D01*
X93681600Y-65607861D01*
X91817059Y-65607861D01*
X91795226Y-65498102D01*
X91717205Y-65309744D01*
X91603937Y-65140226D01*
X91459774Y-64996063D01*
X91290256Y-64882795D01*
X91101898Y-64804774D01*
X90901939Y-64765000D01*
X90698061Y-64765000D01*
X90498102Y-64804774D01*
X90309744Y-64882795D01*
X90140226Y-64996063D01*
X89996063Y-65140226D01*
X89882795Y-65309744D01*
X89804774Y-65498102D01*
X89765000Y-65698061D01*
X78005650Y-65698061D01*
X78019937Y-65683774D01*
X78133205Y-65514256D01*
X78211226Y-65325898D01*
X78251000Y-65125939D01*
X78251000Y-64922061D01*
X78211226Y-64722102D01*
X78133205Y-64533744D01*
X78019937Y-64364226D01*
X77875774Y-64220063D01*
X77785975Y-64160061D01*
X98787000Y-64160061D01*
X98787000Y-64363939D01*
X98826774Y-64563898D01*
X98904795Y-64752256D01*
X99018063Y-64921774D01*
X99162226Y-65065937D01*
X99331744Y-65179205D01*
X99520102Y-65257226D01*
X99720061Y-65297000D01*
X99923939Y-65297000D01*
X100123898Y-65257226D01*
X100312256Y-65179205D01*
X100481774Y-65065937D01*
X100625937Y-64921774D01*
X100739205Y-64752256D01*
X100817226Y-64563898D01*
X100857000Y-64363939D01*
X100857000Y-64160061D01*
X100817226Y-63960102D01*
X100739205Y-63771744D01*
X100625937Y-63602226D01*
X100481774Y-63458063D01*
X100312256Y-63344795D01*
X100123898Y-63266774D01*
X99923939Y-63227000D01*
X99720061Y-63227000D01*
X99520102Y-63266774D01*
X99331744Y-63344795D01*
X99162226Y-63458063D01*
X99018063Y-63602226D01*
X98904795Y-63771744D01*
X98826774Y-63960102D01*
X98787000Y-64160061D01*
X77785975Y-64160061D01*
X77706256Y-64106795D01*
X77517898Y-64028774D01*
X77317939Y-63989000D01*
X77114061Y-63989000D01*
X76914102Y-64028774D01*
X76725744Y-64106795D01*
X76556226Y-64220063D01*
X76412063Y-64364226D01*
X76327000Y-64491532D01*
X76241937Y-64364226D01*
X76097774Y-64220063D01*
X75928256Y-64106795D01*
X75739898Y-64028774D01*
X75539939Y-63989000D01*
X75336061Y-63989000D01*
X75136102Y-64028774D01*
X74947744Y-64106795D01*
X74778226Y-64220063D01*
X74634063Y-64364226D01*
X74520795Y-64533744D01*
X74442774Y-64722102D01*
X74403000Y-64922061D01*
X73728446Y-64922061D01*
X73822875Y-64827632D01*
X73985390Y-64584411D01*
X74097332Y-64314158D01*
X74154400Y-64027260D01*
X74154400Y-63734740D01*
X74097332Y-63447842D01*
X73985390Y-63177589D01*
X73822875Y-62934368D01*
X73616032Y-62727525D01*
X73441640Y-62611000D01*
X73556188Y-62534461D01*
X91929000Y-62534461D01*
X91929000Y-62738339D01*
X91968774Y-62938298D01*
X92046795Y-63126656D01*
X92160063Y-63296174D01*
X92304226Y-63440337D01*
X92473744Y-63553605D01*
X92662102Y-63631626D01*
X92862061Y-63671400D01*
X93065939Y-63671400D01*
X93265898Y-63631626D01*
X93454256Y-63553605D01*
X93623774Y-63440337D01*
X93767937Y-63296174D01*
X93881205Y-63126656D01*
X93959226Y-62938298D01*
X93999000Y-62738339D01*
X93999000Y-62534461D01*
X93959226Y-62334502D01*
X93881205Y-62146144D01*
X93767937Y-61976626D01*
X93623774Y-61832463D01*
X93454256Y-61719195D01*
X93265898Y-61641174D01*
X93065939Y-61601400D01*
X92862061Y-61601400D01*
X92662102Y-61641174D01*
X92473744Y-61719195D01*
X92304226Y-61832463D01*
X92160063Y-61976626D01*
X92046795Y-62146144D01*
X91968774Y-62334502D01*
X91929000Y-62534461D01*
X73556188Y-62534461D01*
X73616032Y-62494475D01*
X73822875Y-62287632D01*
X73985390Y-62044411D01*
X74097332Y-61774158D01*
X74154400Y-61487260D01*
X74154400Y-61194740D01*
X74097332Y-60907842D01*
X73985390Y-60637589D01*
X73822875Y-60394368D01*
X73616032Y-60187525D01*
X73441640Y-60071000D01*
X73616032Y-59954475D01*
X73822875Y-59747632D01*
X73985390Y-59504411D01*
X74097332Y-59234158D01*
X74154400Y-58947260D01*
X74154400Y-58699061D01*
X83978800Y-58699061D01*
X83978800Y-58902939D01*
X84018574Y-59102898D01*
X84096595Y-59291256D01*
X84209863Y-59460774D01*
X84354026Y-59604937D01*
X84523544Y-59718205D01*
X84711902Y-59796226D01*
X84911861Y-59836000D01*
X85115739Y-59836000D01*
X85315698Y-59796226D01*
X85357795Y-59778789D01*
X85325000Y-59943661D01*
X85325000Y-60147539D01*
X85364774Y-60347498D01*
X85442795Y-60535856D01*
X85556063Y-60705374D01*
X85700226Y-60849537D01*
X85869744Y-60962805D01*
X86058102Y-61040826D01*
X86258061Y-61080600D01*
X86461939Y-61080600D01*
X86661898Y-61040826D01*
X86850256Y-60962805D01*
X87019774Y-60849537D01*
X87163937Y-60705374D01*
X87277205Y-60535856D01*
X87355226Y-60347498D01*
X87395000Y-60147539D01*
X87395000Y-59943661D01*
X87355226Y-59743702D01*
X87277205Y-59555344D01*
X87163937Y-59385826D01*
X87019774Y-59241663D01*
X86850256Y-59128395D01*
X86661898Y-59050374D01*
X86461939Y-59010600D01*
X86258061Y-59010600D01*
X86058102Y-59050374D01*
X86016005Y-59067811D01*
X86039824Y-58948061D01*
X93590000Y-58948061D01*
X93590000Y-59151939D01*
X93629774Y-59351898D01*
X93707795Y-59540256D01*
X93821063Y-59709774D01*
X93965226Y-59853937D01*
X94134744Y-59967205D01*
X94323102Y-60045226D01*
X94523061Y-60085000D01*
X94726939Y-60085000D01*
X94926898Y-60045226D01*
X95115256Y-59967205D01*
X95284774Y-59853937D01*
X95428937Y-59709774D01*
X95542205Y-59540256D01*
X95620226Y-59351898D01*
X95660000Y-59151939D01*
X95660000Y-58948061D01*
X95620226Y-58748102D01*
X95542205Y-58559744D01*
X95428937Y-58390226D01*
X95284774Y-58246063D01*
X95115256Y-58132795D01*
X95010640Y-58089461D01*
X95688200Y-58089461D01*
X95688200Y-58293339D01*
X95727974Y-58493298D01*
X95805995Y-58681656D01*
X95919263Y-58851174D01*
X96063426Y-58995337D01*
X96232944Y-59108605D01*
X96421302Y-59186626D01*
X96621261Y-59226400D01*
X96825139Y-59226400D01*
X97025098Y-59186626D01*
X97213456Y-59108605D01*
X97382974Y-58995337D01*
X97527137Y-58851174D01*
X97640405Y-58681656D01*
X97718426Y-58493298D01*
X97758200Y-58293339D01*
X97758200Y-58089461D01*
X97718426Y-57889502D01*
X97640405Y-57701144D01*
X97527137Y-57531626D01*
X97382974Y-57387463D01*
X97213456Y-57274195D01*
X97025098Y-57196174D01*
X96825139Y-57156400D01*
X96621261Y-57156400D01*
X96421302Y-57196174D01*
X96232944Y-57274195D01*
X96063426Y-57387463D01*
X95919263Y-57531626D01*
X95805995Y-57701144D01*
X95727974Y-57889502D01*
X95688200Y-58089461D01*
X95010640Y-58089461D01*
X94926898Y-58054774D01*
X94726939Y-58015000D01*
X94523061Y-58015000D01*
X94323102Y-58054774D01*
X94134744Y-58132795D01*
X93965226Y-58246063D01*
X93821063Y-58390226D01*
X93707795Y-58559744D01*
X93629774Y-58748102D01*
X93590000Y-58948061D01*
X86039824Y-58948061D01*
X86048800Y-58902939D01*
X86048800Y-58699061D01*
X86009026Y-58499102D01*
X85931005Y-58310744D01*
X85817737Y-58141226D01*
X85673574Y-57997063D01*
X85504056Y-57883795D01*
X85315698Y-57805774D01*
X85115739Y-57766000D01*
X84911861Y-57766000D01*
X84711902Y-57805774D01*
X84523544Y-57883795D01*
X84354026Y-57997063D01*
X84209863Y-58141226D01*
X84096595Y-58310744D01*
X84018574Y-58499102D01*
X83978800Y-58699061D01*
X74154400Y-58699061D01*
X74154400Y-58654740D01*
X74097332Y-58367842D01*
X73985390Y-58097589D01*
X73822875Y-57854368D01*
X73616032Y-57647525D01*
X73441640Y-57531000D01*
X73616032Y-57414475D01*
X73822875Y-57207632D01*
X73985390Y-56964411D01*
X74097332Y-56694158D01*
X74154400Y-56407260D01*
X74154400Y-56114740D01*
X74097332Y-55827842D01*
X73985390Y-55557589D01*
X73822875Y-55314368D01*
X73740707Y-55232200D01*
X78317928Y-55232200D01*
X78330188Y-55356682D01*
X78366498Y-55476380D01*
X78425463Y-55586694D01*
X78504815Y-55683385D01*
X78601506Y-55762737D01*
X78711820Y-55821702D01*
X78831518Y-55858012D01*
X78956000Y-55870272D01*
X79470250Y-55867200D01*
X79629000Y-55708450D01*
X79629000Y-54559200D01*
X78479750Y-54559200D01*
X78321000Y-54717950D01*
X78317928Y-55232200D01*
X73740707Y-55232200D01*
X73616032Y-55107525D01*
X73441640Y-54991000D01*
X73616032Y-54874475D01*
X73822875Y-54667632D01*
X73985390Y-54424411D01*
X74097332Y-54154158D01*
X74154400Y-53867260D01*
X74154400Y-53574740D01*
X74097332Y-53287842D01*
X73985390Y-53017589D01*
X73822875Y-52774368D01*
X73616032Y-52567525D01*
X73441640Y-52451000D01*
X73616032Y-52334475D01*
X73822875Y-52127632D01*
X73985390Y-51884411D01*
X74097332Y-51614158D01*
X74117668Y-51511921D01*
X74551000Y-51511921D01*
X74551000Y-51932479D01*
X74633047Y-52344956D01*
X74793988Y-52733502D01*
X75027637Y-53083183D01*
X75325017Y-53380563D01*
X75674698Y-53614212D01*
X76063244Y-53775153D01*
X76475721Y-53857200D01*
X76896279Y-53857200D01*
X77308756Y-53775153D01*
X77653875Y-53632200D01*
X78317928Y-53632200D01*
X78321000Y-54146450D01*
X78479750Y-54305200D01*
X79629000Y-54305200D01*
X79629000Y-53155950D01*
X79883000Y-53155950D01*
X79883000Y-54305200D01*
X79903000Y-54305200D01*
X79903000Y-54559200D01*
X79883000Y-54559200D01*
X79883000Y-55708450D01*
X80041750Y-55867200D01*
X80556000Y-55870272D01*
X80680482Y-55858012D01*
X80800180Y-55821702D01*
X80910494Y-55762737D01*
X81007185Y-55683385D01*
X81086537Y-55586694D01*
X81145502Y-55476380D01*
X81174661Y-55380257D01*
X81341241Y-55546837D01*
X81576273Y-55703880D01*
X81837426Y-55812053D01*
X82114665Y-55867200D01*
X82397335Y-55867200D01*
X82674574Y-55812053D01*
X82935727Y-55703880D01*
X83170759Y-55546837D01*
X83256000Y-55461596D01*
X83341241Y-55546837D01*
X83576273Y-55703880D01*
X83837426Y-55812053D01*
X84114665Y-55867200D01*
X84397335Y-55867200D01*
X84674574Y-55812053D01*
X84935727Y-55703880D01*
X85170759Y-55546837D01*
X85370637Y-55346959D01*
X85506000Y-55144373D01*
X85641363Y-55346959D01*
X85841241Y-55546837D01*
X86076273Y-55703880D01*
X86337426Y-55812053D01*
X86614665Y-55867200D01*
X86897335Y-55867200D01*
X87174574Y-55812053D01*
X87435727Y-55703880D01*
X87670759Y-55546837D01*
X87870637Y-55346959D01*
X87888075Y-55320861D01*
X91878200Y-55320861D01*
X91878200Y-55524739D01*
X91917974Y-55724698D01*
X91995995Y-55913056D01*
X92109263Y-56082574D01*
X92253426Y-56226737D01*
X92422944Y-56340005D01*
X92474803Y-56361486D01*
X92396063Y-56440226D01*
X92282795Y-56609744D01*
X92204774Y-56798102D01*
X92165000Y-56998061D01*
X92165000Y-57201939D01*
X92204774Y-57401898D01*
X92282795Y-57590256D01*
X92396063Y-57759774D01*
X92540226Y-57903937D01*
X92709744Y-58017205D01*
X92898102Y-58095226D01*
X93098061Y-58135000D01*
X93301939Y-58135000D01*
X93501898Y-58095226D01*
X93690256Y-58017205D01*
X93859774Y-57903937D01*
X94003937Y-57759774D01*
X94117205Y-57590256D01*
X94195226Y-57401898D01*
X94235000Y-57201939D01*
X94235000Y-56998061D01*
X94195226Y-56798102D01*
X94117205Y-56609744D01*
X94003937Y-56440226D01*
X94002172Y-56438461D01*
X99930000Y-56438461D01*
X99930000Y-56642339D01*
X99969774Y-56842298D01*
X100047795Y-57030656D01*
X100161063Y-57200174D01*
X100212489Y-57251600D01*
X100211863Y-57252226D01*
X100098595Y-57421744D01*
X100020574Y-57610102D01*
X99980800Y-57810061D01*
X99980800Y-58013939D01*
X100020574Y-58213898D01*
X100098595Y-58402256D01*
X100211863Y-58571774D01*
X100356026Y-58715937D01*
X100525544Y-58829205D01*
X100713902Y-58907226D01*
X100913861Y-58947000D01*
X101117739Y-58947000D01*
X101317698Y-58907226D01*
X101506056Y-58829205D01*
X101675574Y-58715937D01*
X101819737Y-58571774D01*
X101933005Y-58402256D01*
X102011026Y-58213898D01*
X102050800Y-58013939D01*
X102050800Y-57810061D01*
X102011026Y-57610102D01*
X101933005Y-57421744D01*
X101819737Y-57252226D01*
X101768311Y-57200800D01*
X101768937Y-57200174D01*
X101882205Y-57030656D01*
X101960226Y-56842298D01*
X102000000Y-56642339D01*
X102000000Y-56438461D01*
X101960226Y-56238502D01*
X101882205Y-56050144D01*
X101768937Y-55880626D01*
X101624774Y-55736463D01*
X101455256Y-55623195D01*
X101266898Y-55545174D01*
X101066939Y-55505400D01*
X100863061Y-55505400D01*
X100663102Y-55545174D01*
X100474744Y-55623195D01*
X100305226Y-55736463D01*
X100161063Y-55880626D01*
X100047795Y-56050144D01*
X99969774Y-56238502D01*
X99930000Y-56438461D01*
X94002172Y-56438461D01*
X93859774Y-56296063D01*
X93690256Y-56182795D01*
X93638397Y-56161314D01*
X93717137Y-56082574D01*
X93830405Y-55913056D01*
X93908426Y-55724698D01*
X93948200Y-55524739D01*
X93948200Y-55320861D01*
X93908426Y-55120902D01*
X93830405Y-54932544D01*
X93717137Y-54763026D01*
X93589172Y-54635061D01*
X101784200Y-54635061D01*
X101784200Y-54838939D01*
X101823974Y-55038898D01*
X101901995Y-55227256D01*
X102015263Y-55396774D01*
X102159426Y-55540937D01*
X102328944Y-55654205D01*
X102517302Y-55732226D01*
X102717261Y-55772000D01*
X102921139Y-55772000D01*
X103121098Y-55732226D01*
X103309456Y-55654205D01*
X103478974Y-55540937D01*
X103623137Y-55396774D01*
X103736405Y-55227256D01*
X103814426Y-55038898D01*
X103854200Y-54838939D01*
X103854200Y-54635061D01*
X103814426Y-54435102D01*
X103736405Y-54246744D01*
X103623137Y-54077226D01*
X103478974Y-53933063D01*
X103309456Y-53819795D01*
X103121098Y-53741774D01*
X102921139Y-53702000D01*
X102717261Y-53702000D01*
X102517302Y-53741774D01*
X102328944Y-53819795D01*
X102159426Y-53933063D01*
X102015263Y-54077226D01*
X101901995Y-54246744D01*
X101823974Y-54435102D01*
X101784200Y-54635061D01*
X93589172Y-54635061D01*
X93572974Y-54618863D01*
X93403456Y-54505595D01*
X93215098Y-54427574D01*
X93015139Y-54387800D01*
X92811261Y-54387800D01*
X92611302Y-54427574D01*
X92422944Y-54505595D01*
X92253426Y-54618863D01*
X92109263Y-54763026D01*
X91995995Y-54932544D01*
X91917974Y-55120902D01*
X91878200Y-55320861D01*
X87888075Y-55320861D01*
X88027680Y-55111927D01*
X88135853Y-54850774D01*
X88191000Y-54573535D01*
X88191000Y-54290865D01*
X88135853Y-54013626D01*
X88027680Y-53752473D01*
X87870637Y-53517441D01*
X87670759Y-53317563D01*
X87435727Y-53160520D01*
X87174574Y-53052347D01*
X86897335Y-52997200D01*
X86614665Y-52997200D01*
X86337426Y-53052347D01*
X86076273Y-53160520D01*
X85841241Y-53317563D01*
X85641363Y-53517441D01*
X85506000Y-53720027D01*
X85370637Y-53517441D01*
X85170759Y-53317563D01*
X84935727Y-53160520D01*
X84674574Y-53052347D01*
X84397335Y-52997200D01*
X84114665Y-52997200D01*
X83837426Y-53052347D01*
X83576273Y-53160520D01*
X83341241Y-53317563D01*
X83256000Y-53402804D01*
X83170759Y-53317563D01*
X82935727Y-53160520D01*
X82674574Y-53052347D01*
X82397335Y-52997200D01*
X82114665Y-52997200D01*
X81837426Y-53052347D01*
X81576273Y-53160520D01*
X81341241Y-53317563D01*
X81174661Y-53484143D01*
X81145502Y-53388020D01*
X81086537Y-53277706D01*
X81007185Y-53181015D01*
X80910494Y-53101663D01*
X80800180Y-53042698D01*
X80680482Y-53006388D01*
X80556000Y-52994128D01*
X80041750Y-52997200D01*
X79883000Y-53155950D01*
X79629000Y-53155950D01*
X79470250Y-52997200D01*
X78956000Y-52994128D01*
X78831518Y-53006388D01*
X78711820Y-53042698D01*
X78601506Y-53101663D01*
X78504815Y-53181015D01*
X78425463Y-53277706D01*
X78366498Y-53388020D01*
X78330188Y-53507718D01*
X78317928Y-53632200D01*
X77653875Y-53632200D01*
X77697302Y-53614212D01*
X78046983Y-53380563D01*
X78344363Y-53083183D01*
X78578012Y-52733502D01*
X78738953Y-52344956D01*
X78821000Y-51932479D01*
X78821000Y-51511921D01*
X87691000Y-51511921D01*
X87691000Y-51932479D01*
X87773047Y-52344956D01*
X87933988Y-52733502D01*
X88167637Y-53083183D01*
X88465017Y-53380563D01*
X88814698Y-53614212D01*
X89203244Y-53775153D01*
X89615721Y-53857200D01*
X90036279Y-53857200D01*
X90448756Y-53775153D01*
X90837302Y-53614212D01*
X91186983Y-53380563D01*
X91484363Y-53083183D01*
X91718012Y-52733502D01*
X91878953Y-52344956D01*
X91958974Y-51942661D01*
X101555600Y-51942661D01*
X101555600Y-52146539D01*
X101595374Y-52346498D01*
X101673395Y-52534856D01*
X101786663Y-52704374D01*
X101930826Y-52848537D01*
X102100344Y-52961805D01*
X102288702Y-53039826D01*
X102488661Y-53079600D01*
X102692539Y-53079600D01*
X102892498Y-53039826D01*
X103080856Y-52961805D01*
X103250374Y-52848537D01*
X103394537Y-52704374D01*
X103507805Y-52534856D01*
X103585826Y-52346498D01*
X103625600Y-52146539D01*
X103625600Y-51942661D01*
X103585826Y-51742702D01*
X103507805Y-51554344D01*
X103394537Y-51384826D01*
X103250374Y-51240663D01*
X103080856Y-51127395D01*
X102892498Y-51049374D01*
X102692539Y-51009600D01*
X102488661Y-51009600D01*
X102288702Y-51049374D01*
X102100344Y-51127395D01*
X101930826Y-51240663D01*
X101786663Y-51384826D01*
X101673395Y-51554344D01*
X101595374Y-51742702D01*
X101555600Y-51942661D01*
X91958974Y-51942661D01*
X91961000Y-51932479D01*
X91961000Y-51511921D01*
X91878953Y-51099444D01*
X91718012Y-50710898D01*
X91484363Y-50361217D01*
X91186983Y-50063837D01*
X90837302Y-49830188D01*
X90448756Y-49669247D01*
X90036279Y-49587200D01*
X89615721Y-49587200D01*
X89203244Y-49669247D01*
X88814698Y-49830188D01*
X88465017Y-50063837D01*
X88167637Y-50361217D01*
X87933988Y-50710898D01*
X87773047Y-51099444D01*
X87691000Y-51511921D01*
X78821000Y-51511921D01*
X78738953Y-51099444D01*
X78578012Y-50710898D01*
X78344363Y-50361217D01*
X78046983Y-50063837D01*
X77798882Y-49898061D01*
X79165000Y-49898061D01*
X79165000Y-50101939D01*
X79204774Y-50301898D01*
X79282795Y-50490256D01*
X79396063Y-50659774D01*
X79540226Y-50803937D01*
X79709744Y-50917205D01*
X79898102Y-50995226D01*
X80098061Y-51035000D01*
X80301939Y-51035000D01*
X80501898Y-50995226D01*
X80690256Y-50917205D01*
X80859774Y-50803937D01*
X81003937Y-50659774D01*
X81117205Y-50490256D01*
X81195226Y-50301898D01*
X81235000Y-50101939D01*
X81235000Y-49898061D01*
X85515000Y-49898061D01*
X85515000Y-50101939D01*
X85554774Y-50301898D01*
X85632795Y-50490256D01*
X85746063Y-50659774D01*
X85890226Y-50803937D01*
X86059744Y-50917205D01*
X86248102Y-50995226D01*
X86448061Y-51035000D01*
X86651939Y-51035000D01*
X86851898Y-50995226D01*
X87040256Y-50917205D01*
X87209774Y-50803937D01*
X87353937Y-50659774D01*
X87467205Y-50490256D01*
X87545226Y-50301898D01*
X87585000Y-50101939D01*
X87585000Y-49898061D01*
X87545226Y-49698102D01*
X87467205Y-49509744D01*
X87353937Y-49340226D01*
X87340172Y-49326461D01*
X95675600Y-49326461D01*
X95675600Y-49530339D01*
X95715374Y-49730298D01*
X95793395Y-49918656D01*
X95906663Y-50088174D01*
X96050826Y-50232337D01*
X96220344Y-50345605D01*
X96408702Y-50423626D01*
X96608661Y-50463400D01*
X96812539Y-50463400D01*
X97012498Y-50423626D01*
X97200856Y-50345605D01*
X97370374Y-50232337D01*
X97514537Y-50088174D01*
X97627805Y-49918656D01*
X97705826Y-49730298D01*
X97745600Y-49530339D01*
X97745600Y-49428061D01*
X99930000Y-49428061D01*
X99930000Y-49631939D01*
X99969774Y-49831898D01*
X100047795Y-50020256D01*
X100161063Y-50189774D01*
X100305226Y-50333937D01*
X100474744Y-50447205D01*
X100663102Y-50525226D01*
X100863061Y-50565000D01*
X101066939Y-50565000D01*
X101266898Y-50525226D01*
X101455256Y-50447205D01*
X101624774Y-50333937D01*
X101768937Y-50189774D01*
X101882205Y-50020256D01*
X101960226Y-49831898D01*
X102000000Y-49631939D01*
X102000000Y-49428061D01*
X101960226Y-49228102D01*
X101882205Y-49039744D01*
X101768937Y-48870226D01*
X101624774Y-48726063D01*
X101455256Y-48612795D01*
X101266898Y-48534774D01*
X101066939Y-48495000D01*
X100863061Y-48495000D01*
X100663102Y-48534774D01*
X100474744Y-48612795D01*
X100305226Y-48726063D01*
X100161063Y-48870226D01*
X100047795Y-49039744D01*
X99969774Y-49228102D01*
X99930000Y-49428061D01*
X97745600Y-49428061D01*
X97745600Y-49326461D01*
X97705826Y-49126502D01*
X97627805Y-48938144D01*
X97514537Y-48768626D01*
X97370374Y-48624463D01*
X97200856Y-48511195D01*
X97012498Y-48433174D01*
X96812539Y-48393400D01*
X96608661Y-48393400D01*
X96408702Y-48433174D01*
X96220344Y-48511195D01*
X96050826Y-48624463D01*
X95906663Y-48768626D01*
X95793395Y-48938144D01*
X95715374Y-49126502D01*
X95675600Y-49326461D01*
X87340172Y-49326461D01*
X87209774Y-49196063D01*
X87040256Y-49082795D01*
X86851898Y-49004774D01*
X86651939Y-48965000D01*
X86448061Y-48965000D01*
X86248102Y-49004774D01*
X86059744Y-49082795D01*
X85890226Y-49196063D01*
X85746063Y-49340226D01*
X85632795Y-49509744D01*
X85554774Y-49698102D01*
X85515000Y-49898061D01*
X81235000Y-49898061D01*
X81195226Y-49698102D01*
X81117205Y-49509744D01*
X81003937Y-49340226D01*
X80859774Y-49196063D01*
X80690256Y-49082795D01*
X80501898Y-49004774D01*
X80301939Y-48965000D01*
X80098061Y-48965000D01*
X79898102Y-49004774D01*
X79709744Y-49082795D01*
X79540226Y-49196063D01*
X79396063Y-49340226D01*
X79282795Y-49509744D01*
X79204774Y-49698102D01*
X79165000Y-49898061D01*
X77798882Y-49898061D01*
X77697302Y-49830188D01*
X77308756Y-49669247D01*
X76896279Y-49587200D01*
X76475721Y-49587200D01*
X76063244Y-49669247D01*
X75674698Y-49830188D01*
X75325017Y-50063837D01*
X75027637Y-50361217D01*
X74793988Y-50710898D01*
X74633047Y-51099444D01*
X74551000Y-51511921D01*
X74117668Y-51511921D01*
X74154400Y-51327260D01*
X74154400Y-51034740D01*
X74097332Y-50747842D01*
X73985390Y-50477589D01*
X73822875Y-50234368D01*
X73616032Y-50027525D01*
X73441640Y-49911000D01*
X73616032Y-49794475D01*
X73822875Y-49587632D01*
X73985390Y-49344411D01*
X74097332Y-49074158D01*
X74154400Y-48787260D01*
X74154400Y-48494740D01*
X74097332Y-48207842D01*
X73985390Y-47937589D01*
X73822875Y-47694368D01*
X73616032Y-47487525D01*
X73372811Y-47325010D01*
X73102558Y-47213068D01*
X72815660Y-47156000D01*
X72523140Y-47156000D01*
X72236242Y-47213068D01*
X71965989Y-47325010D01*
X71722768Y-47487525D01*
X71590913Y-47619380D01*
X71568902Y-47546820D01*
X71509937Y-47436506D01*
X71430585Y-47339815D01*
X71333894Y-47260463D01*
X71223580Y-47201498D01*
X71103882Y-47165188D01*
X70979400Y-47152928D01*
X70415150Y-47156000D01*
X70256400Y-47314750D01*
X70256400Y-48514000D01*
X70276400Y-48514000D01*
X70276400Y-48768000D01*
X70256400Y-48768000D01*
X70256400Y-48788000D01*
X70002400Y-48788000D01*
X70002400Y-48768000D01*
X69982400Y-48768000D01*
X69982400Y-48514000D01*
X70002400Y-48514000D01*
X70002400Y-47314750D01*
X69843650Y-47156000D01*
X69621000Y-47154788D01*
X69621000Y-46300546D01*
X69886017Y-46565563D01*
X70235698Y-46799212D01*
X70624244Y-46960153D01*
X71036721Y-47042200D01*
X71457279Y-47042200D01*
X71869756Y-46960153D01*
X72258302Y-46799212D01*
X72505468Y-46634061D01*
X81769000Y-46634061D01*
X81769000Y-46837939D01*
X81808774Y-47037898D01*
X81886795Y-47226256D01*
X82000063Y-47395774D01*
X82144226Y-47539937D01*
X82313744Y-47653205D01*
X82502102Y-47731226D01*
X82702061Y-47771000D01*
X82905939Y-47771000D01*
X83105898Y-47731226D01*
X83294256Y-47653205D01*
X83312000Y-47641349D01*
X83329744Y-47653205D01*
X83518102Y-47731226D01*
X83718061Y-47771000D01*
X83921939Y-47771000D01*
X84121898Y-47731226D01*
X84310256Y-47653205D01*
X84479774Y-47539937D01*
X84623937Y-47395774D01*
X84737205Y-47226256D01*
X84815226Y-47037898D01*
X84855000Y-46837939D01*
X84855000Y-46634061D01*
X84815226Y-46434102D01*
X84737205Y-46245744D01*
X84623937Y-46076226D01*
X84479774Y-45932063D01*
X84310256Y-45818795D01*
X84121898Y-45740774D01*
X83921939Y-45701000D01*
X83718061Y-45701000D01*
X83518102Y-45740774D01*
X83329744Y-45818795D01*
X83312000Y-45830651D01*
X83294256Y-45818795D01*
X83105898Y-45740774D01*
X82905939Y-45701000D01*
X82702061Y-45701000D01*
X82502102Y-45740774D01*
X82313744Y-45818795D01*
X82144226Y-45932063D01*
X82000063Y-46076226D01*
X81886795Y-46245744D01*
X81808774Y-46434102D01*
X81769000Y-46634061D01*
X72505468Y-46634061D01*
X72607983Y-46565563D01*
X72905363Y-46268183D01*
X73139012Y-45918502D01*
X73299953Y-45529956D01*
X73382000Y-45117479D01*
X73382000Y-44696921D01*
X73337870Y-44475061D01*
X92945000Y-44475061D01*
X92945000Y-44678939D01*
X92984774Y-44878898D01*
X93062795Y-45067256D01*
X93176063Y-45236774D01*
X93320226Y-45380937D01*
X93489744Y-45494205D01*
X93678102Y-45572226D01*
X93878061Y-45612000D01*
X94081939Y-45612000D01*
X94281898Y-45572226D01*
X94470256Y-45494205D01*
X94553600Y-45438516D01*
X94553600Y-45482378D01*
X94570385Y-45652799D01*
X94636715Y-45871459D01*
X94744429Y-46072978D01*
X94889388Y-46249612D01*
X95066021Y-46394571D01*
X95267540Y-46502285D01*
X95486200Y-46568615D01*
X95713600Y-46591012D01*
X95940999Y-46568615D01*
X96159659Y-46502285D01*
X96361178Y-46394571D01*
X96537812Y-46249612D01*
X96682771Y-46072979D01*
X96790485Y-45871460D01*
X96856815Y-45652800D01*
X96873600Y-45482379D01*
X96873600Y-44518422D01*
X101703600Y-44518422D01*
X101703600Y-45482379D01*
X101720385Y-45652800D01*
X101786715Y-45871460D01*
X101894430Y-46072979D01*
X102039389Y-46249612D01*
X102216022Y-46394571D01*
X102417541Y-46502285D01*
X102636201Y-46568615D01*
X102863600Y-46591012D01*
X103091000Y-46568615D01*
X103309660Y-46502285D01*
X103511179Y-46394571D01*
X103687812Y-46249612D01*
X103832771Y-46072979D01*
X103940485Y-45871460D01*
X104006815Y-45652800D01*
X104023600Y-45482378D01*
X104023600Y-44518421D01*
X104006815Y-44348000D01*
X103940485Y-44129340D01*
X103832771Y-43927821D01*
X103687812Y-43751188D01*
X103511178Y-43606229D01*
X103309659Y-43498515D01*
X103090999Y-43432185D01*
X102863600Y-43409788D01*
X102636200Y-43432185D01*
X102417540Y-43498515D01*
X102216021Y-43606229D01*
X102039388Y-43751188D01*
X101894429Y-43927822D01*
X101786715Y-44129341D01*
X101720385Y-44348001D01*
X101703600Y-44518422D01*
X96873600Y-44518422D01*
X96856815Y-44348000D01*
X96790485Y-44129340D01*
X96682771Y-43927821D01*
X96537812Y-43751188D01*
X96361179Y-43606229D01*
X96159660Y-43498515D01*
X95941000Y-43432185D01*
X95713600Y-43409788D01*
X95486201Y-43432185D01*
X95267541Y-43498515D01*
X95066022Y-43606229D01*
X94889389Y-43751188D01*
X94767014Y-43900303D01*
X94639774Y-43773063D01*
X94470256Y-43659795D01*
X94281898Y-43581774D01*
X94081939Y-43542000D01*
X93878061Y-43542000D01*
X93678102Y-43581774D01*
X93489744Y-43659795D01*
X93320226Y-43773063D01*
X93176063Y-43917226D01*
X93062795Y-44086744D01*
X92984774Y-44275102D01*
X92945000Y-44475061D01*
X73337870Y-44475061D01*
X73299953Y-44284444D01*
X73139012Y-43895898D01*
X72905363Y-43546217D01*
X72640374Y-43281228D01*
X105260666Y-43281788D01*
G37*
X105260666Y-43281788D02*
X104996237Y-43546217D01*
X104762588Y-43895898D01*
X104601647Y-44284444D01*
X104519600Y-44696921D01*
X104519600Y-45117479D01*
X104601647Y-45529956D01*
X104762588Y-45918502D01*
X104996237Y-46268183D01*
X105293617Y-46565563D01*
X105643298Y-46799212D01*
X106031844Y-46960153D01*
X106444321Y-47042200D01*
X106864879Y-47042200D01*
X107277356Y-46960153D01*
X107665902Y-46799212D01*
X108015583Y-46565563D01*
X108281582Y-46299564D01*
X108282293Y-47289905D01*
X108027491Y-47199519D01*
X107797600Y-47320186D01*
X107797600Y-48514000D01*
X107817600Y-48514000D01*
X107817600Y-48768000D01*
X107797600Y-48768000D01*
X107797600Y-51054000D01*
X107817600Y-51054000D01*
X107817600Y-51308000D01*
X107797600Y-51308000D01*
X107797600Y-51328000D01*
X107543600Y-51328000D01*
X107543600Y-51308000D01*
X107523600Y-51308000D01*
X107523600Y-51054000D01*
X107543600Y-51054000D01*
X107543600Y-48768000D01*
X107523600Y-48768000D01*
X107523600Y-48514000D01*
X107543600Y-48514000D01*
X107543600Y-47320186D01*
X107313709Y-47199519D01*
X107039348Y-47296843D01*
X106789245Y-47445822D01*
X106593098Y-47622626D01*
X106570102Y-47546820D01*
X106511137Y-47436506D01*
X106431785Y-47339815D01*
X106335094Y-47260463D01*
X106224780Y-47201498D01*
X106105082Y-47165188D01*
X105980600Y-47152928D01*
X104280600Y-47152928D01*
X104156118Y-47165188D01*
X104036420Y-47201498D01*
X103926106Y-47260463D01*
X103829415Y-47339815D01*
X103750063Y-47436506D01*
X103691098Y-47546820D01*
X103654788Y-47666518D01*
X103642528Y-47791000D01*
X103642528Y-49491000D01*
X103654788Y-49615482D01*
X103691098Y-49735180D01*
X103750063Y-49845494D01*
X103829415Y-49942185D01*
X103926106Y-50021537D01*
X104036420Y-50080502D01*
X104108980Y-50102513D01*
X103977125Y-50234368D01*
X103814610Y-50477589D01*
X103702668Y-50747842D01*
X103645600Y-51034740D01*
X103645600Y-51327260D01*
X103702668Y-51614158D01*
X103814610Y-51884411D01*
X103977125Y-52127632D01*
X104183968Y-52334475D01*
X104358360Y-52451000D01*
X104183968Y-52567525D01*
X103977125Y-52774368D01*
X103814610Y-53017589D01*
X103702668Y-53287842D01*
X103645600Y-53574740D01*
X103645600Y-53867260D01*
X103702668Y-54154158D01*
X103814610Y-54424411D01*
X103977125Y-54667632D01*
X104183968Y-54874475D01*
X104358360Y-54991000D01*
X104183968Y-55107525D01*
X103977125Y-55314368D01*
X103814610Y-55557589D01*
X103702668Y-55827842D01*
X103645600Y-56114740D01*
X103645600Y-56407260D01*
X103702668Y-56694158D01*
X103814610Y-56964411D01*
X103977125Y-57207632D01*
X104183968Y-57414475D01*
X104358360Y-57531000D01*
X104183968Y-57647525D01*
X103977125Y-57854368D01*
X103814610Y-58097589D01*
X103702668Y-58367842D01*
X103645600Y-58654740D01*
X103645600Y-58947260D01*
X103702668Y-59234158D01*
X103814610Y-59504411D01*
X103977125Y-59747632D01*
X104183968Y-59954475D01*
X104358360Y-60071000D01*
X104183968Y-60187525D01*
X103977125Y-60394368D01*
X103814610Y-60637589D01*
X103702668Y-60907842D01*
X103645600Y-61194740D01*
X103645600Y-61487260D01*
X103702668Y-61774158D01*
X103814610Y-62044411D01*
X103977125Y-62287632D01*
X104183968Y-62494475D01*
X104358360Y-62611000D01*
X104183968Y-62727525D01*
X103977125Y-62934368D01*
X103814610Y-63177589D01*
X103702668Y-63447842D01*
X103645600Y-63734740D01*
X103645600Y-64027260D01*
X103702668Y-64314158D01*
X103814610Y-64584411D01*
X103977125Y-64827632D01*
X104183968Y-65034475D01*
X104358360Y-65151000D01*
X104183968Y-65267525D01*
X103977125Y-65474368D01*
X103814610Y-65717589D01*
X103702668Y-65987842D01*
X103645600Y-66274740D01*
X103645600Y-66567260D01*
X103702668Y-66854158D01*
X103814610Y-67124411D01*
X103977125Y-67367632D01*
X104183968Y-67574475D01*
X104358360Y-67691000D01*
X104183968Y-67807525D01*
X103977125Y-68014368D01*
X103814610Y-68257589D01*
X103702668Y-68527842D01*
X103645600Y-68814740D01*
X103645600Y-69107260D01*
X103702668Y-69394158D01*
X103814610Y-69664411D01*
X103977125Y-69907632D01*
X104183968Y-70114475D01*
X104358360Y-70231000D01*
X104183968Y-70347525D01*
X103977125Y-70554368D01*
X103814610Y-70797589D01*
X103702668Y-71067842D01*
X103645600Y-71354740D01*
X103645600Y-71647260D01*
X103702668Y-71934158D01*
X103814610Y-72204411D01*
X103977125Y-72447632D01*
X104183968Y-72654475D01*
X104358360Y-72771000D01*
X104183968Y-72887525D01*
X103977125Y-73094368D01*
X103814610Y-73337589D01*
X103702668Y-73607842D01*
X103645600Y-73894740D01*
X103645600Y-74187260D01*
X103702668Y-74474158D01*
X103814610Y-74744411D01*
X103977125Y-74987632D01*
X104183968Y-75194475D01*
X104358360Y-75311000D01*
X104183968Y-75427525D01*
X103977125Y-75634368D01*
X103814610Y-75877589D01*
X103702668Y-76147842D01*
X103645600Y-76434740D01*
X103645600Y-76727260D01*
X103702668Y-77014158D01*
X103814610Y-77284411D01*
X103977125Y-77527632D01*
X104183968Y-77734475D01*
X104427189Y-77896990D01*
X104697442Y-78008932D01*
X104984340Y-78066000D01*
X105276860Y-78066000D01*
X105563758Y-78008932D01*
X105834011Y-77896990D01*
X106077232Y-77734475D01*
X106284075Y-77527632D01*
X106400600Y-77353240D01*
X106517125Y-77527632D01*
X106723968Y-77734475D01*
X106967189Y-77896990D01*
X107237442Y-78008932D01*
X107524340Y-78066000D01*
X107816860Y-78066000D01*
X108103758Y-78008932D01*
X108304302Y-77925864D01*
X108305035Y-78945889D01*
X108015583Y-78656437D01*
X107665902Y-78422788D01*
X107277356Y-78261847D01*
X106864879Y-78179800D01*
X106444321Y-78179800D01*
X106031844Y-78261847D01*
X105643298Y-78422788D01*
X105293617Y-78656437D01*
X104996237Y-78953817D01*
X104762588Y-79303498D01*
X104601647Y-79692044D01*
X104519600Y-80104521D01*
X104519600Y-80525079D01*
X104601647Y-80937556D01*
X104762588Y-81326102D01*
X104996237Y-81675783D01*
X105286654Y-81966200D01*
X101653119Y-81966200D01*
X101757932Y-81713158D01*
X101815000Y-81426260D01*
X101815000Y-81133740D01*
X101757932Y-80846842D01*
X101645990Y-80576589D01*
X101483475Y-80333368D01*
X101351620Y-80201513D01*
X101424180Y-80179502D01*
X101534494Y-80120537D01*
X101631185Y-80041185D01*
X101710537Y-79944494D01*
X101769502Y-79834180D01*
X101805812Y-79714482D01*
X101818072Y-79590000D01*
X101818072Y-77890000D01*
X101805812Y-77765518D01*
X101769502Y-77645820D01*
X101710537Y-77535506D01*
X101631185Y-77438815D01*
X101534494Y-77359463D01*
X101424180Y-77300498D01*
X101304482Y-77264188D01*
X101180000Y-77251928D01*
X99480000Y-77251928D01*
X99355518Y-77264188D01*
X99235820Y-77300498D01*
X99125506Y-77359463D01*
X99028815Y-77438815D01*
X98949463Y-77535506D01*
X98890498Y-77645820D01*
X98868487Y-77718380D01*
X98736632Y-77586525D01*
X98493411Y-77424010D01*
X98223158Y-77312068D01*
X97936260Y-77255000D01*
X97643740Y-77255000D01*
X97356842Y-77312068D01*
X97086589Y-77424010D01*
X96843368Y-77586525D01*
X96636525Y-77793368D01*
X96520000Y-77967760D01*
X96403475Y-77793368D01*
X96196632Y-77586525D01*
X95953411Y-77424010D01*
X95683158Y-77312068D01*
X95396260Y-77255000D01*
X95103740Y-77255000D01*
X94816842Y-77312068D01*
X94546589Y-77424010D01*
X94303368Y-77586525D01*
X94096525Y-77793368D01*
X93980000Y-77967760D01*
X93863475Y-77793368D01*
X93656632Y-77586525D01*
X93413411Y-77424010D01*
X93143158Y-77312068D01*
X92856260Y-77255000D01*
X92563740Y-77255000D01*
X92429062Y-77281789D01*
X92435000Y-77251939D01*
X92435000Y-77048061D01*
X92395226Y-76848102D01*
X92317205Y-76659744D01*
X92203937Y-76490226D01*
X92059774Y-76346063D01*
X91890256Y-76232795D01*
X91701898Y-76154774D01*
X91501939Y-76115000D01*
X91298061Y-76115000D01*
X91098102Y-76154774D01*
X90909744Y-76232795D01*
X90740226Y-76346063D01*
X90596063Y-76490226D01*
X90482795Y-76659744D01*
X90404774Y-76848102D01*
X90365000Y-77048061D01*
X90365000Y-77251939D01*
X90367642Y-77265221D01*
X90316260Y-77255000D01*
X90023740Y-77255000D01*
X89920355Y-77275565D01*
X89935000Y-77201939D01*
X89935000Y-76998061D01*
X89895226Y-76798102D01*
X89817205Y-76609744D01*
X89703937Y-76440226D01*
X89559774Y-76296063D01*
X89390256Y-76182795D01*
X89201898Y-76104774D01*
X89168150Y-76098061D01*
X97165000Y-76098061D01*
X97165000Y-76301939D01*
X97204774Y-76501898D01*
X97282795Y-76690256D01*
X97396063Y-76859774D01*
X97540226Y-77003937D01*
X97709744Y-77117205D01*
X97898102Y-77195226D01*
X98098061Y-77235000D01*
X98301939Y-77235000D01*
X98501898Y-77195226D01*
X98690256Y-77117205D01*
X98859774Y-77003937D01*
X98981917Y-76881794D01*
X99109744Y-76967205D01*
X99298102Y-77045226D01*
X99498061Y-77085000D01*
X99701939Y-77085000D01*
X99901898Y-77045226D01*
X100090256Y-76967205D01*
X100259774Y-76853937D01*
X100403937Y-76709774D01*
X100517205Y-76540256D01*
X100595226Y-76351898D01*
X100635000Y-76151939D01*
X100635000Y-75948061D01*
X100595226Y-75748102D01*
X100567830Y-75681963D01*
X100609774Y-75653937D01*
X100753937Y-75509774D01*
X100867205Y-75340256D01*
X100945226Y-75151898D01*
X100985000Y-74951939D01*
X100985000Y-74748061D01*
X100945226Y-74548102D01*
X100867205Y-74359744D01*
X100753937Y-74190226D01*
X100609774Y-74046063D01*
X100440256Y-73932795D01*
X100251898Y-73854774D01*
X100051939Y-73815000D01*
X99848061Y-73815000D01*
X99648102Y-73854774D01*
X99459744Y-73932795D01*
X99290226Y-74046063D01*
X99146063Y-74190226D01*
X99032795Y-74359744D01*
X98954774Y-74548102D01*
X98915000Y-74748061D01*
X98915000Y-74951939D01*
X98954774Y-75151898D01*
X98982170Y-75218037D01*
X98940226Y-75246063D01*
X98818083Y-75368206D01*
X98690256Y-75282795D01*
X98501898Y-75204774D01*
X98301939Y-75165000D01*
X98098061Y-75165000D01*
X97898102Y-75204774D01*
X97709744Y-75282795D01*
X97540226Y-75396063D01*
X97396063Y-75540226D01*
X97282795Y-75709744D01*
X97204774Y-75898102D01*
X97165000Y-76098061D01*
X89168150Y-76098061D01*
X89001939Y-76065000D01*
X88798061Y-76065000D01*
X88598102Y-76104774D01*
X88409744Y-76182795D01*
X88240226Y-76296063D01*
X88096063Y-76440226D01*
X87982795Y-76609744D01*
X87904774Y-76798102D01*
X87865000Y-76998061D01*
X87865000Y-77201939D01*
X87879645Y-77275565D01*
X87776260Y-77255000D01*
X87724446Y-77255000D01*
X87735000Y-77201939D01*
X87735000Y-76998061D01*
X87695226Y-76798102D01*
X87617205Y-76609744D01*
X87503937Y-76440226D01*
X87359774Y-76296063D01*
X87190256Y-76182795D01*
X87001898Y-76104774D01*
X86801939Y-76065000D01*
X86598061Y-76065000D01*
X86398102Y-76104774D01*
X86209744Y-76182795D01*
X86127000Y-76238083D01*
X86127000Y-73027000D01*
X89662000Y-73027000D01*
X89686776Y-73024560D01*
X89710601Y-73017333D01*
X89732557Y-73005597D01*
X89751803Y-72989803D01*
X89767597Y-72970557D01*
X89779333Y-72948601D01*
X89786560Y-72924776D01*
X89789000Y-72900000D01*
X89789000Y-69303083D01*
X89949461Y-69335000D01*
X90153339Y-69335000D01*
X90353298Y-69295226D01*
X90541656Y-69217205D01*
X90576400Y-69193990D01*
X90611144Y-69217205D01*
X90799502Y-69295226D01*
X90999461Y-69335000D01*
X91203339Y-69335000D01*
X91403298Y-69295226D01*
X91591656Y-69217205D01*
X91761174Y-69103937D01*
X91905337Y-68959774D01*
X92018605Y-68790256D01*
X92096626Y-68601898D01*
X92136400Y-68401939D01*
X92136400Y-68198061D01*
X92096626Y-67998102D01*
X92018605Y-67809744D01*
X91905337Y-67640226D01*
X91761174Y-67496063D01*
X91710287Y-67462061D01*
X94723000Y-67462061D01*
X94723000Y-67665939D01*
X94762774Y-67865898D01*
X94840795Y-68054256D01*
X94954063Y-68223774D01*
X95098226Y-68367937D01*
X95265000Y-68479372D01*
X95265000Y-68601939D01*
X95304774Y-68801898D01*
X95382795Y-68990256D01*
X95496063Y-69159774D01*
X95640226Y-69303937D01*
X95809744Y-69417205D01*
X95998102Y-69495226D01*
X96198061Y-69535000D01*
X96401939Y-69535000D01*
X96601898Y-69495226D01*
X96790256Y-69417205D01*
X96959774Y-69303937D01*
X97103937Y-69159774D01*
X97217205Y-68990256D01*
X97295226Y-68801898D01*
X97335000Y-68601939D01*
X97335000Y-68398061D01*
X97295226Y-68198102D01*
X97217205Y-68009744D01*
X97103937Y-67840226D01*
X96990924Y-67727213D01*
X97010256Y-67719205D01*
X97179774Y-67605937D01*
X97323937Y-67461774D01*
X97437205Y-67292256D01*
X97515226Y-67103898D01*
X97555000Y-66903939D01*
X97555000Y-66700061D01*
X97515226Y-66500102D01*
X97492842Y-66446061D01*
X98787000Y-66446061D01*
X98787000Y-66649939D01*
X98826774Y-66849898D01*
X98904795Y-67038256D01*
X99018063Y-67207774D01*
X99162226Y-67351937D01*
X99331744Y-67465205D01*
X99520102Y-67543226D01*
X99720061Y-67583000D01*
X99923939Y-67583000D01*
X100123898Y-67543226D01*
X100312256Y-67465205D01*
X100481774Y-67351937D01*
X100625937Y-67207774D01*
X100739205Y-67038256D01*
X100817226Y-66849898D01*
X100857000Y-66649939D01*
X100857000Y-66446061D01*
X100817226Y-66246102D01*
X100739205Y-66057744D01*
X100625937Y-65888226D01*
X100481774Y-65744063D01*
X100312256Y-65630795D01*
X100123898Y-65552774D01*
X99923939Y-65513000D01*
X99720061Y-65513000D01*
X99520102Y-65552774D01*
X99331744Y-65630795D01*
X99162226Y-65744063D01*
X99018063Y-65888226D01*
X98904795Y-66057744D01*
X98826774Y-66246102D01*
X98787000Y-66446061D01*
X97492842Y-66446061D01*
X97437205Y-66311744D01*
X97323937Y-66142226D01*
X97179774Y-65998063D01*
X97010256Y-65884795D01*
X96821898Y-65806774D01*
X96621939Y-65767000D01*
X96418061Y-65767000D01*
X96218102Y-65806774D01*
X96029744Y-65884795D01*
X95860226Y-65998063D01*
X95716063Y-66142226D01*
X95602795Y-66311744D01*
X95524774Y-66500102D01*
X95513381Y-66557381D01*
X95456102Y-66568774D01*
X95267744Y-66646795D01*
X95098226Y-66760063D01*
X94954063Y-66904226D01*
X94840795Y-67073744D01*
X94762774Y-67262102D01*
X94723000Y-67462061D01*
X91710287Y-67462061D01*
X91591656Y-67382795D01*
X91403298Y-67304774D01*
X91203339Y-67265000D01*
X90999461Y-67265000D01*
X90799502Y-67304774D01*
X90611144Y-67382795D01*
X90576400Y-67406010D01*
X90541656Y-67382795D01*
X90353298Y-67304774D01*
X90153339Y-67265000D01*
X89949461Y-67265000D01*
X89749502Y-67304774D01*
X89561144Y-67382795D01*
X89391626Y-67496063D01*
X89247463Y-67640226D01*
X89134195Y-67809744D01*
X89109068Y-67870404D01*
X77724596Y-67817001D01*
X77699808Y-67819325D01*
X77675950Y-67826441D01*
X77653939Y-67838074D01*
X77634620Y-67853777D01*
X77618735Y-67872948D01*
X77606897Y-67894849D01*
X77599558Y-67918640D01*
X77597000Y-67944000D01*
X77597000Y-68521510D01*
X77452256Y-68424795D01*
X77263898Y-68346774D01*
X77063939Y-68307000D01*
X76860061Y-68307000D01*
X76660102Y-68346774D01*
X76471744Y-68424795D01*
X76302226Y-68538063D01*
X76158063Y-68682226D01*
X76044795Y-68851744D01*
X75966774Y-69040102D01*
X75927000Y-69240061D01*
X75927000Y-69443939D01*
X75966774Y-69643898D01*
X76044795Y-69832256D01*
X76158063Y-70001774D01*
X76302226Y-70145937D01*
X76471744Y-70259205D01*
X76660102Y-70337226D01*
X76860061Y-70377000D01*
X77063939Y-70377000D01*
X77263898Y-70337226D01*
X77452256Y-70259205D01*
X77597000Y-70162490D01*
X77597000Y-73733289D01*
X77559774Y-73696063D01*
X77390256Y-73582795D01*
X77201898Y-73504774D01*
X77001939Y-73465000D01*
X76798061Y-73465000D01*
X76598102Y-73504774D01*
X76409744Y-73582795D01*
X76240226Y-73696063D01*
X76096063Y-73840226D01*
X75982795Y-74009744D01*
X75904774Y-74198102D01*
X75865000Y-74398061D01*
X75865000Y-74601939D01*
X75904774Y-74801898D01*
X75982795Y-74990256D01*
X76096063Y-75159774D01*
X76240226Y-75303937D01*
X76409744Y-75417205D01*
X76598102Y-75495226D01*
X76798061Y-75535000D01*
X77001939Y-75535000D01*
X77201898Y-75495226D01*
X77390256Y-75417205D01*
X77559774Y-75303937D01*
X77597000Y-75266711D01*
X77597000Y-77344000D01*
X77599440Y-77368776D01*
X77606667Y-77392601D01*
X77615899Y-77409872D01*
X77597000Y-77419845D01*
X77597000Y-78613000D01*
X79883000Y-78613000D01*
X79883000Y-78593000D01*
X80137000Y-78593000D01*
X80137000Y-78613000D01*
X80157000Y-78613000D01*
X80157000Y-78867000D01*
X80137000Y-78867000D01*
X80137000Y-78887000D01*
X79883000Y-78887000D01*
X79883000Y-78867000D01*
X77597000Y-78867000D01*
X77597000Y-78887000D01*
X77343000Y-78887000D01*
X77343000Y-78867000D01*
X76149186Y-78867000D01*
X76028519Y-79096891D01*
X76125843Y-79371252D01*
X76274822Y-79621355D01*
X76469731Y-79837588D01*
X76699406Y-80008900D01*
X76523368Y-80126525D01*
X76316525Y-80333368D01*
X76154010Y-80576589D01*
X76042068Y-80846842D01*
X75985000Y-81133740D01*
X75985000Y-81426260D01*
X76042068Y-81713158D01*
X76146881Y-81966200D01*
X72614946Y-81966200D01*
X72905363Y-81675783D01*
X73139012Y-81326102D01*
X73299953Y-80937556D01*
X73382000Y-80525079D01*
X73382000Y-80104521D01*
X73299953Y-79692044D01*
X73139012Y-79303498D01*
X72905363Y-78953817D01*
X72607983Y-78656437D01*
X72258302Y-78422788D01*
X72162509Y-78383109D01*
X76028519Y-78383109D01*
X76149186Y-78613000D01*
X77343000Y-78613000D01*
X77343000Y-77419845D01*
X77113110Y-77298524D01*
X76965901Y-77343175D01*
X76703080Y-77468359D01*
X76469731Y-77642412D01*
X76274822Y-77858645D01*
X76125843Y-78108748D01*
X76028519Y-78383109D01*
X72162509Y-78383109D01*
X71869756Y-78261847D01*
X71457279Y-78179800D01*
X71036721Y-78179800D01*
X70624244Y-78261847D01*
X70235698Y-78422788D01*
X69886017Y-78656437D01*
X69621000Y-78921454D01*
X69621000Y-77977766D01*
X69696242Y-78008932D01*
X69983140Y-78066000D01*
X70275660Y-78066000D01*
X70562558Y-78008932D01*
X70832811Y-77896990D01*
X71076032Y-77734475D01*
X71282875Y-77527632D01*
X71399400Y-77353240D01*
X71515925Y-77527632D01*
X71722768Y-77734475D01*
X71965989Y-77896990D01*
X72236242Y-78008932D01*
X72523140Y-78066000D01*
X72815660Y-78066000D01*
X73102558Y-78008932D01*
X73372811Y-77896990D01*
X73616032Y-77734475D01*
X73822875Y-77527632D01*
X73985390Y-77284411D01*
X74097332Y-77014158D01*
X74154400Y-76727260D01*
X74154400Y-76434740D01*
X74097332Y-76147842D01*
X73985390Y-75877589D01*
X73822875Y-75634368D01*
X73616032Y-75427525D01*
X73433866Y-75305805D01*
X73550755Y-75236178D01*
X73766988Y-75041269D01*
X73941041Y-74807920D01*
X74066225Y-74545099D01*
X74110876Y-74397890D01*
X73989555Y-74168000D01*
X72796400Y-74168000D01*
X72796400Y-74188000D01*
X72542400Y-74188000D01*
X72542400Y-74168000D01*
X72522400Y-74168000D01*
X72522400Y-73914000D01*
X72542400Y-73914000D01*
X72542400Y-73894000D01*
X72796400Y-73894000D01*
X72796400Y-73914000D01*
X73989555Y-73914000D01*
X74110876Y-73684110D01*
X74066225Y-73536901D01*
X73941041Y-73274080D01*
X73766988Y-73040731D01*
X73550755Y-72845822D01*
X73433866Y-72776195D01*
X73616032Y-72654475D01*
X73822875Y-72447632D01*
X73985390Y-72204411D01*
X74097332Y-71934158D01*
X74154400Y-71647260D01*
X74154400Y-71354740D01*
X74097332Y-71067842D01*
X73985390Y-70797589D01*
X73962988Y-70764061D01*
X74403000Y-70764061D01*
X74403000Y-70967939D01*
X74442774Y-71167898D01*
X74520795Y-71356256D01*
X74634063Y-71525774D01*
X74778226Y-71669937D01*
X74947744Y-71783205D01*
X75136102Y-71861226D01*
X75336061Y-71901000D01*
X75539939Y-71901000D01*
X75739898Y-71861226D01*
X75928256Y-71783205D01*
X76097774Y-71669937D01*
X76241937Y-71525774D01*
X76355205Y-71356256D01*
X76433226Y-71167898D01*
X76473000Y-70967939D01*
X76473000Y-70764061D01*
X76433226Y-70564102D01*
X76355205Y-70375744D01*
X76241937Y-70206226D01*
X76097774Y-70062063D01*
X75928256Y-69948795D01*
X75739898Y-69870774D01*
X75539939Y-69831000D01*
X75336061Y-69831000D01*
X75136102Y-69870774D01*
X74947744Y-69948795D01*
X74778226Y-70062063D01*
X74634063Y-70206226D01*
X74520795Y-70375744D01*
X74442774Y-70564102D01*
X74403000Y-70764061D01*
X73962988Y-70764061D01*
X73822875Y-70554368D01*
X73616032Y-70347525D01*
X73441640Y-70231000D01*
X73616032Y-70114475D01*
X73822875Y-69907632D01*
X73985390Y-69664411D01*
X74097332Y-69394158D01*
X74154400Y-69107260D01*
X74154400Y-68814740D01*
X74097332Y-68527842D01*
X73985390Y-68257589D01*
X73822875Y-68014368D01*
X73616032Y-67807525D01*
X73441640Y-67691000D01*
X73616032Y-67574475D01*
X73822875Y-67367632D01*
X73985390Y-67124411D01*
X74097332Y-66854158D01*
X74154400Y-66567260D01*
X74154400Y-66274740D01*
X74097332Y-65987842D01*
X73985390Y-65717589D01*
X73822875Y-65474368D01*
X73616032Y-65267525D01*
X73441640Y-65151000D01*
X73616032Y-65034475D01*
X73728446Y-64922061D01*
X74403000Y-64922061D01*
X74403000Y-65125939D01*
X74442774Y-65325898D01*
X74520795Y-65514256D01*
X74634063Y-65683774D01*
X74778226Y-65827937D01*
X74947744Y-65941205D01*
X75136102Y-66019226D01*
X75336061Y-66059000D01*
X75539939Y-66059000D01*
X75739898Y-66019226D01*
X75928256Y-65941205D01*
X76097774Y-65827937D01*
X76241937Y-65683774D01*
X76327000Y-65556468D01*
X76412063Y-65683774D01*
X76556226Y-65827937D01*
X76725744Y-65941205D01*
X76914102Y-66019226D01*
X77114061Y-66059000D01*
X77317939Y-66059000D01*
X77517898Y-66019226D01*
X77706256Y-65941205D01*
X77875774Y-65827937D01*
X78005650Y-65698061D01*
X89765000Y-65698061D01*
X89765000Y-65901939D01*
X89804774Y-66101898D01*
X89882795Y-66290256D01*
X89996063Y-66459774D01*
X90140226Y-66603937D01*
X90309744Y-66717205D01*
X90498102Y-66795226D01*
X90698061Y-66835000D01*
X90901939Y-66835000D01*
X91101898Y-66795226D01*
X91290256Y-66717205D01*
X91459774Y-66603937D01*
X91603937Y-66459774D01*
X91717205Y-66290256D01*
X91795226Y-66101898D01*
X91835000Y-65901939D01*
X91835000Y-65698061D01*
X91817059Y-65607861D01*
X93681600Y-65607861D01*
X93681600Y-65811739D01*
X93721374Y-66011698D01*
X93799395Y-66200056D01*
X93912663Y-66369574D01*
X94056826Y-66513737D01*
X94226344Y-66627005D01*
X94414702Y-66705026D01*
X94614661Y-66744800D01*
X94818539Y-66744800D01*
X95018498Y-66705026D01*
X95206856Y-66627005D01*
X95376374Y-66513737D01*
X95520537Y-66369574D01*
X95633805Y-66200056D01*
X95711826Y-66011698D01*
X95751600Y-65811739D01*
X95751600Y-65607861D01*
X95711826Y-65407902D01*
X95633805Y-65219544D01*
X95520537Y-65050026D01*
X95376374Y-64905863D01*
X95206856Y-64792595D01*
X95018498Y-64714574D01*
X94818539Y-64674800D01*
X94614661Y-64674800D01*
X94414702Y-64714574D01*
X94226344Y-64792595D01*
X94056826Y-64905863D01*
X93912663Y-65050026D01*
X93799395Y-65219544D01*
X93721374Y-65407902D01*
X93681600Y-65607861D01*
X91817059Y-65607861D01*
X91795226Y-65498102D01*
X91717205Y-65309744D01*
X91603937Y-65140226D01*
X91459774Y-64996063D01*
X91290256Y-64882795D01*
X91101898Y-64804774D01*
X90901939Y-64765000D01*
X90698061Y-64765000D01*
X90498102Y-64804774D01*
X90309744Y-64882795D01*
X90140226Y-64996063D01*
X89996063Y-65140226D01*
X89882795Y-65309744D01*
X89804774Y-65498102D01*
X89765000Y-65698061D01*
X78005650Y-65698061D01*
X78019937Y-65683774D01*
X78133205Y-65514256D01*
X78211226Y-65325898D01*
X78251000Y-65125939D01*
X78251000Y-64922061D01*
X78211226Y-64722102D01*
X78133205Y-64533744D01*
X78019937Y-64364226D01*
X77875774Y-64220063D01*
X77785975Y-64160061D01*
X98787000Y-64160061D01*
X98787000Y-64363939D01*
X98826774Y-64563898D01*
X98904795Y-64752256D01*
X99018063Y-64921774D01*
X99162226Y-65065937D01*
X99331744Y-65179205D01*
X99520102Y-65257226D01*
X99720061Y-65297000D01*
X99923939Y-65297000D01*
X100123898Y-65257226D01*
X100312256Y-65179205D01*
X100481774Y-65065937D01*
X100625937Y-64921774D01*
X100739205Y-64752256D01*
X100817226Y-64563898D01*
X100857000Y-64363939D01*
X100857000Y-64160061D01*
X100817226Y-63960102D01*
X100739205Y-63771744D01*
X100625937Y-63602226D01*
X100481774Y-63458063D01*
X100312256Y-63344795D01*
X100123898Y-63266774D01*
X99923939Y-63227000D01*
X99720061Y-63227000D01*
X99520102Y-63266774D01*
X99331744Y-63344795D01*
X99162226Y-63458063D01*
X99018063Y-63602226D01*
X98904795Y-63771744D01*
X98826774Y-63960102D01*
X98787000Y-64160061D01*
X77785975Y-64160061D01*
X77706256Y-64106795D01*
X77517898Y-64028774D01*
X77317939Y-63989000D01*
X77114061Y-63989000D01*
X76914102Y-64028774D01*
X76725744Y-64106795D01*
X76556226Y-64220063D01*
X76412063Y-64364226D01*
X76327000Y-64491532D01*
X76241937Y-64364226D01*
X76097774Y-64220063D01*
X75928256Y-64106795D01*
X75739898Y-64028774D01*
X75539939Y-63989000D01*
X75336061Y-63989000D01*
X75136102Y-64028774D01*
X74947744Y-64106795D01*
X74778226Y-64220063D01*
X74634063Y-64364226D01*
X74520795Y-64533744D01*
X74442774Y-64722102D01*
X74403000Y-64922061D01*
X73728446Y-64922061D01*
X73822875Y-64827632D01*
X73985390Y-64584411D01*
X74097332Y-64314158D01*
X74154400Y-64027260D01*
X74154400Y-63734740D01*
X74097332Y-63447842D01*
X73985390Y-63177589D01*
X73822875Y-62934368D01*
X73616032Y-62727525D01*
X73441640Y-62611000D01*
X73556188Y-62534461D01*
X91929000Y-62534461D01*
X91929000Y-62738339D01*
X91968774Y-62938298D01*
X92046795Y-63126656D01*
X92160063Y-63296174D01*
X92304226Y-63440337D01*
X92473744Y-63553605D01*
X92662102Y-63631626D01*
X92862061Y-63671400D01*
X93065939Y-63671400D01*
X93265898Y-63631626D01*
X93454256Y-63553605D01*
X93623774Y-63440337D01*
X93767937Y-63296174D01*
X93881205Y-63126656D01*
X93959226Y-62938298D01*
X93999000Y-62738339D01*
X93999000Y-62534461D01*
X93959226Y-62334502D01*
X93881205Y-62146144D01*
X93767937Y-61976626D01*
X93623774Y-61832463D01*
X93454256Y-61719195D01*
X93265898Y-61641174D01*
X93065939Y-61601400D01*
X92862061Y-61601400D01*
X92662102Y-61641174D01*
X92473744Y-61719195D01*
X92304226Y-61832463D01*
X92160063Y-61976626D01*
X92046795Y-62146144D01*
X91968774Y-62334502D01*
X91929000Y-62534461D01*
X73556188Y-62534461D01*
X73616032Y-62494475D01*
X73822875Y-62287632D01*
X73985390Y-62044411D01*
X74097332Y-61774158D01*
X74154400Y-61487260D01*
X74154400Y-61194740D01*
X74097332Y-60907842D01*
X73985390Y-60637589D01*
X73822875Y-60394368D01*
X73616032Y-60187525D01*
X73441640Y-60071000D01*
X73616032Y-59954475D01*
X73822875Y-59747632D01*
X73985390Y-59504411D01*
X74097332Y-59234158D01*
X74154400Y-58947260D01*
X74154400Y-58699061D01*
X83978800Y-58699061D01*
X83978800Y-58902939D01*
X84018574Y-59102898D01*
X84096595Y-59291256D01*
X84209863Y-59460774D01*
X84354026Y-59604937D01*
X84523544Y-59718205D01*
X84711902Y-59796226D01*
X84911861Y-59836000D01*
X85115739Y-59836000D01*
X85315698Y-59796226D01*
X85357795Y-59778789D01*
X85325000Y-59943661D01*
X85325000Y-60147539D01*
X85364774Y-60347498D01*
X85442795Y-60535856D01*
X85556063Y-60705374D01*
X85700226Y-60849537D01*
X85869744Y-60962805D01*
X86058102Y-61040826D01*
X86258061Y-61080600D01*
X86461939Y-61080600D01*
X86661898Y-61040826D01*
X86850256Y-60962805D01*
X87019774Y-60849537D01*
X87163937Y-60705374D01*
X87277205Y-60535856D01*
X87355226Y-60347498D01*
X87395000Y-60147539D01*
X87395000Y-59943661D01*
X87355226Y-59743702D01*
X87277205Y-59555344D01*
X87163937Y-59385826D01*
X87019774Y-59241663D01*
X86850256Y-59128395D01*
X86661898Y-59050374D01*
X86461939Y-59010600D01*
X86258061Y-59010600D01*
X86058102Y-59050374D01*
X86016005Y-59067811D01*
X86039824Y-58948061D01*
X93590000Y-58948061D01*
X93590000Y-59151939D01*
X93629774Y-59351898D01*
X93707795Y-59540256D01*
X93821063Y-59709774D01*
X93965226Y-59853937D01*
X94134744Y-59967205D01*
X94323102Y-60045226D01*
X94523061Y-60085000D01*
X94726939Y-60085000D01*
X94926898Y-60045226D01*
X95115256Y-59967205D01*
X95284774Y-59853937D01*
X95428937Y-59709774D01*
X95542205Y-59540256D01*
X95620226Y-59351898D01*
X95660000Y-59151939D01*
X95660000Y-58948061D01*
X95620226Y-58748102D01*
X95542205Y-58559744D01*
X95428937Y-58390226D01*
X95284774Y-58246063D01*
X95115256Y-58132795D01*
X95010640Y-58089461D01*
X95688200Y-58089461D01*
X95688200Y-58293339D01*
X95727974Y-58493298D01*
X95805995Y-58681656D01*
X95919263Y-58851174D01*
X96063426Y-58995337D01*
X96232944Y-59108605D01*
X96421302Y-59186626D01*
X96621261Y-59226400D01*
X96825139Y-59226400D01*
X97025098Y-59186626D01*
X97213456Y-59108605D01*
X97382974Y-58995337D01*
X97527137Y-58851174D01*
X97640405Y-58681656D01*
X97718426Y-58493298D01*
X97758200Y-58293339D01*
X97758200Y-58089461D01*
X97718426Y-57889502D01*
X97640405Y-57701144D01*
X97527137Y-57531626D01*
X97382974Y-57387463D01*
X97213456Y-57274195D01*
X97025098Y-57196174D01*
X96825139Y-57156400D01*
X96621261Y-57156400D01*
X96421302Y-57196174D01*
X96232944Y-57274195D01*
X96063426Y-57387463D01*
X95919263Y-57531626D01*
X95805995Y-57701144D01*
X95727974Y-57889502D01*
X95688200Y-58089461D01*
X95010640Y-58089461D01*
X94926898Y-58054774D01*
X94726939Y-58015000D01*
X94523061Y-58015000D01*
X94323102Y-58054774D01*
X94134744Y-58132795D01*
X93965226Y-58246063D01*
X93821063Y-58390226D01*
X93707795Y-58559744D01*
X93629774Y-58748102D01*
X93590000Y-58948061D01*
X86039824Y-58948061D01*
X86048800Y-58902939D01*
X86048800Y-58699061D01*
X86009026Y-58499102D01*
X85931005Y-58310744D01*
X85817737Y-58141226D01*
X85673574Y-57997063D01*
X85504056Y-57883795D01*
X85315698Y-57805774D01*
X85115739Y-57766000D01*
X84911861Y-57766000D01*
X84711902Y-57805774D01*
X84523544Y-57883795D01*
X84354026Y-57997063D01*
X84209863Y-58141226D01*
X84096595Y-58310744D01*
X84018574Y-58499102D01*
X83978800Y-58699061D01*
X74154400Y-58699061D01*
X74154400Y-58654740D01*
X74097332Y-58367842D01*
X73985390Y-58097589D01*
X73822875Y-57854368D01*
X73616032Y-57647525D01*
X73441640Y-57531000D01*
X73616032Y-57414475D01*
X73822875Y-57207632D01*
X73985390Y-56964411D01*
X74097332Y-56694158D01*
X74154400Y-56407260D01*
X74154400Y-56114740D01*
X74097332Y-55827842D01*
X73985390Y-55557589D01*
X73822875Y-55314368D01*
X73740707Y-55232200D01*
X78317928Y-55232200D01*
X78330188Y-55356682D01*
X78366498Y-55476380D01*
X78425463Y-55586694D01*
X78504815Y-55683385D01*
X78601506Y-55762737D01*
X78711820Y-55821702D01*
X78831518Y-55858012D01*
X78956000Y-55870272D01*
X79470250Y-55867200D01*
X79629000Y-55708450D01*
X79629000Y-54559200D01*
X78479750Y-54559200D01*
X78321000Y-54717950D01*
X78317928Y-55232200D01*
X73740707Y-55232200D01*
X73616032Y-55107525D01*
X73441640Y-54991000D01*
X73616032Y-54874475D01*
X73822875Y-54667632D01*
X73985390Y-54424411D01*
X74097332Y-54154158D01*
X74154400Y-53867260D01*
X74154400Y-53574740D01*
X74097332Y-53287842D01*
X73985390Y-53017589D01*
X73822875Y-52774368D01*
X73616032Y-52567525D01*
X73441640Y-52451000D01*
X73616032Y-52334475D01*
X73822875Y-52127632D01*
X73985390Y-51884411D01*
X74097332Y-51614158D01*
X74117668Y-51511921D01*
X74551000Y-51511921D01*
X74551000Y-51932479D01*
X74633047Y-52344956D01*
X74793988Y-52733502D01*
X75027637Y-53083183D01*
X75325017Y-53380563D01*
X75674698Y-53614212D01*
X76063244Y-53775153D01*
X76475721Y-53857200D01*
X76896279Y-53857200D01*
X77308756Y-53775153D01*
X77653875Y-53632200D01*
X78317928Y-53632200D01*
X78321000Y-54146450D01*
X78479750Y-54305200D01*
X79629000Y-54305200D01*
X79629000Y-53155950D01*
X79883000Y-53155950D01*
X79883000Y-54305200D01*
X79903000Y-54305200D01*
X79903000Y-54559200D01*
X79883000Y-54559200D01*
X79883000Y-55708450D01*
X80041750Y-55867200D01*
X80556000Y-55870272D01*
X80680482Y-55858012D01*
X80800180Y-55821702D01*
X80910494Y-55762737D01*
X81007185Y-55683385D01*
X81086537Y-55586694D01*
X81145502Y-55476380D01*
X81174661Y-55380257D01*
X81341241Y-55546837D01*
X81576273Y-55703880D01*
X81837426Y-55812053D01*
X82114665Y-55867200D01*
X82397335Y-55867200D01*
X82674574Y-55812053D01*
X82935727Y-55703880D01*
X83170759Y-55546837D01*
X83256000Y-55461596D01*
X83341241Y-55546837D01*
X83576273Y-55703880D01*
X83837426Y-55812053D01*
X84114665Y-55867200D01*
X84397335Y-55867200D01*
X84674574Y-55812053D01*
X84935727Y-55703880D01*
X85170759Y-55546837D01*
X85370637Y-55346959D01*
X85506000Y-55144373D01*
X85641363Y-55346959D01*
X85841241Y-55546837D01*
X86076273Y-55703880D01*
X86337426Y-55812053D01*
X86614665Y-55867200D01*
X86897335Y-55867200D01*
X87174574Y-55812053D01*
X87435727Y-55703880D01*
X87670759Y-55546837D01*
X87870637Y-55346959D01*
X87888075Y-55320861D01*
X91878200Y-55320861D01*
X91878200Y-55524739D01*
X91917974Y-55724698D01*
X91995995Y-55913056D01*
X92109263Y-56082574D01*
X92253426Y-56226737D01*
X92422944Y-56340005D01*
X92474803Y-56361486D01*
X92396063Y-56440226D01*
X92282795Y-56609744D01*
X92204774Y-56798102D01*
X92165000Y-56998061D01*
X92165000Y-57201939D01*
X92204774Y-57401898D01*
X92282795Y-57590256D01*
X92396063Y-57759774D01*
X92540226Y-57903937D01*
X92709744Y-58017205D01*
X92898102Y-58095226D01*
X93098061Y-58135000D01*
X93301939Y-58135000D01*
X93501898Y-58095226D01*
X93690256Y-58017205D01*
X93859774Y-57903937D01*
X94003937Y-57759774D01*
X94117205Y-57590256D01*
X94195226Y-57401898D01*
X94235000Y-57201939D01*
X94235000Y-56998061D01*
X94195226Y-56798102D01*
X94117205Y-56609744D01*
X94003937Y-56440226D01*
X94002172Y-56438461D01*
X99930000Y-56438461D01*
X99930000Y-56642339D01*
X99969774Y-56842298D01*
X100047795Y-57030656D01*
X100161063Y-57200174D01*
X100212489Y-57251600D01*
X100211863Y-57252226D01*
X100098595Y-57421744D01*
X100020574Y-57610102D01*
X99980800Y-57810061D01*
X99980800Y-58013939D01*
X100020574Y-58213898D01*
X100098595Y-58402256D01*
X100211863Y-58571774D01*
X100356026Y-58715937D01*
X100525544Y-58829205D01*
X100713902Y-58907226D01*
X100913861Y-58947000D01*
X101117739Y-58947000D01*
X101317698Y-58907226D01*
X101506056Y-58829205D01*
X101675574Y-58715937D01*
X101819737Y-58571774D01*
X101933005Y-58402256D01*
X102011026Y-58213898D01*
X102050800Y-58013939D01*
X102050800Y-57810061D01*
X102011026Y-57610102D01*
X101933005Y-57421744D01*
X101819737Y-57252226D01*
X101768311Y-57200800D01*
X101768937Y-57200174D01*
X101882205Y-57030656D01*
X101960226Y-56842298D01*
X102000000Y-56642339D01*
X102000000Y-56438461D01*
X101960226Y-56238502D01*
X101882205Y-56050144D01*
X101768937Y-55880626D01*
X101624774Y-55736463D01*
X101455256Y-55623195D01*
X101266898Y-55545174D01*
X101066939Y-55505400D01*
X100863061Y-55505400D01*
X100663102Y-55545174D01*
X100474744Y-55623195D01*
X100305226Y-55736463D01*
X100161063Y-55880626D01*
X100047795Y-56050144D01*
X99969774Y-56238502D01*
X99930000Y-56438461D01*
X94002172Y-56438461D01*
X93859774Y-56296063D01*
X93690256Y-56182795D01*
X93638397Y-56161314D01*
X93717137Y-56082574D01*
X93830405Y-55913056D01*
X93908426Y-55724698D01*
X93948200Y-55524739D01*
X93948200Y-55320861D01*
X93908426Y-55120902D01*
X93830405Y-54932544D01*
X93717137Y-54763026D01*
X93589172Y-54635061D01*
X101784200Y-54635061D01*
X101784200Y-54838939D01*
X101823974Y-55038898D01*
X101901995Y-55227256D01*
X102015263Y-55396774D01*
X102159426Y-55540937D01*
X102328944Y-55654205D01*
X102517302Y-55732226D01*
X102717261Y-55772000D01*
X102921139Y-55772000D01*
X103121098Y-55732226D01*
X103309456Y-55654205D01*
X103478974Y-55540937D01*
X103623137Y-55396774D01*
X103736405Y-55227256D01*
X103814426Y-55038898D01*
X103854200Y-54838939D01*
X103854200Y-54635061D01*
X103814426Y-54435102D01*
X103736405Y-54246744D01*
X103623137Y-54077226D01*
X103478974Y-53933063D01*
X103309456Y-53819795D01*
X103121098Y-53741774D01*
X102921139Y-53702000D01*
X102717261Y-53702000D01*
X102517302Y-53741774D01*
X102328944Y-53819795D01*
X102159426Y-53933063D01*
X102015263Y-54077226D01*
X101901995Y-54246744D01*
X101823974Y-54435102D01*
X101784200Y-54635061D01*
X93589172Y-54635061D01*
X93572974Y-54618863D01*
X93403456Y-54505595D01*
X93215098Y-54427574D01*
X93015139Y-54387800D01*
X92811261Y-54387800D01*
X92611302Y-54427574D01*
X92422944Y-54505595D01*
X92253426Y-54618863D01*
X92109263Y-54763026D01*
X91995995Y-54932544D01*
X91917974Y-55120902D01*
X91878200Y-55320861D01*
X87888075Y-55320861D01*
X88027680Y-55111927D01*
X88135853Y-54850774D01*
X88191000Y-54573535D01*
X88191000Y-54290865D01*
X88135853Y-54013626D01*
X88027680Y-53752473D01*
X87870637Y-53517441D01*
X87670759Y-53317563D01*
X87435727Y-53160520D01*
X87174574Y-53052347D01*
X86897335Y-52997200D01*
X86614665Y-52997200D01*
X86337426Y-53052347D01*
X86076273Y-53160520D01*
X85841241Y-53317563D01*
X85641363Y-53517441D01*
X85506000Y-53720027D01*
X85370637Y-53517441D01*
X85170759Y-53317563D01*
X84935727Y-53160520D01*
X84674574Y-53052347D01*
X84397335Y-52997200D01*
X84114665Y-52997200D01*
X83837426Y-53052347D01*
X83576273Y-53160520D01*
X83341241Y-53317563D01*
X83256000Y-53402804D01*
X83170759Y-53317563D01*
X82935727Y-53160520D01*
X82674574Y-53052347D01*
X82397335Y-52997200D01*
X82114665Y-52997200D01*
X81837426Y-53052347D01*
X81576273Y-53160520D01*
X81341241Y-53317563D01*
X81174661Y-53484143D01*
X81145502Y-53388020D01*
X81086537Y-53277706D01*
X81007185Y-53181015D01*
X80910494Y-53101663D01*
X80800180Y-53042698D01*
X80680482Y-53006388D01*
X80556000Y-52994128D01*
X80041750Y-52997200D01*
X79883000Y-53155950D01*
X79629000Y-53155950D01*
X79470250Y-52997200D01*
X78956000Y-52994128D01*
X78831518Y-53006388D01*
X78711820Y-53042698D01*
X78601506Y-53101663D01*
X78504815Y-53181015D01*
X78425463Y-53277706D01*
X78366498Y-53388020D01*
X78330188Y-53507718D01*
X78317928Y-53632200D01*
X77653875Y-53632200D01*
X77697302Y-53614212D01*
X78046983Y-53380563D01*
X78344363Y-53083183D01*
X78578012Y-52733502D01*
X78738953Y-52344956D01*
X78821000Y-51932479D01*
X78821000Y-51511921D01*
X87691000Y-51511921D01*
X87691000Y-51932479D01*
X87773047Y-52344956D01*
X87933988Y-52733502D01*
X88167637Y-53083183D01*
X88465017Y-53380563D01*
X88814698Y-53614212D01*
X89203244Y-53775153D01*
X89615721Y-53857200D01*
X90036279Y-53857200D01*
X90448756Y-53775153D01*
X90837302Y-53614212D01*
X91186983Y-53380563D01*
X91484363Y-53083183D01*
X91718012Y-52733502D01*
X91878953Y-52344956D01*
X91958974Y-51942661D01*
X101555600Y-51942661D01*
X101555600Y-52146539D01*
X101595374Y-52346498D01*
X101673395Y-52534856D01*
X101786663Y-52704374D01*
X101930826Y-52848537D01*
X102100344Y-52961805D01*
X102288702Y-53039826D01*
X102488661Y-53079600D01*
X102692539Y-53079600D01*
X102892498Y-53039826D01*
X103080856Y-52961805D01*
X103250374Y-52848537D01*
X103394537Y-52704374D01*
X103507805Y-52534856D01*
X103585826Y-52346498D01*
X103625600Y-52146539D01*
X103625600Y-51942661D01*
X103585826Y-51742702D01*
X103507805Y-51554344D01*
X103394537Y-51384826D01*
X103250374Y-51240663D01*
X103080856Y-51127395D01*
X102892498Y-51049374D01*
X102692539Y-51009600D01*
X102488661Y-51009600D01*
X102288702Y-51049374D01*
X102100344Y-51127395D01*
X101930826Y-51240663D01*
X101786663Y-51384826D01*
X101673395Y-51554344D01*
X101595374Y-51742702D01*
X101555600Y-51942661D01*
X91958974Y-51942661D01*
X91961000Y-51932479D01*
X91961000Y-51511921D01*
X91878953Y-51099444D01*
X91718012Y-50710898D01*
X91484363Y-50361217D01*
X91186983Y-50063837D01*
X90837302Y-49830188D01*
X90448756Y-49669247D01*
X90036279Y-49587200D01*
X89615721Y-49587200D01*
X89203244Y-49669247D01*
X88814698Y-49830188D01*
X88465017Y-50063837D01*
X88167637Y-50361217D01*
X87933988Y-50710898D01*
X87773047Y-51099444D01*
X87691000Y-51511921D01*
X78821000Y-51511921D01*
X78738953Y-51099444D01*
X78578012Y-50710898D01*
X78344363Y-50361217D01*
X78046983Y-50063837D01*
X77798882Y-49898061D01*
X79165000Y-49898061D01*
X79165000Y-50101939D01*
X79204774Y-50301898D01*
X79282795Y-50490256D01*
X79396063Y-50659774D01*
X79540226Y-50803937D01*
X79709744Y-50917205D01*
X79898102Y-50995226D01*
X80098061Y-51035000D01*
X80301939Y-51035000D01*
X80501898Y-50995226D01*
X80690256Y-50917205D01*
X80859774Y-50803937D01*
X81003937Y-50659774D01*
X81117205Y-50490256D01*
X81195226Y-50301898D01*
X81235000Y-50101939D01*
X81235000Y-49898061D01*
X85515000Y-49898061D01*
X85515000Y-50101939D01*
X85554774Y-50301898D01*
X85632795Y-50490256D01*
X85746063Y-50659774D01*
X85890226Y-50803937D01*
X86059744Y-50917205D01*
X86248102Y-50995226D01*
X86448061Y-51035000D01*
X86651939Y-51035000D01*
X86851898Y-50995226D01*
X87040256Y-50917205D01*
X87209774Y-50803937D01*
X87353937Y-50659774D01*
X87467205Y-50490256D01*
X87545226Y-50301898D01*
X87585000Y-50101939D01*
X87585000Y-49898061D01*
X87545226Y-49698102D01*
X87467205Y-49509744D01*
X87353937Y-49340226D01*
X87340172Y-49326461D01*
X95675600Y-49326461D01*
X95675600Y-49530339D01*
X95715374Y-49730298D01*
X95793395Y-49918656D01*
X95906663Y-50088174D01*
X96050826Y-50232337D01*
X96220344Y-50345605D01*
X96408702Y-50423626D01*
X96608661Y-50463400D01*
X96812539Y-50463400D01*
X97012498Y-50423626D01*
X97200856Y-50345605D01*
X97370374Y-50232337D01*
X97514537Y-50088174D01*
X97627805Y-49918656D01*
X97705826Y-49730298D01*
X97745600Y-49530339D01*
X97745600Y-49428061D01*
X99930000Y-49428061D01*
X99930000Y-49631939D01*
X99969774Y-49831898D01*
X100047795Y-50020256D01*
X100161063Y-50189774D01*
X100305226Y-50333937D01*
X100474744Y-50447205D01*
X100663102Y-50525226D01*
X100863061Y-50565000D01*
X101066939Y-50565000D01*
X101266898Y-50525226D01*
X101455256Y-50447205D01*
X101624774Y-50333937D01*
X101768937Y-50189774D01*
X101882205Y-50020256D01*
X101960226Y-49831898D01*
X102000000Y-49631939D01*
X102000000Y-49428061D01*
X101960226Y-49228102D01*
X101882205Y-49039744D01*
X101768937Y-48870226D01*
X101624774Y-48726063D01*
X101455256Y-48612795D01*
X101266898Y-48534774D01*
X101066939Y-48495000D01*
X100863061Y-48495000D01*
X100663102Y-48534774D01*
X100474744Y-48612795D01*
X100305226Y-48726063D01*
X100161063Y-48870226D01*
X100047795Y-49039744D01*
X99969774Y-49228102D01*
X99930000Y-49428061D01*
X97745600Y-49428061D01*
X97745600Y-49326461D01*
X97705826Y-49126502D01*
X97627805Y-48938144D01*
X97514537Y-48768626D01*
X97370374Y-48624463D01*
X97200856Y-48511195D01*
X97012498Y-48433174D01*
X96812539Y-48393400D01*
X96608661Y-48393400D01*
X96408702Y-48433174D01*
X96220344Y-48511195D01*
X96050826Y-48624463D01*
X95906663Y-48768626D01*
X95793395Y-48938144D01*
X95715374Y-49126502D01*
X95675600Y-49326461D01*
X87340172Y-49326461D01*
X87209774Y-49196063D01*
X87040256Y-49082795D01*
X86851898Y-49004774D01*
X86651939Y-48965000D01*
X86448061Y-48965000D01*
X86248102Y-49004774D01*
X86059744Y-49082795D01*
X85890226Y-49196063D01*
X85746063Y-49340226D01*
X85632795Y-49509744D01*
X85554774Y-49698102D01*
X85515000Y-49898061D01*
X81235000Y-49898061D01*
X81195226Y-49698102D01*
X81117205Y-49509744D01*
X81003937Y-49340226D01*
X80859774Y-49196063D01*
X80690256Y-49082795D01*
X80501898Y-49004774D01*
X80301939Y-48965000D01*
X80098061Y-48965000D01*
X79898102Y-49004774D01*
X79709744Y-49082795D01*
X79540226Y-49196063D01*
X79396063Y-49340226D01*
X79282795Y-49509744D01*
X79204774Y-49698102D01*
X79165000Y-49898061D01*
X77798882Y-49898061D01*
X77697302Y-49830188D01*
X77308756Y-49669247D01*
X76896279Y-49587200D01*
X76475721Y-49587200D01*
X76063244Y-49669247D01*
X75674698Y-49830188D01*
X75325017Y-50063837D01*
X75027637Y-50361217D01*
X74793988Y-50710898D01*
X74633047Y-51099444D01*
X74551000Y-51511921D01*
X74117668Y-51511921D01*
X74154400Y-51327260D01*
X74154400Y-51034740D01*
X74097332Y-50747842D01*
X73985390Y-50477589D01*
X73822875Y-50234368D01*
X73616032Y-50027525D01*
X73441640Y-49911000D01*
X73616032Y-49794475D01*
X73822875Y-49587632D01*
X73985390Y-49344411D01*
X74097332Y-49074158D01*
X74154400Y-48787260D01*
X74154400Y-48494740D01*
X74097332Y-48207842D01*
X73985390Y-47937589D01*
X73822875Y-47694368D01*
X73616032Y-47487525D01*
X73372811Y-47325010D01*
X73102558Y-47213068D01*
X72815660Y-47156000D01*
X72523140Y-47156000D01*
X72236242Y-47213068D01*
X71965989Y-47325010D01*
X71722768Y-47487525D01*
X71590913Y-47619380D01*
X71568902Y-47546820D01*
X71509937Y-47436506D01*
X71430585Y-47339815D01*
X71333894Y-47260463D01*
X71223580Y-47201498D01*
X71103882Y-47165188D01*
X70979400Y-47152928D01*
X70415150Y-47156000D01*
X70256400Y-47314750D01*
X70256400Y-48514000D01*
X70276400Y-48514000D01*
X70276400Y-48768000D01*
X70256400Y-48768000D01*
X70256400Y-48788000D01*
X70002400Y-48788000D01*
X70002400Y-48768000D01*
X69982400Y-48768000D01*
X69982400Y-48514000D01*
X70002400Y-48514000D01*
X70002400Y-47314750D01*
X69843650Y-47156000D01*
X69621000Y-47154788D01*
X69621000Y-46300546D01*
X69886017Y-46565563D01*
X70235698Y-46799212D01*
X70624244Y-46960153D01*
X71036721Y-47042200D01*
X71457279Y-47042200D01*
X71869756Y-46960153D01*
X72258302Y-46799212D01*
X72505468Y-46634061D01*
X81769000Y-46634061D01*
X81769000Y-46837939D01*
X81808774Y-47037898D01*
X81886795Y-47226256D01*
X82000063Y-47395774D01*
X82144226Y-47539937D01*
X82313744Y-47653205D01*
X82502102Y-47731226D01*
X82702061Y-47771000D01*
X82905939Y-47771000D01*
X83105898Y-47731226D01*
X83294256Y-47653205D01*
X83312000Y-47641349D01*
X83329744Y-47653205D01*
X83518102Y-47731226D01*
X83718061Y-47771000D01*
X83921939Y-47771000D01*
X84121898Y-47731226D01*
X84310256Y-47653205D01*
X84479774Y-47539937D01*
X84623937Y-47395774D01*
X84737205Y-47226256D01*
X84815226Y-47037898D01*
X84855000Y-46837939D01*
X84855000Y-46634061D01*
X84815226Y-46434102D01*
X84737205Y-46245744D01*
X84623937Y-46076226D01*
X84479774Y-45932063D01*
X84310256Y-45818795D01*
X84121898Y-45740774D01*
X83921939Y-45701000D01*
X83718061Y-45701000D01*
X83518102Y-45740774D01*
X83329744Y-45818795D01*
X83312000Y-45830651D01*
X83294256Y-45818795D01*
X83105898Y-45740774D01*
X82905939Y-45701000D01*
X82702061Y-45701000D01*
X82502102Y-45740774D01*
X82313744Y-45818795D01*
X82144226Y-45932063D01*
X82000063Y-46076226D01*
X81886795Y-46245744D01*
X81808774Y-46434102D01*
X81769000Y-46634061D01*
X72505468Y-46634061D01*
X72607983Y-46565563D01*
X72905363Y-46268183D01*
X73139012Y-45918502D01*
X73299953Y-45529956D01*
X73382000Y-45117479D01*
X73382000Y-44696921D01*
X73337870Y-44475061D01*
X92945000Y-44475061D01*
X92945000Y-44678939D01*
X92984774Y-44878898D01*
X93062795Y-45067256D01*
X93176063Y-45236774D01*
X93320226Y-45380937D01*
X93489744Y-45494205D01*
X93678102Y-45572226D01*
X93878061Y-45612000D01*
X94081939Y-45612000D01*
X94281898Y-45572226D01*
X94470256Y-45494205D01*
X94553600Y-45438516D01*
X94553600Y-45482378D01*
X94570385Y-45652799D01*
X94636715Y-45871459D01*
X94744429Y-46072978D01*
X94889388Y-46249612D01*
X95066021Y-46394571D01*
X95267540Y-46502285D01*
X95486200Y-46568615D01*
X95713600Y-46591012D01*
X95940999Y-46568615D01*
X96159659Y-46502285D01*
X96361178Y-46394571D01*
X96537812Y-46249612D01*
X96682771Y-46072979D01*
X96790485Y-45871460D01*
X96856815Y-45652800D01*
X96873600Y-45482379D01*
X96873600Y-44518422D01*
X101703600Y-44518422D01*
X101703600Y-45482379D01*
X101720385Y-45652800D01*
X101786715Y-45871460D01*
X101894430Y-46072979D01*
X102039389Y-46249612D01*
X102216022Y-46394571D01*
X102417541Y-46502285D01*
X102636201Y-46568615D01*
X102863600Y-46591012D01*
X103091000Y-46568615D01*
X103309660Y-46502285D01*
X103511179Y-46394571D01*
X103687812Y-46249612D01*
X103832771Y-46072979D01*
X103940485Y-45871460D01*
X104006815Y-45652800D01*
X104023600Y-45482378D01*
X104023600Y-44518421D01*
X104006815Y-44348000D01*
X103940485Y-44129340D01*
X103832771Y-43927821D01*
X103687812Y-43751188D01*
X103511178Y-43606229D01*
X103309659Y-43498515D01*
X103090999Y-43432185D01*
X102863600Y-43409788D01*
X102636200Y-43432185D01*
X102417540Y-43498515D01*
X102216021Y-43606229D01*
X102039388Y-43751188D01*
X101894429Y-43927822D01*
X101786715Y-44129341D01*
X101720385Y-44348001D01*
X101703600Y-44518422D01*
X96873600Y-44518422D01*
X96856815Y-44348000D01*
X96790485Y-44129340D01*
X96682771Y-43927821D01*
X96537812Y-43751188D01*
X96361179Y-43606229D01*
X96159660Y-43498515D01*
X95941000Y-43432185D01*
X95713600Y-43409788D01*
X95486201Y-43432185D01*
X95267541Y-43498515D01*
X95066022Y-43606229D01*
X94889389Y-43751188D01*
X94767014Y-43900303D01*
X94639774Y-43773063D01*
X94470256Y-43659795D01*
X94281898Y-43581774D01*
X94081939Y-43542000D01*
X93878061Y-43542000D01*
X93678102Y-43581774D01*
X93489744Y-43659795D01*
X93320226Y-43773063D01*
X93176063Y-43917226D01*
X93062795Y-44086744D01*
X92984774Y-44275102D01*
X92945000Y-44475061D01*
X73337870Y-44475061D01*
X73299953Y-44284444D01*
X73139012Y-43895898D01*
X72905363Y-43546217D01*
X72640374Y-43281228D01*
X105260666Y-43281788D01*
M02*
