M48
; DRILL file {KiCad 5.1.6} date Mon Jun 22 00:19:29 2020
; FORMAT={-:-/ absolute / inch / decimal}
; #@! TF.CreationDate,2020-06-22T00:19:29+03:00
; #@! TF.GenerationSoftware,Kicad,Pcbnew,5.1.6
FMAT,2
INCH
T1C0.0157
T2C0.0177
T3C0.0362
T4C0.0394
T5C0.0906
T6C0.1181
%
G90
G05
T1
X2.97Y-2.56
X2.97Y-2.79
X2.9843Y-1.7697
X3.0276Y-2.9331
X3.03Y-2.73
X3.04Y-2.56
X3.1181Y-2.9331
X3.135Y-1.975
X3.1535Y-2.9567
X3.1811Y-2.252
X3.26Y-1.84
X3.3Y-1.84
X3.347Y-2.315
X3.3858Y-2.7638
X3.4Y-2.364
X3.4134Y-3.0354
X3.4764Y-2.4055
X3.495Y-1.8
X3.5Y-3.0354
X3.5453Y-2.689
X3.5748Y-2.5906
X3.5867Y-2.689
X3.5984Y-3.0374
X3.658Y-2.182
X3.66Y-2.466
X3.6693Y-2.248
X3.7Y-1.755
X3.7254Y-2.3248
X3.729Y-2.587
X3.77Y-2.66
X3.7913Y-2.6969
X3.8Y-2.63
X3.8075Y-1.946
X3.808Y-2.291
X3.8661Y-3.0
X3.9213Y-2.9941
X3.93Y-2.52
X3.935Y-2.9469
X3.975Y-1.95
X3.975Y-2.226
X3.977Y-2.28
X4.015Y-2.58
X4.039Y-2.049
X4.048Y-2.155
T3
X3.14Y-2.143
X3.2384Y-2.143
X3.3172Y-2.143
X3.4156Y-2.143
T4
X2.761Y-1.915
X2.761Y-2.015
X2.761Y-2.115
X2.761Y-2.215
X2.761Y-2.315
X2.761Y-2.415
X2.761Y-2.515
X2.761Y-2.615
X2.761Y-2.715
X2.761Y-2.815
X2.761Y-2.915
X2.761Y-3.015
X2.861Y-1.915
X2.861Y-2.015
X2.861Y-2.115
X2.861Y-2.215
X2.861Y-2.315
X2.861Y-2.415
X2.861Y-2.515
X2.861Y-2.615
X2.861Y-2.715
X2.861Y-2.815
X2.861Y-2.915
X2.861Y-3.015
X4.139Y-1.915
X4.139Y-2.015
X4.139Y-2.115
X4.139Y-2.215
X4.139Y-2.315
X4.139Y-2.415
X4.139Y-2.515
X4.139Y-2.615
X4.139Y-2.715
X4.139Y-2.815
X4.139Y-2.915
X4.139Y-3.015
X4.239Y-1.915
X4.239Y-2.015
X4.239Y-2.115
X4.239Y-2.215
X4.239Y-2.315
X4.239Y-2.415
X4.239Y-2.515
X4.239Y-2.615
X4.239Y-2.715
X4.239Y-2.815
X4.239Y-2.915
X4.239Y-3.015
X3.05Y-3.1
X3.05Y-3.2
X3.15Y-3.1
X3.15Y-3.2
X3.25Y-3.1
X3.25Y-3.2
X3.35Y-3.1
X3.35Y-3.2
X3.45Y-3.1
X3.45Y-3.2
X3.55Y-3.1
X3.55Y-3.2
X3.65Y-3.1
X3.65Y-3.2
X3.75Y-3.1
X3.75Y-3.2
X3.85Y-3.1
X3.85Y-3.2
X3.95Y-3.1
X3.95Y-3.2
T5
X3.0191Y-2.0363
X3.5365Y-2.0363
T6
X4.199Y-3.162
X4.199Y-1.768
X2.805Y-3.162
X2.805Y-1.768
T2
G00X3.7683Y-1.7874
M15
G01X3.7683Y-1.7559
M16
G05
G00X4.0497Y-1.7559
M15
G01X4.0497Y-1.7874
M16
G05
T0
M30
